<svg xmlns="http://www.w3.org/2000/svg" viewBox="-14.77 124.87 325.36 325.36"><path fill="#E65700" d="M84.98,348.36L91.44,337.11C90.68,338.44 151.83,346.20 189.36,340.38L207.16,370.78L232.86,327.49C258.21,318.90 279.80,303.74 301.38,286.44C292.44,365.72 227.69,425.14 151.26,426.51C72.13,427.91 3.80,371.20 -5.56,290.41L22.84,308.00C44.08,321.15 60.77,319.49 74.98,358.04C76.39,358.45 82.57,352.57 84.98,348.36"/><path fill="#E65700" d="M282.82,246.07L177.31,216.59L251.80,149.04Z"/><path fill="#E65700" d="M102.62,223.57L-5.03,240.48L35.46,148.60L72.72,190.15Z"/><path fill="#E65700" d="M163.42,298.12L122.99,297.67L143.43,264.71Z"/></svg>
