<?xml version="1.0" encoding="UTF-8"?>
<svg id="_圖層_1" xmlns="http://www.w3.org/2000/svg" version="1.1" viewBox="0 0 1000 1000">
  <!-- Generator: Adobe Illustrator 30.2.1, SVG Export Plug-In . SVG Version: 2.1.1 Build 1)  -->
  <path d="M438.132,88.478c0,22.158-17.964,40.123-40.124,40.123s-40.123-17.964-40.123-40.123,17.962-40.124,40.123-40.124,40.124,17.964,40.124,40.124Z" fill="#ffcd48"/>
  <path d="M540.124,88.478c0,22.158-17.964,40.123-40.124,40.123s-40.123-17.964-40.123-40.123,17.964-40.124,40.123-40.124,40.124,17.964,40.124,40.124Z" fill="#ffcd48"/>
  <path d="M642.116,88.478c0,22.158-17.964,40.123-40.124,40.123s-40.123-17.964-40.123-40.123,17.964-40.124,40.123-40.124,40.124,17.964,40.124,40.124Z" fill="#ffcd48"/>
  <g>
    <path d="M234.147,191.359c0,22.158-17.964,40.123-40.123,40.123s-40.124-17.964-40.124-40.123,17.964-40.124,40.124-40.124,40.123,17.964,40.123,40.124Z" fill="#ffcd48"/>
    <path d="M336.139,191.359c0,22.158-17.964,40.123-40.123,40.123s-40.124-17.964-40.124-40.123,17.964-40.124,40.124-40.124,40.123,17.964,40.123,40.124Z" fill="#ffcd48"/>
    <path d="M438.132,191.359c0,22.158-17.964,40.123-40.124,40.123s-40.123-17.964-40.123-40.123,17.962-40.124,40.123-40.124,40.124,17.964,40.124,40.124Z" fill="#ffcd48"/>
    <path d="M540.124,191.359c0,22.158-17.964,40.123-40.124,40.123s-40.123-17.964-40.123-40.123,17.964-40.124,40.123-40.124,40.124,17.964,40.124,40.124Z" fill="#ffcd48"/>
    <path d="M642.116,191.359c0,22.158-17.964,40.123-40.124,40.123s-40.123-17.964-40.123-40.123,17.964-40.124,40.123-40.124,40.124,17.964,40.124,40.124Z" fill="#ffcd48"/>
    <path d="M744.108,191.359c0,22.158-17.964,40.123-40.123,40.123s-40.124-17.964-40.124-40.123,17.964-40.124,40.124-40.124,40.123,17.964,40.123,40.124Z" fill="#ffcd48"/>
    <path d="M846.1,191.359c0,22.158-17.962,40.123-40.123,40.123s-40.124-17.964-40.124-40.123,17.964-40.124,40.124-40.124,40.123,17.964,40.123,40.124Z" fill="#ffcd48"/>
  </g>
  <path d="M234.147,294.24c0,22.158-17.964,40.123-40.123,40.123s-40.124-17.964-40.124-40.123,17.964-40.124,40.124-40.124,40.123,17.964,40.123,40.124Z" fill="#ffcd48"/>
  <path d="M336.139,294.24c0,22.158-17.964,40.123-40.123,40.123s-40.124-17.964-40.124-40.123,17.964-40.124,40.124-40.124,40.123,17.964,40.123,40.124Z" fill="#ffcd48"/>
  <path d="M744.108,294.24c0,22.158-17.964,40.123-40.123,40.123s-40.124-17.964-40.124-40.123,17.964-40.124,40.124-40.124,40.123,17.964,40.123,40.124Z" fill="#ffcd48"/>
  <path d="M846.1,294.24c0,22.158-17.962,40.123-40.123,40.123s-40.124-17.964-40.124-40.123,17.964-40.124,40.124-40.124,40.123,17.964,40.123,40.124Z" fill="#ffcd48"/>
  <path d="M234.147,397.119c0,22.16-17.964,40.124-40.123,40.124s-40.124-17.964-40.124-40.124,17.964-40.123,40.124-40.123,40.123,17.964,40.123,40.123Z" fill="#ffcd48"/>
  <path d="M336.139,397.119c0,22.16-17.964,40.124-40.123,40.124s-40.124-17.964-40.124-40.124,17.964-40.123,40.124-40.123,40.123,17.964,40.123,40.123Z" fill="#ffcd48"/>
  <path d="M744.108,397.119c0,22.16-17.964,40.124-40.123,40.124s-40.124-17.964-40.124-40.124,17.964-40.123,40.124-40.123,40.123,17.964,40.123,40.123Z" fill="#ffcd48"/>
  <path d="M846.1,397.119c0,22.16-17.962,40.124-40.123,40.124s-40.124-17.964-40.124-40.124,17.964-40.123,40.124-40.123,40.123,17.964,40.123,40.123Z" fill="#ffcd48"/>
  <path d="M234.147,499.999c0,22.16-17.964,40.124-40.123,40.124s-40.124-17.964-40.124-40.124,17.964-40.123,40.124-40.123,40.123,17.964,40.123,40.123Z" fill="#ffcd48"/>
  <path d="M336.139,499.999c0,22.16-17.964,40.124-40.123,40.124s-40.124-17.964-40.124-40.124,17.964-40.123,40.124-40.123,40.123,17.964,40.123,40.123Z" fill="#ffcd48"/>
  <path d="M744.108,499.999c0,22.16-17.964,40.124-40.123,40.124s-40.124-17.964-40.124-40.124,17.964-40.123,40.124-40.123,40.123,17.964,40.123,40.123Z" fill="#ffcd48"/>
  <path d="M846.1,499.999c0,22.16-17.962,40.124-40.123,40.124s-40.124-17.964-40.124-40.124,17.964-40.123,40.124-40.123,40.123,17.964,40.123,40.123Z" fill="#ffcd48"/>
  <path d="M234.147,602.88c0,22.16-17.964,40.124-40.123,40.124s-40.124-17.964-40.124-40.124,17.964-40.123,40.124-40.123,40.123,17.964,40.123,40.123Z" fill="#ffcd48"/>
  <path d="M336.139,602.88c0,22.16-17.964,40.124-40.123,40.124s-40.124-17.964-40.124-40.124,17.964-40.123,40.124-40.123,40.123,17.964,40.123,40.123Z" fill="#ffcd48"/>
  <path d="M744.108,602.88c0,22.16-17.964,40.124-40.123,40.124s-40.124-17.964-40.124-40.124,17.964-40.123,40.124-40.123,40.123,17.964,40.123,40.123Z" fill="#ffcd48"/>
  <path d="M846.1,602.88c0,22.16-17.962,40.124-40.123,40.124s-40.124-17.964-40.124-40.124,17.964-40.123,40.124-40.123,40.123,17.964,40.123,40.123Z" fill="#ffcd48"/>
  <path d="M234.147,705.76c0,22.16-17.964,40.124-40.123,40.124s-40.124-17.964-40.124-40.124,17.964-40.123,40.124-40.123,40.123,17.964,40.123,40.123Z" fill="#ffcd48"/>
  <path d="M336.139,705.76c0,22.16-17.964,40.124-40.123,40.124s-40.124-17.964-40.124-40.124,17.964-40.123,40.124-40.123,40.123,17.964,40.123,40.123Z" fill="#ffcd48"/>
  <path d="M744.108,705.76c0,22.16-17.964,40.124-40.123,40.124s-40.124-17.964-40.124-40.124,17.964-40.123,40.124-40.123,40.123,17.964,40.123,40.123Z" fill="#ffcd48"/>
  <path d="M846.1,705.76c0,22.16-17.962,40.124-40.123,40.124s-40.124-17.964-40.124-40.124,17.964-40.123,40.124-40.123,40.123,17.964,40.123,40.123Z" fill="#ffcd48"/>
  <g>
    <path d="M234.147,808.641c0,22.16-17.964,40.124-40.123,40.124s-40.124-17.964-40.124-40.124,17.964-40.123,40.124-40.123,40.123,17.964,40.123,40.123Z" fill="#ffcd48"/>
    <path d="M336.139,808.641c0,22.16-17.964,40.124-40.123,40.124s-40.124-17.964-40.124-40.124,17.964-40.123,40.124-40.123,40.123,17.964,40.123,40.123Z" fill="#ffcd48"/>
    <path d="M438.132,808.641c0,22.16-17.964,40.124-40.124,40.124s-40.123-17.964-40.123-40.124,17.962-40.123,40.123-40.123,40.124,17.964,40.124,40.123Z" fill="#ffcd48"/>
    <path d="M540.124,808.641c0,22.16-17.964,40.124-40.124,40.124s-40.123-17.964-40.123-40.124,17.964-40.123,40.123-40.123,40.124,17.964,40.124,40.123Z" fill="#ffcd48"/>
    <path d="M642.116,808.641c0,22.16-17.964,40.124-40.124,40.124s-40.123-17.964-40.123-40.124,17.964-40.123,40.123-40.123,40.124,17.964,40.124,40.123Z" fill="#ffcd48"/>
    <path d="M744.108,808.641c0,22.16-17.964,40.124-40.123,40.124s-40.124-17.964-40.124-40.124,17.964-40.123,40.124-40.123,40.123,17.964,40.123,40.123Z" fill="#ffcd48"/>
    <path d="M846.1,808.641c0,22.16-17.962,40.124-40.123,40.124s-40.124-17.964-40.124-40.124,17.964-40.123,40.124-40.123,40.123,17.964,40.123,40.123Z" fill="#ffcd48"/>
  </g>
  <path d="M438.132,911.522c0,22.16-17.964,40.124-40.124,40.124s-40.123-17.964-40.123-40.124,17.962-40.123,40.123-40.123,40.124,17.964,40.124,40.123Z" fill="#ffcd48"/>
  <path d="M540.124,911.522c0,22.16-17.964,40.124-40.124,40.124s-40.123-17.964-40.123-40.124,17.964-40.123,40.123-40.123,40.124,17.964,40.124,40.123Z" fill="#ffcd48"/>
  <path d="M642.116,911.522c0,22.16-17.964,40.124-40.124,40.124s-40.123-17.964-40.123-40.124,17.964-40.123,40.123-40.123,40.124,17.964,40.124,40.123Z" fill="#ffcd48"/>
  <metadata><?xpacket begin="﻿" id="W5M0MpCehiHzreSzNTczkc9d"?>
<x:xmpmeta xmlns:x="adobe:ns:meta/" x:xmptk="Adobe XMP Core 10.0-c000 1.000000, 0000/00/00-00:00:00        ">
   <rdf:RDF xmlns:rdf="http://www.w3.org/1999/02/22-rdf-syntax-ns#">
      <rdf:Description rdf:about=""
            xmlns:xmp="http://ns.adobe.com/xap/1.0/"
            xmlns:xmpGImg="http://ns.adobe.com/xap/1.0/g/img/"
            xmlns:xmpTPg="http://ns.adobe.com/xap/1.0/t/pg/"
            xmlns:stDim="http://ns.adobe.com/xap/1.0/sType/Dimensions#"
            xmlns:xmpG="http://ns.adobe.com/xap/1.0/g/"
            xmlns:dc="http://purl.org/dc/elements/1.1/"
            xmlns:xmpMM="http://ns.adobe.com/xap/1.0/mm/"
            xmlns:stRef="http://ns.adobe.com/xap/1.0/sType/ResourceRef#"
            xmlns:stEvt="http://ns.adobe.com/xap/1.0/sType/ResourceEvent#">
         <xmp:CreatorTool>Adobe Illustrator 30.2 (Macintosh)</xmp:CreatorTool>
         <xmp:CreateDate>2026-03-13T11:22:39+08:00</xmp:CreateDate>
         <xmp:MetadataDate>2026-03-13T11:22:39+08:00</xmp:MetadataDate>
         <xmp:ModifyDate>2026-03-13T11:22:39+08:00</xmp:ModifyDate>
         <xmp:Thumbnails>
            <rdf:Alt>
               <rdf:li rdf:parseType="Resource">
                  <xmpGImg:width>196</xmpGImg:width>
                  <xmpGImg:height>256</xmpGImg:height>
                  <xmpGImg:format>JPEG</xmpGImg:format>
                  <xmpGImg:image>/9j/4AAQSkZJRgABAgEAAAAAAAD/7QAsUGhvdG9zaG9wIDMuMAA4QklNA+0AAAAAABAAAAAAAAEA&#xA;AQAAAAAAAQAB/+4ADkFkb2JlAGTAAAAAAf/bAIQABgQEBAUEBgUFBgkGBQYJCwgGBggLDAoKCwoK&#xA;DBAMDAwMDAwQDA4PEA8ODBMTFBQTExwbGxscHx8fHx8fHx8fHwEHBwcNDA0YEBAYGhURFRofHx8f&#xA;Hx8fHx8fHx8fHx8fHx8fHx8fHx8fHx8fHx8fHx8fHx8fHx8fHx8fHx8fHx8f/8AAEQgBAADEAwER&#xA;AAIRAQMRAf/EAaIAAAAHAQEBAQEAAAAAAAAAAAQFAwIGAQAHCAkKCwEAAgIDAQEBAQEAAAAAAAAA&#xA;AQACAwQFBgcICQoLEAACAQMDAgQCBgcDBAIGAnMBAgMRBAAFIRIxQVEGE2EicYEUMpGhBxWxQiPB&#xA;UtHhMxZi8CRygvElQzRTkqKyY3PCNUQnk6OzNhdUZHTD0uIIJoMJChgZhJRFRqS0VtNVKBry4/PE&#xA;1OT0ZXWFlaW1xdXl9WZ2hpamtsbW5vY3R1dnd4eXp7fH1+f3OEhYaHiImKi4yNjo+Ck5SVlpeYmZ&#xA;qbnJ2en5KjpKWmp6ipqqusra6voRAAICAQIDBQUEBQYECAMDbQEAAhEDBCESMUEFURNhIgZxgZEy&#xA;obHwFMHR4SNCFVJicvEzJDRDghaSUyWiY7LCB3PSNeJEgxdUkwgJChgZJjZFGidkdFU38qOzwygp&#xA;0+PzhJSktMTU5PRldYWVpbXF1eX1RlZmdoaWprbG1ub2R1dnd4eXp7fH1+f3OEhYaHiImKi4yNjo&#xA;+DlJWWl5iZmpucnZ6fkqOkpaanqKmqq6ytrq+v/aAAwDAQACEQMRAD8A9U4q7FXYq7FXYq7FXYqk&#xA;uv6vJbkW1ueMrCsj91B6Ae+aLtbtGWP93D6up7nN0unEvUeTGnd3Ys7FmPVianOXlIyNk2XZgAck&#xA;z0jWp7aVY5nL2zGh5b8a9wc2vZ/ac8UhGRuH3ONqNMJCxzZWzqql2NFUVJ8AM6+UgBZ5OpAth+p6&#xA;xc3kjBWKW9fhjG1R4t45xet7RnmkaNQ7v1u4w6eMB5oKOWSJg8blGHQqaH8MwIZJRNxNFvMQebKd&#xA;C1V7yNopjWeMV5fzL0rnW9la85gYy+uP2h1WqwcBscir6xqQsbbkoBmkNIwenuT8sv7R1vgQsfUe&#xA;TXp8PHLyYjPczzuXmkLse5P6s43LmnkNyNl3EYCIoBWsdTurOQNG5KftRE/CRl+l12TCbidu7owy&#xA;4YzG7Mra4juIEmj+w4qP6Z22DMMkBMci6WcDE0VTLWLsVdirsVdirsVdirsVdirsVdirsVdirsVY&#xA;drwYarPy78SPlxGcT2sCNRK/L7g7nS/3YQGa5yHYqzO8SX9DyJ/uwQ0b6F3zuNTGX5Yj+Lg/Ru6X&#xA;GR4g7rYZnDu6diqa+Wgx1Ko6BG5fLbNx2ID4/wAC4mt+j4onzWG9W3b9niwHzqK5k9vg8UD0oteg&#xA;5FIc55z3Yqy7y8rjS4+XQlivyrnZ9jgjTi/P73T6s/vCmWbRxnYq7FXYq7FXYq7FXYq7FXYq7FXY&#xA;q7FXYqlms6OL5RJGQs6Cgr0YeBzVdpdneOOKO0x9rlabUcGx5MdfSNTVipt3JHcCo+8ZzUuzs4Nc&#xA;BdiNRA9Uz0ny/KJVnvAFVDVYq1JI6Vp2za9n9kSEhPLtXT9bi6jViqiyIiux6Z0rrmM6l5duEkaS&#xA;0X1ImNfTH2l9t+ozldb2POMjLGLj3dQ7TDqwRUuaBj0fU5GCi3ZfdhxH3nMCHZueRrhPx2bzqIDq&#xA;yXSNLWwhNSGmenqMOm3YZ1PZ+gGnjvvI83WajP4h8lbUbCK9tzE+x6o/gcu1mkjnhwn4FhhymErD&#xA;Fp9E1KFyvomQdmT4gc5LL2Xnga4b927tY6mBHNWsfL95PIDOphhH2iftH5DL9L2PlmfWOGP2teXV&#xA;xiNtyyqKNIo1jQcUQAKPYZ10ICEREcg6qRJNldkkOxV2KuxV2KuxV2KqN1e21rHzncID0HUn5AZR&#xA;qNTjwi5mmePHKZoBL18zaaX4kSAfzFRT8DXNcO3MBNer5ftcg6KfkmcE8M8YkhcOh6MM2mLLHJHi&#xA;ibDjSiYmivyxigLvXNPtXMbOXkH2lQVp9OwzXajtTDiNE2fJyMemnIWttdf064cIGMbHoJBSv0gk&#xA;ZHB2tgyGr4T5pnpZxF80xzZuMtlljijMkjBEXqx2GQyZIwFyNBMYkmglb+ZtNV+IEjj+YKKfiQc1&#xA;Uu28ANeo/D9rlDRT8kdaX9pdqWgkDU+0vRh8wcz9Pq8eYXA20ZMUocwiMyWtC3up2dmB6z0Y7hBu&#xA;x+jMTU63Fh+s793Vtx4ZT5BCReZdNd+J5x/5TKKfgTmHj7bwSNGx7x+q26WjmPNNEdHUOjBlbcMN&#xA;wc2sZCQsbhxSK5tk03PTJISy48xabC5UM0pHUxgEfeSM1WbtjBA1Zl7nKhpJnyVrPWLG7bhG/GQ9&#xA;EcUJ+XY5fpu0cOY1E79xYZNPOG55I3M5oUrm6t7aP1J3CL2r1PyHfKc2eGKPFM0GcIGRoJd/ibTu&#xA;fGklP5uIp+uua3+XMF16vl+1yPyU/JMre5guYxJA4dD3Hb5jNnhzwyx4oGw404GJoqmWsUFeazYW&#xA;jFJHLSDqiCpHz7ZgantLDhNSNy7g349NOe45KVv5h02ZwnJoienqCg+8EjKsPbGCZqzH3sp6ScfN&#xA;Mqile3jm0txmD6hePd3TzMdiaIPBR0GcFrNSc2QyPw9zvcWMQjSHzFbEy0C8eC/SOp9KY8WX37HN&#xA;r2RqTjzCP8Mtv1OLq8YlC+oT7Xbx7WwJjNJJCEU9xWpJ+4Z0HaupOLDceZ2cDS4xKe/Rh+cU7l2K&#xA;sr8u3j3FkUkNXhPGp6lT0zsOxtScmKjzjt8OjqdZjEZWOqV+ZLx5bw24P7qGm3ixFSfxzU9takyy&#xA;8H8MfvcrR4wI8XUpRmlcxVtLqW1uEmjNGU7jsR3By/T55YpiUejDJASFFms1ykdo9yN1VC4HjtUZ&#xA;3OXOI4zk6VbpIwuXCwiaaSaVpZG5O5qxOcHkySnIykbJd5GIiKCzK2Se+WLxxM9oxqjAug8COv35&#xA;0HYWpPEcZ5cw4GtxiuJE+Zrx44I7dDT1qlz/AJI7fTmV25qTGAgP4ufua9FjBJkejGc5V2bgSpBB&#xA;oRuCPHCCQbCs10q7a6sIpW+3Ti/zU0r9Od1oNQcuESPPq6TPj4JkMX1e8e6vpCT8CEpGvYAGn45y&#xA;faOpOXKSeQ2DtNPjEYBBZgN6O0W8e2vo6H93KQki9iCaA/Rmw7M1JxZh3S2LRqcYlA94ZNq921rY&#xA;SSJtIaKh8C3f6M6ntHUHFhMhz5B1enx8cwCwskkkk1J3JOcOTbu3YFR/6XuP0Z9SqetOff0/5fvz&#xA;Y/yjPwPC+3y7vx0cf8uOPi/FoW7tntrmSBxuhp8x2P05iajCcUzA9G3HMSiCFLKWaP0O2ebUoio+&#xA;GI83PgB0/HNj2VhM88a5R3cfVTEYHzT3zFbPNp5ZBUwsHI9qEH9edB2zgM8Nj+E24GjmIz36sTzj&#xA;nbuxVlHlm2eOzeVhT1mqo/yV2rnW9h4THEZH+I/c6rWzBlXclfmK2eLUWkI+CYBlPuAARmo7ZwmG&#xA;cy6ScvRzBhXclealyl8MMk0qRRiruaKPnlmPGZyERzKJSAFlmtxa89Pe1XvHwX5gUGd1m0/FhOMf&#xA;zadHDJU+LzYQysrFWFGU0IPYjODlEg0ebvAbayKU68sWztdvPT4I1K18Wbt92b3sLCTkM+gH2lwt&#xA;bMCNIjzTbOyQ3CiqpVH9q9Mye3sBIjMchsWrQzFmLHc5l2TsVZlots9vp0SOKO1XYeHI1/VncdmY&#xA;DjwRB58/m6XUzEpkhi2pWz299NGw/aLKfFSag5yWtwnHllE9/wBjtcMxKAKGzEbUXpVs9xfwooqF&#xA;YO58FU1OZugwHJmiB32fcGnPPhgSybXbZ7jTpFQVdCHA8adfwzqe1cByYCBzG7rNLPhmLYdnEu5d&#xA;iqJ+oT/UPrlP3XPj9Hj8q7ZlflJ+D4v8N1+39DV4o4+HqyzUNLtb5R6oKuv2ZF6j2zsNXoMecern&#xA;3upxZ5Q5JYPKicviuSV8AlD99TmrHYAvee3u/a5X589yb2djb2cXpwLQHdmO5J9zm502lhhjwwDh&#xA;5Mspmyr5kNaT3flq0mcvC5gJ6qByX6Btml1HYmOZuJ4ftDmY9bICju1a+WLWNw00hmp0WnEfTucj&#xA;g7DxxNzPF9iZ62RGwpOQAAABQDYAZuwK2DhKN1aQXURimXkp3HiD4g5Vn08MseGYsM4ZDA2Enfyp&#xA;GW+C5IXwKAn7wRmkl2AL2nt7v2uaNeeoTDT9HtLL4kBeU7GRuv0eGbLR9nY8G43l3lxsuolPnyR2&#xA;Z7Ql+oaJaXjeoaxTd3Xv8xmt1nZePMeL6Zd4/S5GLUyhtzCCi8qRBqy3DOvgqhT95LZgw7AiD6p2&#xA;PdX62+WvPQJzBbwwRLFCoRF6AZvMWKOOPDEUA4UpmRsr3RJEKOoZGFGU7gjJSgJCjuCgEg2EluPK&#xA;1u7loZmiU/skcwPluM0ebsGBNxlw/b+pzYa4gbi1ax8vWls4kkYzSLuvIUUHxpvl+l7Hx4jxH1H7&#xA;Pkwy6uUhQ2TXNu4iFv8ATba9QLMDyX7LrswzE1eix5xUvn1bcWaUDslf+FE5V+snj4cN/vr/AAzU&#xA;fyAL+vb3ftcv8+e5NbHTrayjKQruftOd2PzzcaXR48EaiPj1cTLmlM7onMpqSm98uWlw5kjYwO3W&#xA;gqv3bZp9V2NjyG4nhP2fJy8eslEUd1K38rWyOGmlaUD9kDgD89zlWHsKETc5GX2M566RGwpOfSi9&#xA;L0uA9KnHhTanhTN14ceHhr09zhcRu+qVatry2jmCBQ84+0T9lfu6nNT2h2sMJ4IC5fYHL0+l4xZ5&#xA;JSvmPVA1SykfylRT8N8047a1F3Y+TlnR4090rV4r5SpHCdRVk7EeIzf9n9ox1ArlMdHAz6c4/cjp&#xA;ZY4o2kkPFEFWJ8BmfOYhEyOwDRGJJoMbu/M9y7kWyiOMdGYVY/wzmNR25kJ/djhH2uzx6KIHq3W2&#xA;vma8Rx9YVZY+9BxYfKm2RwduZYn1gSHyKz0USNtmSwTxTwrNEeSOKg51GLLHJESjyLrZRMTRX5Yx&#xA;dirsVdirsVdirsVdirsVdirsVSvVtbSyPpRqJLgipB6KPfNT2h2oMHpjvP7nK0+mM9zySb/Eeqcq&#xA;81p/LxFP65pP5Z1F3Y+Tm/k8adaTrUd7+6dfTuAK0HRh7ZvOz+0xn9JFT+/3OFqNMYbjkmTMqKWY&#xA;0VRViegAzaSkALPJxgLY5e+ZpmcraKEjHR2FWP0dBnMartyZNYxQ7y7LHohXqUrfzNfI49YLKncU&#xA;4n6CMqw9t5on1VIfJlPRQI22T79KWf1L65y/deHev8tPHOh/PYvC8W/T+Nve4HgS4uHqwySRpJGk&#xA;Y1ZyWY+5Nc4eczKRkeZd0BQpbkEozR5GTU7cqaVcKfk2xzO7OmY54V3/AHtOoFwKe+Z5HXT1Vejy&#xA;AN8gCafeM6DtyZGEAdZOBohc/gxbORdq7FWSeVZGNvNGfsowK/7Ib/qzqewZkwkOgP3us1w9QKeZ&#xA;vnBdirsVdirsVdirsVdirsVdirsVYLeyNJdzOxqzO1fvzz/UzMskie8u+xiogKOUM1fT5GjvoHXq&#xA;JF/E0IzJ0kzHLEj+cGvKLiR5Mm8xSOmmOF/bZVY+3X+GdT2zMxwGupAdZoxeRiWca7d2KrvWk9H0&#xA;a/u+XPj25UpXLPElw8P8N2jhF31R+s6XJaXDOqk27mqMOgr+ycz+0tDLDMkD0Hl+px9NnExXVLs1&#xA;jkp35e0uVp1vJVKxJvHX9o9K/IZvux9DIzGWQ9I5ebg6vOAOEc071Sy+uWbwg0f7UZPTkM3uu0vj&#xA;4jHr097g4MvBK2GTQywyNHKpR16qc4jJilCXDIUQ7qMhIWGo43kcJGpZ22CjcnBCBkaAspJAFlmG&#xA;j2BsrMI/9655yexPb6M7Xs3SeBio/Udy6bUZeOV9Edme0OxV2KuxV2KuxV2KuxV2KuxV2KsU13TJ&#xA;YLl7hFJglPKo/ZY9Qc5DtXQyxzMwPRL7HbaXOJRo8wlWady030DS5ZrhLmRSsER5KT+0w6U+Wbrs&#xA;nQynMZCPRH7S4eqzgR4RzLIb+0W7tJICaFh8LeBG4zpNXpxmxmHe67Fk4JAsLuLaa3lMUylXHj39&#xA;xnDZsMscuGQou7hMSFhYqs7BVBZjsANyTkIxJNDmkmk8/wAOy/outP8ATK8+PtT7Gb7+Rpfl/wDb&#xA;ef7HB/ODxP6LI2CkEMAQeoPTOmIBG7rQhEttJ9X4I4PU8AFrX5Zhxw6fi2EOL4NxnkrcmkXma0ux&#xA;VSuIrR1/0hUZR3kAoPvynNDHIesCvNnCUh9NtW0VkgJtljA7mMD9YwYMeID92I/ClnKR+q1bL2Ds&#xA;VdirsVdirsVdirsVdirsVdirsVcQCKHcHqMSFQn1bSfV/u4PU8KJX7swvB03FyhxfBu48lczSLAp&#xA;sOmZrS7FVOeO2dP9IVGQfzgEfjlWWEJD1gEebKJkDsstobBfitkjHi0YX9YyGDHhG+MR+FMpymfq&#xA;tXzIa2J61q8tzO8MbFbdDxoP2qdSc4/tPtCWWZjE+gfa7bTacRFnmleahy0+8v6tKZhZzsXVh+6Y&#xA;9QRvSudF2R2hIy8KZu+X6nX6vTiuIJzqN6tnaPORUjZF8WPTN3rNSMOMz+XvcPDj45Uw25up7mQy&#xA;TOXY+PQewHbOIzZ55ZcUjZdzCAiKC2CeaCQSQuUcdCMjiyyxy4omimURIUWY6Tfi9tBKRSRTxkA8&#xA;R3+nO27P1fj4+LryLps+LglXRGZmtLsVdirsVdirsVdirsVdirsVdirGNd1eaSd7aFisMZ4vTYsw&#xA;619s5TtXtCUpnHE1Ec/Mu00unAHEeaTZo3NTrQdXlSdLWZi0Unwxk7lW7D5HN72T2hKMxjkbieXk&#xA;XB1WnBHEObIL26S1tZJ23CDYeJOwH350epzjFjMz0dfjgZSAYXd3txdymSZyx7L2HsBnD6jUzzS4&#xA;pF3ePHGAoKcUskTh42KOOjA0OVQySgbiaLKUQRRT/wDxE36L57fXK+n7dK86f5750X8sn8vf+U5f&#xA;t/HV1/5P95X8LH3RkdkYUZSQw9xnOSiYkg8w7AGxbWRSi9IRm1O3CipDgn5Dc5m9nRJzwrvadQag&#xA;U980I7WCMPspIC30giudB27EnCCOkv1uBoj6/gxfOSdq7FWSeVUYW87n7JcAfMDf9edR2BE8Ej0t&#xA;1muO4TzN+4LsVdirsVdirsVdirsVdirsVdirBLxGS7mVhRg7V+/PP9TEjJIHnZd9jNxHuUsoZq9i&#xA;jvewKn2jItPvzI0kTLLEDnxBrymon3Mm8xozaYxXorKW+XT+OdT21EnAa6EOs0Z/eMSzjnbuxVv0&#xA;39P1KfBXjy7VpWmT4DXF0RYumS6voBuJDcWxAkb7cZ2BPiD450/aPZJyS48f1dQ63T6rhFS5JQNB&#xA;1Utx9Aj3LLT9eaYdlagmuH7Q5f5rH3p9o+jLY1lkIe4YUqOijwGdD2d2aMHqlvM/Y4Go1PHsOSYT&#xA;wxzxPFIOSOKMM2OXFHJExlyLjxkYmwxi78uX0Tn0AJo+xBAYfMHOV1HYuWB9Hqj9rtMesiRvsVtt&#xA;5c1CVwJVEKd2Ygn6AMjg7GzTPqHCEz1kANt2T2ttFbQLDEKIg28T7nOrwYI4oCEeQdXOZkbKrlrB&#xA;2KuxV2KuxV2KuxV2KuxV2KuxVKNY0P62/rwELPSjKejU9/HNN2l2V4x44bT+9zNPquDY8kl/QWq8&#xA;uPoH58lp+vNF/JWouuH7R+tzfzWPvTvR9DFm3rzEPPSigdFr/HN92d2X4J457z+5wdRqePYck0kj&#xA;SSNo3HJGBDA9wc204CQIPIuKCQbDGb3y3dxuTbfvoj0FQGHzrnK6nsXJE/u/VH7XaY9ZEj1bFSt/&#xA;L2pSuA6CFO7sQfwBOU4ex88juOEebKergBtun/6HtPqH1Kh4def7XP8Am+edH/J2PwfC6d/W+91/&#xA;5iXHxKt7qNrZoGnahP2UG7H5DLdVrMeAXM/Dqxx4ZTOyXL5ptC1DDIF8difurmsHb2O94ypyToZd&#xA;4TW2uoLqISwOHU9fEHwIzb4NRDLHigbDiTxmJoquXMEsu/MNjbuY1rM42PClB9JzVajtjDjND1Hy&#xA;crHpJyF8ltr5jsJnCPyhJ6FqcfvGRwdtYZmjcffyTPRzjuN01zbuI7FXYq7FXYq7FXYq7FXYq7FX&#xA;Yq7FVC8vra0j5zvxB+yvUn5DMfU6rHhjcy2Y8Upmgln+KrTlT0ZOPjtX7q5qv5ex39Mq+DlfkZd4&#xA;TO0vba7j9SB+QGzDoQfcZtdPqYZo8UDbi5McoGir5kNaXXuvWNq5jqZZB1VOgPuTms1Pa2LEeH6p&#xA;eTk49LOQvkFK38y2MrhZFaGvRmoV+8ZTh7bwyNSuP3M56KY5bprzXjzqOFK8q7U8a5uOIVfRxK6M&#xA;Hvbp7q6kmc/aPwjwXsM4HVZzlyGZ6u8xQEIgBQzHbEx0G6eDUI1B+CY8HX59D9BzZ9k5zjzAdJbF&#xA;xtVjEoHyT3zBdvb6eeBo8rCMEdQCCT+rOg7X1Bx4ducjTgaTGJT36MRzjHcOxVlXlu7eayaJzUwH&#xA;ip/yT0zruxdQZ4jE/wAP3Oq1mMCVjqm2blw3Yq7FXYq7FXYq7FXYq7FXYq7FWFardPc30rsdlYqg&#xA;8FBoM4XX5zlyyJ76Hud3gxiMAEJmE3IzR7t7a/iYH4XYJIOxDGn4Zndnag4s0SORNH4tGoxiUCyb&#xA;Wrp7bT5HQ0kaiKfAt3+7Oq7TznFhJHM7Os02MSmAWG5xDunYFRf6Tn/R31Kp48q1/wAn+X78zfz0&#xA;/A8Lpf2d3zafBHHxKd7ava3UkLj7J+E+K9jlWqwHFkMD0ZYpicQQoZjtiY6DavPqEbAfBCebt8ug&#xA;+k5s+ycByZgekdy42qyCMD5p75gtHuNPPAVeJhIAOpABB/XnQdr6c5MO3OJtwNJkEZ79WI5xjuHY&#xA;qyry3aPDZNK4oZzyUf5I6Z13YunMMRkf4vudVrMgMqHRNs3LhuxV2KuxV2KuxV2KuxV2KuxV2KsK&#xA;1W1e2vpUYbMxZD4qTUZwuvwHFlkD32Pc7vBkEoAoTMJuRmj2j3N/EoHwoweQ9gFNfxzO7O05y5og&#xA;cgbPwaNRkEYFk2tWr3OnyIgrItHUeJHb7s6rtPTnLhIHMbus02ThmCWG5xDunYFRf6Mn/R312h48&#xA;qU/yf5vvzN/Iz8Dxel/Z3/Np8YcfCyy9061vECzrUj7LjZh8jnYarR484qY+PV1OPNKB2S5fK1oG&#xA;qZpCvhsD99M1g7Bx3vKVOSddLuCa21rBaxCKBAijr4k+JObfBp4Yo8MBQcSeQyNlVy5gll35esbh&#xA;zItYXO54UofoOarUdj4chsek+TlY9XOIrmttfLlhC4d+UxHQNTj9wyODsXDA2bl7+SZ6ycthsmub&#xA;dxHYq7FXYq7FXYq7FXYq7FXYq7FXYqoXljbXcfCdOQH2W6EfI5j6nS480amGzHllA2Es/wAK2nKv&#xA;rScfDav30zVfyDjv6pV8HK/PS7gmdpZW1pH6cCcQd2PUk+5za6fTQwx4YCnFyZJTNlXzIa0uvdBs&#xA;bpzJQxSHcslKE+4OazU9k4sp4vpl5OTj1U4iuYUrfy1YxOGkZpqdFagX7hlOHsTDE3K5fcznrZnl&#xA;smvBePCg4UpxptTwpm44RVdHEvqk2r6+beQ29sAZF+3IdwD4AeOaPtHtY45cGP6upc3T6XiFy5JQ&#xA;Ne1UNy9cn2KrT9WaYdq6gG+L7A5f5XH3J9o+srfVjkAS4UVoOjDxGdD2d2kM/pltMfa4Go03BuOS&#xA;YTzRwRPLIeKIKsc2OXLHHEylyDjxiZGgxi78x30rn0CIY+wABY/MnOV1HbWWZ9Hpj9rtMejiBvuV&#xA;tt5i1CJwZWEyd1YAH6CBkcHbOaB9R4gmejgRtsye1uYrmBZojVHG3iPY51eDPHLATjyLq5wMTRVc&#xA;tYOxV2KuxV2KuxV2KuxV2KuxV2KpRrGufVH9CABp6VZj0Wvt45pu0u1fBPBDef3OZp9Lx7nkkv6d&#xA;1Xly9c/LitP1Zov5V1F3xfYP1Ob+Vx9yd6PrgvG9CYBJ6VUjo1P45vuzu1PGPBPaf3uDqNNwbjkm&#xA;kkiRxtI54ooJYnsBm2nMRBJ5BxQCTQYze+ZLuRyLb9zEOhoCx+dc5XU9tZJH936Y/a7THo4gercq&#xA;Vv5h1KJwXcTJ3RgB+IAynD2xnidzxDzZT0kCNtk//TFp9Q+u1PDpw/a5/wAvzzo/5Rx+D4vTu633&#xA;Ov8Ay8uPhYc7s7s7GrMSWPuc4mUjIknmXcgUKayKUXpDsup25U0JcA/I7HM3s6RGeFd7TqBcCnvm&#xA;h3WwRR9l5AG+gE0zoO3ZEYQB1l+twNEPX8GL5yTtXYqyTyq7G3nQ/ZDgj5kb/qzqOwJHgkOlus1w&#xA;3CeZv3BdirsVdirsVdirsVdirsVdirsVYJeOz3czMasXav355/qZE5JE87LvsYqI9yllDNXsXdL2&#xA;Bk+0JFp9+ZGkkY5Ykc+INeUXE+5k3mN2XTGC9GZQ3y6/wzqe2pEYDXUh1mjH7xiWcc7d2Kt+o/p+&#xA;nX4K8uPatKVyfGa4eiKF2metaRLbTvNGpa3c8qj9mvUHNp2n2fLFMyiPQfscXTagSFHmleahy0+8&#xA;v6TKJheTqUVR+6U9STtWmdF2R2fIS8WYquX63X6vUCuEJzqNkt5aPATQndG8GHTN3rNMM2Mw+Xvc&#xA;PDk4JWw25tZ7aQxzIUYePQ+4PfOIzYJ4pcMhRdzCYkLC2CCaeQRwoXc9AMjixSyS4YiymUhEWWY6&#xA;TYCytBETWRjykI8T2+jO27P0ngY+HrzLps+XjlfRGZmtLsVdirsVdirsVdirsVdirsVdirGNd0ia&#xA;Od7mFS0Mh5PTcqx619s5TtXs+UZnJEXE8/Iu00uoBHCeaTZo3NTrQdJledbqZSsUfxRg7Fm7H5DN&#xA;92T2fKUxkmKiOXmXB1WoAHCObIL21S6tZIG2DjY+BG4P350WpwDLjMD1dfjmYyBYXd2VxaSmOZCp&#xA;7N2PuDnD6jTTwy4ZB3ePJGYsKcUUkrhI1LueigVOVQxymaiLLKUgBZT/APw636L4bfXK8/bpThXO&#xA;i/kY/l6/ynP9n46uv/OfvL/hT9ioBLEADqT0zoSQBu68IRLnSfV+CSD1PEFa1+eYcc2n4tjDi+Dc&#xA;YZK3BpF5mtLsVUriW0Rf9IZFU9pCKH78pzTxxHrIrzZwjI/TbVtLZOCLZoyO4jI/UMGDJiI/dmPw&#xA;pZxkPqtWy9g7FXYq7FXYq7FXYq7FXYq7FXYq7FXEgCp2A6nElUJ9Z0n1f7yD1PGqV+/MLxtNxc4c&#xA;XwbuDJXI0iwa7jpma0uxVTnktkT/AEhkVD/OQB+OVZZwiPWQB5soiROyy2msG+G2eM+Kxlf1DIYM&#xA;mE7YzH4UynGY+q1fMhrYhrOqSXdwyKxFuhoijoaftHOL7S10s0yAfQOX63cabAIC+qXZrHJTvy9q&#xA;kqzrZysWifaOv7J60+Rzfdj66QmMUj6Ty8nB1eAEcQ5p3ql79Ts3mAq/2YwenI5vddqvAxGXXp73&#xA;BwYuOVMMmmlmkaSVi7t1Y5xGTLKcuKRsl3UYiIoNRyPG4eNirruGGxGCEzE2DRSQCKLMNHvze2Yd&#xA;/wC9Q8JPcjv9Odr2bq/HxWfqGxdNqMXBKuiOzPaHYq7FXYq7FXYq7FXYq7FXYq7FWKa7qcs9y9uj&#xA;EQRHjQftMOpOch2rrpZJmAPoj9rttLgEY2eZSrNO5ab6BqksNwltIxaCU8VB/ZY9KfPN12TrpQmM&#xA;ZPol9hcPVYAY8Q5hkN/draWkk5FSo+FfEnYZ0mr1Aw4zPuddix8cgGF3FzNcSmWZiznx7ewzhs2a&#xA;WSXFI2XdwgIigsVmRgykqw3BGxByEZEGxzSRaef4il/RdK/6ZXhy9qfbzffyzL8v/tvL9rg/kx4n&#xA;9FJJI2jkaNhRkJVh7g0zRTgYyMTzDnA2LW5BKM0eNn1O3CitHDH5LuczuzoGWeFd/wBzTqDUCnvm&#xA;eN209WXokgLfIgiv3nOg7cgThBHSTgaI1P4MWzkXauxVknlWNhbzyH7LMAP9iN/151PYMCISPQl1&#xA;muPqATzN84LsVdirsVdirsVdirsVdirsVdirBb2No7uZGFGV2r9+ef6mBjkkD3l32M3EFRyhmr6f&#xA;G0l9Ai9TIv4GpOZOkgZZYgfzg15TUSfJk3mKN30xyv7DKzD26fxzqe2YGWA10ILrNGayMSzjXbux&#xA;Vd6Mno+tT93y4cu3KlaZZ4cuHi/hukcQuurJ9W0FbtzPAwSc/aB+y33dDnVdodkjMeOBqX2F1en1&#xA;XAKPJKV8uaoWoVUD+YsKfhvmnHYuouqHzcs6zGnulaRFYqWJ5zsKM/YDwGb/ALP7OjpxfOZ6uBn1&#xA;Bye5HSxRyxtHIOSOKMD4HM+cBOJidwWiMiDYY3d+WLlHJtmEkZ6Kxow/hnMajsPID+7PEPtdnj1s&#xA;SPVsttfLN47j6wyxR96Hkx+VNsjg7DyyPrIiPmVnrYgbbslggighWGIcUQUAzqMWKOOIjHkHWykZ&#xA;Gyvyxi7FXYq7FXYq7FXYq7FXYq7FXYqleraIl6fVjYR3AFCT0Ye+antDssZ/VHaf3uVp9SYbHkk3&#xA;+HNU5U4LT+bkKf1zSfyNqLqh83N/OY060nRY7L967epcEUqOij2zedn9mDB6ibn93ucLUakz2HJM&#xA;mVXUqwqrCjA9CDm0lEEUeTjA0xy98szK5a0YPGeiMaMPp6HOY1XYcwbxmx3F2WPWivUpW/lm+dx6&#xA;xWJO5ryP0AZVh7EzSPqqI+bKetgBtun36Ls/qX1Pj+68e9f5q+OdD+RxeF4Ven8b+9wPHlxcXV2o&#xA;apa2Kj1SWdvsxr1Pvg1evx4B6ufcuLBKfJLB5rTl8VsQviHqfuoM1Y7fF7w29/7HK/IHvTezvre8&#xA;i9SBqgbMp2IPuM3Om1UM0eKBcPJilA0VfMhrSe78y2kLlIUM5HVgeK/Qd80uo7bxwNRHF9gczHop&#xA;EWdmrXzPayOFmjMNejV5D6dhkcHbmORqY4ftTPRSA2NpyCCAQag7gjN2De4cJRuruC1iMszcVGw8&#xA;SfADKs+ohijxTNBnDGZmgk7+a4w3wWxK+JcA/cAc0ku3xe0Nvf8Asc0aA9SmGn6xaXvwoSko3Mbd&#xA;fo8c2Wj7Rx59htLuLjZdPKHPkjsz2hL9Q1u0s29M1lm7ovb5nNbrO1MeE8P1S7h+lyMWmlPfkEFF&#xA;5riLUlt2RfFWDH7iFzBh2/En1Qoe+/1N8tAehTmC4hniWWFg6N0IzeYssckeKJsFwpQMTRXu6RoX&#xA;dgqKKsx2AGSlMRFnYBABJoJLceabdHKwwtKo/aJ4A/LY5o83b0AajHi+z9bmw0JI3NK1j5htLlxH&#xA;IphkbZeRqpPhXbL9L2xjynhPpP2fNhl0koixumubdxELf6lbWSBpieTfZRd2OYmr1uPALl8urbiw&#xA;ymdkr/xWnKn1Y8fHnv8AdT+Oaj+Xxf0be/8AY5f5A96a2Oo217GXhbcfaQ7MPnm40usx543E/Dq4&#xA;mXDKB3ROZTUlN75jtLdzHGpndetDRfv3zT6rtnHjNRHEfs+bl49HKQs7KVv5ptncLNE0QP7QPMD5&#xA;7DKsPbsJGpxMftZz0MgNjac+rF6Xq8x6VOXOu1PGubrxI8PFfp73C4TddWDXdy9zcyTud3NfkOw+&#xA;jOB1GY5ZmZ6u9xwEYgBSylmj9DuXh1KIKfhlPBx4g9PxzY9lZjDPGuUtnH1UBKB8k98xXLw6eVQ0&#xA;MzBCfahJ/VnQds5zDDQ/iNOBo4CU9+jE84527sVZR5ZuXks3iY19FqKf8lt6Z1vYeYyxGJ/hP3uq&#xA;1sAJX3pX5iuXl1FoyfghAVR7kAk5qO2cxnnMekXL0cAIX3pXmpcpfDNJDKksZo6Gqn5ZZjyGEhIc&#xA;wiUQRRZrcXXDT3ul7R81+ZFRndZtRw4TkH823Rwx3Ph82EMzMxZjVmNST3Jzg5SJNnm7wCmsilOv&#xA;LFy63bwV+CRS1PBl7/dm97CzEZDDoR9ocLWwBjaI803LqkNupor1d/enTMnt7OQIwHI7lq0MBZkx&#xA;3OZdk7FWZaLcvcadE7mrrVGPjxNP1Z3HZmc5MESefL5Ol1MBGZAYtqVy9xfTSMf2iqjwUGgGclrc&#xA;xyZZSPf9jtcMBGACGzEbUXpVy9vfwupoGYI48VY0OZugznHmiR30fcWnPDigQybXbl7fTpGQ0dyE&#xA;B8K9fwzqe1c5x4CRzOzrNLDimLYdnEu5diqJ+vz/AFD6nX91z5fR4fKu+ZX5ufg+F/Dd/s/S1eEO&#xA;Pi6tahZvaXTwsNgaofFT0OOs0xw5DE/D3JxZBONofMVsTLQLN579JKH0oTyZvfsM2vZGmOTMJfwx&#xA;3/U4uryCMK6lPtds3urAiMVkjIdR3NKgj7jnQdq6Y5cNR5jdwNLkEZ79WH5xTuXYqyvy7Zvb2ReQ&#xA;UeY8qHqFHTOw7G0xx4rPOW/w6Op1mQSlQ6JX5ks3ivDcAfupqb+DAUI/DNT21pjHLx/wy+9ytHkB&#xA;jw9QlGaVzFW0tZbq4SGMVZjuewHcnL9PgllmIx6sMkxEWWazWySWj2w2VkKA+G1Bnc5cAljOPpVO&#xA;kjOpcTCJoZIZWikXi6GjA5weTHKEjGQoh3kZCQsLMrZJ75Ys3Mz3bCiKCiHxJ6/dnQdhaY8RyHly&#xA;Dga3IK4UT5ms3kgjuEFfRqHH+Se/0ZlduaYygJj+Hn7mvRZACYnqxnOVdm4AsQAKk7ADxwgEmgrN&#xA;dKtGtbCKJvt05P8ANjWn0Z3Wg05xYRE8+rpM+TjmSxfV7N7W+kBHwOS8bdiCa/hnJ9o6Y4spB5Hc&#xA;O00+QSgEFmA3o7RbN7m+joP3cRDyN2ABqB9ObDszTHLmHdHctGpyCMD3lk2r2jXVhJGm8goyDxK9&#xA;vpzqe0dOcuExHPmHV6fJwTBLCyCCQRQjYg5w5FbF3bsCo/8ARFx+jPrtD1rw7+n/ADffmx/k6fge&#xA;L9nl3/jo4/5gcfD+LZXdWVtdR8J0DgdD0I+Rzr8+mx5RUxbqceSUDYKXr5Z00PyJkI/lLCn4Cua4&#xA;dh4Ab9Xz/Y5B1s/JM4IIYIxHCgRB0UZtMWKOOPDEUHGlIyNlfljFAXeh6fdOZGQpIftMhpX6Nxmu&#xA;1HZeHKbIo+TkY9TOIpba6Bp1u4cKZGHQyGtPoAAyODsnBjN1xHzTPVTkK5JjmzcZbLFHLGY5FDo3&#xA;VTuMhkxxmKkLCYyINhK38s6az8gZEH8oYU/EE5qpdiYCb9Q+P7HKGtn5I60sLS0UrBGFr9purH5k&#xA;5n6fSY8IqApoyZZT5lEZktaFvdMs7wD1kqw2DjZh9OYmp0WLN9Y37+rbjzShyKEi8taaj8jzk/yW&#xA;YU/ADMPH2JgibNn3n9VN0tZM+SaIiIoRFCquwUbAZtYxERQ2Dik3zbIrsemSQllx5d02ZywVoieo&#xA;jIA+4g5qs3Y+CZujH3OVDVzHmrWej2No3ONOUg6O5qR8uwy/TdnYcJuI37ywyaic9jyRuZzQpXNr&#xA;b3MfpzoHXtXqPke2U5sEMseGYsM4TMTYS7/DOnc+VZKfy8hT9Vc1v8h4Lv1fP9jkfnZ+SZW9tBbR&#xA;iOBAiDsO/wAzmzw4IYo8MBQcaczI2VTLWKCvNGsLti8iFZD1dDQn59swNT2bhzG5Cpd4b8epnDYc&#xA;lK38vabC4fi0pHT1DUfcABlWHsfBA3Rl72U9XOXkmVBSnbwzaU4zsVdirsVdirsVdirsVSzWdYFi&#xA;ojjAadxUV6KPE5qu0u0fAHDHeZ+xytNp+Pc8mOvq+psxY3DgnsDQfcM5qXaOcm+MuxGngOiZ6T5g&#xA;lMqwXZ5K5osvQgnpWmbXs/teRkIZd76/rcXUaQVcWRE03PTOldcxnUvMVw8jR2jenEpp6g+03vv0&#xA;Gcrre2JykY4zUe/qXaYdIALlzQMesanGwYXDN7MeQ+45gQ7SzxN8R+O7edPA9GS6Rqi38JqAsyU9&#xA;RR037jOp7P141Ed9pDm6zUYPDPkrajfxWVuZX3PRE8Tl2s1ccEOI/AMMOIzlQYtPrepTOW9Yxjsq&#xA;fCBnJZe1M8zfFXu2drHTQA5K1j5gvIJAJ2M0J+0D9ofI5fpe2MsD6zxR+1ry6SMhtsWVRSJLGsiH&#xA;kjgFT7HOuhMTiJDkXVSBBorskh2KuxV2KuxV2KuxV2KuxV2KuxV2KuxV2KsO14sdVn5duIHy4jOJ&#xA;7WJOolfl9wdzpf7sIDNc5DsVZnePL+h5H/3YYat9K753GplL8sT/ABcH6HS4wPEHdbDM4d3TsVTX&#xA;y0WGpUHQo3L5bZuOxCfH+BcTW/R8UT5rLerbr+zxYj51Fcye3yeKA6UWvQcikOc857sVZd5eZzpc&#xA;fLoCwX5Vzs+xyTpxfn97p9WP3hTLNo4zsVdirsVdirsVdirsVdirsVdirsVdirsVSXX9IkuCLm3H&#xA;KVRSRO7AdCPfNF2t2dLJ+8h9XUd7m6XUCPpPJjTo6MVdSrDqpFDnLyiYmiKLswQeSZ6Tos9zKsky&#xA;FLdTU8hQt7AZtez+zJ5ZCUhUPvcXUakRFDmytkVlKMKqwoR4g518ogijydUDTD9T0e5s5GKqXt6/&#xA;DIN6Dwbwzi9b2dPDI0Lh3/rdxh1EZjzQUcUkrBI0LsegUVP4ZgQxykaiLLeZAc2U6FpT2cbSzCk8&#xA;gpx/lXrTOt7K0Bwgyl9cvsDqtVn4zQ5BX1jTRfW3FSBNGaxk9PcH55f2jovHhQ+ocmvT5uCXkxGe&#xA;2ngcpNGUYdiP1ZxuXDPGakKLuIzEhYKtY6ZdXkgWNCE/alI+EDL9LocmY1Ebd/RhlzRgN2ZW1vHb&#xA;wJDH9hBQf1ztsGEY4CA5B0s5mRsqmWsXYq7FXYq7FXYq7FX/2Q==</xmpGImg:image>
               </rdf:li>
            </rdf:Alt>
         </xmp:Thumbnails>
         <xmpTPg:MaxPageSize rdf:parseType="Resource">
            <stDim:w>1000.000000</stDim:w>
            <stDim:h>1000.000000</stDim:h>
            <stDim:unit>Pixels</stDim:unit>
         </xmpTPg:MaxPageSize>
         <xmpTPg:NPages>1</xmpTPg:NPages>
         <xmpTPg:HasVisibleTransparency>False</xmpTPg:HasVisibleTransparency>
         <xmpTPg:HasVisibleOverprint>False</xmpTPg:HasVisibleOverprint>
         <xmpTPg:PlateNames>
            <rdf:Seq>
               <rdf:li>Cyan</rdf:li>
               <rdf:li>Magenta</rdf:li>
               <rdf:li>Yellow</rdf:li>
            </rdf:Seq>
         </xmpTPg:PlateNames>
         <xmpTPg:SwatchGroups>
            <rdf:Seq>
               <rdf:li rdf:parseType="Resource">
                  <xmpG:groupName>預設色票群組</xmpG:groupName>
                  <xmpG:groupType>0</xmpG:groupType>
                  <xmpG:Colorants>
                     <rdf:Seq>
                        <rdf:li rdf:parseType="Resource">
                           <xmpG:swatchName>R=255 G=204 B=84</xmpG:swatchName>
                           <xmpG:type>PROCESS</xmpG:type>
                           <xmpG:tint>100.000000</xmpG:tint>
                           <xmpG:mode>RGB</xmpG:mode>
                           <xmpG:red>255</xmpG:red>
                           <xmpG:green>205</xmpG:green>
                           <xmpG:blue>71</xmpG:blue>
                        </rdf:li>
                     </rdf:Seq>
                  </xmpG:Colorants>
               </rdf:li>
            </rdf:Seq>
         </xmpTPg:SwatchGroups>
         <dc:format>image/svg+xml</dc:format>
         <xmpMM:DerivedFrom rdf:parseType="Resource">
            <stRef:instanceID>xmp.iid:cde09b3e-ee56-4d25-b51d-1d4f5d3ec2a2</stRef:instanceID>
            <stRef:documentID>xmp.did:cde09b3e-ee56-4d25-b51d-1d4f5d3ec2a2</stRef:documentID>
            <stRef:originalDocumentID>xmp.did:f59a532d-5494-41df-998c-357af674267c</stRef:originalDocumentID>
         </xmpMM:DerivedFrom>
         <xmpMM:DocumentID>xmp.did:3d9bb3a9-8426-446b-a6fb-6e81517307d3</xmpMM:DocumentID>
         <xmpMM:InstanceID>xmp.iid:3d9bb3a9-8426-446b-a6fb-6e81517307d3</xmpMM:InstanceID>
         <xmpMM:OriginalDocumentID>xmp.did:f59a532d-5494-41df-998c-357af674267c</xmpMM:OriginalDocumentID>
         <xmpMM:History>
            <rdf:Seq>
               <rdf:li rdf:parseType="Resource">
                  <stEvt:action>saved</stEvt:action>
                  <stEvt:instanceID>xmp.iid:f59a532d-5494-41df-998c-357af674267c</stEvt:instanceID>
                  <stEvt:when>2026-03-13T11:17:58+08:00</stEvt:when>
                  <stEvt:softwareAgent>Adobe Illustrator 30.2 (Macintosh)</stEvt:softwareAgent>
                  <stEvt:changed>/</stEvt:changed>
               </rdf:li>
               <rdf:li rdf:parseType="Resource">
                  <stEvt:action>saved</stEvt:action>
                  <stEvt:instanceID>xmp.iid:3d9bb3a9-8426-446b-a6fb-6e81517307d3</stEvt:instanceID>
                  <stEvt:when>2026-03-13T11:22:39+08:00</stEvt:when>
                  <stEvt:softwareAgent>Adobe Illustrator 30.2 (Macintosh)</stEvt:softwareAgent>
                  <stEvt:changed>/</stEvt:changed>
               </rdf:li>
            </rdf:Seq>
         </xmpMM:History>
      </rdf:Description>
   </rdf:RDF>
</x:xmpmeta>
                                                                                                    
                                                                                                    
                                                                                                    
                                                                                                    
                                                                                                    
                                                                                                    
                                                                                                    
                                                                                                    
                                                                                                    
                                                                                                    
                                                                                                    
                                                                                                    
                                                                                                    
                                                                                                    
                                                                                                    
                                                                                                    
                                                                                                    
                                                                                                    
                                                                                                    
                                                                                                    
                           
<?xpacket end="w"?>
  </metadata>
</svg>