<?xml version="1.0" encoding="UTF-8"?>
<svg id="_圖層_1" xmlns="http://www.w3.org/2000/svg" version="1.1" viewBox="0 0 1000 1000">
  <!-- Generator: Adobe Illustrator 30.2.1, SVG Export Plug-In . SVG Version: 2.1.1 Build 1)  -->
  <path d="M234.147,88.477c0,22.16-17.964,40.124-40.124,40.124s-40.123-17.964-40.123-40.124,17.964-40.123,40.123-40.123,40.124,17.962,40.124,40.123Z" fill="#ffcd48"/>
  <path d="M336.139,88.477c0,22.16-17.964,40.124-40.124,40.124s-40.123-17.964-40.123-40.124,17.964-40.123,40.123-40.123,40.124,17.962,40.124,40.123Z" fill="#ffcd48"/>
  <path d="M744.108,88.477c0,22.16-17.964,40.124-40.124,40.124s-40.123-17.964-40.123-40.124,17.964-40.123,40.123-40.123,40.124,17.962,40.124,40.123Z" fill="#ffcd48"/>
  <path d="M846.1,88.477c0,22.16-17.964,40.124-40.124,40.124s-40.123-17.964-40.123-40.124,17.964-40.123,40.123-40.123,40.124,17.962,40.124,40.123Z" fill="#ffcd48"/>
  <path d="M234.147,191.358c0,22.16-17.964,40.124-40.124,40.124s-40.123-17.964-40.123-40.124,17.964-40.123,40.123-40.123,40.124,17.962,40.124,40.123Z" fill="#ffcd48"/>
  <path d="M336.139,191.358c0,22.16-17.964,40.124-40.124,40.124s-40.123-17.964-40.123-40.124,17.964-40.123,40.123-40.123,40.124,17.962,40.124,40.123Z" fill="#ffcd48"/>
  <path d="M744.108,191.358c0,22.16-17.964,40.124-40.124,40.124s-40.123-17.964-40.123-40.124,17.964-40.123,40.123-40.123,40.124,17.962,40.124,40.123Z" fill="#ffcd48"/>
  <path d="M846.1,191.358c0,22.16-17.964,40.124-40.124,40.124s-40.123-17.964-40.123-40.124,17.964-40.123,40.123-40.123,40.124,17.962,40.124,40.123Z" fill="#ffcd48"/>
  <path d="M234.147,294.239c0,22.16-17.964,40.124-40.124,40.124s-40.123-17.964-40.123-40.124,17.964-40.124,40.123-40.124,40.124,17.964,40.124,40.124Z" fill="#ffcd48"/>
  <path d="M336.139,294.239c0,22.16-17.964,40.124-40.124,40.124s-40.123-17.964-40.123-40.124,17.964-40.124,40.123-40.124,40.124,17.964,40.124,40.124Z" fill="#ffcd48"/>
  <path d="M744.108,294.239c0,22.16-17.964,40.124-40.124,40.124s-40.123-17.964-40.123-40.124,17.964-40.124,40.123-40.124,40.124,17.964,40.124,40.124Z" fill="#ffcd48"/>
  <path d="M846.1,294.239c0,22.16-17.964,40.124-40.124,40.124s-40.123-17.964-40.123-40.124,17.964-40.124,40.123-40.124,40.124,17.964,40.124,40.124Z" fill="#ffcd48"/>
  <path d="M234.147,397.119c0,22.16-17.964,40.123-40.124,40.123s-40.123-17.962-40.123-40.123,17.964-40.124,40.123-40.124,40.124,17.964,40.124,40.124Z" fill="#ffcd48"/>
  <path d="M336.139,397.119c0,22.16-17.964,40.123-40.124,40.123s-40.123-17.962-40.123-40.123,17.964-40.124,40.123-40.124,40.124,17.964,40.124,40.124Z" fill="#ffcd48"/>
  <path d="M744.108,397.119c0,22.16-17.964,40.123-40.124,40.123s-40.123-17.962-40.123-40.123,17.964-40.124,40.123-40.124,40.124,17.964,40.124,40.124Z" fill="#ffcd48"/>
  <path d="M846.1,397.119c0,22.16-17.964,40.123-40.124,40.123s-40.123-17.962-40.123-40.123,17.964-40.124,40.123-40.124,40.124,17.964,40.124,40.124Z" fill="#ffcd48"/>
  <path d="M234.147,500c0,22.16-17.964,40.123-40.124,40.123s-40.123-17.962-40.123-40.123,17.964-40.124,40.123-40.124,40.124,17.964,40.124,40.124Z" fill="#ffcd48"/>
  <path d="M336.139,500c0,22.16-17.964,40.123-40.124,40.123s-40.123-17.962-40.123-40.123,17.964-40.124,40.123-40.124,40.124,17.964,40.124,40.124Z" fill="#ffcd48"/>
  <path d="M744.108,500c0,22.16-17.964,40.123-40.124,40.123s-40.123-17.962-40.123-40.123,17.964-40.124,40.123-40.124,40.124,17.964,40.124,40.124Z" fill="#ffcd48"/>
  <path d="M846.1,500c0,22.16-17.964,40.123-40.124,40.123s-40.123-17.962-40.123-40.123,17.964-40.124,40.123-40.124,40.124,17.964,40.124,40.124Z" fill="#ffcd48"/>
  <path d="M234.147,602.881c0,22.16-17.964,40.123-40.124,40.123s-40.123-17.962-40.123-40.123,17.964-40.124,40.123-40.124,40.124,17.964,40.124,40.124Z" fill="#ffcd48"/>
  <path d="M336.139,602.881c0,22.16-17.964,40.123-40.124,40.123s-40.123-17.962-40.123-40.123,17.964-40.124,40.123-40.124,40.124,17.964,40.124,40.124Z" fill="#ffcd48"/>
  <path d="M540.123,602.881c0,22.16-17.964,40.123-40.123,40.123s-40.124-17.962-40.124-40.123,17.964-40.124,40.124-40.124,40.123,17.964,40.123,40.124Z" fill="#ffcd48"/>
  <path d="M744.108,602.881c0,22.16-17.964,40.123-40.124,40.123s-40.123-17.962-40.123-40.123,17.964-40.124,40.123-40.124,40.124,17.964,40.124,40.124Z" fill="#ffcd48"/>
  <path d="M846.1,602.881c0,22.16-17.964,40.123-40.124,40.123s-40.123-17.962-40.123-40.123,17.964-40.124,40.123-40.124,40.124,17.964,40.124,40.124Z" fill="#ffcd48"/>
  <g>
    <path d="M234.147,705.761c0,22.158-17.964,40.123-40.124,40.123s-40.123-17.964-40.123-40.123,17.964-40.124,40.123-40.124,40.124,17.964,40.124,40.124Z" fill="#ffcd48"/>
    <path d="M336.139,705.761c0,22.158-17.964,40.123-40.124,40.123s-40.123-17.964-40.123-40.123,17.964-40.124,40.123-40.124,40.124,17.964,40.124,40.124Z" fill="#ffcd48"/>
    <path d="M438.131,705.761c0,22.158-17.964,40.123-40.123,40.123s-40.124-17.964-40.124-40.123,17.964-40.124,40.124-40.124,40.123,17.964,40.123,40.124Z" fill="#ffcd48"/>
    <path d="M540.123,705.761c0,22.158-17.964,40.123-40.123,40.123s-40.124-17.964-40.124-40.123,17.964-40.124,40.124-40.124,40.123,17.964,40.123,40.124Z" fill="#ffcd48"/>
    <path d="M642.116,705.761c0,22.158-17.964,40.123-40.124,40.123s-40.123-17.964-40.123-40.123,17.962-40.124,40.123-40.124,40.124,17.964,40.124,40.124Z" fill="#ffcd48"/>
    <path d="M744.108,705.761c0,22.158-17.964,40.123-40.124,40.123s-40.123-17.964-40.123-40.123,17.964-40.124,40.123-40.124,40.124,17.964,40.124,40.124Z" fill="#ffcd48"/>
    <path d="M846.1,705.761c0,22.158-17.964,40.123-40.124,40.123s-40.123-17.964-40.123-40.123,17.964-40.124,40.123-40.124,40.124,17.964,40.124,40.124Z" fill="#ffcd48"/>
  </g>
  <g>
    <path d="M234.147,808.642c0,22.158-17.964,40.123-40.124,40.123s-40.123-17.964-40.123-40.123,17.964-40.124,40.123-40.124,40.124,17.964,40.124,40.124Z" fill="#ffcd48"/>
    <path d="M336.139,808.642c0,22.158-17.964,40.123-40.124,40.123s-40.123-17.964-40.123-40.123,17.964-40.124,40.123-40.124,40.124,17.964,40.124,40.124Z" fill="#ffcd48"/>
    <path d="M438.131,808.642c0,22.158-17.964,40.123-40.123,40.123s-40.124-17.964-40.124-40.123,17.964-40.124,40.124-40.124,40.123,17.964,40.123,40.124Z" fill="#ffcd48"/>
    <path d="M540.123,808.642c0,22.158-17.964,40.123-40.123,40.123s-40.124-17.964-40.124-40.123,17.964-40.124,40.124-40.124,40.123,17.964,40.123,40.124Z" fill="#ffcd48"/>
    <path d="M642.116,808.642c0,22.158-17.964,40.123-40.124,40.123s-40.123-17.964-40.123-40.123,17.962-40.124,40.123-40.124,40.124,17.964,40.124,40.124Z" fill="#ffcd48"/>
    <path d="M744.108,808.642c0,22.158-17.964,40.123-40.124,40.123s-40.123-17.964-40.123-40.123,17.964-40.124,40.123-40.124,40.124,17.964,40.124,40.124Z" fill="#ffcd48"/>
    <path d="M846.1,808.642c0,22.158-17.964,40.123-40.124,40.123s-40.123-17.964-40.123-40.123,17.964-40.124,40.123-40.124,40.124,17.964,40.124,40.124Z" fill="#ffcd48"/>
  </g>
  <path d="M336.139,911.523c0,22.158-17.964,40.123-40.124,40.123s-40.123-17.964-40.123-40.123,17.964-40.124,40.123-40.124,40.124,17.964,40.124,40.124Z" fill="#ffcd48"/>
  <path d="M438.131,911.523c0,22.158-17.964,40.123-40.123,40.123s-40.124-17.964-40.124-40.123,17.964-40.124,40.124-40.124,40.123,17.964,40.123,40.124Z" fill="#ffcd48"/>
  <path d="M642.116,911.523c0,22.158-17.964,40.123-40.124,40.123s-40.123-17.964-40.123-40.123,17.962-40.124,40.123-40.124,40.124,17.964,40.124,40.124Z" fill="#ffcd48"/>
  <path d="M744.108,911.523c0,22.158-17.964,40.123-40.124,40.123s-40.123-17.964-40.123-40.123,17.964-40.124,40.123-40.124,40.124,17.964,40.124,40.124Z" fill="#ffcd48"/>
  <metadata><?xpacket begin="﻿" id="W5M0MpCehiHzreSzNTczkc9d"?>
<x:xmpmeta xmlns:x="adobe:ns:meta/" x:xmptk="Adobe XMP Core 10.0-c000 1.000000, 0000/00/00-00:00:00        ">
   <rdf:RDF xmlns:rdf="http://www.w3.org/1999/02/22-rdf-syntax-ns#">
      <rdf:Description rdf:about=""
            xmlns:xmp="http://ns.adobe.com/xap/1.0/"
            xmlns:xmpGImg="http://ns.adobe.com/xap/1.0/g/img/"
            xmlns:xmpTPg="http://ns.adobe.com/xap/1.0/t/pg/"
            xmlns:stDim="http://ns.adobe.com/xap/1.0/sType/Dimensions#"
            xmlns:xmpG="http://ns.adobe.com/xap/1.0/g/"
            xmlns:dc="http://purl.org/dc/elements/1.1/"
            xmlns:xmpMM="http://ns.adobe.com/xap/1.0/mm/"
            xmlns:stRef="http://ns.adobe.com/xap/1.0/sType/ResourceRef#"
            xmlns:stEvt="http://ns.adobe.com/xap/1.0/sType/ResourceEvent#">
         <xmp:CreatorTool>Adobe Illustrator 30.2 (Macintosh)</xmp:CreatorTool>
         <xmp:CreateDate>2026-03-13T11:20:57+08:00</xmp:CreateDate>
         <xmp:MetadataDate>2026-03-13T11:20:57+08:00</xmp:MetadataDate>
         <xmp:ModifyDate>2026-03-13T11:20:57+08:00</xmp:ModifyDate>
         <xmp:Thumbnails>
            <rdf:Alt>
               <rdf:li rdf:parseType="Resource">
                  <xmpGImg:width>196</xmpGImg:width>
                  <xmpGImg:height>256</xmpGImg:height>
                  <xmpGImg:format>JPEG</xmpGImg:format>
                  <xmpGImg:image>/9j/4AAQSkZJRgABAgEAAAAAAAD/7QAsUGhvdG9zaG9wIDMuMAA4QklNA+0AAAAAABAAAAAAAAEA&#xA;AQAAAAAAAQAB/+4ADkFkb2JlAGTAAAAAAf/bAIQABgQEBAUEBgUFBgkGBQYJCwgGBggLDAoKCwoK&#xA;DBAMDAwMDAwQDA4PEA8ODBMTFBQTExwbGxscHx8fHx8fHx8fHwEHBwcNDA0YEBAYGhURFRofHx8f&#xA;Hx8fHx8fHx8fHx8fHx8fHx8fHx8fHx8fHx8fHx8fHx8fHx8fHx8fHx8fHx8f/8AAEQgBAADEAwER&#xA;AAIRAQMRAf/EAaIAAAAHAQEBAQEAAAAAAAAAAAQFAwIGAQAHCAkKCwEAAgIDAQEBAQEAAAAAAAAA&#xA;AQACAwQFBgcICQoLEAACAQMDAgQCBgcDBAIGAnMBAgMRBAAFIRIxQVEGE2EicYEUMpGhBxWxQiPB&#xA;UtHhMxZi8CRygvElQzRTkqKyY3PCNUQnk6OzNhdUZHTD0uIIJoMJChgZhJRFRqS0VtNVKBry4/PE&#xA;1OT0ZXWFlaW1xdXl9WZ2hpamtsbW5vY3R1dnd4eXp7fH1+f3OEhYaHiImKi4yNjo+Ck5SVlpeYmZ&#xA;qbnJ2en5KjpKWmp6ipqqusra6voRAAICAQIDBQUEBQYECAMDbQEAAhEDBCESMUEFURNhIgZxgZEy&#xA;obHwFMHR4SNCFVJicvEzJDRDghaSUyWiY7LCB3PSNeJEgxdUkwgJChgZJjZFGidkdFU38qOzwygp&#xA;0+PzhJSktMTU5PRldYWVpbXF1eX1RlZmdoaWprbG1ub2R1dnd4eXp7fH1+f3OEhYaHiImKi4yNjo&#xA;+DlJWWl5iZmpucnZ6fkqOkpaanqKmqq6ytrq+v/aAAwDAQACEQMRAD8A9Ba1rU8k729u5SFDxZl2&#xA;LEdd/DOU7T7TnKZhA1Efa7TTaYAWeaThmVuSkhhuCOuaUSINjm5hDIdA1iWWQWlw3NiP3Uh67b0O&#xA;dJ2T2lKcvDmb7i6/VacAcUU3vrxLS1ed9+P2V8WPQZudXqRhxmZ6OHixmcqYbd391duXmckdk/ZH&#xA;yGcTqNXkzG5H9TuceKMBsGra8ubZw8EhQ9x2PzGRwanJiNwNJnjjIUQzDTL9b21WYDi1eLr4MM7X&#xA;RasZ8Yl16+902bFwSpFZltTsVdirsVdirsVdirsVdirsVdirG9d1mb1mtbdyiJtI67Et3FfAZzHa&#xA;vaUuM44GgOZdlpdMK4pJJyblyqeXWvfNDxG76ufSe6FrMxmW1uWLq+0bncg+BPeudB2V2lIyGOZu&#xA;+RdfqtMK4op7d3MdtbyTv9lBWniew+k5v9RmGKBmeQcHHAykAGG3uo3V5IWlc8f2Yx9kfRnE6rW5&#xA;MxuR27ujuceGMBspW91cW7h4ZCjDwOx+Y75Vhzzxm4Gmc4CQohkX+Il/Rfr8R9ar6fDtypXl8s6T&#xA;+WB+X4/8pyrz7/c678p+8r+FjTBlYq2zA0IPjnLyBBo83ZAtZFKL0gMdTtgvXmD9A3P4Zm9ngnPC&#xA;u9p1H0FPfNCubBCPsiQcvuOdB26D4I7uL9BcDQn1n3MXzknauxVknlUN6E7fslgB8wN/151HYAPB&#xA;I9LdbrjuE8zfuA7FXYq7FXYq7FXYq7FXYq7FXYqwS7DLdTBvtB2rXxrnn2oBGSQPOy77H9I9yllL&#xA;NWsVdr2AJ9r1Fp94zI0oJyxrnxD72GU+k33Mm8yK50xivQOpb5dP151PbQJ05rvDq9Gf3jE84527&#xA;sVb4tx5U+GtK9q5KjV9EWyHWNAklla4tACz7yRdN/EVzpO0uyZTkZ4+vMOv0+qAHDJKBpGpluItn&#xA;r7ig+87Zph2fnJrgLl/mId6f6Lopsz689DORRVG4UHrv450PZnZng+uf1/c4Gp1PHsOSZXNvHcQP&#xA;DIKo4of65tM2GOSBhLkXFhMxNhit3oGoQOQiGaP9l03P0jrnI6jsnNjOw4h5O2x6qEhvsVttoWoz&#xA;uA0ZiTu77U+jqcjg7KzzNEcI7ymeqhEc7ZVZ2kVpbrBF9lepPUk9Sc67TaeOGAhHo6nJkMzZVsvY&#xA;OxV2KuxV2KuxV2KuxV2KuxV2KpJrWhPcSG5tqeqftxnblTuD45oe0+yjklx4/q6jvc7TaoRHDLkk&#xA;v6J1Llx+rPX5bff0zR/yfnuuAub+Yh3hO9F0NrZxcXNPWA+BBvxr3J8c33ZnZZxHjn9XQdzg6nVc&#xA;Q4Y8k3mijmieKQVRwQw9jm5yYxOJieRcOMiDYYte+X72Bz6KmaL9ll+19IzkdV2Rlxn0jii7bFq4&#xA;yG+xUrfQ9SmcL6JjHd3+ED+OVYey88zXDXvZT1MAOdsg/Qdt+jvqdd68vVpvz/mzo/5Lx+B4Xxvz&#xA;73X/AJmXHxIu6vba1j5zuEB6DqT8gMzNRqceEXM0048cpmgEvXzNppfiRIB/MVFPwNc1w7cwE16v&#xA;l+1yDop+SZwTwzxiSFw6HowzaYssckeKJsONKJiaK/LGKAu9c0+1cxs5eQfaVBWn07DNdqO1MOI0&#xA;TZ8nIx6acha211/TrhwgYxsegkFK/SCRkcHa2DIavhPmmelnEXzTHNm4zsVdirsVdirsVdirsVdi&#xA;rsVdirsVUrm6t7aP1J3CL2r1PyHfKc2eGKPFM0GcIGRoJd/ibTufGklP5uIp+uua3+XMF16vl+1y&#xA;PyU/JMre5guYxJA4dD3Hb5jNnhzwyx4oGw404GJoqmWsUFeazYWjFJHLSDqiCpHz7ZgantLDhNSN&#xA;y7g349NOe45KVv5h02ZwnJoienqCg+8EjKsPbGCZqzH3sp6ScfNMqile3jm0txmD6hePd3TzMdia&#xA;IPBR0GcFrNSc2QyPw9zvcWMQjSHzFbEy0C8eC/SOp9KY8WX37HNr2RqTjzCP8Mtv1OLq8YlC+oT7&#xA;Xbx7WwJjNJJCEU9xWpJ+4Z0HaupOLDceZ2cDS4xKe/Rh+cU7l2Ksr8u3j3FkUkNXhPGp6lT0zsOx&#xA;tScmKjzjt8OjqdZjEZWOqa5t3EdirsVdirsVdirsVdirsVdirsVYZq9491fSEn4EJSNewANPxzh+&#xA;0dScuUk8hsHdafGIwCCzAb0dot49tfR0P7uUhJF7EE0B+jNh2ZqTizDulsWjU4xKB7wybV7trWwk&#xA;kTaQ0VD4Fu/0Z1PaOoOLCZDnyDq9Pj45gFhZJJJJqTuSc4cm9y7t2BUf+l7j9GfUqnrTn39P+X78&#xA;2P8AKM/A8L7fLu/HRx/y44+L8Whbu2e2uZIHG6GnzHY/TmJqMJxTMD0bccxKIIUspZo/Q7Z5tSiK&#xA;j4Yjzc+AHT8c2PZWEzzxrlHdx9VMRgfNPfMVs82nlkFTCwcj2oQf150HbOAzw2P4TbgaOYjPfqxP&#xA;OOdu7FWUeWbZ47N5WFPWaqj/ACV2rnW9h4THEZH+I/c6rWzBlXcnGbpw3Yq7FXYq7FXYq7FXYq7F&#xA;XYq7FWEalbPb300bD9osp8VJqDnB63CceWUT3/Y7zDMSgChsxG1F6VbPcX8KKKhWDufBVNTmboMB&#xA;yZogd9n3Bpzz4YEsm122e406RUFXQhwPGnX8M6ntXAcmAgcxu6zSz4Zi2HZxLuXYqifqE/1D65T9&#xA;1z4/R4/Ku2ZX5Sfg+L/Ddft/Q1eKOPh6ss1DS7W+UeqCrr9mReo9s7DV6DHnHq597qcWeUOSWDyo&#xA;nL4rklfAJQ/fU5qx2AL3nt7v2uV+fPcm9nY29nF6cC0B3ZjuSfc5udNpYYY8MA4eTLKZsq+ZDWk9&#xA;35atJnLwuYCeqgcl+gbZpdR2JjmbieH7Q5mPWyAo7tWvli1jcNNIZqdFpxH07nI4Ow8cTczxfYme&#xA;tkRsKTkAAAAUA2AGbsCtg4TsKuxV2KuxV2KuxV2KuxV2KuxV2KoW/wBNtr1AswPJfsuuzDMTV6LH&#xA;nFS+fVtxZpQOyV/4UTlX6yePhw3++v8ADNR/IAv69vd+1y/z57k1sdOtrKMpCu5+053Y/PNxpdHj&#xA;wRqI+PVxMuaUzuicympKb3y5aXDmSNjA7daCq/dtmn1XY2PIbieE/Z8nLx6yURR3UrfytbI4aaVp&#xA;QP2QOAPz3OVYewoRNzkZfYznrpEbCk59KL0vS4D0qceFNqeFM3Xhx4eGvT3OFxG76pVq2vLaOYIF&#xA;Dzj7RP2V+7qc1PaHawwnggLl9gcvT6XjFnklK+Y9UDVLKR/KVFPw3zTjtrUXdj5OWdHjT3StXivl&#xA;KkcJ1FWTsR4jN/2f2jHUCuUx0cDPpzj9yOlljijaSQ8UQVYnwGZ85iETI7ANEYkmgxu78z3LuRbK&#xA;I4x0ZhVj/DOY1HbmQn92OEfa7PHoogerdba+ZrxHH1hVlj70HFh8qbZHB25lifWBIfIrPRRI22ZL&#xA;BPFPCs0R5I4qDnUYssckRKPIutlExNFfljF2KuxV2KuxV2KuxV2KuxV2KuxVK9W1tLI+lGokuCKk&#xA;Hoo981PaHagwemO8/ucrT6Yz3PJJv8R6pyrzWn8vEU/rmk/lnUXdj5Ob+Txp1pOtR3v7p19O4ArQ&#xA;dGHtm87P7TGf0kVP7/c4Wo0xhuOSZMyopZjRVFWJ6ADNpKQAs8nGAtjl75mmZytooSMdHYVY/R0G&#xA;cxqu3Jk1jFDvLsseiFepSt/M18jj1gsqdxTifoIyrD23mifVUh8mU9FAjbZPv0pZ/UvrnL914d6/&#xA;y08c6H89i8Lxb9P4297geBLi4erDJJGkkaRjVnJZj7k1zh5zMpGR5l3QFCluQSjNHkZNTtyppVwp&#xA;+TbHM7s6ZjnhXf8Ae06gXAp75nkddPVV6PIA3yAJp94zoO3JkYQB1k4GiFz+DFs5F2rsVZJ5VkY2&#xA;80Z+yjAr/shv+rOp7BmTCQ6A/e6zXD1Ap5m+cF2KuxV2KuxV2KuxV2KuxV2KuxVgt7I0l3M7GrM7&#xA;V+/PP9TMyySJ7y77GKiAo5QzV9PkaO+gdeokX8TQjMnSTMcsSP5wa8ouJHkybzFI6aY4X9tlVj7d&#xA;f4Z1PbMzHAa6kB1mjF5GJZxrt3Yqu9aT0fRr+75c+PblSlcs8SXDw/w3aOEXfVH6zpclpcM6qTbu&#xA;aow6Cv7JzP7S0MsMyQPQeX6nH02cTFdUuzWOSnfl7S5WnW8lUrEm8df2j0r8hm+7H0MjMZZD0jl5&#xA;uDq84A4RzTvVLL65ZvCDR/tRk9OQze67S+PiMevT3uDgy8ErYZNDLDI0cqlHXqpziMmKUJcMhRDu&#xA;oyEhYajjeRwkalnbYKNycEIGRoCykkAWWYaPYGyswj/3rnnJ7E9voztezdJ4GKj9R3LptRl45X0R&#xA;2Z7Q7FXYq7FXYq7FXYq7FXYq7FXYqxTXdMlguXuEUmCU8qj9lj1BzkO1dDLHMzA9Evsdtpc4lGjz&#xA;CVZp3LTfQNLlmuEuZFKwRHkpP7TDpT5ZuuydDKcxkI9EftLh6rOBHhHMshv7Rbu0kgJoWHwt4Ebj&#xA;Ok1enGbGYd7rsWTgkCwu4tpreUxTKVcePf3GcNmwyxy4ZCi7uExIWFiqzsFUFmOwA3JOQjEk0OaS&#xA;aTz/AA7L+i60/wBMrz4+1PsZvv5Gl+X/ANt5/scH84PE/osjYKQQwBB6g9M6YgEbutCES20n1fgj&#xA;g9TwAWtflmHHDp+LYQ4vg3GeStyaReZrS7FVK4itHX/SFRlHeQCg+/Kc0Mch6wK82cJSH021bRWS&#xA;Am2WMDuYwP1jBgx4gP3Yj8KWcpH6rVsvYOxV2KuxV2KuxV2KuxV2KuxV2KuxVxAIodweoxIVCfVt&#xA;J9X+7g9TwolfuzC8HTcXKHF8G7jyVzNIsCmw6ZmtLsVU547Z0/0hUZB/OAR+OVZYQkPWAR5somQO&#xA;yy2hsF+K2SMeLRhf1jIYMeEb4xH4UynKZ+q1fMhrYnrWry3M7wxsVt0PGg/ap1Jzj+0+0JZZmMT6&#xA;B9rttNpxEWeaV5qHLT7y/q0pmFnOxdWH7pj1BG9K50XZHaEjLwpm75fqdfq9OK4gnOo3q2do85FS&#xA;NkXxY9M3es1Iw4zP5e9w8OPjlTDbm6nuZDJM5dj49B7Ads4jNnnllxSNl3MICIoLYJ5oJBJC5Rx0&#xA;IyOLLLHLiiaKZREhRZjpN+L20EpFJFPGQDxHf6c7bs/V+Pj4uvIumz4uCVdEZma0uxV2KuxV2Kux&#xA;V2KuxV2KuxV2KsY13V5pJ3toWKwxni9NizDrX2zlO1e0JSmccTURz8y7TS6cAcR5pNmjc1OtB1eV&#xA;J0tZmLRSfDGTuVbsPkc3vZPaEozGORuJ5eRcHVacEcQ5sgvbpLW1knbcINh4k7AffnR6nOMWMzPR&#xA;1+OBlIBhd3e3F3KZJnLHsvYewGcPqNTPNLikXd48cYCgpxSyROHjYo46MDQ5VDJKBuJospRBFFP/&#xA;APETfovnt9cr6ft0rzp/nvnRfyyfy9/5Tl+38dXX/k/3lfwsfdGR2RhRlJDD3Gc5KJiSDzDsAbFt&#xA;ZFKL0hGbU7cKKkOCfkNzmb2dEnPCu9p1BqBT3zQjtYIw+ykgLfSCK50HbsScII6S/W4GiPr+DF85&#xA;J2rsVZJ5VRhbzufslwB8wN/151HYETwSPS3Wa47hPM37guxV2KuxV2KuxV2KuxV2KuxV2KsEvEZL&#xA;uZWFGDtX788/1MSMkgedl32M3Ee5Syhmr2KO97AqfaMi0+/MjSRMssQOfEGvKaifcybzGjNpjFei&#xA;spb5dP451PbUScBroQ6zRn94xLOOdu7FW/Tf0/Up8FePLtWlaZPgNcXRFi6ZLq+gG4kNxbECRvtx&#xA;nYE+IPjnT9o9knJLjx/V1DrdPquEVLklA0HVS3H0CPcstP15ph2VqCa4ftDl/msfen2j6MtjWWQh&#xA;7hhSo6KPAZ0PZ3ZoweqW8z9jgajU8ew5JhPDHPE8Ug5I4owzY5cUckTGXIuPGRibDGLvy5fROfQA&#xA;mj7EEBh8wc5XUdi5YH0eqP2u0x6yJG+xW23lzUJXAlUQp3ZiCfoAyODsbNM+ocITPWQA23ZPa20V&#xA;tAsMQoiDbxPuc6vBgjigIR5B1c5mRsquWsHYq7FXYq7FXYq7FXYq7FXYq7FUo1jQ/rb+vAQs9KMp&#xA;6NT38c03aXZXjHjhtP73M0+q4NjySX9Bary4+gfnyWn680X8lai64ftH63N/NY+9O9H0MWbevMQ8&#xA;9KKB0Wv8c33Z3ZfgnjnvP7nB1Gp49hyTSSNJI2jcckYEMD3BzbTgJAg8i4oJBsMZvfLd3G5Nt++i&#xA;PQVAYfOucrqexckT+79Uftdpj1kSPVsVK38valK4DoIU7uxB/AE5Th7HzyO44R5sp6uAG26f/oe0&#xA;+ofUqHh15/tc/wCb550f8nY/B8Lp39b73X/mJcfEq3uo2tmgadqE/ZQbsfkMt1Wsx4Bcz8OrHHhl&#xA;M7Jcvmm0LUMMgXx2J+6uawdvY73jKnJOhl3hNba6guohLA4dT18QfAjNvg1EMseKBsOJPGYmiq5c&#xA;wSy78w2Nu5jWszjY8KUH0nNVqO2MOM0PUfJyseknIXyW2vmOwmcI/KEnoWpx+8ZHB21hmaNx9/JM&#xA;9HOO43TXNu4jsVdirsVdirsVdirsVdirsVdirsVULy+trSPnO/EH7K9SfkMx9TqseGNzLZjxSmaC&#xA;Wf4qtOVPRk4+O1furmq/l7Hf0yr4OV+Rl3hM7S9truP1IH5AbMOhB9xm10+phmjxQNuLkxygaKvm&#xA;Q1pde69Y2rmOplkHVU6A+5OazU9rYsR4fql5OTj0s5C+QUrfzLYyuFkVoa9GahX7xlOHtvDI1K4/&#xA;cznopjlumvNePOo4UryrtTxrm44hV9HErowe9unurqSZz9o/CPBewzgdVnOXIZnq7zFAQiAFDMds&#xA;THQbp4NQjUH4Jjwdfn0P0HNn2TnOPMB0lsXG1WMSgfJPfMF29vp54GjysIwR1AIJP6s6DtfUHHh2&#xA;5yNOBpMYlPfoxHOMdw7FWVeW7t5rJonNTAeKn/JPTOu7F1BniMT/AA/c6rWYwJWOqbZuXDdirsVd&#xA;irsVdirsVdirsVdirsVYVqt09zfSux2ViqDwUGgzhdfnOXLInvoe53eDGIwAQmYTcjNHu3tr+Jgf&#xA;hdgkg7EMafhmd2dqDizRI5E0fi0ajGJQLJtaunttPkdDSRqIp8C3f7s6rtPOcWEkczs6zTYxKYBY&#xA;bnEO6dgVF/pOf9HfUqnjyrX/ACf5fvzN/PT8Dwul/Z3fNp8EcfEp3tq9rdSQuPsn4T4r2OVarAcW&#xA;QwPRlimJxBChmO2JjoNq8+oRsB8EJ5u3y6D6Tmz7JwHJmB6R3LjarIIwPmnvmC0e4088BV4mEgA6&#xA;kAEH9edB2vpzkw7c4m3A0mQRnv1YjnGO4dirKvLdo8Nk0rihnPJR/kjpnXdi6cwxGR/i+51WsyAy&#xA;odE2zcuG7FXYq7FXYq7FXYq7FXYq7FXYqwrVbV7a+lRhszFkPipNRnC6/AcWWQPfY9zu8GQSgChM&#xA;wm5GaPaPc38SgfCjB5D2AU1/HM7s7TnLmiByBs/Bo1GQRgWTa1avc6fIiCsi0dR4le33Z1XaeA5c&#xA;JA5jd1mmyCMwSw3OId07AqL/AEZP+jvrtDx5Up/k/wA335m/kZ+B4vS/s7/m0+MOPhZZe6da3iBZ&#xA;1qR9lxsw+RzsNVo8ecVMfHq6nHmlA7Jcvla0DVM0hXw2B++mawdg473lKnJOul3BNba1gtYhFAgR&#xA;R18SfEnNvg08MUeGAoOJPIZGyq5cwSy78vWNw5kWsLnc8KUP0HNVqOx8OQ2PSfJysernEVzW2vly&#xA;whcO/KYjoGpx+4ZHB2LhgbNy9/JM9ZOWw2TXNu4jsVdirsVdirsVdirsVdirsVdirsVULyxtruPh&#xA;OnID7LdCPkcx9TpceaNTDZjyygbCWf4VtOVfWk4+G1fvpmq/kHHf1Sr4OV+el3BM7SytrSP04E4g&#xA;7sepJ9zm10+mhhjwwFOLkySmbKvmQ1pde6DY3TmShikPVk6E+4OazU9k4sp4vpl5OTj1U4iuYUrf&#xA;y1YxOGkZpqdFagX7hlOHsTDE3K5fcznrZnlsmvBePCg4UpxptTwpm44RVdHEvqk2r6+beQ29sAZF&#xA;+3IdwD4AeOaPtHtY45cGP6upc3T6XiFy5JQNe1UNy9cn2KrT9WaYdq6gG+L7A5f5XH3J9o+srfVj&#xA;kAS4UVoOjDxGdD2d2kM/pltMfa4Go03BuOSYTzRwRPLIeKIKsc2OXLHHEylyDjxiZGgxi78x30rn&#xA;0CIY+wABY/MnOV1HbWWZ9Hpj9rtMejiBvuVtt5i1CJwZWEyd1YAH6CBkcHbOaB9R4gmejgRtsye1&#xA;uYrmBZojVHG3iPY51eDPHLATjyLq5wMTRVctYOxV2KuxVjupeY5fUaKzoqqaGUgEn5V2pnM63tqX&#xA;EY4uQ6/qdlh0Yq5IGPX9URwxl5jurKKH7gDmDDtbURN8V+8N8tJjPRkml6nFfwllHGRNpE8K9x7Z&#xA;02h10dRGxtIcw6zPhOM+SMzOaXYq7FXYqlGsa59Uf0IAGnpVmPRa+3jmm7S7V8E8EN5/c5mn0vHu&#xA;eSS/p3VeXL1z8uK0/Vmi/lXUXfF9g/U5v5XH3J3o+uC8b0JgEnpVSOjU/jm+7O7U8Y8E9p/e4Oo0&#xA;3BuOSaSSJHG0jniigliewGbacxEEnkHFAJNBjN75ku5HItv3MQ6GgLH51zldT21kkf3fpj9rtMej&#xA;iB6typW/mHUonBdxMndGAH4gDKcPbGeJ3PEPNlPSQI22T/8ATFp9Q+u1PDpw/a5/y/POj/lHH4Pi&#xA;9O7rfc6/8vLj4WHO7O7OxqzElj7nOJlIyJJ5l3IFCmsilF6Q7LqduVNCXAPyOxzN7OkRnhXe06gX&#xA;Ap75od1sEUfZeQBvoBNM6Dt2RGEAdZfrcDRD1/Bi+ck7V2Ksk8quxt50P2Q4I+ZG/wCrOo7AkeCQ&#xA;6W6zXDcJ5m/cF2KuxVDam7Jp9wy/aEbU+7MXXSIwzI/mltwi5j3sIzgneOxVNfLLsNR4g7Mjch8q&#xA;HNx2JIjPXeC4mtHo+LK8691LsVdirsVYJeOz3czMasXav355/qZE5JE87LvsYqI9yllDNXsXdL2B&#xA;k+0JFp9+ZGkkY5Ykc+INeUXE+5k3mN2XTGC9GZQ3y6/wzqe2pEYDXUh1mjH7xiWcc7d2Kt+o/p+n&#xA;X4K8uPatKVyfGa4eiKF2metaRLbTvNGpa3c8qj9mvUHNp2n2fLFMyiPQfscXTagSFHmleahy0+8v&#xA;6TKJheTqUVR+6U9STtWmdF2R2fIS8WYquX63X6vUCuEJzqNkt5aPATQndG8GHTN3rNMM2Mw+XvcP&#xA;Dk4JWw25tZ7aQxzIUYePQ+4PfOIzYJ4pcMhRdzCYkLC2CCaeQRwoXc9AMjixSyS4YiymUhEWWY6T&#xA;YCytBETWRjykI8T2+jO27P0ngY+HrzLps+XjlfRGZmtLsVdirUiLIjI4qrgqw9jscjOIkCDyKQaN&#xA;sM1HTLiylIYFoifgl7Ee/vnEa3QzwSo/T0LusOcTHmg1VmIVQST0A3OYQBJoNxLKPL+lSWqtcTjj&#xA;NIKKndV67+5zrOyNBLEDOf1H7A6rV5xLYck4zdOG7FXYq7FWMa7pE0c73MKloZDyem5Vj1r7Zyna&#xA;vZ8ozOSIuJ5+RdppdQCOE80mzRuanWg6RK86XUylYo/ijB2LN2PyGb3sns+UpjJIVEcvMuDqtQAO&#xA;Ec2QXtql1ayQNsHGx8CNwfvzo9TgGXGYHq6/HMxkCwu7sri0lMcyFT2bsfcHOH1GmnhlwyDu8eSM&#xA;xYU4opJXCRqXc9FAqcqhjlM1EWWUpACyn/8Ah1v0Xw2+uV5+3SnCudF/Ix/L1/lOf7Px1df+c/eX&#xA;/Cn7FQCWIAHUnpnQkgDd14QiXOk+r8EkHqeIK1r88w45tPxbGHF8G4wyVuDSLzNaXYqpXEtoi/6Q&#xA;yKp7SEUP35TmnjiPWRXmzhGR+m2raWycEWzRkdxGR+oYMGTER+7MfhSzjIfVatl7B2KqD39ijcXu&#xA;I1bwLD8d8x5avFE0Zxv3hsGKZ5AqysrKGUhlPQjcZfGQIsMCKbwoWyPEiEysqp3LEAfjkJyiBciA&#xA;PNIBJ2Q9vPpjPSB4eZ7IVqfuzHxZcBPoML8qbJxnW9orMtqdiqlNd2sJpLMkZ8GYA/dlOTUY4fVI&#xA;D4s445S5BdFNDKvKJ1kXxUgj8MnjyxmLiQfciUSOYX5Ni4kAVOwHU4kqhPrOk+r/AHkHqeNUr9+Y&#xA;Xjabi5w4vg3cGSuRpFg13HTM1pdiqnPJbIn+kMiof5yAPxyrLOER6yAPNlESJ2WW01g3w2zxnxWM&#xA;r+oZDBkwnbGY/CmU4zH1Wr5kNbENZ1SS7uGRWIt0NEUdDT9o5xfaWulmmQD6By/W7jTYBAX1S7NY&#xA;5Kd+XtUlWdbOVi0T7R1/ZPWnyOb7sfXSExikfSeXk4OrwAjiHNO9Uvfqdm8wFX+zGD05HN7rtV4G&#xA;Iy69Pe4ODFxyphk00s0jSSsXdurHOIyZZTlxSNku6jERFBqOR43DxsVddww2IwQmYmwaKSARRZho&#xA;9+b2zDv/AHqHhJ7kd/pztezdX4+Kz9Q2LptRi4JV0SzzHqcqyfU4WKgCsxHU16L92artnXSEvCia&#xA;7/1OVo8AriKQZzjsEbpepy2U6mpMDH94naniPfM/Qa6WCf8AQ6hoz4RMebMZJUjiaVj8CqWJ9gK5&#xA;2s8gjEyPIC3TCJJphV/fz3sxkkPw/sJ2UZw2r1c88uKXLoO53eLEICghsxW1kvl3U5Jw1rMxZ0HJ&#xA;HPUr0IPyzqextdLJeOZsjl7nWazAI+oIjXdSeztlWI0mlqFPgB1OZHautOGAEfqk16XCJy35BiTM&#xA;zMWYksdyTuTnHEkmy7cBVtrqe2lEsLFXH3H2OW4M88UuKJosJwEhRZpY3S3VrHOopzG48CNiPvzu&#xA;dLnGXGJjq6XLDgkQxvXdTlnuXt0YiCI8aD9ph1JzmO1ddLJMwB9EftdlpcAjGzzKVZp3LTfQNUlh&#xA;uEtpGLQSnioP7LHpT55uuyddKExjJ9EvsLh6rADHiHMMhv7tbS0knIqVHwr4k7DOk1eoGHGZ9zrs&#xA;WPjkAwu4uZriUyzMWc+Pb2GcNmzSyS4pGy7uEBEUFisyMGUlWG4I2IOQjIg2OaSLTz/EUv6LpX/T&#xA;K8OXtT7eb7+WZfl/9t5ftcH8mPE/opJJG0cjRsKMhKsPcGmaKcDGRieYc4Gxa3IJRmjxs+p24UVo&#xA;4Y/Jdzmd2dAyzwrv+5p1BqBT3zPG7aerL0SQFvkQRX7znQduQJwgjpJwNEan8GLZyLtXYqyTyrGw&#xA;t55D9lmAH+xG/wCvOp7BgRCR6Eus1x9QCV6/GyapMSNn4sp8RQD+GajtaBjqJX1o/Y5elN4wl+a1&#xA;yHAEkACpOwGEC1ZpdwSHSZIRvIIePzIX+OdzqMUvyxh14P0OkxyHiA+bC84V3bsVTbyzGzagXA+F&#xA;EPI/PYZuew4E5r7g4mtPoRPmuNudvJ+xRl+R2OZPb8DcZdNw1aA8wkGc67B2Ksv8vxsmlx8tuZZg&#xA;PYnbO07IgY6cX1sun1ZvIWLXsbR3cyMKMrtX785LUwMckge8u1xm4gqOUM1fT42kvoEXqZF/A1Jz&#xA;J0kDLLED+cGvKaiT5Mm8xRu+mOV/YZWYe3T+OdT2zAywGuhBdZozWRiWca7d2KrvRk9H1qfu+XDl&#xA;25UrTLPDlw8X8N0jiF11ZPq2grduZ4GCTn7QP2W+7oc6rtDskZjxwNS+wur0+q4BR5JSvlzVC1Cq&#xA;gfzFhT8N8047F1F1Q+blnWY090rSIrFSxPOdhRn7AeAzf9n9nR04vnM9XAz6g5PcjpYo5Y2jkHJH&#xA;FGB8DmfOAnExO4LRGRBsMbu/LFyjk2zCSM9FY0YfwzmNR2HkB/dniH2uzx62JHq2W2vlm8dx9YZY&#xA;o+9DyY/Km2Rwdh5ZH1kRHzKz1sQNt2SwQRQQrDEOKIKAZ1GLFHHERjyDrZSMjZQuqaVDfxgE8JU+&#xA;xJ/A+2Ymu0EdRHukORbcGc4z5JA/lvU1agVWH8wYU/GhznZdi5waAB+LsBrMaZaV5fFvIs9yweRd&#xA;0QfZB8ST1ObXQdkeHITmbkOQcXPq+IVHknWbxwkh1Ly2ZJGmtGCljVom2Ff8k5z2t7F4pGWM8+n6&#xA;nPw6yhUkDF5b1JmAcLGvdiwP6q5gQ7Fzk70Pi3y1kByZFp2nQ2MHpx7sd5HPVjnS6PRxwQ4Rz6nv&#xA;ddmzGZsql3aQ3cDQyiqt0I6g9iMs1GnjmgYy5MceQwNhjc/lm/RyIisqdjXifpBzmMvYmaJ9NSHy&#xA;dlDWwI32V7HyzMXD3bBUG/pqak+xPbL9L2HIm8p27gwy60V6WRKqqoVRRQKADsBnTAACg60lLNW0&#xA;RL0+rGwjuAKEnow981XaHZYz+qO0/vcrT6kw2PJJv8OapypwWn83IU/rmk/kbUXVD5ub+cxp1pOi&#xA;x2X7129S4IpUdFHtm87P7MGD1E3P7vc4Wo1JnsOSZMqupVhVWFGB6EHNpKIIo8nGBpjl75ZmVy1o&#xA;weM9EY0YfT0Ocxquw5g3jNjuLssetFepSt/LN87j1isSdzXkfoAyrD2JmkfVUR82U9bADbdPv0XZ&#xA;/UvqfH91496/zV8c6H8ji8Lwq9P4397gePLi4urtQ1S1sVHqks7fZjXqffBq9fjwD1c+5cWCU+SW&#xA;DzWnL4rYhfEPU/dQZqx2+L3ht7/2OV+QPem9nfW95F6kDVA2ZTsQfcZudNqoZo8UC4eTFKBoq+ZD&#xA;Wk935ltIXKQoZyOrA8V+g75pdR23jgaiOL7A5mPRSIs7NWvme1kcLNGYa9GryH07DI4O3McjUxw/&#xA;ameikBsbTkEEAg1B3BGbsG9w4SjdXcFrEZZm4qNh4k+AGVZ9RDFHimaDOGMzNBJ381xhvgtiV8S4&#xA;B+4A5pJdvi9obe/9jmjQHqUw0/WLS9+FCUlG5jbr9Hjmy0faOPPsNpdxcbLp5Q58kdme0JfqGt2l&#xA;m3pmss3dF7fM5rdZ2pjwnh+qXcP0uRi00p78ggovNcRaktuyL4qwY/cQuYMO34k+qFD33+pvloD0&#xA;KcwXEM8SywsHRuhGbzFljkjxRNguFKBiaK93SNC7sFRRVmOwAyUpiIs7AIAJNBJbjzTbo5WGFpVH&#xA;7RPAH5bHNHm7egDUY8X2frc2GhJG5pWsfMNpcuI5FMMjbLyNVJ8K7Zfpe2MeU8J9J+z5sMuklEWN&#xA;01zbuIhb/UrayQNMTyb7KLuxzE1etx4Bcvl1bcWGUzslf+K05U+rHj489/up/HNR/L4v6Nvf+xy/&#xA;yB701sdRtr2MvC24+0h2YfPNxpdZjzxuJ+HVxMuGUDuicympKb3zHaW7mONTO69aGi/fvmn1XbOP&#xA;GaiOI/Z83Lx6OUhZ2UrfzTbO4WaJogf2geYHz2GVYe3YSNTiY/aznoZAbG059WL0vV5j0qcuddqe&#xA;Nc3XiR4eK/T3uFwm66sGu7l7m5knc7ua/Idh9GcDqMxyzMz1d7jgIxACllLNH6HcvDqUQU/DKeDj&#xA;xB6fjmx7KzGGeNcpbOPqoCUD5J95iuXh08qho0rBCfahJ/VnQds5zDDQ/iNOBo4CU9+jEs4527sV&#xA;ZR5ZuXks3iY19FqKf8lt6Z1vYeYyxGJ/hP3uq1sAJX3pX5iuXl1FoyfghAVR7kAk5qO2cxnnMekX&#xA;L0cAIX3pXmpcpfDNJDKksZo6Gqn5ZZjyGEhIcwiUQRRZrcXXDT3ul7R81+ZFRndZtRw4TkH823Rw&#xA;x3Ph82EMzMxZjVmNST3Jzg5SJNnm7wCmsilOvLFy63bwV+CRS1PBl7/dm97CzEZDDoR9ocLWwBja&#xA;I803LqkNupor1d/enTMnt7OQIwHI7lq0MBZkx3OZdk7FWZaLcvcadE7mrrVGPjxNP1Z3HZmc5MES&#xA;efL5Ol1MBGZAYtqVy9xfTSMf2iqjwUGgGclrcxyZZSPf9jtcMBGACGzEbUXpVy9vfwupoCwVx4qx&#xA;oczdBnOPNEjvo+4tOeHFAhk2u3L2+nSMho7kID4V6/hnU9q5zjwEjmdnWaWHFMWw7OJdy7FUT9fn&#xA;+ofU6/uufL6PD5V3zK/Nz8Hwv4bv9n6Wrwhx8XVrULN7S6eFhsDVD4qehx1mmOHIYn4e5OLIJxtD&#xA;5itiZaBZvPfpJQ+lCeTN79hm17I0xyZhL+GO/wCpxdXkEYV1Kfa7ZvdWBEYrJGQ6juaVBH3HOg7V&#xA;0xy4ajzG7gaXIIz36sPzincuxVlfl2ze3si8go8x5UPUKOmdh2NpjjxWect/h0dTrMglKh0SvzJZ&#xA;vFeG4A/dTU38GAoR+GantrTGOXj/AIZfe5WjyAx4eoSjNK5iraWst1cJDGKsx3PYDuTl+nwSyzEY&#xA;9WGSYiLLNZrZJLR7YbKyFAfDagzucuASxnH0qnSRnUuJhE0MkMrRSLxdDRgc4PJjlCRjIUQ7yMhI&#xA;WFmVsk98sWbmZ7thRFBRD4k9fuzoOwtMeI5Dy5BwNbkFcKJ8zWbyQR3CCvo1Dj/JPf6Myu3NMZQE&#xA;x/Dz9zXosgBMT1YznKuzcAWIAFSdgB44QCTQVmulWjWthFE326cn+bGtPozutBpziwiJ59XSZ8nH&#xA;Mli+r2b2t9ICPgcl427EE1/DOT7R0xxZSDyO4dpp8glAILMBvR2i2b3N9HQfu4iHkbsADUD6c2HZ&#xA;mmOXMO6O5aNTkEYHvLJtXtGurCSNN5BRkHiV7fTnU9o6c5cJiOfMOr0+TgmCWFkEEgihGxBzhyK2&#xA;Lu3YFR/6IuP0Z9doeteHf0/5vvzY/wAnT8Dxfs8u/wDHRx/zA4+H8Wyu6sra6j4ToHA6HoR8jnX5&#xA;9Njyipi3U48koGwUvXyzpofkTIR/KWFPwFc1w7DwA36vn+xyDrZ+SZwQQwRiOFAiDoozaYsUcceG&#xA;IoONKRkbK/LGKAu9D0+6cyMhSQ/aZDSv0bjNdqOy8OU2RR8nIx6mcRS210DTrdw4UyMOhkNafQAB&#xA;kcHZODGbriPmmeqnIVyTHNm4y2WKOWMxyKHRuqncZDJjjMVIWExkQbCVv5Z01n5AyIP5Qwp+IJzV&#xA;S7EwE36h8f2OUNbPyR1pYWlopWCMLX7TdWPzJzP0+kx4RUBTRkyynzKIzJa0Le6ZZ3gHrJVhsHGz&#xA;D6cxNTosWb6xv39W3HmlDkUJF5a01H5HnJ/kswp+AGYePsTBE2bPvP6qbpayZ8k0RERQiKFVdgo2&#xA;AzaxiIihsHFJvm2RXY9MkhLLjy7pszlgrRE9RGQB9xBzVZux8EzdGPucqGrmPNWs9HsbRucacpB0&#xA;dzUj5dhl+m7Ow4TcRv3lhk1E57HkjczmhSubW3uY/TnQOvavUfI9spzYIZY8MxYZwmYmwl3+GdO5&#xA;8qyU/l5Cn6q5rf5DwXfq+f7HI/Oz8kyt7aC2jEcCBEHYd/mc2eHBDFHhgKDjTmZGyqZaxQV5o1hd&#xA;sXkQrIeroaE/PtmBqezcOY3IVLvDfj1M4bDkpW/l7TYXD8WlI6eoaj7gAMqw9j4IG6Mveynq5y8k&#xA;yoKU7eGbSnGdirsVdiqnc3EdvA80hoiCp/plWbNHHAzlyDKEDI0GK3ev6hO5KOYY/wBlE2P0nrnI&#xA;6jtbNkOx4R5O2x6WERvuVttruowOC0hlTuj71+nqMjg7VzwNk8Q7imelhIcqZVZ3cV3brPF9luoP&#xA;UEdQc67TaiOaAnHq6nJjMDRQWs6wLFRHGA07ior0UeJzB7S7R8AcMd5n7G/Tafj3PJjr6vqbMWNw&#xA;4J7A0H3DOal2jnJvjLsRp4Domek+YJTKsF2eSuaLL0IJ6Vpm17P7XkZCGXe+v63F1GkFXFkWdK65&#xA;2KuxV2KobUb+KytzK+56InicxdZq44IcR+AbcOIzlQYtPrepTOW9YxjsqfCBnJZe1M8zfFXu2drH&#xA;TQA5K1j5gvIJAJ2M0J+0D9ofI5fpe2MsD6zxR+1ry6SMhtsWVRSJLGsiHkjgFT7HOuhMTiJDkXVS&#xA;BBopNrWuvbyG2tqeqPtyHfjXsB45o+0+1TjlwY/q6nuc3TaUSHFLkkv6W1Lly+svX57fd0zR/wAo&#xA;Z7vjLm/l4dwTvRdca5cW9zT1iPgcbcqdiPHN92Z2ocp4J/V0Pe4Op0vCOKPJOs3jhOxV2KuxV2Ku&#xA;xV2KpP5oZxYIB9kyDl9xzS9uk+CO7i/QXM0I9Z9zF85J2rsVZJ5VLehOv7IYEfMjf9WdR2ATwSHS&#xA;3W64bhKteLHVZ+XbiB8uIzUdrEnUSvy+4OVpf7sIDNc5DsVZ7blmgjL/AGyqlvnTfPQ8JJgCedB0&#xA;E+ZpfljF2KuxVjvmst6tuv7PFiPnUVzme3yeKA6UXZaDkUhznnPdirLvLzOdLj5dAWC/Kudn2OSd&#xA;OL8/vdPqx+8LFrss11MW+0XatfGuclqCTkkTzsu1x/SPcpZSzVrFnW9gKfa9RafeMyNKSMsa58Q+&#xA;9hlHpN9zOs790LsVdirsVdirsVdiqhfWaXdq8D7cvst4MOhzH1emGbGYHq2YshhK2G3dhdWjlJkI&#xA;HZ/2T8jnE6jSZMJqQ/U7nHljMbFq2s7m5cJBGXPc9h8zkcGmyZTUBaZ5IxFksw0ywWytVhB5NXk7&#xA;eLHO10WkGDGI9evvdNmy8crS/X9IkuCLm3HKVRSRO7AdCPfNb2t2dLJ+8h9XUd7kaXUCPpPJjTo6&#xA;MVdSrDqpFDnLyiYmiKLswQeSZ6Tos9zKskyFLdTU8hQt7AZtez+zJ5ZCUhUPvcXUakRFDmyzOwdS&#xA;7FXYq7FUDrGmi+tuKkCaM1jJ6e4PzzX9o6Lx4UPqHJv0+bgl5MRntp4HKTRlGHYj9WcblwzxmpCi&#xA;7iMxIWCrWOmXV5IFjQhP2pSPhAy/S6HJmNRG3f0YZc0YDdmVtbx28CQx/YQUH9c7bBhGOAgOQdLO&#xA;ZkbKQa7o03rtdW6F0feRF3IbuaeBzne1ezZcZyQFg8w7DS6kVwySPi3LjQ8ulO+aHhN11c+090LR&#xA;phMt1cqUVN40OxJ8SO1M6Dsrs2QkMkxVcg6/VakVwxZFnSuudirsVdir/9k=</xmpGImg:image>
               </rdf:li>
            </rdf:Alt>
         </xmp:Thumbnails>
         <xmpTPg:MaxPageSize rdf:parseType="Resource">
            <stDim:w>1000.000000</stDim:w>
            <stDim:h>1000.000000</stDim:h>
            <stDim:unit>Pixels</stDim:unit>
         </xmpTPg:MaxPageSize>
         <xmpTPg:NPages>1</xmpTPg:NPages>
         <xmpTPg:HasVisibleTransparency>False</xmpTPg:HasVisibleTransparency>
         <xmpTPg:HasVisibleOverprint>False</xmpTPg:HasVisibleOverprint>
         <xmpTPg:PlateNames>
            <rdf:Seq>
               <rdf:li>Cyan</rdf:li>
               <rdf:li>Magenta</rdf:li>
               <rdf:li>Yellow</rdf:li>
            </rdf:Seq>
         </xmpTPg:PlateNames>
         <xmpTPg:SwatchGroups>
            <rdf:Seq>
               <rdf:li rdf:parseType="Resource">
                  <xmpG:groupName>預設色票群組</xmpG:groupName>
                  <xmpG:groupType>0</xmpG:groupType>
                  <xmpG:Colorants>
                     <rdf:Seq>
                        <rdf:li rdf:parseType="Resource">
                           <xmpG:swatchName>R=255 G=204 B=84</xmpG:swatchName>
                           <xmpG:type>PROCESS</xmpG:type>
                           <xmpG:tint>100.000000</xmpG:tint>
                           <xmpG:mode>RGB</xmpG:mode>
                           <xmpG:red>255</xmpG:red>
                           <xmpG:green>205</xmpG:green>
                           <xmpG:blue>71</xmpG:blue>
                        </rdf:li>
                     </rdf:Seq>
                  </xmpG:Colorants>
               </rdf:li>
            </rdf:Seq>
         </xmpTPg:SwatchGroups>
         <dc:format>image/svg+xml</dc:format>
         <xmpMM:DerivedFrom rdf:parseType="Resource">
            <stRef:instanceID>xmp.iid:8b7b2ffe-de1f-4373-a7b5-d3e7e3a02d28</stRef:instanceID>
            <stRef:documentID>xmp.did:8b7b2ffe-de1f-4373-a7b5-d3e7e3a02d28</stRef:documentID>
            <stRef:originalDocumentID>xmp.did:f59a532d-5494-41df-998c-357af674267c</stRef:originalDocumentID>
         </xmpMM:DerivedFrom>
         <xmpMM:DocumentID>xmp.did:206bc7c4-a47f-413e-9969-aac50d07dc81</xmpMM:DocumentID>
         <xmpMM:InstanceID>xmp.iid:206bc7c4-a47f-413e-9969-aac50d07dc81</xmpMM:InstanceID>
         <xmpMM:OriginalDocumentID>xmp.did:f59a532d-5494-41df-998c-357af674267c</xmpMM:OriginalDocumentID>
         <xmpMM:History>
            <rdf:Seq>
               <rdf:li rdf:parseType="Resource">
                  <stEvt:action>saved</stEvt:action>
                  <stEvt:instanceID>xmp.iid:f59a532d-5494-41df-998c-357af674267c</stEvt:instanceID>
                  <stEvt:when>2026-03-13T11:17:58+08:00</stEvt:when>
                  <stEvt:softwareAgent>Adobe Illustrator 30.2 (Macintosh)</stEvt:softwareAgent>
                  <stEvt:changed>/</stEvt:changed>
               </rdf:li>
               <rdf:li rdf:parseType="Resource">
                  <stEvt:action>saved</stEvt:action>
                  <stEvt:instanceID>xmp.iid:206bc7c4-a47f-413e-9969-aac50d07dc81</stEvt:instanceID>
                  <stEvt:when>2026-03-13T11:20:57+08:00</stEvt:when>
                  <stEvt:softwareAgent>Adobe Illustrator 30.2 (Macintosh)</stEvt:softwareAgent>
                  <stEvt:changed>/</stEvt:changed>
               </rdf:li>
            </rdf:Seq>
         </xmpMM:History>
      </rdf:Description>
   </rdf:RDF>
</x:xmpmeta>
                                                                                                    
                                                                                                    
                                                                                                    
                                                                                                    
                                                                                                    
                                                                                                    
                                                                                                    
                                                                                                    
                                                                                                    
                                                                                                    
                                                                                                    
                                                                                                    
                                                                                                    
                                                                                                    
                                                                                                    
                                                                                                    
                                                                                                    
                                                                                                    
                                                                                                    
                                                                                                    
                           
<?xpacket end="w"?>
  </metadata>
</svg>