<?xml version="1.0" encoding="UTF-8"?>
<svg id="_圖層_1" xmlns="http://www.w3.org/2000/svg" version="1.1" viewBox="0 0 1000 1000">
  <!-- Generator: Adobe Illustrator 30.2.1, SVG Export Plug-In . SVG Version: 2.1.1 Build 1)  -->
  <path d="M234.147,88.478c0,22.158-17.964,40.123-40.124,40.123s-40.123-17.964-40.123-40.123,17.964-40.124,40.123-40.124,40.124,17.964,40.124,40.124Z" fill="#ffcd48"/>
  <path d="M336.139,88.478c0,22.158-17.964,40.123-40.123,40.123s-40.124-17.964-40.124-40.123,17.964-40.124,40.124-40.124,40.123,17.964,40.123,40.124Z" fill="#ffcd48"/>
  <path d="M438.131,88.478c0,22.158-17.964,40.123-40.123,40.123s-40.124-17.964-40.124-40.123,17.964-40.124,40.124-40.124,40.123,17.964,40.123,40.124Z" fill="#ffcd48"/>
  <path d="M540.124,88.478c0,22.158-17.964,40.123-40.124,40.123s-40.124-17.964-40.124-40.123,17.964-40.124,40.124-40.124,40.124,17.964,40.124,40.124Z" fill="#ffcd48"/>
  <path d="M642.116,88.478c0,22.158-17.964,40.123-40.124,40.123s-40.123-17.964-40.123-40.123,17.964-40.124,40.123-40.124,40.124,17.964,40.124,40.124Z" fill="#ffcd48"/>
  <path d="M744.108,88.478c0,22.158-17.964,40.123-40.124,40.123s-40.123-17.964-40.123-40.123,17.964-40.124,40.123-40.124,40.124,17.964,40.124,40.124Z" fill="#ffcd48"/>
  <g>
    <path d="M234.147,191.359c0,22.158-17.964,40.123-40.124,40.123s-40.123-17.964-40.123-40.123,17.964-40.124,40.123-40.124,40.124,17.964,40.124,40.124Z" fill="#ffcd48"/>
    <path d="M336.139,191.359c0,22.158-17.964,40.123-40.123,40.123s-40.124-17.964-40.124-40.123,17.964-40.124,40.124-40.124,40.123,17.964,40.123,40.124Z" fill="#ffcd48"/>
    <path d="M438.131,191.359c0,22.158-17.964,40.123-40.123,40.123s-40.124-17.964-40.124-40.123,17.964-40.124,40.124-40.124,40.123,17.964,40.123,40.124Z" fill="#ffcd48"/>
    <path d="M540.124,191.359c0,22.158-17.964,40.123-40.124,40.123s-40.124-17.964-40.124-40.123,17.964-40.124,40.124-40.124,40.124,17.964,40.124,40.124Z" fill="#ffcd48"/>
    <path d="M642.116,191.359c0,22.158-17.964,40.123-40.124,40.123s-40.123-17.964-40.123-40.123,17.964-40.124,40.123-40.124,40.124,17.964,40.124,40.124Z" fill="#ffcd48"/>
    <path d="M744.108,191.359c0,22.158-17.964,40.123-40.124,40.123s-40.123-17.964-40.123-40.123,17.964-40.124,40.123-40.124,40.124,17.964,40.124,40.124Z" fill="#ffcd48"/>
    <path d="M846.1,191.359c0,22.158-17.964,40.123-40.123,40.123s-40.124-17.964-40.124-40.123,17.964-40.124,40.124-40.124,40.123,17.964,40.123,40.124Z" fill="#ffcd48"/>
  </g>
  <path d="M234.147,294.24c0,22.158-17.964,40.123-40.124,40.123s-40.123-17.964-40.123-40.123,17.964-40.124,40.123-40.124,40.124,17.964,40.124,40.124Z" fill="#ffcd48"/>
  <path d="M336.139,294.24c0,22.158-17.964,40.123-40.123,40.123s-40.124-17.964-40.124-40.123,17.964-40.124,40.124-40.124,40.123,17.964,40.123,40.124Z" fill="#ffcd48"/>
  <path d="M744.108,294.24c0,22.158-17.964,40.123-40.124,40.123s-40.123-17.964-40.123-40.123,17.964-40.124,40.123-40.124,40.124,17.964,40.124,40.124Z" fill="#ffcd48"/>
  <path d="M846.1,294.24c0,22.158-17.964,40.123-40.123,40.123s-40.124-17.964-40.124-40.123,17.964-40.124,40.124-40.124,40.123,17.964,40.123,40.124Z" fill="#ffcd48"/>
  <path d="M234.147,397.119c0,22.16-17.964,40.124-40.124,40.124s-40.123-17.964-40.123-40.124,17.964-40.123,40.123-40.123,40.124,17.964,40.124,40.123Z" fill="#ffcd48"/>
  <path d="M336.139,397.119c0,22.16-17.964,40.124-40.123,40.124s-40.124-17.964-40.124-40.124,17.964-40.123,40.124-40.123,40.123,17.964,40.123,40.123Z" fill="#ffcd48"/>
  <path d="M744.108,397.119c0,22.16-17.964,40.124-40.124,40.124s-40.123-17.964-40.123-40.124,17.964-40.123,40.123-40.123,40.124,17.964,40.124,40.123Z" fill="#ffcd48"/>
  <path d="M846.1,397.119c0,22.16-17.964,40.124-40.123,40.124s-40.124-17.964-40.124-40.124,17.964-40.123,40.124-40.123,40.123,17.964,40.123,40.123Z" fill="#ffcd48"/>
  <path d="M234.147,499.999c0,22.16-17.964,40.124-40.124,40.124s-40.123-17.964-40.123-40.124,17.964-40.123,40.123-40.123,40.124,17.964,40.124,40.123Z" fill="#ffcd48"/>
  <path d="M336.139,499.999c0,22.16-17.964,40.124-40.123,40.124s-40.124-17.964-40.124-40.124,17.964-40.123,40.124-40.123,40.123,17.964,40.123,40.123Z" fill="#ffcd48"/>
  <path d="M438.131,499.999c0,22.16-17.964,40.124-40.123,40.124s-40.124-17.964-40.124-40.124,17.964-40.123,40.124-40.123,40.123,17.964,40.123,40.123Z" fill="#ffcd48"/>
  <path d="M540.124,499.999c0,22.16-17.964,40.124-40.124,40.124s-40.124-17.964-40.124-40.124,17.964-40.123,40.124-40.123,40.124,17.964,40.124,40.123Z" fill="#ffcd48"/>
  <path d="M642.116,499.999c0,22.16-17.964,40.124-40.124,40.124s-40.123-17.964-40.123-40.124,17.964-40.123,40.123-40.123,40.124,17.964,40.124,40.123Z" fill="#ffcd48"/>
  <path d="M744.108,499.999c0,22.16-17.964,40.124-40.124,40.124s-40.123-17.964-40.123-40.124,17.964-40.123,40.123-40.123,40.124,17.964,40.124,40.123Z" fill="#ffcd48"/>
  <path d="M234.147,602.88c0,22.16-17.964,40.124-40.124,40.124s-40.123-17.964-40.123-40.124,17.964-40.123,40.123-40.123,40.124,17.964,40.124,40.123Z" fill="#ffcd48"/>
  <path d="M336.139,602.88c0,22.16-17.964,40.124-40.123,40.124s-40.124-17.964-40.124-40.124,17.964-40.123,40.124-40.123,40.123,17.964,40.123,40.123Z" fill="#ffcd48"/>
  <path d="M744.108,602.88c0,22.16-17.964,40.124-40.124,40.124s-40.123-17.964-40.123-40.124,17.964-40.123,40.123-40.123,40.124,17.964,40.124,40.123Z" fill="#ffcd48"/>
  <path d="M846.1,602.88c0,22.16-17.964,40.124-40.123,40.124s-40.124-17.964-40.124-40.124,17.964-40.123,40.124-40.123,40.123,17.964,40.123,40.123Z" fill="#ffcd48"/>
  <path d="M234.147,705.76c0,22.16-17.964,40.124-40.124,40.124s-40.123-17.964-40.123-40.124,17.964-40.123,40.123-40.123,40.124,17.964,40.124,40.123Z" fill="#ffcd48"/>
  <path d="M336.139,705.76c0,22.16-17.964,40.124-40.123,40.124s-40.124-17.964-40.124-40.124,17.964-40.123,40.124-40.123,40.123,17.964,40.123,40.123Z" fill="#ffcd48"/>
  <path d="M744.108,705.76c0,22.16-17.964,40.124-40.124,40.124s-40.123-17.964-40.123-40.124,17.964-40.123,40.123-40.123,40.124,17.964,40.124,40.123Z" fill="#ffcd48"/>
  <path d="M846.1,705.76c0,22.16-17.964,40.124-40.123,40.124s-40.124-17.964-40.124-40.124,17.964-40.123,40.124-40.123,40.123,17.964,40.123,40.123Z" fill="#ffcd48"/>
  <path d="M234.147,808.641c0,22.16-17.964,40.124-40.124,40.124s-40.123-17.964-40.123-40.124,17.964-40.123,40.123-40.123,40.124,17.964,40.124,40.123Z" fill="#ffcd48"/>
  <path d="M336.139,808.641c0,22.16-17.964,40.124-40.123,40.124s-40.124-17.964-40.124-40.124,17.964-40.123,40.124-40.123,40.123,17.964,40.123,40.123Z" fill="#ffcd48"/>
  <path d="M744.108,808.641c0,22.16-17.964,40.124-40.124,40.124s-40.123-17.964-40.123-40.124,17.964-40.123,40.123-40.123,40.124,17.964,40.124,40.123Z" fill="#ffcd48"/>
  <path d="M846.1,808.641c0,22.16-17.964,40.124-40.123,40.124s-40.124-17.964-40.124-40.124,17.964-40.123,40.124-40.123,40.123,17.964,40.123,40.123Z" fill="#ffcd48"/>
  <path d="M234.147,911.522c0,22.16-17.964,40.124-40.124,40.124s-40.123-17.964-40.123-40.124,17.964-40.123,40.123-40.123,40.124,17.964,40.124,40.123Z" fill="#ffcd48"/>
  <path d="M336.139,911.522c0,22.16-17.964,40.124-40.123,40.124s-40.124-17.964-40.124-40.124,17.964-40.123,40.124-40.123,40.123,17.964,40.123,40.123Z" fill="#ffcd48"/>
  <path d="M744.108,911.522c0,22.16-17.964,40.124-40.124,40.124s-40.123-17.964-40.123-40.124,17.964-40.123,40.123-40.123,40.124,17.964,40.124,40.123Z" fill="#ffcd48"/>
  <path d="M846.1,911.522c0,22.16-17.964,40.124-40.123,40.124s-40.124-17.964-40.124-40.124,17.964-40.123,40.124-40.123,40.123,17.964,40.123,40.123Z" fill="#ffcd48"/>
  <metadata><?xpacket begin="﻿" id="W5M0MpCehiHzreSzNTczkc9d"?>
<x:xmpmeta xmlns:x="adobe:ns:meta/" x:xmptk="Adobe XMP Core 10.0-c000 1.000000, 0000/00/00-00:00:00        ">
   <rdf:RDF xmlns:rdf="http://www.w3.org/1999/02/22-rdf-syntax-ns#">
      <rdf:Description rdf:about=""
            xmlns:xmp="http://ns.adobe.com/xap/1.0/"
            xmlns:xmpGImg="http://ns.adobe.com/xap/1.0/g/img/"
            xmlns:xmpTPg="http://ns.adobe.com/xap/1.0/t/pg/"
            xmlns:stDim="http://ns.adobe.com/xap/1.0/sType/Dimensions#"
            xmlns:xmpG="http://ns.adobe.com/xap/1.0/g/"
            xmlns:dc="http://purl.org/dc/elements/1.1/"
            xmlns:xmpMM="http://ns.adobe.com/xap/1.0/mm/"
            xmlns:stRef="http://ns.adobe.com/xap/1.0/sType/ResourceRef#"
            xmlns:stEvt="http://ns.adobe.com/xap/1.0/sType/ResourceEvent#">
         <xmp:CreatorTool>Adobe Illustrator 30.2 (Macintosh)</xmp:CreatorTool>
         <xmp:CreateDate>2026-03-13T11:21:57+08:00</xmp:CreateDate>
         <xmp:MetadataDate>2026-03-13T11:21:57+08:00</xmp:MetadataDate>
         <xmp:ModifyDate>2026-03-13T11:21:57+08:00</xmp:ModifyDate>
         <xmp:Thumbnails>
            <rdf:Alt>
               <rdf:li rdf:parseType="Resource">
                  <xmpGImg:width>196</xmpGImg:width>
                  <xmpGImg:height>256</xmpGImg:height>
                  <xmpGImg:format>JPEG</xmpGImg:format>
                  <xmpGImg:image>/9j/4AAQSkZJRgABAgEAAAAAAAD/7QAsUGhvdG9zaG9wIDMuMAA4QklNA+0AAAAAABAAAAAAAAEA&#xA;AQAAAAAAAQAB/+4ADkFkb2JlAGTAAAAAAf/bAIQABgQEBAUEBgUFBgkGBQYJCwgGBggLDAoKCwoK&#xA;DBAMDAwMDAwQDA4PEA8ODBMTFBQTExwbGxscHx8fHx8fHx8fHwEHBwcNDA0YEBAYGhURFRofHx8f&#xA;Hx8fHx8fHx8fHx8fHx8fHx8fHx8fHx8fHx8fHx8fHx8fHx8fHx8fHx8fHx8f/8AAEQgBAADEAwER&#xA;AAIRAQMRAf/EAaIAAAAHAQEBAQEAAAAAAAAAAAQFAwIGAQAHCAkKCwEAAgIDAQEBAQEAAAAAAAAA&#xA;AQACAwQFBgcICQoLEAACAQMDAgQCBgcDBAIGAnMBAgMRBAAFIRIxQVEGE2EicYEUMpGhBxWxQiPB&#xA;UtHhMxZi8CRygvElQzRTkqKyY3PCNUQnk6OzNhdUZHTD0uIIJoMJChgZhJRFRqS0VtNVKBry4/PE&#xA;1OT0ZXWFlaW1xdXl9WZ2hpamtsbW5vY3R1dnd4eXp7fH1+f3OEhYaHiImKi4yNjo+Ck5SVlpeYmZ&#xA;qbnJ2en5KjpKWmp6ipqqusra6voRAAICAQIDBQUEBQYECAMDbQEAAhEDBCESMUEFURNhIgZxgZEy&#xA;obHwFMHR4SNCFVJicvEzJDRDghaSUyWiY7LCB3PSNeJEgxdUkwgJChgZJjZFGidkdFU38qOzwygp&#xA;0+PzhJSktMTU5PRldYWVpbXF1eX1RlZmdoaWprbG1ub2R1dnd4eXp7fH1+f3OEhYaHiImKi4yNjo&#xA;+DlJWWl5iZmpucnZ6fkqOkpaanqKmqq6ytrq+v/aAAwDAQACEQMRAD8A9Ba1rU8k729u5SFDxZl2&#xA;LEdd/DOU7T7TnKZhA1Efa7TTaYAWeaThmVuSkhhuCOuaUSINjm5hDIdA1iWWQWlw3NiP3Uh67b0O&#xA;dJ2T2lKcvDmb7i6/VacAcUU3vrxLS1ed9+P2V8WPQZudXqRhxmZ6OHixmcqYbd391duXmckdk/ZH&#xA;yGcTqNXkzG5H9TuceKMBsGra8ubZw8EhQ9x2PzGRwanJiNwNJnjjIUQzDTL9b21WYDi1eLr4MM7X&#xA;RasZ8Yl16+902bFwSpL9f1eS3Itrc8ZWFZH7qD0A981va3aMsf7uH1dT3ORpdOJeo8mNO7uxZ2LM&#xA;erE1OcvKRkbJsuzAA5JnpGtT20qxzOXtmNDy3417g5tez+054pCMjcPucbUaYSFjmytnVVLsaKoq&#xA;T4AZ18pACzydSBbD9T1i5vJGCsUt6/DGNqjxbxzi9b2jPNI0ah3frdxh08YDzQUcskTB43KMOhU0&#xA;P4ZgQySibiaLeYg82U6Fqr3kbRTGs8Yry/mXpXOt7K15zAxl9cftDqtVg4DY5FX1jUhY23JQDNIa&#xA;Rg9Pcn5Zf2jrfAhY+o8mvT4eOXkxGe5nncvNIXY9yf1ZxuXNPIbkbLuIwERQCtY6ndWcgaNyU/ai&#xA;J+EjL9LrsmE3E7d3RhlwxmN2ZW1xHcQJNH9hxUf0ztsGYZICY5F0s4GJosf13WZvWa1t3KIm0jrs&#xA;S3cV8BnO9q9pS4zjgaA5l2Gl0wrikknJuXKp5da980PEbvq59J7oWszGZbW5Yur7RudyD4E9650H&#xA;ZXaUjIY5m75F1+q0wriiyLOldc7FXYq7FWAMGVirbMDQg+OedSBBo83oAWsilF6QGOp2wXrzB+gb&#xA;n8MzezwTnhXe06j6CnvmhXNghH2RIOX3HOg7dB8Ed3F+guBoT6z7mL5yTtXYqyTyqG9Cdv2SwA+Y&#xA;G/686jsAHgkelut1x3CVa8GGqz8u/Ej5cRmo7WBGolfl9wcrS/3YQGa5yHYqzO8SX9DyJ/uwQ0b6&#xA;F3zuNTGX5Yj+Lg/Ru6XGR4g7rYZnDu6diqa+Wgx1Ko6BG5fLbNx2ID4/wLia36PiifNYb1bdv2eL&#xA;AfOormT2+DxQPSi16DkUhznnPdirLvLyuNLj5dCWK/Kudn2OCNOL8/vdPqz+8LFrsMt1MG+0Hatf&#xA;GuclqARkkDzsu1x/SPcpZSzVrFXa9gCfa9RafeMyNKCcsa58Q+9hlPpN9zOs790LsVdirsVSHWNA&#xA;klla4tACz7yRdN/EVznu0uyZTkZ4+vMOw0+qAHDJKBpGpluItnr7ig+87Zph2fnJrgLl/mId6f6L&#xA;opsz689DORRVG4UHrv450PZnZng+uf1/c4Gp1PHsOSZXNvHcQPDIKo4of65tM2GOSBhLkXFhMxNh&#xA;it3oGoQOQiGaP9l03P0jrnI6jsnNjOw4h5O2x6qEhvsVttoWozuA0ZiTu77U+jqcjg7KzzNEcI7y&#xA;meqhEc7ZVZ2kVpbrBF9lepPUk9Sc67TaeOGAhHo6nJkMzZQWs6OL5RJGQs6Cgr0YeBzB7S7O8ccU&#xA;dpj7W/Tajg2PJjr6RqasVNu5I7gVH3jOal2dnBrgLsRqIHqmek+X5RKs94AqoarFWpJHStO2bXs/&#xA;siQkJ5dq6frcXUasVUWREV2PTOldcxnUvLtwkjSWi+pExr6Y+0vtv1Gcrrex5xkZYxce7qHaYdWC&#xA;KlzQMej6nIwUW7L7sOI+85gQ7NzyNcJ+OzedRAdWS6Rpa2EJqQ0z09Rh027DOp7P0A08d95Hm6zU&#xA;Z/EPkrajYRXtuYn2PVH8Dl2s0kc8OE/AsMOUwlYYtPompQuV9EyDsyfEDnJZey88DXDfu3drHUwI&#xA;5q1j5fvJ5AZ1MMI+0T9o/IZfpex8sz6xwx+1ry6uMRtuWVRRpFGsaDiiABR7DOuhAQiIjkHVSJJs&#xA;pNrWhPcSG5tqeqftxnblTuD45o+0+yjklx4/q6jvc3TaoRHDLkkv6J1Llx+rPX5bff0zR/yfnuuA&#xA;ub+Yh3hO9F0NrZxcXNPWA+BBvxr3J8c33ZnZZxHjn9XQdzg6nVcQ4Y8k6zeOE7FXYq7FVG6vba1j&#xA;5zuEB6DqT8gMo1Gpx4RczTPHjlM0Al6+ZtNL8SJAP5iop+BrmuHbmAmvV8v2uQdFPyTOCeGeMSQu&#xA;HQ9GGbTFljkjxRNhxpRMTRX5YxQF3rmn2rmNnLyD7SoK0+nYZrtR2phxGibPk5GPTTkLW2uv6dcO&#xA;EDGNj0EgpX6QSMjg7WwZDV8J80z0s4i+aY5s3GWyyxxRmSRgiL1Y7DIZMkYC5GgmMSTQSt/M2mq/&#xA;ECRx/MFFPxIOaqXbeAGvUfh+1yhop+SOtL+0u1LQSBqfaXow+YOZ+n1ePMLgbaMmKUOYRGZLWhb3&#xA;U7OzA9Z6Mdwg3Y/RmJqdbiw/Wd+7q248Mp8ghIvMumu/E84/8plFPwJzDx9t4JGjY94/VbdLRzHm&#xA;miOjqHRgytuGG4ObWMhIWNw4pFc2yabnpkkJZceYtNhcqGaUjqYwCPvJGarN2xggasy9zlQ0kz5K&#xA;1nrFjdtwjfjIeiOKE/Lscv03aOHMaid+4sMmnnDc8kbmc0KVzdW9tH6k7hF7V6n5DvlObPDFHima&#xA;DOEDI0Eu/wATadz40kp/NxFP11zW/wAuYLr1fL9rkfkp+SZW9zBcxiSBw6HuO3zGbPDnhljxQNhx&#xA;pwMTRVMtYoK81mwtGKSOWkHVEFSPn2zA1PaWHCakbl3Bvx6ac9xyUrfzDpszhOTRE9PUFB94JGVY&#xA;e2MEzVmPvZT0k4+aZVFK9vHNpbjMH1C8e7unmY7E0QeCjoM4LWak5shkfh7ne4sYhGkPmK2JloF4&#xA;8F+kdT6Ux4svv2ObXsjUnHmEf4ZbfqcXV4xKF9Qn2u3j2tgTGaSSEIp7itST9wzoO1dScWG48zs4&#xA;GlxiU9+jD84p3LsVZX5dvHuLIpIavCeNT1KnpnYdjak5MVHnHb4dHU6zGIysdUr8yXjy3htwf3UN&#xA;NvFiKk/jmp7a1Jll4P4Y/e5WjxgR4upSjNK5iraXUtrcJNGaMp3HYjuDl+nzyxTEo9GGSAkKLNZr&#xA;lI7R7kbqqFwPHaozucucRxnJ0q3SRhcuFhE00k0rSyNydzVic4PJklORlI2S7yMREUFmVsk98sXj&#xA;iZ7RjVGBdB4EdfvzoOwtSeI4zy5hwNbjFcSJ8zXjxwR26GnrVLn/ACR2+nMrtzUmMBAfxc/c16LG&#xA;CTI9GM5yrs3AlSCDQjcEeOEEg2FZrpV211YRSt9unF/mppX6c7rQag5cIkefV0mfHwTIYvq9491f&#xA;SEn4EJSNewANPxzk+0dScuUk8hsHaafGIwCCzAb0dot49tfR0P7uUhJF7EE0B+jNh2ZqTizDulsW&#xA;jU4xKB7wybV7trWwkkTaQ0VD4Fu/0Z1PaOoOLCZDnyDq9Pj45gFhZJJJJqTuSc4cm3duwKj/ANL3&#xA;H6M+pVPWnPv6f8v35sf5Rn4Hhfb5d346OP8Alxx8X4tC3ds9tcyQON0NPmOx+nMTUYTimYHo245i&#xA;UQQpZSzR+h2zzalEVHwxHm58AOn45seysJnnjXKO7j6qYjA+ae+YrZ5tPLIKmFg5HtQg/rzoO2cB&#xA;nhsfwm3A0cxGe/Viecc7d2Kso8s2zx2bysKes1VH+Su1c63sPCY4jI/xH7nVa2YMq7kr8xWzxai0&#xA;hHwTAMp9wACM1HbOEwzmXSTl6OYMK7krzUuUvhhkmlSKMVdzRR88sx4zOQiOZRKQAss1uLXnp72q&#xA;94+C/MCgzus2n4sJxj+bTo4ZKnxebCGVlYqwoymhB7EZwcokGjzd4DbWRSnXli2drt56fBGpWviz&#xA;dvuze9hYSchn0A+0uFrZgRpEeabZ2SG4UVVKo/tXpmT29gJEZjkNi1aGYsxY7nMuydirMtFtnt9O&#xA;iRxR2q7Dw5Gv6s7jszAceCIPPn83S6mYlMkMW1K2e3vpo2H7RZT4qTUHOS1uE48sonv+x2uGYlAF&#xA;DZiNqL0q2e4v4UUVCsHc+CqanM3QYDkzRA77PuDTnnwwJZNrts9xp0ioKuhDgeNOv4Z1PauA5MBA&#xA;5jd1mlnwzFsOziXcuxVE/UJ/qH1yn7rnx+jx+Vdsyvyk/B8X+G6/b+hq8UcfD1ZZqGl2t8o9UFXX&#xA;7Mi9R7Z2Gr0GPOPVz73U4s8ocksHlROXxXJK+ASh++pzVjsAXvPb3ftcr8+e5N7Oxt7OL04FoDuz&#xA;Hck+5zc6bSwwx4YBw8mWUzZV8yGtJ7vy1aTOXhcwE9VA5L9A2zS6jsTHM3E8P2hzMetkBR3atfLF&#xA;rG4aaQzU6LTiPp3ORwdh44m5ni+xM9bIjYUnIAAAAoBsAM3YFbBwlG6tILqIxTLyU7jxB8Qcqz6e&#xA;GWPDMWGcMhgbCTv5UjLfBckL4FAT94IzSS7AF7T2937XNGvPUJhp+j2ll8SAvKdjI3X6PDNlo+zs&#xA;eDcby7y42XUSnz5I7M9oS/UNEtLxvUNYpu7r3+YzW6zsvHmPF9Mu8fpcjFqZQ25hBReVIg1ZbhnX&#xA;wVQp+8lswYdgRB9U7Hur9bfLXnoE5gt4YIlihUIi9AM3mLFHHHhiKAcKUzI2V7okiFHUMjCjKdwR&#xA;kpQEhR3BQCQbCS3Hla3dy0MzRKf2SOYHy3GaPN2DAm4y4ft/U5sNcQNxatY+XrS2cSSMZpF3XkKK&#xA;D403y/S9j48R4j6j9nyYZdXKQobJrm3cRC3+m216gWYHkv2XXZhmJq9FjzipfPq24s0oHZK/8KJy&#xA;r9ZPHw4b/fX+Gaj+QBf17e79rl/nz3JrY6dbWUZSFdz9pzux+ebjS6PHgjUR8eriZc0pndE5lNSU&#xA;3vly0uHMkbGB260FV+7bNPquxseQ3E8J+z5OXj1koijupW/la2Rw00rSgfsgcAfnucqw9hQibnIy&#xA;+xnPXSI2FJz6UXpelwHpU48KbU8KZuvDjw8NenucLiN31SrVteW0cwQKHnH2ifsr93U5qe0O1hhP&#xA;BAXL7A5en0vGLPJKV8x6oGqWUj+UqKfhvmnHbWou7Hycs6PGnulavFfKVI4TqKsnYjxGb/s/tGOo&#xA;Fcpjo4GfTnH7kdLLHFG0kh4ogqxPgMz5zEImR2AaIxJNBjd35nuXci2URxjozCrH+GcxqO3MhP7s&#xA;cI+12ePRRA9W6218zXiOPrCrLH3oOLD5U2yODtzLE+sCQ+RWeiiRtsyWCeKeFZojyRxUHOoxZY5I&#xA;iUeRdbKJiaK/LGLsVdirsVdirsVdirsVdirsVdiqV6traWR9KNRJcEVIPRR75qe0O1Bg9Md5/c5W&#xA;n0xnueSTf4j1TlXmtP5eIp/XNJ/LOou7Hyc38njTrSdajvf3Tr6dwBWg6MPbN52f2mM/pIqf3+5w&#xA;tRpjDcckyZlRSzGiqKsT0AGbSUgBZ5OMBbHL3zNMzlbRQkY6Owqx+joM5jVduTJrGKHeXZY9EK9S&#xA;lb+Zr5HHrBZU7inE/QRlWHtvNE+qpD5Mp6KBG2yffpSz+pfXOX7rw71/lp450P57F4Xi36fxt73A&#xA;8CXFw9WGSSNJI0jGrOSzH3JrnDzmZSMjzLugKFLcglGaPIyanblTSrhT8m2OZ3Z0zHPCu/72nUC4&#xA;FPfM8jrp6qvR5AG+QBNPvGdB25MjCAOsnA0QufwYtnIu1dirJPKsjG3mjP2UYFf9kN/1Z1PYMyYS&#xA;HQH73Wa4eoFPM3zguxV2KuxV2KuxV2KuxV2KuxV2KsFvZGku5nY1Znav355/qZmWSRPeXfYxUQFH&#xA;KGavp8jR30Dr1Ei/iaEZk6SZjliR/ODXlFxI8mTeYpHTTHC/tsqsfbr/AAzqe2ZmOA11IDrNGLyM&#xA;SzjXbuxVd60no+jX93y58e3KlK5Z4kuHh/hu0cIu+qP1nS5LS4Z1Um3c1Rh0Ff2Tmf2loZYZkgeg&#xA;8v1OPps4mK6pdmsclO/L2lytOt5KpWJN46/tHpX5DN92PoZGYyyHpHLzcHV5wBwjmneqWX1yzeEG&#xA;j/ajJ6chm912l8fEY9envcHBl4JWwyaGWGRo5VKOvVTnEZMUoS4ZCiHdRkJCw1HG8jhI1LO2wUbk&#xA;4IQMjQFlJIAssw0ewNlZhH/vXPOT2J7fRna9m6TwMVH6juXTajLxyvojsz2h2KuxV2KuxV2KuxV2&#xA;KuxV2KuxVimu6ZLBcvcIpMEp5VH7LHqDnIdq6GWOZmB6JfY7bS5xKNHmEqzTuWm+gaXLNcJcyKVg&#xA;iPJSf2mHSnyzddk6GU5jIR6I/aXD1WcCPCOZZDf2i3dpJATQsPhbwI3GdJq9OM2Mw73XYsnBIFhd&#xA;xbTW8pimUq48e/uM4bNhljlwyFF3cJiQsLFVnYKoLMdgBuSchGJJoc0k0nn+HZf0XWn+mV58fan2&#xA;M338jS/L/wC28/2OD+cHif0WRsFIIYAg9QemdMQCN3WhCJbaT6vwRwep4ALWvyzDjh0/FsIcXwbj&#xA;PJW5NIvM1pdiqlcRWjr/AKQqMo7yAUH35TmhjkPWBXmzhKQ+m2raKyQE2yxgdzGB+sYMGPEB+7Ef&#xA;hSzlI/Vatl7B2KuxV2KuxV2KuxV2KuxV2KuxV2KuIBFDuD1GJCoT6tpPq/3cHqeFEr92YXg6bi5Q&#xA;4vg3ceSuZpFgU2HTM1pdiqnPHbOn+kKjIP5wCPxyrLCEh6wCPNlEyB2WW0NgvxWyRjxaML+sZDBj&#xA;wjfGI/CmU5TP1Wr5kNbE9a1eW5neGNituh40H7VOpOcf2n2hLLMxifQPtdtptOIizzSvNQ5afeX9&#xA;WlMws52Lqw/dMeoI3pXOi7I7QkZeFM3fL9Tr9XpxXEE51G9WztHnIqRsi+LHpm71mpGHGZ/L3uHh&#xA;x8cqYbc3U9zIZJnLsfHoPYDtnEZs88suKRsu5hARFBbBPNBIJIXKOOhGRxZZY5cUTRTKIkKLMdJv&#xA;xe2glIpIp4yAeI7/AE523Z+r8fHxdeRdNnxcEq6IzM1pdirsVdirsVdirsVdirsVdirsVYxrurzS&#xA;TvbQsVhjPF6bFmHWvtnKdq9oSlM44mojn5l2ml04A4jzSbNG5qdaDq8qTpazMWik+GMncq3YfI5v&#xA;eye0JRmMcjcTy8i4Oq04I4hzZBe3SWtrJO24QbDxJ2A+/Oj1OcYsZmejr8cDKQDC7u9uLuUyTOWP&#xA;Zew9gM4fUameaXFIu7x44wFBTilkicPGxRx0YGhyqGSUDcTRZSiCKKf/AOIm/RfPb65X0/bpXnT/&#xA;AD3zov5ZP5e/8py/b+Orr/yf7yv4WPujI7Iwoykhh7jOclExJB5h2ANi2silF6QjNqduFFSHBPyG&#xA;5zN7OiTnhXe06g1Ap75oR2sEYfZSQFvpBFc6Dt2JOEEdJfrcDRH1/Bi+ck7V2Ksk8qowt53P2S4A&#xA;+YG/686jsCJ4JHpbrNcdwnmb9wXYq7FXYq7FXYq7FXYq7FXYq7FWCXiMl3MrCjB2r9+ef6mJGSQP&#xA;Oy77GbiPcpZQzV7FHe9gVPtGRaffmRpImWWIHPiDXlNRPuZN5jRm0xivRWUt8un8c6ntqJOA10Id&#xA;Zoz+8YlnHO3dirfpv6fqU+CvHl2rStMnwGuLoixdMl1fQDcSG4tiBI324zsCfEHxzp+0eyTklx4/&#xA;q6h1un1XCKlySgaDqpbj6BHuWWn680w7K1BNcP2hy/zWPvT7R9GWxrLIQ9wwpUdFHgM6Hs7s0YPV&#xA;LeZ+xwNRqePYckwnhjnieKQckcUYZscuKOSJjLkXHjIxNhjF35cvonPoATR9iCAw+YOcrqOxcsD6&#xA;PVH7XaY9ZEjfYrbby5qErgSqIU7sxBP0AZHB2NmmfUOEJnrIAbbsntbaK2gWGIURBt4n3OdXgwRx&#xA;QEI8g6uczI2VXLWDsVdirsVdirsVdirsVdirsVdiqUaxof1t/XgIWelGU9Gp7+OabtLsrxjxw2n9&#xA;7mafVcGx5JL+gtV5cfQPz5LT9eaL+StRdcP2j9bm/msfenej6GLNvXmIeelFA6LX+Ob7s7svwTxz&#xA;3n9zg6jU8ew5JpJGkkbRuOSMCGB7g5tpwEgQeRcUEg2GM3vlu7jcm2/fRHoKgMPnXOV1PYuSJ/d+&#xA;qP2u0x6yJHq2Klb+XtSlcB0EKd3Yg/gCcpw9j55HccI82U9XADbdP/0PafUPqVDw68/2uf8AN886&#xA;P+Tsfg+F07+t97r/AMxLj4lW91G1s0DTtQn7KDdj8hluq1mPALmfh1Y48MpnZLl802hahhkC+OxP&#xA;3VzWDt7He8ZU5J0Mu8JrbXUF1EJYHDqeviD4EZt8GohljxQNhxJ4zE0VXLmCWXfmGxt3Ma1mcbHh&#xA;Sg+k5qtR2xhxmh6j5OVj0k5C+S218x2EzhH5Qk9C1OP3jI4O2sMzRuPv5Jno5x3G6a5t3EU7i4ht&#xA;4jLM4RB1JyvLmjjjxSNBlCBkaCUv5psw1Fidl/m2H4VzTy7exA7RkQ5Y0Mu8I+x1S0vQfRajjrG2&#xA;zDNhpddjz/Sd+7q0ZcEoc0XmY0oK/wBXs7I8ZCWk6+mm5+nwzB1faOLBtLeXcG/Fp5T5ckHF5os2&#xA;akkboP5tj99MwYdu4iaIIbpaGXQpvFLHLGskbB0bcMOmbnHkjMcUTYLhyiQaLbMqqWYgKBUk7ADJ&#xA;EgCygBKbjzNYxuVjVpadWGw+iuafN23iiaiDJzIaKZ57K1lrtjdOIwTFIeivQVPscv0vauLKeH6Z&#xA;ebDLpZwF8wmObJxlC8vra0j5zvxB+yvUn5DMfU6rHhjcy2Y8Upmgln+KrTlT0ZOPjtX7q5qv5ex3&#xA;9Mq+DlfkZd4TO0vba7j9SB+QGzDoQfcZtdPqYZo8UDbi5McoGir5kNbsVdirsVYNe3T3V1JM5+0f&#xA;hHgvYZwGqznLkMz1d7igIRAChmO2JjoN08GoRqD8Ex4Ovz6H6Dmz7JznHmA6S2LjarGJQPknvmC7&#xA;e3088DR5WEYI6gEEn9WdB2vqDjw7c5GnA0mMSnv0YjnGO4dirKvLd281k0TmpgPFT/knpnXdi6gz&#xA;xGJ/h+51WsxgSsdUq8x3Ty35hr+7hAAHuRUnNT2zqDPNw9IuVo8YEL6lKs07lqlvPJbzpNGaOhqP&#xA;6ZbhyyxzEo8wxnASFFms90I7F7kbgR81H0VGd1lziOI5B/Nt0kYXLh82ESSPJI0jks7GrE9yc4Oc&#xA;zIkncl3gAAoLcglO/K9063D2xNY3Uso8GH9Rm+7C1BEzj6EX8XB1uMVxInzRdOkUVspoJKs/uB0H&#xA;35ldu6giIgP4ubXocYJMu5jecu7J2FWaaRdNc6fFI5rIKq58SppXO47OznLhjI8+R+DpNRDhmQGL&#xA;ardPc30rsdlYqg8FBoM5PX5zlyyJ76HudrgxiMAEJmE3IzR7t7a/iYH4XYJIOxDGn4Zndnag4s0S&#xA;ORNH4tGoxiUCzTO5dK7FXYq7FWDXtq9rdSQuPsn4T4r2OcBqsBxZDA9He4picQQoZjtiY6DavPqE&#xA;bAfBCebt8ug+k5s+ycByZgekdy42qyCMD5p75gtHuNPPAVeJhIAOpABB/XnQdr6c5MO3OJtwNJkE&#xA;Z79WI5xjuHYqyry3aPDZNK4oZzyUf5I6Z13YunMMRkf4vudVrMgMqHRKvMdq8V+Zqfu5gCD7gUIz&#xA;U9s6cwzcXSTlaPIDCuoSrNO5apbwSXE6QxiruaD+uW4cUskxGPMsZzERZZrPaiSxe2GwMfBT9FBn&#xA;dZcAliOMfzadJGdS4vNhEkbxyNG4KupowPYjODnAxJB2Id4CCLC3IJTvyvau1w9yRSNFKqfFj/QZ&#xA;vuwtOTM5OgFfFwdbkFcKJ80WrvFFcqKiOqv7A9D9+ZXbunJiJj+Hm16HIATHvY3nLuydhVmmkWrW&#xA;2nxRuKSGrOPAsa0zuOzsBxYYxPPmfi6TUT4pkhi2q2r219KjDZmLIfFSajOT1+A4ssge+x7na4Mg&#xA;lAFCZhNyM0e0e5v4lA+FGDyHsApr+OZ3Z2nOXNEDkDZ+DRqMgjAs0zuXSuxV2KuxVDXunWt4gWda&#xA;kfZcbMPkcxdVo8ecVMfHq2480oHZLl8rWgapmkK+GwP30zWDsHHe8pU5J10u4JrbWsFrEIoECKOv&#xA;iT4k5t8GnhijwwFBxJ5DI2VXLmCWXfl6xuHMi1hc7nhSh+g5qtR2PhyGx6T5OVj1c4iua218uWEL&#xA;h35TEdA1OP3DI4OxcMDZuXv5JnrJy2Gya5t3EU7i3huIjFMgdD1ByvLhjkjwyFhlCZibCUv5Wsy1&#xA;VldV/l2P40zTy7BxE7SkA5Y10u4I+x0u0sgfRWrnrI27HNhpdDjwfSN+/q0Zc8p80XmY0oK/0izv&#xA;TykBWTp6ibH6fHMHV9nYs+8tpd4b8WolDlyQcXleyVqySO4/l2A+mmYMOwsQO5Jbpa6XQJvFFHFG&#xA;scahEXYKOmbnHjjAcMRQDhykSbLbKrKVYAqRQg7gjJEAiigFKbjyzYyOWjZoq9VG4+iuafN2Jikb&#xA;iTFzIa2Y57q1loVjauJADLIOjPQ0PsMv0vZWLEeL6pebDLqpzFcgmObJxlC8sba7j4TpyA+y3Qj5&#xA;HMfU6XHmjUw2Y8soGwln+FbTlX1pOPhtX76Zqv5Bx39Uq+DlfnpdwTO0sra0j9OBOIO7HqSfc5td&#xA;PpoYY8MBTi5Mkpmyr5kNbsVdirsVSXV9fNvIbe2AMi/bkO4B8APHNF2j2sccuDH9XUudp9LxC5ck&#xA;oGvaqG5euT7FVp+rNMO1dQDfF9gcv8rj7k+0fWVvqxyAJcKK0HRh4jOh7O7SGf0y2mPtcDUabg3H&#xA;JMJ5o4InlkPFEFWObHLljjiZS5Bx4xMjQYxd+Y76Vz6BEMfYAAsfmTnK6jtrLM+j0x+12mPRxA33&#xA;K228xahE4MrCZO6sAD9BAyODtnNA+o8QTPRwI22ZPa3MVzAs0RqjjbxHsc6vBnjlgJx5F1c4GJoq&#xA;uWsHYq7FXYq7FXYq7FXYq7FXYq7FUo1jXPqj+hAA09Ksx6LX28c03aXavgnghvP7nM0+l49zySX9&#xA;O6ry5euflxWn6s0X8q6i74vsH6nN/K4+5O9H1wXjehMAk9KqR0an8c33Z3anjHgntP73B1Gm4Nxy&#xA;TSSRI42kc8UUEsT2AzbTmIgk8g4oBJoMZvfMl3I5Ft+5iHQ0BY/Oucrqe2skj+79Mftdpj0cQPVu&#xA;VK38w6lE4LuJk7owA/EAZTh7YzxO54h5sp6SBG2yf/pi0+ofXanh04ftc/5fnnR/yjj8Hxend1vu&#xA;df8Al5cfCw53Z3Z2NWYksfc5xMpGRJPMu5AoU1kUovSHZdTtypoS4B+R2OZvZ0iM8K72nUC4FPfN&#xA;Dutgij7LyAN9AJpnQduyIwgDrL9bgaIev4MXzknauxVknlV2NvOh+yHBHzI3/VnUdgSPBIdLdZrh&#xA;uE8zfuC7FXYq7FXYq7FXYq7FXYq7FXYqwS8dnu5mY1Yu1fvzz/UyJySJ52XfYxUR7lLKGavYu6Xs&#xA;DJ9oSLT78yNJIxyxI58Qa8ouJ9zJvMbsumMF6Myhvl1/hnU9tSIwGupDrNGP3jEs4527sVb9R/T9&#xA;OvwV5ce1aUrk+M1w9EULtM9a0iW2neaNS1u55VH7NeoObTtPs+WKZlEeg/Y4um1AkKPNK81Dlp95&#xA;f0mUTC8nUoqj90p6knatM6Lsjs+Ql4sxVcv1uv1eoFcITnUbJby0eAmhO6N4MOmbvWaYZsZh8ve4&#xA;eHJwSthtzaz20hjmQow8eh9we+cRmwTxS4ZCi7mExIWFsEE08gjhQu56AZHFilklwxFlMpCIssx0&#xA;mwFlaCImsjHlIR4nt9Gdt2fpPAx8PXmXTZ8vHK+iMzNaXYq7FXYq7FXYq7FXYq7FXYq7FWMa7pE0&#xA;c73MKloZDyem5Vj1r7ZynavZ8ozOSIuJ5+RdppdQCOE80mzRuanWg6TK863UylYo/ijB2LN2PyGb&#xA;7sns+UpjJMVEcvMuDqtQAOEc2QXtql1ayQNsHGx8CNwfvzotTgGXGYHq6/HMxkCwu7sri0lMcyFT&#xA;2bsfcHOH1GmnhlwyDu8eSMxYU4opJXCRqXc9FAqcqhjlM1EWWUpACyn/APh1v0Xw2+uV5+3SnCud&#xA;F/Ix/L1/lOf7Px1df+c/eX/Cn7FQCWIAHUnpnQkgDd14QiXOk+r8EkHqeIK1r88w45tPxbGHF8G4&#xA;wyVuDSLzNaXYqpXEtoi/6QyKp7SEUP35TmnjiPWRXmzhGR+m2raWycEWzRkdxGR+oYMGTER+7Mfh&#xA;SzjIfVatl7B2KuxV2KuxV2KuxV2KuxV2KuxV2KuJAFTsB1OJKoT6zpPq/wB5B6njVK/fmF42m4uc&#xA;OL4N3BkrkaRYNdx0zNaXYqpzyWyJ/pDIqH+cgD8cqyzhEesgDzZREidlltNYN8Ns8Z8VjK/qGQwZ&#xA;MJ2xmPwplOMx9Vq+ZDWxDWdUku7hkViLdDRFHQ0/aOcX2lrpZpkA+gcv1u402AQF9UuzWOSnfl7V&#xA;JVnWzlYtE+0df2T1p8jm+7H10hMYpH0nl5ODq8AI4hzTvVL36nZvMBV/sxg9ORze67VeBiMuvT3u&#xA;DgxccqYZNNLNI0krF3bqxziMmWU5cUjZLuoxERQajkeNw8bFXXcMNiMEJmJsGikgEUWYaPfm9sw7&#xA;/wB6h4Se5Hf6c7Xs3V+Pis/UNi6bUYuCVdEdme0OxV2KuxV2KuxV2KuxV2KuxV2KsU13U5Z7l7dG&#xA;IgiPGg/aYdSc5DtXXSyTMAfRH7XbaXAIxs8ylWady030DVJYbhLaRi0Ep4qD+yx6U+ebrsnXShMY&#xA;yfRL7C4eqwAx4hzDIb+7W0tJJyKlR8K+JOwzpNXqBhxmfc67Fj45AMLuLma4lMszFnPj29hnDZs0&#xA;skuKRsu7hARFBYrMjBlJVhuCNiDkIyINjmki08/xFL+i6V/0yvDl7U+3m+/lmX5f/beX7XB/JjxP&#xA;6KSSRtHI0bCjISrD3BpminAxkYnmHOBsWtyCUZo8bPqduFFaOGPyXc5ndnQMs8K7/uadQagU98zx&#xA;u2nqy9EkBb5EEV+850HbkCcII6ScDRGp/Bi2ci7V2Ksk8qxsLeeQ/ZZgB/sRv+vOp7BgRCR6Eus1&#xA;x9QCeZvnBdirsVdirsVdirsVdirsVdirsVYLextHdzIwoyu1fvzz/UwMckge8u+xm4gqOUM1fT42&#xA;kvoEXqZF/A1JzJ0kDLLED+cGvKaiT5Mm8xRu+mOV/YZWYe3T+OdT2zAywGuhBdZozWRiWca7d2Kr&#xA;vRk9H1qfu+XDl25UrTLPDlw8X8N0jiF11ZPq2grduZ4GCTn7QP2W+7oc6rtDskZjxwNS+wur0+q4&#xA;BR5JSvlzVC1CqgfzFhT8N8047F1F1Q+blnWY090rSIrFSxPOdhRn7AeAzf8AZ/Z0dOL5zPVwM+oO&#xA;T3I6WKOWNo5ByRxRgfA5nzgJxMTuC0RkQbDG7vyxco5NswkjPRWNGH8M5jUdh5Af3Z4h9rs8etiR&#xA;6tltr5ZvHcfWGWKPvQ8mPyptkcHYeWR9ZER8ys9bEDbdksEEUEKwxDiiCgGdRixRxxEY8g62UjI2&#xA;V+WMXYq7FXYq7FXYq7FXYq7FXYq7FUr1bREvT6sbCO4AoSejD3zU9odljP6o7T+9ytPqTDY8km/w&#xA;5qnKnBafzchT+uaT+RtRdUPm5v5zGnWk6LHZfvXb1LgilR0Ue2bzs/swYPUTc/u9zhajUmew5Jky&#xA;q6lWFVYUYHoQc2kogijycYGmOXvlmZXLWjB4z0RjRh9PQ5zGq7DmDeM2O4uyx60V6lK38s3zuPWK&#xA;xJ3NeR+gDKsPYmaR9VRHzZT1sANt0+/Rdn9S+p8f3Xj3r/NXxzofyOLwvCr0/jf3uB48uLi6u1DV&#xA;LWxUeqSzt9mNep98Gr1+PAPVz7lxYJT5JYPNacvitiF8Q9T91BmrHb4veG3v/Y5X5A96b2d9b3kX&#xA;qQNUDZlOxB9xm502qhmjxQLh5MUoGir5kNaT3fmW0hcpChnI6sDxX6Dvml1HbeOBqI4vsDmY9FIi&#xA;zs1a+Z7WRws0Zhr0avIfTsMjg7cxyNTHD9qZ6KQGxtOQQQCDUHcEZuwb3DhOwq7FXYq7FXYq7FXY&#xA;q7FXYq7FXYqhb/UrayQNMTyb7KLuxzE1etx4Bcvl1bcWGUzslf8AitOVPqx4+PPf7qfxzUfy+L+j&#xA;b3/scv8AIHvTWx1G2vYy8Lbj7SHZh883Gl1mPPG4n4dXEy4ZQO6JzKakpvfMdpbuY41M7r1oaL9+&#xA;+afVds48ZqI4j9nzcvHo5SFnZSt/NNs7hZomiB/aB5gfPYZVh7dhI1OJj9rOehkBsbTn1YvS9XmP&#xA;Spy512p41zdeJHh4r9Pe4XCbrqwa7uXubmSdzu5r8h2H0ZwOozHLMzPV3uOAjEAKWUs0fody8OpR&#xA;BT8Mp4OPEHp+ObHsrMYZ41yls4+qgJQPknvmK5eHTyqGhmYIT7UJP6s6DtnOYYaH8RpwNHASnv0Y&#xA;nnHO3dirKPLNy8lm8TGvotRT/ktvTOt7DzGWIxP8J+91WtgBK+9OM3ThuxV2KuxV2KuxV2KuxV2K&#xA;uxV2KsI1K5e4vppGP7RVR4KDQDOD1uY5MspHv+x3mGAjABDZiNqL0q5e3v4XU0DMEceKsaHM3QZz&#xA;jzRI76PuLTnhxQIZNrty9vp0jIaO5CA+Fev4Z1Pauc48BI5nZ1mlhxTFsOziXcuxVE/X5/qH1Ov7&#xA;rny+jw+Vd8yvzc/B8L+G7/Z+lq8IcfF1a1Cze0unhYbA1Q+KnocdZpjhyGJ+HuTiyCcbQ+YrYmWg&#xA;Wbz36SUPpQnkze/YZteyNMcmYS/hjv8AqcXV5BGFdSn2u2b3VgRGKyRkOo7mlQR9xzoO1dMcuGo8&#xA;xu4GlyCM9+rD84p3LsVZX5ds3t7IvIKPMeVD1CjpnYdjaY48VnnLf4dHU6zIJSodE1zbuI7FXYq7&#xA;FXYq7FXYq7FXYq7FXYqwzV7N7W+kBHwOS8bdiCa/hnD9o6Y4spB5HcO60+QSgEFmA3o7RbN7m+jo&#xA;P3cRDyN2ABqB9ObDszTHLmHdHctGpyCMD3lk2r2jXVhJGm8goyDxK9vpzqe0dOcuExHPmHV6fJwT&#xA;BLCyCCQRQjYg5w5FbF3bsCo/9EXH6M+u0PWvDv6f8335sf5On4Hi/Z5d/wCOjj/mBx8P4tld1ZW1&#xA;1HwnQOB0PQj5HOvz6bHlFTFupx5JQNgpevlnTQ/ImQj+UsKfgK5rh2HgBv1fP9jkHWz8kzgghgjE&#xA;cKBEHRRm0xYo448MRQcaUjI2V+WMUBd6Hp905kZCkh+0yGlfo3Ga7Udl4cpsij5ORj1M4iltroGn&#xA;W7hwpkYdDIa0+gADI4OycGM3XEfNM9VOQrkmObNxnYq7FXYq7FXYq7FXYq7FXYq7FXYqpXNrb3Mf&#xA;pzoHXtXqPke2U5sEMseGYsM4TMTYS7/DOnc+VZKfy8hT9Vc1v8h4Lv1fP9jkfnZ+SZW9tBbRiOBA&#xA;iDsO/wAzmzw4IYo8MBQcaczI2VTLWKCvNGsLti8iFZD1dDQn59swNT2bhzG5Cpd4b8epnDYclK38&#xA;vabC4fi0pHT1DUfcABlWHsfBA3Rl72U9XOXkmVBSnbwzaU4yQ6xr8kUrW9oQGTaSXrv4Cuc92l2t&#xA;KEjDH05l2Gn0oI4pJQNX1MNyFy9fc1H3HbNMO0M4N8Zcv8vDuT/RdaN4fQnoJwKqw2DAddvHOh7M&#xA;7T8b0T+v73A1Om4NxyTK5uI7eB5pDREFT/TNpmzRxwM5cg4sIGRoMVu9f1CdyUcwx/somx+k9c5H&#xA;UdrZsh2PCPJ22PSwiN9ytttd1GBwWkMqd0fev09RkcHaueBsniHcUz0sJDlTKrO7iu7dZ4vst1B6&#xA;gjqDnXabURzQE49XU5MZgaKtl7B2KuxV2KuxV2KuxV2KuxV2KuxVJNa117eQ21tT1R9uQ78a9gPH&#xA;ND2n2qccuDH9XU9znabSiQ4pckl/S2pcuX1l6/Pb7umaP+UM93xlzfy8O4J3ouuNcuLe5p6xHwON&#xA;uVOxHjm+7M7UOU8E/q6HvcHU6XhHFHkm80scMTyyGiICWPsM3OTIIRMjyDhxiSaDFr3zBezufRYw&#xA;xfsqv2vpOcjqu18uQ+k8MXbYtJGI33Klb65qULhvWMg7o/xA/wAcqw9qZ4G+K/eynpoEcqZB+nLb&#xA;9HfXKb14+lXfn/LnR/ypj8DxfhXn3Ov/AC0uPhYixZmLNuxNST45xsiSbPN24DWRSi9ILDU7Yr15&#xA;gfQdj+GZvZ5IzwrvadR9BT3zQziwQD7JkHL7jnQduk+CO7i/QXA0I9Z9zF85J2rsVZJ5VLehOv7I&#xA;YEfMjf8AVnUdgE8Eh0t1uuG4TzN+4DsVdirsVdirsVdirsVdirsVdirBLss11MW+0XatfGuefagk&#xA;5JE87Lvsf0j3KWUs1axZ1vYCn2vUWn3jMjSkjLGufEPvYZR6TfcybzIzjTGC9C6hvl1/XnU9tEjT&#xA;mu8Or0Y/eMTzjnbuxVvk3HjX4a1p2rkrNV0RSca1os8c73FuheFzyZV3Kk9dvDN12n2ZOMzOAuJ+&#xA;xw9NqQRR5pOqszcVBLeAG+aURJNDm5hLIdA0eWKQXdwvBgP3UZ677VOdJ2T2bKEvEmK7g6/VagEc&#xA;MU3vrNLu1eB9uX2W8GHQ5udXphmxmB6uHiyGErYbd2F1aOUmQgdn/ZPyOcTqNJkwmpD9TuceWMxs&#xA;WrazublwkEZc9z2HzORwabJlNQFpnkjEWSzDTLBbK1WEHk1eTt4sc7XRaQYMYj16+902bLxytFZl&#xA;tTsVdirsVdirsVdirsVdirsVdirHNd0ab12urdC6PvIi7kN3NPA5zHavZsuM5ICweYdlpdSK4ZJH&#xA;xblxoeXSnfNDwm66ufae6Fo0wmW6uVKKm8aHYk+JHamdB2V2bISGSYquQdfqtSK4Yp7d20dzbyQP&#xA;9lxSvgex+g5v9RhGWBgeRcHHMxkCGG3unXVnIVlQ8f2ZB9k/TnE6rRZMJqQ27+juceaMxspW9rcX&#xA;DhIYy7HwGw+Z7ZVhwTyGoC2c5iIslkX+HV/Rnoch9ar6nPtypTj8s6T+Rx+X4L/ec78+73Ou/N/v&#xA;L/hf/9k=</xmpGImg:image>
               </rdf:li>
            </rdf:Alt>
         </xmp:Thumbnails>
         <xmpTPg:MaxPageSize rdf:parseType="Resource">
            <stDim:w>1000.000000</stDim:w>
            <stDim:h>1000.000000</stDim:h>
            <stDim:unit>Pixels</stDim:unit>
         </xmpTPg:MaxPageSize>
         <xmpTPg:NPages>1</xmpTPg:NPages>
         <xmpTPg:HasVisibleTransparency>False</xmpTPg:HasVisibleTransparency>
         <xmpTPg:HasVisibleOverprint>False</xmpTPg:HasVisibleOverprint>
         <xmpTPg:PlateNames>
            <rdf:Seq>
               <rdf:li>Cyan</rdf:li>
               <rdf:li>Magenta</rdf:li>
               <rdf:li>Yellow</rdf:li>
            </rdf:Seq>
         </xmpTPg:PlateNames>
         <xmpTPg:SwatchGroups>
            <rdf:Seq>
               <rdf:li rdf:parseType="Resource">
                  <xmpG:groupName>預設色票群組</xmpG:groupName>
                  <xmpG:groupType>0</xmpG:groupType>
                  <xmpG:Colorants>
                     <rdf:Seq>
                        <rdf:li rdf:parseType="Resource">
                           <xmpG:swatchName>R=255 G=204 B=84</xmpG:swatchName>
                           <xmpG:type>PROCESS</xmpG:type>
                           <xmpG:tint>100.000000</xmpG:tint>
                           <xmpG:mode>RGB</xmpG:mode>
                           <xmpG:red>255</xmpG:red>
                           <xmpG:green>205</xmpG:green>
                           <xmpG:blue>71</xmpG:blue>
                        </rdf:li>
                     </rdf:Seq>
                  </xmpG:Colorants>
               </rdf:li>
            </rdf:Seq>
         </xmpTPg:SwatchGroups>
         <dc:format>image/svg+xml</dc:format>
         <xmpMM:DerivedFrom rdf:parseType="Resource">
            <stRef:instanceID>xmp.iid:5c3a627c-e6e6-436d-af30-2682d9fbba5e</stRef:instanceID>
            <stRef:documentID>xmp.did:5c3a627c-e6e6-436d-af30-2682d9fbba5e</stRef:documentID>
            <stRef:originalDocumentID>xmp.did:f59a532d-5494-41df-998c-357af674267c</stRef:originalDocumentID>
         </xmpMM:DerivedFrom>
         <xmpMM:DocumentID>xmp.did:bfff1770-8a34-4ae5-b84b-af37f97bf5e5</xmpMM:DocumentID>
         <xmpMM:InstanceID>xmp.iid:bfff1770-8a34-4ae5-b84b-af37f97bf5e5</xmpMM:InstanceID>
         <xmpMM:OriginalDocumentID>xmp.did:f59a532d-5494-41df-998c-357af674267c</xmpMM:OriginalDocumentID>
         <xmpMM:History>
            <rdf:Seq>
               <rdf:li rdf:parseType="Resource">
                  <stEvt:action>saved</stEvt:action>
                  <stEvt:instanceID>xmp.iid:f59a532d-5494-41df-998c-357af674267c</stEvt:instanceID>
                  <stEvt:when>2026-03-13T11:17:58+08:00</stEvt:when>
                  <stEvt:softwareAgent>Adobe Illustrator 30.2 (Macintosh)</stEvt:softwareAgent>
                  <stEvt:changed>/</stEvt:changed>
               </rdf:li>
               <rdf:li rdf:parseType="Resource">
                  <stEvt:action>saved</stEvt:action>
                  <stEvt:instanceID>xmp.iid:bfff1770-8a34-4ae5-b84b-af37f97bf5e5</stEvt:instanceID>
                  <stEvt:when>2026-03-13T11:21:57+08:00</stEvt:when>
                  <stEvt:softwareAgent>Adobe Illustrator 30.2 (Macintosh)</stEvt:softwareAgent>
                  <stEvt:changed>/</stEvt:changed>
               </rdf:li>
            </rdf:Seq>
         </xmpMM:History>
      </rdf:Description>
   </rdf:RDF>
</x:xmpmeta>
                                                                                                    
                                                                                                    
                                                                                                    
                                                                                                    
                                                                                                    
                                                                                                    
                                                                                                    
                                                                                                    
                                                                                                    
                                                                                                    
                                                                                                    
                                                                                                    
                                                                                                    
                                                                                                    
                                                                                                    
                                                                                                    
                                                                                                    
                                                                                                    
                                                                                                    
                                                                                                    
                           
<?xpacket end="w"?>
  </metadata>
</svg>