<?xml version="1.0" encoding="UTF-8"?>
<svg id="_圖層_1" xmlns="http://www.w3.org/2000/svg" version="1.1" viewBox="0 0 1000 1000">
  <!-- Generator: Adobe Illustrator 30.2.1, SVG Export Plug-In . SVG Version: 2.1.1 Build 1)  -->
  <polygon points="499.958 635.304 454.898 635.304 454.898 680.364 454.898 725.506 454.898 770.566 454.898 815.708 499.958 815.708 545.1 815.708 545.1 770.566 545.1 725.506 545.1 680.364 545.1 635.304 499.958 635.304" fill="#d97664"/>
  <polygon points="635.303 364.696 590.16 364.696 545.1 364.696 499.958 364.696 454.898 364.696 409.756 364.696 364.697 364.696 319.636 364.696 319.636 409.838 319.636 454.898 319.636 500.041 364.697 500.041 409.756 500.041 454.898 500.041 499.958 500.041 545.1 500.041 590.16 500.041 635.303 500.041 680.364 500.041 680.364 454.898 680.364 409.838 680.364 364.696 635.303 364.696" fill="#fdd18e"/>
  <g>
    <polygon points="635.303 274.495 635.303 229.435 590.16 229.435 590.16 184.374 545.1 184.374 499.958 184.374 454.898 184.374 409.756 184.374 409.756 229.435 364.697 229.435 364.697 274.495 319.636 274.495 319.636 319.637 319.636 364.696 364.697 364.696 409.756 364.696 454.898 364.696 499.958 364.696 545.1 364.696 590.16 364.696 635.303 364.696 680.364 364.696 680.364 319.637 680.364 274.495 635.303 274.495" fill="#fd6a84"/>
    <polygon points="590.16 500.041 545.1 500.041 499.958 500.041 454.898 500.041 409.756 500.041 364.697 500.041 319.636 500.041 319.636 545.101 319.636 590.243 364.697 590.243 364.697 635.304 409.756 635.304 454.898 635.304 499.958 635.304 545.1 635.304 590.16 635.304 635.303 635.304 635.303 590.243 680.364 590.243 680.364 545.101 680.364 500.041 635.303 500.041 590.16 500.041" fill="#fd6a84"/>
  </g>
  <polygon points="635.303 364.696 635.303 409.838 635.303 454.898 635.303 500.041 680.364 500.041 680.364 454.898 680.364 409.838 680.364 364.696 635.303 364.696" fill="#c96553"/>
  <g>
    <polygon points="635.303 274.495 635.303 319.637 590.16 319.637 590.16 364.696 635.303 364.696 680.364 364.696 680.364 319.637 680.364 274.495 635.303 274.495" fill="#fd265b"/>
    <polygon points="590.16 500.041 590.16 545.101 590.16 590.243 545.1 590.243 499.958 590.243 499.958 635.304 545.1 635.304 590.16 635.304 635.303 635.304 635.303 590.243 680.364 590.243 680.364 545.101 680.364 500.041 635.303 500.041 590.16 500.041" fill="#fd265b"/>
  </g>
  <polygon points="499.958 635.304 454.898 635.304 454.898 680.364 499.958 680.364 545.1 680.364 545.1 635.304 499.958 635.304" fill="#b4513f"/>
  <rect x="319.636" y="454.899" width="45.06" height="45.142" fill="#fde0b4"/>
  <polygon points="319.636 364.696 319.636 409.838 319.636 454.898 364.697 454.898 364.697 409.838 364.697 364.696 319.636 364.696" fill="#e8e6fa"/>
  <g>
    <rect x="409.756" y="274.495" width="45.142" height="45.142" fill="#ffaab0"/>
    <rect x="409.756" y="184.374" width="45.142" height="45.06" fill="#ffaab0"/>
    <rect x="364.697" y="229.435" width="45.059" height="45.06" fill="#ffaab0"/>
    <rect x="319.636" y="500.041" width="45.06" height="45.06" fill="#ffaab0"/>
    <polygon points="319.636 319.637 319.636 364.696 364.697 364.696 364.697 319.637 364.697 274.495 319.636 274.495 319.636 319.637" fill="#ffaab0"/>
  </g>
  <g>
    <polygon points="454.898 815.708 454.898 860.768 499.958 860.768 545.1 860.768 545.1 815.708 499.958 815.708 454.898 815.708" fill="#493b62"/>
    <polygon points="680.364 274.495 680.364 319.637 680.364 364.696 680.364 409.838 680.364 454.898 680.364 500.041 680.364 545.101 680.364 590.243 635.303 590.243 635.303 635.304 680.364 635.304 725.506 635.304 725.506 590.243 725.506 545.101 725.506 500.041 725.506 454.898 725.506 409.838 725.506 364.696 725.506 319.637 725.506 274.495 680.364 274.495" fill="#493b62"/>
    <rect x="635.303" y="229.435" width="45.061" height="45.06" fill="#493b62"/>
    <rect x="590.16" y="184.374" width="45.142" height="45.06" fill="#493b62"/>
    <polygon points="545.1 635.304 545.1 680.364 545.1 725.506 545.1 770.566 545.1 815.708 590.16 815.708 590.16 770.566 590.16 725.506 590.16 680.364 635.303 680.364 635.303 635.304 590.16 635.304 545.1 635.304" fill="#493b62"/>
    <polygon points="499.958 184.374 545.1 184.374 590.16 184.374 590.16 139.232 545.1 139.232 499.958 139.232 454.898 139.232 409.756 139.232 409.756 184.374 454.898 184.374 499.958 184.374" fill="#493b62"/>
    <polygon points="454.898 725.506 454.898 680.364 454.898 635.304 409.756 635.304 364.697 635.304 364.697 680.364 409.756 680.364 409.756 725.506 409.756 770.566 409.756 815.708 454.898 815.708 454.898 770.566 454.898 725.506" fill="#493b62"/>
    <rect x="364.697" y="184.374" width="45.059" height="45.06" fill="#493b62"/>
    <rect x="319.636" y="590.243" width="45.06" height="45.061" fill="#493b62"/>
    <rect x="319.636" y="229.435" width="45.06" height="45.06" fill="#493b62"/>
    <polygon points="319.636 500.041 319.636 454.898 319.636 409.838 319.636 364.696 319.636 319.637 319.636 274.495 274.494 274.495 274.494 319.637 274.494 364.696 274.494 409.838 274.494 454.898 274.494 500.041 274.494 545.101 274.494 590.243 319.636 590.243 319.636 545.101 319.636 500.041" fill="#493b62"/>
  </g>
  <metadata><?xpacket begin="﻿" id="W5M0MpCehiHzreSzNTczkc9d"?>
<x:xmpmeta xmlns:x="adobe:ns:meta/" x:xmptk="Adobe XMP Core 10.0-c000 1.000000, 0000/00/00-00:00:00        ">
   <rdf:RDF xmlns:rdf="http://www.w3.org/1999/02/22-rdf-syntax-ns#">
      <rdf:Description rdf:about=""
            xmlns:xmp="http://ns.adobe.com/xap/1.0/"
            xmlns:xmpGImg="http://ns.adobe.com/xap/1.0/g/img/"
            xmlns:xmpTPg="http://ns.adobe.com/xap/1.0/t/pg/"
            xmlns:stDim="http://ns.adobe.com/xap/1.0/sType/Dimensions#"
            xmlns:xmpG="http://ns.adobe.com/xap/1.0/g/"
            xmlns:dc="http://purl.org/dc/elements/1.1/"
            xmlns:xmpMM="http://ns.adobe.com/xap/1.0/mm/"
            xmlns:stRef="http://ns.adobe.com/xap/1.0/sType/ResourceRef#"
            xmlns:stEvt="http://ns.adobe.com/xap/1.0/sType/ResourceEvent#">
         <xmp:CreatorTool>Adobe Illustrator 30.2 (Macintosh)</xmp:CreatorTool>
         <xmp:CreateDate>2026-03-12T20:36:29+08:00</xmp:CreateDate>
         <xmp:MetadataDate>2026-03-12T20:36:29+08:00</xmp:MetadataDate>
         <xmp:ModifyDate>2026-03-12T20:36:29+08:00</xmp:ModifyDate>
         <xmp:Thumbnails>
            <rdf:Alt>
               <rdf:li rdf:parseType="Resource">
                  <xmpGImg:width>160</xmpGImg:width>
                  <xmpGImg:height>256</xmpGImg:height>
                  <xmpGImg:format>JPEG</xmpGImg:format>
                  <xmpGImg:image>/9j/4AAQSkZJRgABAgEAAAAAAAD/7QAsUGhvdG9zaG9wIDMuMAA4QklNA+0AAAAAABAAAAAAAAEA&#xA;AQAAAAAAAQAB/+4ADkFkb2JlAGTAAAAAAf/bAIQABgQEBAUEBgUFBgkGBQYJCwgGBggLDAoKCwoK&#xA;DBAMDAwMDAwQDA4PEA8ODBMTFBQTExwbGxscHx8fHx8fHx8fHwEHBwcNDA0YEBAYGhURFRofHx8f&#xA;Hx8fHx8fHx8fHx8fHx8fHx8fHx8fHx8fHx8fHx8fHx8fHx8fHx8fHx8fHx8f/8AAEQgBAACgAwER&#xA;AAIRAQMRAf/EAaIAAAAHAQEBAQEAAAAAAAAAAAQFAwIGAQAHCAkKCwEAAgIDAQEBAQEAAAAAAAAA&#xA;AQACAwQFBgcICQoLEAACAQMDAgQCBgcDBAIGAnMBAgMRBAAFIRIxQVEGE2EicYEUMpGhBxWxQiPB&#xA;UtHhMxZi8CRygvElQzRTkqKyY3PCNUQnk6OzNhdUZHTD0uIIJoMJChgZhJRFRqS0VtNVKBry4/PE&#xA;1OT0ZXWFlaW1xdXl9WZ2hpamtsbW5vY3R1dnd4eXp7fH1+f3OEhYaHiImKi4yNjo+Ck5SVlpeYmZ&#xA;qbnJ2en5KjpKWmp6ipqqusra6voRAAICAQIDBQUEBQYECAMDbQEAAhEDBCESMUEFURNhIgZxgZEy&#xA;obHwFMHR4SNCFVJicvEzJDRDghaSUyWiY7LCB3PSNeJEgxdUkwgJChgZJjZFGidkdFU38qOzwygp&#xA;0+PzhJSktMTU5PRldYWVpbXF1eX1RlZmdoaWprbG1ub2R1dnd4eXp7fH1+f3OEhYaHiImKi4yNjo&#xA;+DlJWWl5iZmpucnZ6fkqOkpaanqKmqq6ytrq+v/aAAwDAQACEQMRAD8A9U4q7FXYq7FXYqh9Q/3g&#xA;uf8AjE//ABE4Qr4MzYtjsVdirsVdirsVdirsVffea1rdirsVdirsVdirsVdirsVdirsVQ+of7wXP&#xA;/GJ/+InCFfBmbFsdirsVdirsVdirsVdir77zWtbsVdirsVdirsVdirsVdirsVfAmbJsdir6m+qWn&#xA;++Y/+BH9M0Vl6LhDvqlp/vmP/gR/TGyvCGFyW8HNv3a9T+yMbLuhAVyW+hB/vtf+BGNlPAO53oQf&#xA;77X/AIEY2V4B3O9CD/fa/wDAjGyvAO53oQf77X/gRjZXgHcpzwQehJ+7X7J7Dwwgm2M4Cjs8TzeP&#xA;COxV956f/vBbf8Yk/wCIjNcWtEYFdirsVdirsVdirsVfAmbJsdir6rzQvRuxVhMn22+Zxd2OS3FL&#xA;sVdirsVWT/3En+q36sI5sZ8i8PzevBOxV956f/vBbf8AGJP+IjNcWtEYFdirsVdirsVfAmbJsdir&#xA;6htLS1+qw/uU+wv7I8B7ZoyTb0IApV+qWn++Y/8AgR/TBZTwhh3qP/MfvwO8oO9R/wCY/fitBbil&#xA;2KuxV2KuxV2KrPQg/wB9r/wIw2WPAO53oQf77X/gRjZXgHc8PzevBOxV956f/vBbf8Yk/wCIjNcW&#xA;tEYFQ/6QsP8Alpi/4Nf64aV36QsP+WmL/g1/rjSvgzNi2OxV9TWn+8kP/GNf1DNEeb0UeSrgSwn0&#xA;3/lP3Yu7sO9N/wCU/dithbil2KuxV2KuxV2KuxV2KvDM3zwDsVfdmn6hYfULb/SYv7pP21/lHvmu&#xA;Ia1f9IWH/LTF/wAGv9caV8GZsWx2Kvqa0/3kh/4xr+oZojzeijyVcCWEyfbb5nF3Y5Oj+2vzGKnk&#xA;zbF0jsVYTJ9tvmcXdjktxS7FXYq7FXYq7FXYqxHIO7dirzrOhfJXYq7FXYq+prT/AHkh/wCMa/qG&#xA;aI83oo8lXAlhMn22+Zxd2OTo/tr8xip5M2xdI7FWEyfbb5nF3Y5LcUuxV2KuxV2KuxV2KsRyDu3Y&#xA;q86zoXyV2KuxV2Kvqa0/3kh/4xr+oZojzeijyVcCWEyfbb5nF3Y5LcUrvUf+Y/fiig71H/mP34rQ&#xA;W4pdirsVdirsVaf7DfI4pHNiWQd07FXYq7FXnWdC+SuxV2KuxV9TWn+8kP8AxjX9QzRHm9FHkq4E&#xA;sJk/vG+Z/Xi7scluKXYq7FXYq7FXYq7FXYq0/wBhvkcUjmxLIO6dirsVdirzrOhfJXYq7FXYq+17&#xA;H/eG3/4xJ/xEZjtavihJ26nOOlzLuhydkUuxV2KuxV2KuxV2KuxV2KuxV2KvDMz3buxV5ZnWPJOx&#xA;V2KuxV9r2P8AvDb/APGJP+IjMdrV8UJO3U5x0uZd0OTsil2KuxV2KuxV2KuxV2KuxV2KuxV4Zme7&#xA;d2KvLM6x5J2KuxV2Kvtex/3ht/8AjEn/ABEZjtavihJ26nOOlzLuhydkUuxV2KuxV2KuxV2KuxV2&#xA;KuxV2KvDMz3buxV5ZnWPJOxV2KuxV9r2P+8Nv/xiT/iIzHa1fFCTt1Pzzjpcy7ocnZFLsVdirsVd&#xA;irsVdirsVdirsVdirwzM927sVeWZ1jyTsVdirsVfaFj/ALxW/wDxjT/iIzk5c3MCtgSl56nMEuQ7&#xA;FLsVdirsVdirsVdirsVdirsVdirwzM927sVeWZ1jyTsVdirsVfaFj/vFb/8AGNP+IjOTlzcwK2BK&#xA;XnqcwS5DsUuxV2KuxV2KuxV2KuxV2KuxV2KvDMz3buxV5ZnWPJOxV2KuxV9TWn+8kP8AxjX9QzRH&#xA;m9FHkq4EsJk/vG+Z/Xi7scluKXYq7FXYq7FXYq7FXYq0/wBhvkcUjmxLIO6dirsVdirzrOhfJXYq&#xA;7FXYq+prT/eSH/jGv6hmiPN6KPJVwJYTJ9tvmcXdjktxS7FXYq7FXYq7FXYq7FWn+w3yOKRzYlkH&#xA;dOxV2KuxV51nQvkrsVdirsVe5W8j+hH8R+yvf2zRHm95ACgv9R/5j9+BlQW4pdirsVdirsVdirsV&#xA;dirsVaf7DfI4pHNiWQd07FXYq7FXnWdC+SuxV2KuxV7hB/cR/wCqv6s0R5vew5BfgZOxV2KuxV2K&#xA;uxV2KuxV2KuxVp/sN8jikc2JZB3TsVdirsVedZ0L5K7FX3n+j7D/AJZov+AX+ma62t36PsP+WaL/&#xA;AIBf6Y2r4MzYtjsVe4Qf3Ef+qv6s0R5vew5BfgZOxV2KuxVp/sN8jikc2JZB3TsVdirsVdirsVed&#xA;Z0L5K7FXYq7FX33mta3Yq+BM2TY7FXuEH9xH/qr+rNEeb3sOQX4GTsVdirsVaf7DfI4pHNiWQd07&#xA;FXYq7FXYq7FXnWdC+SuxV2KuxV995rWt2Kof9H2H/LNF/wAAv9MNq79H2H/LNF/wC/0xtXwZmxbH&#xA;Yq7FXYqzeP7C/IZysub1ceS7IpdirsVYNnWPJuxV2KuxV92afp9h9Qtv9Gi/uk/YX+Ue2a4lrV/0&#xA;fYf8s0X/AAC/0xtXfo+w/wCWaL/gF/pjau/R9h/yzRf8Av8ATG1RGBXYq7FXYq+BM2TY7FXYq7FW&#xA;bx/YX5DOVlzerjyXZFLsVdirBs6x5N2KuxV2KvvPT/8AeC2/4xJ/xEZri1ojArsVdirsVdirsVdi&#xA;rsVQ+of7wXP/ABif/iJwhXwZmxbHYq9mg/uY/wDVH6s5SXN6uPJfgS7FXYq8WzrHk3Yq++81rW7F&#xA;XYq7FXYq7FXYq7FXYq7FXYqh9Q/3guf+MT/8ROEK+DM2LY7FXs0H9zH/AKo/VnKS5vVx5L8CXYq7&#xA;FXi2dY8m7FX33mta3Yq7FXYq7FXYq7FXYq7FXYq7FUPqH+8Fz/xif/iJwhXwZmxbHYq9mg/uY/8A&#xA;VH6s5SXN6uPJfgS7FXYq8WzrHk3Yq++81rW7FXYq7FXYq7FXYq7FXYq7FXYqh9Q/3guf+MT/APET&#xA;hCvgzNi2OxV7NB/cx/6o/VnKS5vVx5L8CXYq7FXi2dY8m7FX33mta3Yq7FXYq7FXYq7FXYq7FXYq&#xA;7FUPqH+8Fz/xif8A4icIV8GZsWx2KvZoP7mP/VH6s5SXN6uPJfgS7FXYq8WzrHk3Yq++81rW7FXY&#xA;q7FXYq7FXYq7FXYq7FXYqh9Q/wB4Ln/jE/8AxE4Qr4MzYtjsVezQf3Mf+qP1Zykub1ceS/Al2Kux&#xA;V4tnWPJuxV995rWt2KuxV2KuxV2KuxV2KuxV2KuxVxFdj0xVD/o+w/5Zov8AgF/phtXfo+w/5Zov&#xA;+AX+mNq+DM2LY7FXYq7FX3Zp+n2H1C2/0aL+6T9hf5R7ZriWtX/R9h/yzRf8Av8ATG1RGBXYq7FX&#xA;Yq7FXYq7FXYq7FXYq7FXYq7FXYq+BM2TY7FXYq7FX3np/wDvBbf8Yk/4iM1xa0RgV2KuxV2KuxV2&#xA;KuxV/9k=</xmpGImg:image>
               </rdf:li>
            </rdf:Alt>
         </xmp:Thumbnails>
         <xmpTPg:MaxPageSize rdf:parseType="Resource">
            <stDim:w>1000.000000</stDim:w>
            <stDim:h>1000.000000</stDim:h>
            <stDim:unit>Pixels</stDim:unit>
         </xmpTPg:MaxPageSize>
         <xmpTPg:NPages>1</xmpTPg:NPages>
         <xmpTPg:HasVisibleTransparency>False</xmpTPg:HasVisibleTransparency>
         <xmpTPg:HasVisibleOverprint>False</xmpTPg:HasVisibleOverprint>
         <xmpTPg:PlateNames>
            <rdf:Seq>
               <rdf:li>Cyan</rdf:li>
               <rdf:li>Magenta</rdf:li>
               <rdf:li>Yellow</rdf:li>
               <rdf:li>Black</rdf:li>
            </rdf:Seq>
         </xmpTPg:PlateNames>
         <xmpTPg:SwatchGroups>
            <rdf:Seq>
               <rdf:li rdf:parseType="Resource">
                  <xmpG:groupName>預設色票群組</xmpG:groupName>
                  <xmpG:groupType>0</xmpG:groupType>
               </rdf:li>
            </rdf:Seq>
         </xmpTPg:SwatchGroups>
         <dc:format>image/svg+xml</dc:format>
         <xmpMM:DerivedFrom rdf:parseType="Resource">
            <stRef:instanceID>xmp.iid:40bbf376-73cd-4fbd-b1d6-d42dd664f7d3</stRef:instanceID>
            <stRef:documentID>xmp.did:40bbf376-73cd-4fbd-b1d6-d42dd664f7d3</stRef:documentID>
            <stRef:originalDocumentID>xmp.did:44547704-06a0-4a0b-8304-a67327206882</stRef:originalDocumentID>
         </xmpMM:DerivedFrom>
         <xmpMM:DocumentID>xmp.did:dd51ac82-a4d5-496d-bc6f-67f17be64e69</xmpMM:DocumentID>
         <xmpMM:InstanceID>xmp.iid:dd51ac82-a4d5-496d-bc6f-67f17be64e69</xmpMM:InstanceID>
         <xmpMM:OriginalDocumentID>xmp.did:44547704-06a0-4a0b-8304-a67327206882</xmpMM:OriginalDocumentID>
         <xmpMM:History>
            <rdf:Seq>
               <rdf:li rdf:parseType="Resource">
                  <stEvt:action>saved</stEvt:action>
                  <stEvt:instanceID>xmp.iid:44547704-06a0-4a0b-8304-a67327206882</stEvt:instanceID>
                  <stEvt:when>2026-03-12T20:23:29+08:00</stEvt:when>
                  <stEvt:softwareAgent>Adobe Illustrator 30.2 (Macintosh)</stEvt:softwareAgent>
                  <stEvt:changed>/</stEvt:changed>
               </rdf:li>
               <rdf:li rdf:parseType="Resource">
                  <stEvt:action>saved</stEvt:action>
                  <stEvt:instanceID>xmp.iid:dd51ac82-a4d5-496d-bc6f-67f17be64e69</stEvt:instanceID>
                  <stEvt:when>2026-03-12T20:36:29+08:00</stEvt:when>
                  <stEvt:softwareAgent>Adobe Illustrator 30.2 (Macintosh)</stEvt:softwareAgent>
                  <stEvt:changed>/</stEvt:changed>
               </rdf:li>
            </rdf:Seq>
         </xmpMM:History>
      </rdf:Description>
   </rdf:RDF>
</x:xmpmeta>
                                                                                                    
                                                                                                    
                                                                                                    
                                                                                                    
                                                                                                    
                                                                                                    
                                                                                                    
                                                                                                    
                                                                                                    
                                                                                                    
                                                                                                    
                                                                                                    
                                                                                                    
                                                                                                    
                                                                                                    
                                                                                                    
                                                                                                    
                                                                                                    
                                                                                                    
                                                                                                    
                           
<?xpacket end="w"?>
  </metadata>
</svg>