<?xml version="1.0" encoding="UTF-8"?>
<svg id="_圖層_1" xmlns="http://www.w3.org/2000/svg" version="1.1" viewBox="0 0 1000 1000">
  <!-- Generator: Adobe Illustrator 30.2.1, SVG Export Plug-In . SVG Version: 2.1.1 Build 1)  -->
  <g id="LOGO">
    <g>
      <path d="M522.676,630.962c-5.018,4.776-12.343,7.169-21.982,7.169-3.817,0-7.382-.523-10.686-1.56-3.304-1.027-6.191-2.703-8.661-5.009-2.461,2.306-5.348,3.982-8.651,5.009-3.304,1.037-6.869,1.56-10.696,1.56-9.63,0-16.954-2.393-21.973-7.169-5.009-4.776-7.518-11.984-7.518-21.614v-59.233h20.297v57.199c0,1.676.097,3.41.3,5.193.194,1.792.62,3.41,1.25,4.844.639,1.434,1.56,2.606,2.751,3.517,1.192.92,2.829,1.376,4.892,1.376,1.996,0,3.604-.455,4.844-1.376,1.23-.911,2.16-2.083,2.8-3.517.639-1.434,1.056-3.052,1.259-4.844.194-1.783.3-3.517.3-5.193v-57.199h20.297v57.199c0,1.676.097,3.41.3,5.193.194,1.792.62,3.41,1.25,4.844.639,1.434,1.56,2.606,2.751,3.517,1.192.92,2.829,1.376,4.892,1.376,1.996,0,3.604-.455,4.844-1.376,1.23-.911,2.16-2.083,2.8-3.517s1.056-3.052,1.259-4.844c.194-1.783.3-3.517.3-5.193v-57.199h20.297v59.233c0,9.63-2.509,16.838-7.518,21.614Z" fill="#fff"/>
      <path d="M570.681,557.749c0,1.521-.32,2.868-.959,4.069-.639,1.192-1.492,2.209-2.567,3.042-1.075.833-2.286,1.473-3.643,1.909-1.356.436-2.713.659-4.059.659-1.356,0-2.713-.223-4.059-.659-1.356-.436-2.567-1.075-3.643-1.909-1.075-.833-1.938-1.85-2.567-3.042-.639-1.201-.959-2.548-.959-4.069,0-1.424.32-2.742.959-3.933.63-1.201,1.492-2.209,2.567-3.052,1.075-.833,2.286-1.492,3.643-1.967,1.347-.475,2.703-.717,4.059-.717,1.347,0,2.703.242,4.059.717,1.356.475,2.567,1.134,3.643,1.967,1.075.843,1.928,1.85,2.567,3.052.639,1.192.959,2.509.959,3.933ZM550.258,636.097v-61.859h18.388v61.859h-18.388Z" fill="#fff"/>
      <path d="M588.72,636.097v-85.982h18.388v85.982h-18.388Z" fill="#fff"/>
      <path d="M627.172,636.097v-85.982h18.388v85.982h-18.388Z" fill="#fff"/>
      <path d="M743.013,636.097v-57.208c0-1.666-.107-3.401-.3-5.193-.203-1.792-.62-3.401-1.259-4.834-.639-1.434-1.569-2.606-2.8-3.526-1.24-.911-2.848-1.376-4.844-1.376-2.064,0-3.701.465-4.892,1.376-1.192.92-2.112,2.093-2.751,3.526-.63,1.434-1.056,3.042-1.25,4.834-.203,1.792-.3,3.526-.3,5.193v57.208h-20.297v-57.208c0-1.666-.107-3.401-.3-5.193-.203-1.792-.62-3.401-1.259-4.834-.639-1.434-1.569-2.606-2.8-3.526-1.24-.911-2.848-1.376-4.844-1.376-2.064,0-3.701.465-4.892,1.376-1.192.92-2.112,2.093-2.751,3.526-.63,1.434-1.056,3.042-1.25,4.834-.203,1.792-.3,3.526-.3,5.193v57.208h-20.297v-59.233c0-9.63,2.509-16.838,7.518-21.614,5.018-4.776,12.343-7.169,21.973-7.169,3.827,0,7.392.523,10.696,1.55,3.304,1.037,6.191,2.713,8.651,5.018,2.47-2.306,5.358-3.982,8.661-5.018,3.304-1.027,6.869-1.55,10.686-1.55,9.64,0,16.964,2.393,21.982,7.169,5.009,4.776,7.518,11.984,7.518,21.614v59.233h-20.297Z" fill="#fff"/>
      <path d="M817.892,636.097v-8.836c-2.393,3.74-5.241,6.404-8.545,8.002-3.304,1.589-7.218,2.383-11.761,2.383-3.187,0-6.084-.494-8.719-1.492-2.625-.988-4.873-2.422-6.743-4.302-1.87-1.87-3.323-4.098-4.36-6.685-1.037-2.587-1.55-5.513-1.55-8.777v-42.153h18.388v34.509c0,1.831.155,3.604.475,5.319.32,1.705.872,3.216,1.666,4.534.785,1.318,1.879,2.354,3.265,3.11,1.385.756,3.149,1.134,5.29,1.134,2.219,0,4.117-.417,5.697-1.259,1.589-.833,2.897-1.947,3.924-3.342,1.027-1.395,1.783-3.003,2.257-4.834.475-1.831.717-3.778.717-5.852v-33.317h18.388v61.859h-18.388Z" fill="#fff"/>
      <path d="M901.724,616.992c0,3.982-.872,7.285-2.625,9.911-1.754,2.625-4.021,4.737-6.811,6.326-2.79,1.599-5.91,2.732-9.368,3.401-3.468.678-6.956,1.017-10.453,1.017-3.74,0-7.363-.397-10.87-1.192-3.507-.794-6.607-2.093-9.31-3.885-2.713-1.792-4.902-4.079-6.569-6.859-1.676-2.79-2.548-6.171-2.625-10.153h17.555c.155,3.662,1.385,6.326,3.701,8.002,2.306,1.666,5.212,2.509,8.719,2.509,1.192,0,2.422-.126,3.701-.358,1.269-.242,2.441-.639,3.517-1.201,1.075-.552,1.976-1.289,2.693-2.209.717-.911,1.075-2.044,1.075-3.401s-.281-2.47-.843-3.342c-.552-.882-1.434-1.637-2.625-2.267-1.192-.639-2.742-1.201-4.66-1.676-1.909-.475-4.214-.959-6.927-1.434-3.982-.717-7.479-1.569-10.502-2.567-3.032-.998-5.561-2.228-7.586-3.701-2.035-1.473-3.565-3.226-4.602-5.261-1.037-2.025-1.55-4.437-1.55-7.218,0-3.342.794-6.21,2.393-8.603,1.589-2.383,3.662-4.34,6.21-5.852,2.548-1.511,5.445-2.606,8.719-3.284,3.255-.678,6.52-1.017,9.785-1.017,3.342,0,6.694.3,10.037.901,3.342.591,6.326,1.647,8.952,3.158,2.635,1.521,4.776,3.546,6.452,6.094,1.676,2.548,2.587,5.735,2.742,9.552h-16.712c-.087-1.511-.417-2.839-1.017-4.001-.601-1.153-1.414-2.102-2.451-2.858-1.037-.756-2.19-1.337-3.459-1.734-1.279-.397-2.625-.601-4.059-.601-3.43,0-5.958.678-7.586,2.035-1.637,1.356-2.451,2.945-2.451,4.776,0,1.666.959,3.042,2.868,4.117,1.909,1.075,4.137,1.967,6.685,2.684,2.548.717,5.135,1.298,7.77,1.734,2.625.436,4.612.862,5.968,1.259,2.073.63,4.079,1.385,6.026,2.267,1.957.872,3.662,1.967,5.144,3.284,1.463,1.308,2.664,2.926,3.575,4.834.92,1.909,1.376,4.176,1.376,6.811Z" fill="#fff"/>
      <path d="M931.34,557.749c0,1.521-.32,2.868-.959,4.069-.639,1.192-1.492,2.209-2.567,3.042-1.075.833-2.286,1.473-3.643,1.909-1.356.436-2.713.659-4.059.659-1.356,0-2.713-.223-4.059-.659-1.356-.436-2.567-1.075-3.643-1.909-1.075-.833-1.938-1.85-2.567-3.042-.639-1.201-.959-2.548-.959-4.069,0-1.424.32-2.742.959-3.933.63-1.201,1.492-2.209,2.567-3.052,1.075-.833,2.286-1.492,3.643-1.967,1.347-.475,2.703-.717,4.059-.717,1.347,0,2.703.242,4.059.717,1.356.475,2.567,1.134,3.643,1.967,1.075.843,1.928,1.85,2.567,3.052.639,1.192.959,2.509.959,3.933ZM910.918,636.097v-61.859h18.388v61.859h-18.388Z" fill="#fff"/>
      <path d="M996.716,623.144c-1.705,3.139-3.895,5.784-6.569,7.935-2.664,2.151-5.706,3.788-9.136,4.902-3.42,1.114-7.121,1.666-11.103,1.666-4.699,0-9-.794-12.914-2.383-3.914-1.599-7.295-3.827-10.134-6.694-2.848-2.858-5.067-6.249-6.675-10.143-1.599-3.904-2.403-8.206-2.403-12.905s.804-9.049,2.403-13.079c1.608-4.011,3.827-7.479,6.675-10.386,2.839-2.906,6.259-5.193,10.25-6.869,3.992-1.666,8.38-2.509,13.156-2.509,3.74,0,7.324.504,10.744,1.492,3.43.998,6.491,2.49,9.204,4.486,2.703,1.986,4.912,4.476,6.627,7.46,1.705,2.984,2.761,6.472,3.158,10.453h-17.429c-.397-3.342-1.676-5.91-3.827-7.702-2.151-1.792-4.854-2.693-8.119-2.693-2.868,0-5.232.562-7.101,1.676-1.879,1.114-3.352,2.587-4.427,4.418-1.066,1.831-1.831,3.904-2.267,6.21-.436,2.306-.659,4.66-.659,7.043,0,2.315.223,4.582.659,6.811.436,2.228,1.201,4.224,2.267,5.968,1.075,1.754,2.509,3.168,4.302,4.243s4.079,1.608,6.869,1.608c3.42,0,6.249-1.134,8.477-3.401,2.228-2.267,3.507-5.077,3.827-8.419h17.429c-.475,4.059-1.569,7.663-3.284,10.812Z" fill="#fff"/>
    </g>
    <path d="M192.517,456.268s-9.116,73.337-77.985,136.367" fill="#cd3750"/>
    <path d="M114.542,629.037c-9.858,0-19.683-3.98-26.863-11.825-13.574-14.831-12.555-37.857,2.276-51.43,57.271-52.415,66.386-113.652,66.471-114.265l-.034.262,72.25,8.98c-.44,3.538-11.666,87.466-89.533,158.731-6.986,6.393-15.789,9.549-24.567,9.549Z" fill="#cd3750"/>
    <path d="M36.404,413.129s9.259,116.476,78.128,179.506" fill="#2ca2ba"/>
    <path d="M189.89,559.01s-40.42,70.56-74.06,70.56c-37.44,0-61.71-52.46-65.82-58.83-.18-.28-.35-.65-.49-1.09C7.37,500.7.45,420.25.12,416.01c-1.6-20.04,13.36-37.58,33.4-39.17,20.03-1.58,37.54,13.33,39.17,33.34.09,1.08,4.69,51.76,27.24,99.9.01.03.03.07.05.1,3.39,6.66,7.88,14.79,12.31,20.67,13.83,18.38,47.16,37.42,77.6,28.16Z" fill="#2fa4bb"/>
    <path d="M268.898,629.038c-9.858,0-19.684-3.981-26.864-11.826-13.573-14.831-12.554-37.857,2.277-51.43,57.185-52.336,66.338-154.582,66.423-155.609,1.592-20.041,19.121-34.959,39.17-33.367,20.041,1.593,34.993,19.167,33.4,39.208-.424,5.339-11.298,131.593-89.839,203.475-6.986,6.393-15.789,9.549-24.567,9.549Z" fill="#dc234c"/>
    <path d="M343.17,553.42s-38.61,75.95-72.25,75.95c-41.53,0-70.3-59.04-74.41-65.42-.19-.3-.37-.69-.52-1.16-29.34-44.75-38.3-84.95-40.56-97.84-.81-3.02-1.24-6.19-1.24-9.46,0-20.16,16.35-36.51,36.51-36.51,18.92,0,34.46,14.38,36.32,32.8h.01s5.17,34.74,32.01,74.25c14.05,18.28,53.86,36.6,84.13,27.39Z" fill="#2fa4bb"/>
    <g>
      <path d="M470.766,447.963c-10.202,8.949-11.455,10.023-14.677,10.023-4.653,0-8.054-4.296-8.054-8.412,0-2.327,1.074-4.654,3.58-6.444,12.172-7.876,22.911-19.689,31.681-34.724,1.611-2.685,3.759-3.759,6.086-3.759,4.295,0,8.771,4.116,8.771,8.412,0,2.327-1.254,4.833-11.277,17.541l-1.79,84.841c-.179,5.012-4.475,7.518-8.592,7.518s-8.233-2.327-8.233-7.159v-.359l2.505-67.479ZM451.077,410.017c0-2.327,1.254-4.833,3.938-6.802,11.455-8.054,20.046-17.899,26.669-31.144,1.431-3.043,3.937-4.117,6.443-4.117,4.296,0,8.771,3.58,8.771,8.233,0,7.159-27.028,41.705-38.125,41.705-4.475,0-7.697-3.76-7.697-7.876ZM599.639,415.744c-1.075,18.257-4.296,40.989-13.604,61.752,6.802,11.277,15.215,20.585,24.701,26.849,2.685,1.79,3.938,4.296,3.938,6.801,0,4.654-3.759,9.129-8.771,9.129-7.339,0-19.331-13.424-27.923-27.923-9.666,15.214-25.953,29.891-33.113,29.891-4.833,0-8.592-3.937-8.592-8.054,0-2.148,1.252-4.475,3.937-6.265,13.066-8.413,22.553-19.69,29.175-32.397-4.475-10.382-8.233-22.016-10.381-34.366-1.075,1.074-2.327,1.611-3.58,1.969v.359c0,3.221-2.327,6.622-6.981,6.622h-5.012v26.133c2.864-1.611,5.727-3.58,8.233-5.37,1.254-.895,2.685-1.432,3.938-1.432,3.58,0,6.622,3.222,6.622,6.802,0,2.147-1.074,4.475-3.58,6.443-10.739,8.233-29.713,19.152-34.724,19.152-4.475,0-7.339-3.938-7.339-7.876,0-2.685,1.254-5.191,4.476-6.623,2.505-1.074,5.37-2.326,8.054-3.58v-33.65h-8.771c-.359,16.467-.895,39.915-17.9,57.635-2.147,2.147-4.295,3.042-6.443,3.042-4.475,0-8.412-4.117-8.412-8.233,0-1.432.536-3.043,1.969-4.296,14.319-13.245,15.93-30.429,15.93-48.149h-5.728c-4.653,0-6.981-3.401-6.981-6.802,0-3.221,2.327-6.622,6.981-6.622h46.716c.18-1.074.359-2.327,1.075-3.58,7.517-15.035,15.214-45.643,17.183-61.215.537-4.475,4.117-6.443,7.876-6.443,4.296,0,8.592,2.506,8.592,7.338,0,1.79-2.148,11.993-6.802,28.46h31.324c5.011,0,7.517,3.58,7.517,7.159,0,3.759-2.506,7.338-7.517,7.338h-6.086ZM518.378,372.608v-.179c0-5.012,3.58-7.518,7.159-7.518,3.759,0,7.517,2.506,7.517,7.697l-.179,39.557c.716,0,1.611-.179,2.327-.179,4.653-.359,5.19-1.79,5.19-13.961,0-5.012,0-10.56-.179-13.783v-.179c0-4.475,3.222-6.622,6.623-6.622s6.802,2.326,6.981,6.801v6.981c0,6.444,0,14.32-.179,18.795-.537,14.14-11.277,15.571-27.923,15.571-18.973,0-27.028-2.147-27.564-15.214-.18-4.117-.359-10.56-.359-16.288,0-3.938.179-7.697.179-10.024.18-4.653,3.76-7.159,7.339-7.159,3.401,0,6.622,2.327,6.622,6.981v.179c0,2.506-.179,5.728-.179,9.308,0,17.899.537,18.256,5.012,18.615.536,0,1.252.179,1.969.179l-.358-39.557ZM569.748,415.744l-.537,1.611c.359,14.319,3.043,28.102,7.518,40.452,4.653-14.319,6.622-29.175,7.159-42.063h-14.14Z" fill="#fff"/>
      <path d="M686.99,445.278c-3.222.715-33.471,6.265-38.841,6.265-3.938,0-5.907-3.58-5.907-6.981,0-3.043,1.611-6.086,5.011-6.265,2.148-.179,4.654-.359,7.339-.537,2.685-3.58,5.37-7.876,8.233-12.529-4.296-6.086-14.319-15.572-17.899-18.794-1.611-1.432-2.327-3.222-2.327-5.012,0-3.222,2.685-6.443,6.444-6.443,1.252,0,2.685.536,4.116,1.431.359.179.716.537,1.074.895,3.76-7.876,8.234-18.972,9.845-27.385.715-3.401,3.4-5.012,6.265-5.012,3.937,0,8.054,2.686,8.054,7.161,0,2.147-5.728,19.151-14.319,34.366,1.969,2.147,4.116,4.295,5.727,6.265,4.653-8.949,8.592-18.079,10.739-24.701,1.074-3.401,3.76-4.833,6.444-4.833,3.58,0,7.338,2.685,7.338,6.802s-12.172,28.102-23.627,46c4.833-.536,9.487-1.074,12.888-1.611-.716-1.611-1.432-2.864-2.148-4.116-.536-1.075-.895-2.148-.895-3.043,0-2.685,2.506-4.475,5.37-4.475,7.159,0,11.993,16.646,11.993,20.942,0,4.475-2.864,7.159-6.086,7.159-2.327,0-4.475-1.611-4.832-5.191v-.358ZM785.971,477.675l-49.401-1.074c17.362,12.529,34.366,18.436,54.055,24.701,3.759,1.254,5.37,3.938,5.37,6.981,0,4.653-3.759,9.487-9.128,9.487-4.653,0-35.082-12.708-58.888-31.681l.537,29.175v.179c0,4.475-4.117,6.802-8.234,6.802s-8.233-2.327-8.233-6.802v-.179l.537-28.818c-23.986,20.226-55.308,32.576-59.604,32.576-5.012,0-8.413-3.937-8.413-8.054,0-2.864,1.79-5.906,6.266-7.338,20.941-6.981,36.156-14.319,52.265-27.028l-47.433,1.074h-.179c-4.833,0-7.338-3.58-7.338-7.159,0-3.759,2.685-7.696,7.517-7.696l56.74.179-.358-6.265c-.179-4.833,3.759-7.697,8.233-7.697,4.117,0,8.234,2.506,8.234,7.338v.359l-.18,6.265h57.457c5.011,0,7.338,3.759,7.338,7.517,0,3.58-2.327,7.159-6.981,7.159h-.179ZM743.729,398.382c1.074-2.147,3.222-3.759,5.727-3.759,1.254,0,2.327.359,3.581,1.074,3.58-7.696,7.517-18.077,9.128-25.953.716-3.401,3.401-4.833,6.086-4.833,3.937,0,8.054,2.686,8.054,6.981,0,5.907-10.023,27.028-13.603,33.471,1.969,2.148,3.759,4.475,5.37,6.623,4.475-8.771,8.412-17.541,10.56-24.164,1.074-3.221,3.4-4.475,5.906-4.475,3.938,0,8.054,3.043,8.054,7.518,0,4.296-11.992,27.385-23.806,45.284,5.012-.536,9.845-1.252,13.604-1.79-2.864-5.727-3.401-7.159-3.401-8.233,0-3.043,2.864-5.012,5.907-5.012,8.591,0,13.603,19.331,13.603,23.269,0,5.011-3.58,8.054-7.159,8.054-2.506,0-5.012-1.79-5.37-5.907,0-.358-.179-.895-.179-1.252-11.993,2.506-33.83,6.086-37.767,6.086s-5.907-3.58-5.907-6.981c0-3.043,1.611-6.086,5.012-6.265,1.611,0,3.401-.18,5.37-.359,2.685-3.58,5.548-8.054,8.412-12.887-4.116-6.266-12.529-15.931-15.75-19.152-.537-.537-1.075-1.074-1.432-1.611.179,5.907.179,12.35.179,18.077,0,20.226-.895,24.88-24.522,24.88-17.004,0-22.195-2.865-22.552-13.425-.179-3.937-.179-10.023-.179-16.645,0-8.771,0-18.257.179-23.448.179-8.413,5.37-12.708,12.35-13.245.536,0,1.252-.179,1.969-.179.895-3.222,1.79-6.086,3.042-12.709.716-3.221,3.76-4.832,7.161-4.832,4.295,0,8.771,2.506,8.771,6.622,0,1.79-1.97,7.518-3.043,10.919,3.222,0,16.109,0,16.467,11.992l.179,6.265ZM709.9,417.893c0,5.37.179,10.023.358,12.529.179,2.864.895,4.116,10.203,4.116q10.202,0,10.202-16.645h-20.762ZM730.663,406.616c0-4.296-.358-8.234-.358-10.919-.179-4.116-1.79-4.295-10.203-4.295-1.79,0-3.58.179-5.548.358-4.475.358-4.475,1.432-4.475,14.856h20.584Z" fill="#fff"/>
      <path d="M876.364,470.874c1.969-.537,4.117-.895,6.623-.895,7.696-.359,16.109-.359,24.879-.359s17.72,0,25.953.359c18.079.716,18.079,12.708,18.079,21.836,0,3.401-.179,6.623-.358,10.024-.359,8.592-6.981,15.93-18.079,16.467-7.876.358-16.825.536-25.238.536-9.666,0-18.972-.179-26.491-.536-17.541-.716-18.615-11.814-18.615-22.732,0-12.529,0-18.795,8.054-22.911-15.393,5.37-28.28,7.876-29.533,7.876-5.012,0-8.234-4.117-8.234-8.054,0-3.401,2.327-6.802,7.697-7.697,17.362-2.864,36.872-9.487,53.518-18.436-6.443-5.012-11.813-10.382-15.93-15.93-12.35,8.949-29.175,19.331-34.366,19.331-4.653,0-7.518-3.76-7.518-7.518,0-2.685,1.432-5.37,4.654-6.981,14.677-6.981,29.175-15.393,47.611-34.366,1.79-1.79,4.116-2.685,6.443-2.685,4.296,0,8.412,3.043,8.412,7.159,0,.537,0,1.075-.179,1.611,11.993-.179,27.923-.536,30.608-.536,9.308,0,13.603,4.475,13.603,10.023,0,3.222-1.431,6.802-4.116,10.023-6.086,7.159-13.245,13.783-21.3,19.868,14.677,6.443,33.291,10.739,55.307,12.35,4.475.358,6.623,3.759,6.623,7.517,0,4.296-3.043,8.592-9.308,8.592-5.37,0-36.871-3.042-66.405-19.331-9.844,5.907-20.763,11.098-32.397,15.394ZM917.174,379.947c12.708,0,25.416.179,38.303.358,9.666.179,20.584,6.265,20.942,18.077.179,2.148.179,4.117.179,6.266,0,7.159-.895,12.887-9.128,12.887-4.475,0-8.771-2.685-8.771-7.517v-.359c0-12.35,0-14.677-9.666-14.856-14.32-.179-30.608-.358-46.716-.358-13.066,0-25.954.179-36.872.358-9.666.18-10.203,3.222-10.382,7.876v8.054c0,5.012-4.296,7.876-8.592,7.876-8.412,0-8.591-6.622-8.591-14.319,0-8.412.536-23.806,19.151-23.984,13.961-.179,27.744-.358,41.526-.358v-8.95c0-6.086,4.654-9.128,9.308-9.128s9.308,3.042,9.308,9.128v8.95ZM935.968,493.426c0-10.918-.537-10.918-28.818-10.918-7.338,0-14.498,0-20.942.358-5.727.18-7.696,2.865-7.696,10.56,0,8.413,2.505,10.56,7.876,10.74,6.265.179,13.245.179,20.405.179,7.338,0,14.677,0,21.478-.179,6.265-.359,7.697-4.117,7.697-10.74ZM925.944,421.114c0-1.074-1.074-1.611-2.147-1.611h-.537c-.895.18-19.331.18-31.323.18-.716.715-1.611,1.252-2.327,1.969,4.296,6.086,10.203,11.813,18.079,16.825,7.876-5.37,18.256-14.14,18.256-17.362Z" fill="#fff"/>
    </g>
  </g>
  <metadata><?xpacket begin="﻿" id="W5M0MpCehiHzreSzNTczkc9d"?>
<x:xmpmeta xmlns:x="adobe:ns:meta/" x:xmptk="Adobe XMP Core 10.0-c000 1.000000, 0000/00/00-00:00:00        ">
   <rdf:RDF xmlns:rdf="http://www.w3.org/1999/02/22-rdf-syntax-ns#">
      <rdf:Description rdf:about=""
            xmlns:xmp="http://ns.adobe.com/xap/1.0/"
            xmlns:xmpGImg="http://ns.adobe.com/xap/1.0/g/img/"
            xmlns:xmpTPg="http://ns.adobe.com/xap/1.0/t/pg/"
            xmlns:stDim="http://ns.adobe.com/xap/1.0/sType/Dimensions#"
            xmlns:xmpG="http://ns.adobe.com/xap/1.0/g/"
            xmlns:dc="http://purl.org/dc/elements/1.1/"
            xmlns:xmpMM="http://ns.adobe.com/xap/1.0/mm/"
            xmlns:stRef="http://ns.adobe.com/xap/1.0/sType/ResourceRef#"
            xmlns:stEvt="http://ns.adobe.com/xap/1.0/sType/ResourceEvent#">
         <xmp:CreatorTool>Adobe Illustrator 30.2 (Macintosh)</xmp:CreatorTool>
         <xmp:CreateDate>2026-02-24T23:16:22+08:00</xmp:CreateDate>
         <xmp:MetadataDate>2026-02-24T23:16:22+08:00</xmp:MetadataDate>
         <xmp:ModifyDate>2026-02-24T23:16:22+08:00</xmp:ModifyDate>
         <xmp:Thumbnails>
            <rdf:Alt>
               <rdf:li rdf:parseType="Resource">
                  <xmpGImg:width>256</xmpGImg:width>
                  <xmpGImg:height>72</xmpGImg:height>
                  <xmpGImg:format>JPEG</xmpGImg:format>
                  <xmpGImg:image>/9j/4AAQSkZJRgABAgEAAAAAAAD/7QAsUGhvdG9zaG9wIDMuMAA4QklNA+0AAAAAABAAAAAAAAEA&#xA;AQAAAAAAAQAB/+4ADkFkb2JlAGTAAAAAAf/bAIQABgQEBAUEBgUFBgkGBQYJCwgGBggLDAoKCwoK&#xA;DBAMDAwMDAwQDA4PEA8ODBMTFBQTExwbGxscHx8fHx8fHx8fHwEHBwcNDA0YEBAYGhURFRofHx8f&#xA;Hx8fHx8fHx8fHx8fHx8fHx8fHx8fHx8fHx8fHx8fHx8fHx8fHx8fHx8fHx8f/8AAEQgASAEAAwER&#xA;AAIRAQMRAf/EAaIAAAAHAQEBAQEAAAAAAAAAAAQFAwIGAQAHCAkKCwEAAgIDAQEBAQEAAAAAAAAA&#xA;AQACAwQFBgcICQoLEAACAQMDAgQCBgcDBAIGAnMBAgMRBAAFIRIxQVEGE2EicYEUMpGhBxWxQiPB&#xA;UtHhMxZi8CRygvElQzRTkqKyY3PCNUQnk6OzNhdUZHTD0uIIJoMJChgZhJRFRqS0VtNVKBry4/PE&#xA;1OT0ZXWFlaW1xdXl9WZ2hpamtsbW5vY3R1dnd4eXp7fH1+f3OEhYaHiImKi4yNjo+Ck5SVlpeYmZ&#xA;qbnJ2en5KjpKWmp6ipqqusra6voRAAICAQIDBQUEBQYECAMDbQEAAhEDBCESMUEFURNhIgZxgZEy&#xA;obHwFMHR4SNCFVJicvEzJDRDghaSUyWiY7LCB3PSNeJEgxdUkwgJChgZJjZFGidkdFU38qOzwygp&#xA;0+PzhJSktMTU5PRldYWVpbXF1eX1RlZmdoaWprbG1ub2R1dnd4eXp7fH1+f3OEhYaHiImKi4yNjo&#xA;+DlJWWl5iZmpucnZ6fkqOkpaanqKmqq6ytrq+v/aAAwDAQACEQMRAD8A775r/MTTdCnNnFEby+Ar&#xA;JGrBUSvQO1G39qZkYtOZ78g4Op10cZoblJ9M/OG0luFj1GxNtExp68T+px+alVNPl92WS0ZrYtGP&#xA;tQE+oU9BhmimiSaFxJFIoeN1NQysKgg++YhFO0BBFhfgS7FXYq7FXYq7FXYq8987fnJo/l6+fTbO&#xA;3OpX8W1wFcRxRt/KXo5LDuANvGuVTygO70PYk80eOR4Ynl3lKvL/AOfumXd4lvrFgbCKQhVuo5PV&#xA;Ra/zqVVgPcV+WCObvcjUez04xuEuLy5PVkdJEV0YOjgMrKagg7ggjLnnSK2LeKHYq7FXYq7FXYq7&#xA;FXYq7FXYq7FXYq7FXYq7FXYq7FXYq7FXzZc3EtzcS3EzcpZnaSRj3ZjUn783YFCnkpSJNlTwsXs3&#xA;5VXr3HlURu3I2s8kS16hSA4/4nms1Uam9B2dO8XuLMcxnPdiqFv9U03TohLfXMdsh2UyMFqfAA9f&#xA;oyUYk8mE8kYi5GlLTvMGiakxSxvYbiQbmNHHOnjx60wyxyjzDGGaE/pIKPyDa7FUHrV6bDR7++BA&#xA;Nrbyzgnp+7Qt/DATQbcEOOcY95AfIUkjyO0kjF3clnYmpJO5JOYT6WBQoLcUvpn8obu5ufy+0tpy&#xA;WaMSxIx7pHKyoP8AYgcfozKxn0vBdswEdTKvL7mZZY6t2KuxV2KuxV2KuxV2KuxV2KuxV2KuxV2K&#xA;uxV2KuxV2KuxV8665am01q/taU9G4lQfJXIH4ZuYG4gvK5o8MyPNBZNqemfk3e/8dKxY/wC+541+&#xA;9XP/ABHMHWR5F3HZc/qi9LzBdup3M8dvby3EhpHCjSOf8lRU/qwgWUSNC3z1res32sajLfXjlpJC&#xA;eCV+FE7IvsM3EICIoPLZcsskuIoSCeaCZJoHaOaMhkkQkMCO4IyRFtYJBsPfPKOsvrPl+0v5Keu6&#xA;lJ6bfGhKsfppXNRmhwyIen02XxMYl1TjK29iH5s6kLDyDqjA0e4RbZB4+s4Vv+E5ZDIai7PsfFx6&#xA;mPlv8nzHmI987FX1P+W9ibHyLosBHEm2WYj3nJm/43zLgNg+e9p5OPUTPnXy2ZJk3AdirsVdirsV&#xA;dirsVdirsVdirsVdirsVdirsVdirsVdirsVeK/mhp5tPNcsoFEvI0nXwrTg34pXNnpZXD3PPdoQ4&#xA;ct97EsyXBZL+XWqDT/NdqWPGK6rbSf8APT7P/Dhco1EbgXM0OThyjz2e5Zqno2NfmNrUekeTNTuW&#xA;IEksRtoB4yTjgKfIEt9GRlLhFuVotP42UQ6dfc8LRg6Kw6MAR9ObyJsW8TkxmEjE8waXZJg9S/J7&#xA;VVezvdLZvjicXEQJ/ZcBWp8io+/NfrIbgu67LyWDH4vRcw3avHf+chNaAh0vREb4mZrydfAKDHH9&#xA;9X+7KMx6PT+zmDeWT4fpP6Hi2UPVInTLCXUNStbCH+9u5o4I/wDWkYKP14gW15cghAyPIC31/bwR&#xA;28EcEQ4xRIqIvgqigH3ZnPmkpGRJPVfixdirsVdirsVdirsVdirsVdirsVdirsVdirsVdirsVdir&#xA;sVYB+b2lGbSrXUkWrWkhjlP+RLShPyYAfTmXpJ0SO91naeO4iXc8nzYujbR3R1dCVdSCrDqCNwcC&#xA;QX0H5a1qPWdFtb9COci0mUfsyLs4+/p7ZqMkOGRD1Gny+JASeNfnj5sTUNYi0K1flbaaS1yQdmuG&#xA;FKf8812+ZIzCzSs09f2LpeCByHnLl7v2sS0if1bNVJ+KP4T8u2bjQ5OLHXc8R7TaPwdWZD6cnq/X&#xA;9v3o7M155NvK2uPomuW1+KmJTwuEH7UT7MPo6j3GV5YcUab9Pm8OYk99S4ge3W4WRTAyCRZajiUI&#xA;ryr4UzTkU9RHfl1fLHn3zH/iHzVfakhJtmf07QH/AHzH8KGn+VTkfc5hzlZfROz9N4OGMOvX3sfy&#xA;LmvQfyS0L9I+ckvJFrb6XG07E9PUb4Ix86ksP9XLMQsul7d1HBg4Rzma/W+isyniHYq7FXYq7FXY&#xA;q7FXYq7FXYq7FXYq7FXYq7FXYq7FXYq7FXYqhdV06HUtNubCb+7uI2jJ8CRs30HfJQlwm2GSAnEx&#xA;PV88XtpPZ3c1pcLwngdo5F/ylNDm4ibFh5WcTEkHmFHJMU80Dznq/l+yv4bBVkNzGfRVztHNSgkA&#xA;3rt277ZjanCZjb6nZ9l6qGPIBk/uyd/x97ze4adp5HnLNOzFpGepYsTUkk9znPyiQaPN9bw5ITiD&#xA;Agx6VyRWk3XoXQDGkcnwt8+xzK0WbgnR5F0ntJ2f+Y05I+vHuP0j8dzIs375Y7FU5n86a9H5NufL&#xA;1tRhMPTScsQ6QtX1Ix2PLp7CvtTB1WmMhceb0XYPaWLDlj4/0Dke4+fk80kjkjYpIpVh1BFM0kom&#xA;Join1nDnhljxQkJRPULcDa+jvya8sNo3lNLqdON5qpFzID1EVKQr/wACeX+yzKxRoPDdt6rxc1D6&#xA;YbfHr+PJnuWOndirsVdirsVdirsVdirsVdirsVdirsVdirsVdirsVdirsVdirsVeX/mz5b4Sprtu&#xA;vwycYrwDswFEf6R8J+jM/SZP4S6btLBvxj4vOMzXUuxVRntLecUlQN4HofvGVZMMJ/UHO0faOfTH&#xA;91Ix8uny5N6T5OGq6lBY2gczTtQAkcVHVmbatFG5zCyaHFEWbd/g9qNZMiAEL76P66ZT538oHy7e&#xA;wpAWksZ4x6Mr7nmgAcMfGvxfTmVp8nFHzDodfg4MljlLdjeZDgOxVZJFFIKSIrjwYA/ryMoCXMW3&#xA;4dTkxG8cpRPkaTbyb5LtNd1yK2+rr9Vj/e3b02EYO4+bfZH39sw82LHAXwi3daTtXW5ZUcs+Ec9/&#xA;0voRVVVCqAFAoANgAMwXOdirsVdirsVdirsVdirsVdirsVdirsVdirsVdirsVdirsVdirsVdiqhf&#xA;2Ntf2U1ncpzgnUpIvsfD3HbDGRBsMZwEgQeReB+ZfL15oWqSWVwKp9q3m7SRk7MP4jNvjyCYsPM5&#xA;8BxyopXljQuiiklkWKJS8jkKiKKkk7AADATSQCTQe1eQvJq6DZGe6UHVLkD1iKH006iMH8Wp3+Wa&#xA;zPm4ztyei0el8KO/1FOPMmgWuu6VLYXHwk/FDL1KSD7LD+PtlePIYGw3Z8IyR4S8G1bSb7Sr6Syv&#xA;YzHPGfoYdmU9wc2sJiQsPNZMcoSo80Jk2tWs7O5vLqO1tY2muJm4xxruSTkZSAFlnCBkaHN7r5P8&#xA;sQeX9KW2HF7uWj3cw/aenQE78V6D7++arLk4zb0unwDFCk8ypvdirsVdirsVdirsVdirsVdirsVd&#xA;irsVdirsVdirsVdirsVdirsVdirsVS7XNA0zW7M2t/FzXcxyLtJGx/aRux/DxycMhibDVlwxyCpB&#xA;53d/k5qQnpaX8LwE/alVkcD5KHB+/MsazvDrJdlb7SZb5T8g6ZoDfWWY3eoUI+sMOIQHr6a70qNi&#xA;a1+WUZc5n7nN0+jhi35y72UZQ5bsVSnzD5X0nXrYQ30f7xP7m4SgkSvgd9vY7ZZjymB2ac2nhkFS&#xA;YBP+TmpiekGoQPBt8ciuj+/wjmP+GzKGs8nXHsrul9jM/KnknTPLsbPGTc30gpJduADx/lRd+K/T&#xA;9OY+XMZ+5ztPpY4htz72RZS5LsVdirsVdirsVdirsVdirsVdirsVdirsVdirsVdirsVdirsVdirs&#xA;Vf/Z</xmpGImg:image>
               </rdf:li>
            </rdf:Alt>
         </xmp:Thumbnails>
         <xmpTPg:MaxPageSize rdf:parseType="Resource">
            <stDim:w>1000.000000</stDim:w>
            <stDim:h>1000.000000</stDim:h>
            <stDim:unit>Pixels</stDim:unit>
         </xmpTPg:MaxPageSize>
         <xmpTPg:NPages>1</xmpTPg:NPages>
         <xmpTPg:HasVisibleTransparency>False</xmpTPg:HasVisibleTransparency>
         <xmpTPg:HasVisibleOverprint>False</xmpTPg:HasVisibleOverprint>
         <xmpTPg:PlateNames>
            <rdf:Seq>
               <rdf:li>Cyan</rdf:li>
               <rdf:li>Magenta</rdf:li>
               <rdf:li>Yellow</rdf:li>
            </rdf:Seq>
         </xmpTPg:PlateNames>
         <xmpTPg:SwatchGroups>
            <rdf:Seq>
               <rdf:li rdf:parseType="Resource">
                  <xmpG:groupName>預設色票群組</xmpG:groupName>
                  <xmpG:groupType>0</xmpG:groupType>
                  <xmpG:Colorants>
                     <rdf:Seq>
                        <rdf:li rdf:parseType="Resource">
                           <xmpG:swatchName>R=55 G=196 B=225 2</xmpG:swatchName>
                           <xmpG:type>PROCESS</xmpG:type>
                           <xmpG:tint>100.000000</xmpG:tint>
                           <xmpG:mode>RGB</xmpG:mode>
                           <xmpG:red>47</xmpG:red>
                           <xmpG:green>164</xmpG:green>
                           <xmpG:blue>187</xmpG:blue>
                        </rdf:li>
                        <rdf:li rdf:parseType="Resource">
                           <xmpG:swatchName>R=9 G=194 B=224 2</xmpG:swatchName>
                           <xmpG:type>PROCESS</xmpG:type>
                           <xmpG:tint>100.000000</xmpG:tint>
                           <xmpG:mode>RGB</xmpG:mode>
                           <xmpG:red>43</xmpG:red>
                           <xmpG:green>162</xmpG:green>
                           <xmpG:blue>186</xmpG:blue>
                        </rdf:li>
                        <rdf:li rdf:parseType="Resource">
                           <xmpG:swatchName>R=255 G=69 B=93 6</xmpG:swatchName>
                           <xmpG:type>PROCESS</xmpG:type>
                           <xmpG:tint>100.000000</xmpG:tint>
                           <xmpG:mode>RGB</xmpG:mode>
                           <xmpG:red>204</xmpG:red>
                           <xmpG:green>55</xmpG:green>
                           <xmpG:blue>80</xmpG:blue>
                        </rdf:li>
                     </rdf:Seq>
                  </xmpG:Colorants>
               </rdf:li>
            </rdf:Seq>
         </xmpTPg:SwatchGroups>
         <dc:format>image/svg+xml</dc:format>
         <xmpMM:DerivedFrom rdf:parseType="Resource">
            <stRef:instanceID>xmp.iid:297ca9b1-ea02-486c-9292-2f6f7f167899</stRef:instanceID>
            <stRef:documentID>xmp.did:297ca9b1-ea02-486c-9292-2f6f7f167899</stRef:documentID>
            <stRef:originalDocumentID>xmp.did:3913e308-930a-4974-b425-c9a68f52ffb7</stRef:originalDocumentID>
         </xmpMM:DerivedFrom>
         <xmpMM:DocumentID>xmp.did:7a449d75-192b-42e1-aa29-c0e52cbb3dbd</xmpMM:DocumentID>
         <xmpMM:InstanceID>xmp.iid:7a449d75-192b-42e1-aa29-c0e52cbb3dbd</xmpMM:InstanceID>
         <xmpMM:OriginalDocumentID>xmp.did:3913e308-930a-4974-b425-c9a68f52ffb7</xmpMM:OriginalDocumentID>
         <xmpMM:History>
            <rdf:Seq>
               <rdf:li rdf:parseType="Resource">
                  <stEvt:action>saved</stEvt:action>
                  <stEvt:instanceID>xmp.iid:3913e308-930a-4974-b425-c9a68f52ffb7</stEvt:instanceID>
                  <stEvt:when>2026-02-24T23:07:04+08:00</stEvt:when>
                  <stEvt:softwareAgent>Adobe Illustrator 30.2 (Macintosh)</stEvt:softwareAgent>
                  <stEvt:changed>/</stEvt:changed>
               </rdf:li>
               <rdf:li rdf:parseType="Resource">
                  <stEvt:action>saved</stEvt:action>
                  <stEvt:instanceID>xmp.iid:7a449d75-192b-42e1-aa29-c0e52cbb3dbd</stEvt:instanceID>
                  <stEvt:when>2026-02-24T23:16:22+08:00</stEvt:when>
                  <stEvt:softwareAgent>Adobe Illustrator 30.2 (Macintosh)</stEvt:softwareAgent>
                  <stEvt:changed>/</stEvt:changed>
               </rdf:li>
            </rdf:Seq>
         </xmpMM:History>
      </rdf:Description>
   </rdf:RDF>
</x:xmpmeta>
                                                                                                    
                                                                                                    
                                                                                                    
                                                                                                    
                                                                                                    
                                                                                                    
                                                                                                    
                                                                                                    
                                                                                                    
                                                                                                    
                                                                                                    
                                                                                                    
                                                                                                    
                                                                                                    
                                                                                                    
                                                                                                    
                                                                                                    
                                                                                                    
                                                                                                    
                                                                                                    
                           
<?xpacket end="w"?>
  </metadata>
</svg>