<?xml version="1.0" encoding="UTF-8"?>
<svg id="_圖層_1" xmlns="http://www.w3.org/2000/svg" version="1.1" viewBox="0 0 1000 1000">
  <!-- Generator: Adobe Illustrator 30.2.1, SVG Export Plug-In . SVG Version: 2.1.1 Build 1)  -->
  <g>
    <path d="M234.146,88.478c0,22.158-17.962,40.123-40.123,40.123s-40.124-17.964-40.124-40.123,17.964-40.124,40.124-40.124,40.123,17.964,40.123,40.124Z" fill="#ffcd48"/>
    <path d="M336.14,88.478c0,22.158-17.964,40.123-40.124,40.123s-40.123-17.964-40.123-40.123,17.964-40.124,40.123-40.124,40.124,17.964,40.124,40.124Z" fill="#ffcd48"/>
    <path d="M438.132,88.478c0,22.158-17.964,40.123-40.124,40.123s-40.123-17.964-40.123-40.123,17.964-40.124,40.123-40.124,40.124,17.964,40.124,40.124Z" fill="#ffcd48"/>
    <path d="M540.123,88.478c0,22.158-17.964,40.123-40.123,40.123s-40.124-17.964-40.124-40.123,17.964-40.124,40.124-40.124,40.123,17.964,40.123,40.124Z" fill="#ffcd48"/>
    <path d="M642.115,88.478c0,22.158-17.964,40.123-40.122,40.123s-40.124-17.964-40.124-40.123,17.964-40.124,40.124-40.124,40.122,17.964,40.122,40.124Z" fill="#ffcd48"/>
    <path d="M744.109,88.478c0,22.158-17.964,40.123-40.124,40.123s-40.124-17.964-40.124-40.123,17.964-40.124,40.124-40.124,40.124,17.964,40.124,40.124Z" fill="#ffcd48"/>
    <path d="M846.101,88.478c0,22.158-17.964,40.123-40.124,40.123s-40.123-17.964-40.123-40.123,17.964-40.124,40.123-40.124,40.124,17.964,40.124,40.124Z" fill="#ffcd48"/>
  </g>
  <g>
    <path d="M234.146,191.359c0,22.158-17.962,40.123-40.123,40.123s-40.124-17.964-40.124-40.123,17.964-40.124,40.124-40.124,40.123,17.964,40.123,40.124Z" fill="#ffcd48"/>
    <path d="M336.14,191.359c0,22.158-17.964,40.123-40.124,40.123s-40.123-17.964-40.123-40.123,17.964-40.124,40.123-40.124,40.124,17.964,40.124,40.124Z" fill="#ffcd48"/>
    <path d="M438.132,191.359c0,22.158-17.964,40.123-40.124,40.123s-40.123-17.964-40.123-40.123,17.964-40.124,40.123-40.124,40.124,17.964,40.124,40.124Z" fill="#ffcd48"/>
    <path d="M540.123,191.359c0,22.158-17.964,40.123-40.123,40.123s-40.124-17.964-40.124-40.123,17.964-40.124,40.124-40.124,40.123,17.964,40.123,40.124Z" fill="#ffcd48"/>
    <path d="M642.115,191.359c0,22.158-17.964,40.123-40.122,40.123s-40.124-17.964-40.124-40.123,17.964-40.124,40.124-40.124,40.122,17.964,40.122,40.124Z" fill="#ffcd48"/>
    <path d="M744.109,191.359c0,22.158-17.964,40.123-40.124,40.123s-40.124-17.964-40.124-40.123,17.964-40.124,40.124-40.124,40.124,17.964,40.124,40.124Z" fill="#ffcd48"/>
    <path d="M846.101,191.359c0,22.158-17.964,40.123-40.124,40.123s-40.123-17.964-40.123-40.123,17.964-40.124,40.123-40.124,40.124,17.964,40.124,40.124Z" fill="#ffcd48"/>
  </g>
  <path d="M234.146,294.24c0,22.158-17.962,40.123-40.123,40.123s-40.124-17.964-40.124-40.123,17.964-40.124,40.124-40.124,40.123,17.964,40.123,40.124Z" fill="#ffcd48"/>
  <path d="M336.14,294.24c0,22.158-17.964,40.123-40.124,40.123s-40.123-17.964-40.123-40.123,17.964-40.124,40.123-40.124,40.124,17.964,40.124,40.124Z" fill="#ffcd48"/>
  <path d="M234.146,397.12c0,22.158-17.962,40.123-40.123,40.123s-40.124-17.964-40.124-40.123,17.964-40.124,40.124-40.124,40.123,17.964,40.123,40.124Z" fill="#ffcd48"/>
  <path d="M336.14,397.12c0,22.158-17.964,40.123-40.124,40.123s-40.123-17.964-40.123-40.123,17.964-40.124,40.123-40.124,40.124,17.964,40.124,40.124Z" fill="#ffcd48"/>
  <path d="M234.146,500.001c0,22.158-17.962,40.123-40.123,40.123s-40.124-17.964-40.124-40.123,17.964-40.124,40.124-40.124,40.123,17.964,40.123,40.124Z" fill="#ffcd48"/>
  <path d="M336.14,500.001c0,22.158-17.964,40.123-40.124,40.123s-40.123-17.964-40.123-40.123,17.964-40.124,40.123-40.124,40.124,17.964,40.124,40.124Z" fill="#ffcd48"/>
  <path d="M438.132,500.001c0,22.158-17.964,40.123-40.124,40.123s-40.123-17.964-40.123-40.123,17.964-40.124,40.123-40.124,40.124,17.964,40.124,40.124Z" fill="#ffcd48"/>
  <path d="M540.123,500.001c0,22.158-17.964,40.123-40.123,40.123s-40.124-17.964-40.124-40.123,17.964-40.124,40.124-40.124,40.123,17.964,40.123,40.124Z" fill="#ffcd48"/>
  <path d="M234.146,602.88c0,22.16-17.962,40.124-40.123,40.124s-40.124-17.964-40.124-40.124,17.964-40.123,40.124-40.123,40.123,17.964,40.123,40.123Z" fill="#ffcd48"/>
  <path d="M336.14,602.88c0,22.16-17.964,40.124-40.124,40.124s-40.123-17.964-40.123-40.124,17.964-40.123,40.123-40.123,40.124,17.964,40.124,40.123Z" fill="#ffcd48"/>
  <path d="M234.146,705.76c0,22.16-17.962,40.124-40.123,40.124s-40.124-17.964-40.124-40.124,17.964-40.123,40.124-40.123,40.123,17.964,40.123,40.123Z" fill="#ffcd48"/>
  <path d="M336.14,705.76c0,22.16-17.964,40.124-40.124,40.124s-40.123-17.964-40.123-40.124,17.964-40.123,40.123-40.123,40.124,17.964,40.124,40.123Z" fill="#ffcd48"/>
  <g>
    <path d="M234.146,808.641c0,22.16-17.962,40.124-40.123,40.124s-40.124-17.964-40.124-40.124,17.964-40.123,40.124-40.123,40.123,17.964,40.123,40.123Z" fill="#ffcd48"/>
    <path d="M336.14,808.641c0,22.16-17.964,40.124-40.124,40.124s-40.123-17.964-40.123-40.124,17.964-40.123,40.123-40.123,40.124,17.964,40.124,40.123Z" fill="#ffcd48"/>
    <path d="M438.132,808.641c0,22.16-17.964,40.124-40.124,40.124s-40.123-17.964-40.123-40.124,17.964-40.123,40.123-40.123,40.124,17.964,40.124,40.123Z" fill="#ffcd48"/>
    <path d="M540.123,808.641c0,22.16-17.964,40.124-40.123,40.124s-40.124-17.964-40.124-40.124,17.964-40.123,40.124-40.123,40.123,17.964,40.123,40.123Z" fill="#ffcd48"/>
    <path d="M642.115,808.641c0,22.16-17.964,40.124-40.122,40.124s-40.124-17.964-40.124-40.124,17.964-40.123,40.124-40.123,40.122,17.964,40.122,40.123Z" fill="#ffcd48"/>
    <path d="M744.109,808.641c0,22.16-17.964,40.124-40.124,40.124s-40.124-17.964-40.124-40.124,17.964-40.123,40.124-40.123,40.124,17.964,40.124,40.123Z" fill="#ffcd48"/>
    <path d="M846.101,808.641c0,22.16-17.964,40.124-40.124,40.124s-40.123-17.964-40.123-40.124,17.964-40.123,40.123-40.123,40.124,17.964,40.124,40.123Z" fill="#ffcd48"/>
  </g>
  <g>
    <path d="M234.146,911.522c0,22.16-17.962,40.124-40.123,40.124s-40.124-17.964-40.124-40.124,17.964-40.123,40.124-40.123,40.123,17.964,40.123,40.123Z" fill="#ffcd48"/>
    <path d="M336.14,911.522c0,22.16-17.964,40.124-40.124,40.124s-40.123-17.964-40.123-40.124,17.964-40.123,40.123-40.123,40.124,17.964,40.124,40.123Z" fill="#ffcd48"/>
    <path d="M438.132,911.522c0,22.16-17.964,40.124-40.124,40.124s-40.123-17.964-40.123-40.124,17.964-40.123,40.123-40.123,40.124,17.964,40.124,40.123Z" fill="#ffcd48"/>
    <path d="M540.123,911.522c0,22.16-17.964,40.124-40.123,40.124s-40.124-17.964-40.124-40.124,17.964-40.123,40.124-40.123,40.123,17.964,40.123,40.123Z" fill="#ffcd48"/>
    <path d="M642.115,911.522c0,22.16-17.964,40.124-40.122,40.124s-40.124-17.964-40.124-40.124,17.964-40.123,40.124-40.123,40.122,17.964,40.122,40.123Z" fill="#ffcd48"/>
    <path d="M744.109,911.522c0,22.16-17.964,40.124-40.124,40.124s-40.124-17.964-40.124-40.124,17.964-40.123,40.124-40.123,40.124,17.964,40.124,40.123Z" fill="#ffcd48"/>
    <path d="M846.101,911.522c0,22.16-17.964,40.124-40.124,40.124s-40.123-17.964-40.123-40.124,17.964-40.123,40.123-40.123,40.124,17.964,40.124,40.123Z" fill="#ffcd48"/>
  </g>
  <metadata><?xpacket begin="﻿" id="W5M0MpCehiHzreSzNTczkc9d"?>
<x:xmpmeta xmlns:x="adobe:ns:meta/" x:xmptk="Adobe XMP Core 10.0-c000 1.000000, 0000/00/00-00:00:00        ">
   <rdf:RDF xmlns:rdf="http://www.w3.org/1999/02/22-rdf-syntax-ns#">
      <rdf:Description rdf:about=""
            xmlns:xmp="http://ns.adobe.com/xap/1.0/"
            xmlns:xmpGImg="http://ns.adobe.com/xap/1.0/g/img/"
            xmlns:xmpTPg="http://ns.adobe.com/xap/1.0/t/pg/"
            xmlns:stDim="http://ns.adobe.com/xap/1.0/sType/Dimensions#"
            xmlns:xmpG="http://ns.adobe.com/xap/1.0/g/"
            xmlns:dc="http://purl.org/dc/elements/1.1/"
            xmlns:xmpMM="http://ns.adobe.com/xap/1.0/mm/"
            xmlns:stRef="http://ns.adobe.com/xap/1.0/sType/ResourceRef#"
            xmlns:stEvt="http://ns.adobe.com/xap/1.0/sType/ResourceEvent#">
         <xmp:CreatorTool>Adobe Illustrator 30.2 (Macintosh)</xmp:CreatorTool>
         <xmp:CreateDate>2026-03-13T11:24:49+08:00</xmp:CreateDate>
         <xmp:MetadataDate>2026-03-13T11:24:49+08:00</xmp:MetadataDate>
         <xmp:ModifyDate>2026-03-13T11:24:49+08:00</xmp:ModifyDate>
         <xmp:Thumbnails>
            <rdf:Alt>
               <rdf:li rdf:parseType="Resource">
                  <xmpGImg:width>196</xmpGImg:width>
                  <xmpGImg:height>256</xmpGImg:height>
                  <xmpGImg:format>JPEG</xmpGImg:format>
                  <xmpGImg:image>/9j/4AAQSkZJRgABAgEAAAAAAAD/7QAsUGhvdG9zaG9wIDMuMAA4QklNA+0AAAAAABAAAAAAAAEA&#xA;AQAAAAAAAQAB/+4ADkFkb2JlAGTAAAAAAf/bAIQABgQEBAUEBgUFBgkGBQYJCwgGBggLDAoKCwoK&#xA;DBAMDAwMDAwQDA4PEA8ODBMTFBQTExwbGxscHx8fHx8fHx8fHwEHBwcNDA0YEBAYGhURFRofHx8f&#xA;Hx8fHx8fHx8fHx8fHx8fHx8fHx8fHx8fHx8fHx8fHx8fHx8fHx8fHx8fHx8f/8AAEQgBAADEAwER&#xA;AAIRAQMRAf/EAaIAAAAHAQEBAQEAAAAAAAAAAAQFAwIGAQAHCAkKCwEAAgIDAQEBAQEAAAAAAAAA&#xA;AQACAwQFBgcICQoLEAACAQMDAgQCBgcDBAIGAnMBAgMRBAAFIRIxQVEGE2EicYEUMpGhBxWxQiPB&#xA;UtHhMxZi8CRygvElQzRTkqKyY3PCNUQnk6OzNhdUZHTD0uIIJoMJChgZhJRFRqS0VtNVKBry4/PE&#xA;1OT0ZXWFlaW1xdXl9WZ2hpamtsbW5vY3R1dnd4eXp7fH1+f3OEhYaHiImKi4yNjo+Ck5SVlpeYmZ&#xA;qbnJ2en5KjpKWmp6ipqqusra6voRAAICAQIDBQUEBQYECAMDbQEAAhEDBCESMUEFURNhIgZxgZEy&#xA;obHwFMHR4SNCFVJicvEzJDRDghaSUyWiY7LCB3PSNeJEgxdUkwgJChgZJjZFGidkdFU38qOzwygp&#xA;0+PzhJSktMTU5PRldYWVpbXF1eX1RlZmdoaWprbG1ub2R1dnd4eXp7fH1+f3OEhYaHiImKi4yNjo&#xA;+DlJWWl5iZmpucnZ6fkqOkpaanqKmqq6ytrq+v/aAAwDAQACEQMRAD8A9Ba1rU8k729u5SFDxZl2&#xA;LEdd/DOU7T7TnKZhA1Efa7TTaYAWeaThmVuSkhhuCOuaUSINjm5hDIdA1iWWQWlw3NiP3Uh67b0O&#xA;dJ2T2lKcvDmb7i6/VacAcUU3vrxLS1ed9+P2V8WPQZudXqRhxmZ6OHixmcqYbd391duXmckdk/ZH&#xA;yGcTqNXkzG5H9TuceKMBsGra8ubZw8EhQ9x2PzGRwanJiNwNJnjjIUQzDTL9b21WYDi1eLr4MM7X&#xA;RasZ8Yl16+902bFwSpL9f1eS3Itrc8ZWFZH7qD0A981va3aMsf7uH1dT3ORpdOJeo8mNO7uxZ2LM&#xA;erE1OcvKRkbJsuzAA5JnpGtT20qxzOXtmNDy3417g5tez+054pCMjcPucbUaYSFjmytnVVLsaKoq&#xA;T4AZ18pACzydSBbD9T1i5vJGCsUt6/DGNqjxbxzi9b2jPNI0ah3frdxh08YDzQUcskTB43KMOhU0&#xA;P4ZgQySibiaLeYg82U6Fqr3kbRTGs8Yry/mXpXOt7K15zAxl9cftDqtVg4DY5FX1jUhY23JQDNIa&#xA;Rg9Pcn5Zf2jrfAhY+o8mvT4eOXkxGe5nncvNIXY9yf1ZxuXNPIbkbLuIwERQCtY6ndWcgaNyU/ai&#xA;J+EjL9LrsmE3E7d3RhlwxmN2ZW1xHcQJNH9hxUf0ztsGYZICY5F0s4GJosf13WZvWa1t3KIm0jrs&#xA;S3cV8BnO9q9pS4zjgaA5l2Gl0wrikknJuXKp5da980PEbvq59J7oWszGZbW5Yur7RudyD4E9650H&#xA;ZXaUjIY5m75F1+q0wriint3cx21vJO/2UFaeJ7D6Tm/1GYYoGZ5BwccDKQAYbe6jdXkhaVzx/ZjH&#xA;2R9GcTqtbkzG5Hbu6O5x4YwGylb3VxbuHhkKMPA7H5jvlWHPPGbgaZzgJCiGRf4iX9GevxH1qvp8&#xA;O3KleXyzpP5YH5fjr95yrz7/AHOu/KfvK/hY0wZWKtswNCD45y8gQaPN2QLWRSi9IDHU7YL15g/Q&#xA;Nz+GZvZ4JzwrvadR9BT3zQrmwQj7IkHL7jnQdug+CO7i/QXA0J9Z9zF85J2rsVZJ5VDehO37JYAf&#xA;MDf9edR2ADwSPS3W647hKteDDVZ+XfiR8uIzUdrAjUSvy+4OVpf7sIDNc5DsVZneJL+h5E/3YIaN&#xA;9C753GpjL8sR/Fwfo3dLjI8Qd1sMzh3dOxVNfLQY6lUdAjcvltm47EB8f4FxNb9HxRPmsN6tu37P&#xA;FgPnUVzJ7fB4oHpRa9ByKQ5zznuxVl3l5XGlx8uhLFflXOz7HBGnF+f3un1Z/eFi12GW6mDfaDtW&#xA;vjXOS1AIySB52Xa4/pHuUspZq1irtewBPteotPvGZGlBOWNc+Ifewyn0m+5k3mRXOmMV6B1LfLp+&#xA;vOp7aBOnNd4dXoz+8YnnHO3dirfFuPKnw1pXtXJUavoi2Q6xoEksrXFoAWfeSLpv4iudJ2l2TKcj&#xA;PH15h1+n1QA4ZJQNI1MtxFs9fcUH3nbNMOz85NcBcv8AMQ70/wBF0U2Z9eehnIoqjcKD138c6Hsz&#xA;szwfXP6/ucDU6nj2HJMrm3juIHhkFUcUP9c2mbDHJAwlyLiwmYmwxW70DUIHIRDNH+y6bn6R1zkd&#xA;R2TmxnYcQ8nbY9VCQ32K220LUZ3AaMxJ3d9qfR1ORwdlZ5miOEd5TPVQiOdsqs7SK0t1gi+yvUnq&#xA;SepOddptPHDAQj0dTkyGZsoLWdHF8okjIWdBQV6MPA5g9pdneOOKO0x9rfptRwbHkx19I1NWKm3c&#xA;kdwKj7xnNS7Ozg1wF2I1ED1TPSfL8olWe8AVUNVirUkjpWnbNr2f2RISE8u1dP1uLqNWKqLIiK7H&#xA;pnSuuYzqXl24SRpLRfUiY19MfaX236jOV1vY84yMsYuPd1DtMOrBFS5oGPR9TkYKLdl92HEfecwI&#xA;dm55GuE/HZvOogOrJdI0tbCE1IaZ6eow6bdhnU9n6AaeO+8jzdZqM/iHyVtRsIr23MT7Hqj+By7W&#xA;aSOeHCfgWGHKYSsMWn0TUoXK+iZB2ZPiBzksvZeeBrhv3bu1jqYEc1ax8v3k8gM6mGEfaJ+0fkMv&#xA;0vY+WZ9Y4Y/a15dXGI23LKoo0ijWNBxRAAo9hnXQgIRERyDqpEk2Um1rQnuJDc21PVP24ztyp3B8&#xA;c0fafZRyS48f1dR3ubptUIjhlySX9E6ly4/Vnr8tvv6Zo/5Pz3XAXN/MQ7wnei6G1s4uLmnrAfAg&#xA;3417k+Ob7szss4jxz+roO5wdTquIcMeSbzRRzRPFIKo4IYexzc5MYnExPIuHGRBsMWvfL97A59FT&#xA;NF+yy/a+kZyOq7Iy4z6RxRdti1cZDfYqVvoepTOF9Exju7/CB/HKsPZeeZrhr3sp6mAHO2QfoO2/&#xA;R31Ou9eXq035/wA2dH/JePwPC+N+fe6/8zLj4kXdXttax853CA9B1J+QGZmo1OPCLmaaceOUzQCX&#xA;r5m00vxIkA/mKin4Gua4duYCa9Xy/a5B0U/JM4J4Z4xJC4dD0YZtMWWOSPFE2HGlExNFfljFAXeu&#xA;afauY2cvIPtKgrT6dhmu1HamHEaJs+TkY9NOQtba6/p1w4QMY2PQSClfpBIyODtbBkNXwnzTPSzi&#xA;L5pjmzcZbLLHFGZJGCIvVjsMhkyRgLkaCYxJNBK38zaar8QJHH8wUU/Eg5qpdt4Aa9R+H7XKGin5&#xA;I60v7S7UtBIGp9pejD5g5n6fV48wuBtoyYpQ5hEZktaFvdTs7MD1nox3CDdj9GYmp1uLD9Z37urb&#xA;jwynyCEi8y6a78Tzj/ymUU/AnMPH23gkaNj3j9Vt0tHMeaaI6OodGDK24Ybg5tYyEhY3DikVzbJp&#xA;uemSQllx5i02FyoZpSOpjAI+8kZqs3bGCBqzL3OVDSTPkrWesWN23CN+Mh6I4oT8uxy/Tdo4cxqJ&#xA;37iwyaecNzyRuZzQpXN1b20fqTuEXtXqfkO+U5s8MUeKZoM4QMjQS7/E2nc+NJKfzcRT9dc1v8uY&#xA;Lr1fL9rkfkp+SZW9zBcxiSBw6HuO3zGbPDnhljxQNhxpwMTRVMtYoK81mwtGKSOWkHVEFSPn2zA1&#xA;PaWHCakbl3Bvx6ac9xyUrfzDpszhOTRE9PUFB94JGVYe2MEzVmPvZT0k4+aZVFK9vHNpbjMH1C8e&#xA;7unmY7E0QeCjoM4LWak5shkfh7ne4sYhGkPmK2JloF48F+kdT6Ux4svv2ObXsjUnHmEf4ZbfqcXV&#xA;4xKF9Qn2u3j2tgTGaSSEIp7itST9wzoO1dScWG48zs4GlxiU9+jD84p3LsVZX5dvHuLIpIavCeNT&#xA;1KnpnYdjak5MVHnHb4dHU6zGIysdUr8yXjy3htwf3UNNvFiKk/jmp7a1Jll4P4Y/e5WjxgR4upSj&#xA;NK5iraXUtrcJNGaMp3HYjuDl+nzyxTEo9GGSAkKLNZrlI7R7kbqqFwPHaozucucRxnJ0q3SRhcuF&#xA;hE00k0rSyNydzVic4PJklORlI2S7yMREUFmVsk98sXjiZ7RjVGBdB4EdfvzoOwtSeI4zy5hwNbjF&#xA;cSJ8zXjxwR26GnrVLn/JHb6cyu3NSYwEB/Fz9zXosYJMj0YznKuzcCVIINCNwR44QSDYVmulXbXV&#xA;hFK326cX+amlfpzutBqDlwiR59XSZ8fBMhi+r3j3V9ISfgQlI17AA0/HOT7R1Jy5STyGwdpp8YjA&#xA;ILMBvR2i3j219HQ/u5SEkXsQTQH6M2HZmpOLMO6WxaNTjEoHvDJtXu2tbCSRNpDRUPgW7/RnU9o6&#xA;g4sJkOfIOr0+PjmAWFkkkkmpO5Jzhyb3Lu3YFR/6XuP0Z9SqetOff0/5fvzY/wAoz8Dwvt8u78dH&#xA;H/Ljj4vxaFu7Z7a5kgcboafMdj9OYmownFMwPRtxzEoghSylmj9Dtnm1KIqPhiPNz4AdPxzY9lYT&#xA;PPGuUd3H1UxGB80+8xWzzaeWQVaJg5HtQg/rzoO2cBnhsfwm3A0cxGe/ViWcc7d2Kso8s2zx2bys&#xA;Kes1VH+Su1c63sPCY4jI/wAR+51WtmDKu5K/MVs8WotIR8EwDKfcAAjNR2zhMM5l0k5ejmDCu5K8&#xA;1LlL4YZJpUijFXc0UfPLMeMzkIjmUSkALLNbi156e9qvePgvzAoM7rNp+LCcY/m06OGSp8XmwhlZ&#xA;WKsKMpoQexGcHKJBo83eA21kUp15Ytna7eenwRqVr4s3b7s3vYWEnIZ9APtLha2YEaRHmm2dkhuF&#xA;FVSqP7V6Zk9vYCRGY5DYtWhmLMWO5zLsnYqzLRbZ7fTokcUdquw8ORr+rO47MwHHgiDz5/N0upmJ&#xA;TJDFtStnt76aNh+0WU+Kk1BzktbhOPLKJ7/sdrhmJQBQ2Yjai9KtnuL+FFFQrB3PgqmpzN0GA5M0&#xA;QO+z7g0558MCWTa7bPcadIqCroQ4HjTr+GdT2rgOTAQOY3dZpZ8MxbDs4l3LsVRP1Cf6h9cp+658&#xA;fo8flXbMr8pPwfF/huv2/oavFHHw9WWahpdrfKPVBV1+zIvUe2dhq9Bjzj1c+91OLPKHJLB5UTl8&#xA;VySvgEofvqc1Y7AF7z2937XK/PnuTezsbezi9OBaA7sx3JPuc3Om0sMMeGAcPJllM2VfMhrSe78t&#xA;Wkzl4XMBPVQOS/QNs0uo7ExzNxPD9oczHrZAUd2rXyxaxuGmkM1Oi04j6dzkcHYeOJuZ4vsTPWyI&#xA;2FJyAAAAKAbADN2BWwcJRurSC6iMUy8lO48QfEHKs+nhljwzFhnDIYGwk7+VIy3wXJC+BQE/eCM0&#xA;kuwBe09vd+1zRrz1CYafo9pZfEgLynYyN1+jwzZaPs7Hg3G8u8uNl1Ep8+SOzPaEv1DRLS8b1DWK&#xA;bu69/mM1us7Lx5jxfTLvH6XIxamUNuYQUXlSINWW4Z18FUKfvJbMGHYEQfVOx7q/W3y156BOYLeG&#xA;CJYoVCIvQDN5ixRxx4YigHClMyNle6JIhR1DIwoyncEZKUBIUdwUAkGwktx5Wt3ctDM0Sn9kjmB8&#xA;txmjzdgwJuMuH7f1ObDXEDcWrWPl60tnEkjGaRd15Cig+NN8v0vY+PEeI+o/Z8mGXVykKGya5t3E&#xA;Qt/ptteoFmB5L9l12YZiavRY84qXz6tuLNKB2Sv/AAonKv1k8fDhv99f4ZqP5AF/Xt7v2uX+fPcm&#xA;tjp1tZRlIV3P2nO7H55uNLo8eCNRHx6uJlzSmd0TmU1JTe+XLS4cyRsYHbrQVX7ts0+q7Gx5DcTw&#xA;n7Pk5ePWSiKO6lb+VrZHDTStKB+yBwB+e5yrD2FCJucjL7Gc9dIjYUnPpRel6XAelTjwptTwpm68&#xA;OPDw16e5wuI3fVKtW15bRzBAoecfaJ+yv3dTmp7Q7WGE8EBcvsDl6fS8Ys8kpXzHqgapZSP5Sop+&#xA;G+acdtai7sfJyzo8ae6Vq8V8pUjhOoqydiPEZv8As/tGOoFcpjo4GfTnH7kdLLHFG0kh4ogqxPgM&#xA;z5zEImR2AaIxJNBjd35nuXci2URxjozCrH+GcxqO3MhP7scI+12ePRRA9W6218zXiOPrCrLH3oOL&#xA;D5U2yODtzLE+sCQ+RWeiiRtsyWCeKeFZojyRxUHOoxZY5IiUeRdbKJiaK/LGLsVdirsVdirsVdir&#xA;sVdirsVdirsVdirsVdirsVdirsVYDJI0kjSMas5LMfcmuedzmZSMjzL0AFCluQSjNHkZNTtyppVw&#xA;p+TbHM7s6ZjnhXf97TqBcCnvmeR109VXo8gDfIAmn3jOg7cmRhAHWTgaIXP4MWzkXauxVknlWRjb&#xA;zxn7KsCP9kN/1Z1PYMyYSHQF1muHqBTzN84LsVdirsVdirsVdirsVdirsVdirsVdirsVdirsVdir&#xA;sVYhrOlyWlwzqpNu5qjDoK/snOL7S0MsMyQPQeX6ncabOJiuqXZrHJTvy9pcrTreSqViTeOv7R6V&#xA;+Qzfdj6GRmMsh6Ry83B1ecAcI5p3qll9cs3hBo/2oyenIZvddpfHxGPXp73BwZeCVsMmhlhkaOVS&#xA;jr1U5xGTFKEuGQoh3UZCQsNRxvI4SNSztsFG5OCEDI0BZSSALLMNHsDZWYR/71zzk9ie30Z2vZuk&#xA;8DFR+o7l02oy8cr6I7M9odirsVdirsVdirsVdirsVdirsVdirsVdirsVdirsVdirmCkEMAQeoPTA&#xA;QCN1CES20n1fgjg9TwAWtflmHHDp+LYQ4vg3GeStyaReZrS7FVK4itHX/SFRlHeQCg+/Kc0Mch6w&#xA;K82cJSH021bRWSAm2WMDuYwP1jBgx4gP3Yj8KWcpH6rVsvYOxV2KuxV2KuxV2KuxV2KuxV2KuxV2&#xA;KuxV2KuxV2KuxV2KsT1rV5bmd4Y2K26HjQftU6k5x/afaEsszGJ9A+122m04iLPNK81Dlp95f1aU&#xA;zCznYurD90x6gjelc6LsjtCRl4Uzd8v1Ov1enFcQTnUb1bO0ecipGyL4sembvWakYcZn8ve4eHHx&#xA;yphtzdT3Mhkmcux8eg9gO2cRmzzyy4pGy7mEBEUFsE80Egkhco46EZHFlljlxRNFMoiQosx0m/F7&#xA;aCUikinjIB4jv9Odt2fq/Hx8XXkXTZ8XBKuiMzNaXYq7FXYq7FXYq7FXYq7FXYq7FXYq7FXYq7FX&#xA;Yq7FXYqwB0ZHZGFGUkMPcZ51KJiSDzD0ANi2silF6QjNqduFFSHBPyG5zN7OiTnhXe06g1Ap75oR&#xA;2sEYfZSQFvpBFc6Dt2JOEEdJfrcDRH1/Bi+ck7V2Ksk8qowt53P2S4A+YG/686jsCJ4JHpbrNcdw&#xA;nmb9wXYq7FXYq7FXYq7FXYq7FXYq7FXYq7FXYq7FXYq7FXYqkur6AbiQ3FsQJG+3GdgT4g+OaLtH&#xA;sk5JceP6uoc7T6rhFS5JQNB1Utx9Aj3LLT9eaYdlagmuH7Q5f5rH3p9o+jLY1lkIe4YUqOijwGdD&#xA;2d2aMHqlvM/Y4Go1PHsOSYTwxzxPFIOSOKMM2OXFHJExlyLjxkYmwxi78uX0Tn0AJo+xBAYfMHOV&#xA;1HYuWB9Hqj9rtMesiRvsVtt5c1CVwJVEKd2Ygn6AMjg7GzTPqHCEz1kANt2T2ttFbQLDEKIg28T7&#xA;nOrwYI4oCEeQdXOZkbKrlrB2KuxV2KuxV2KuxV2KuxV2KuxV2KuxV2KuxV2KuxV2Koa91G1s0DTt&#xA;Qn7KDdj8hmLqtZjwC5n4dW3HhlM7Jcvmm0LUMMgXx2J+6uawdvY73jKnJOhl3hNba6guohLA4dT1&#xA;8QfAjNvg1EMseKBsOJPGYmiq5cwSy78w2Nu5jWszjY8KUH0nNVqO2MOM0PUfJyseknIXyW2vmOwm&#xA;cI/KEnoWpx+8ZHB21hmaNx9/JM9HOO43TXNu4incXENvEZZnCIOpOV5c0cceKRoMoQMjQSl/NNmG&#xA;osTsv82w/CuaeXb2IHaMiHLGhl3hH2OqWl6D6LUcdY22YZsNLrsef6Tv3dWjLglDmi8zGlBX+r2d&#xA;keMhLSdfTTc/T4Zg6vtHFg2lvLuDfi08p8uSDi80WbNSSN0H82x++mYMO3cRNEEN0tDLoU3iljlj&#xA;WSNg6NuGHTNzjyRmOKJsFw5RINFdk0OxV2KuxV2KuxV2KuxV2KuxV2KsGvbp7q6kmc/aPwjwXsM4&#xA;DVZzlyGZ6u9xQEIgBQzHbEx0G6eDUI1B+CY8HX59D9BzZ9k5zjzAdJbFxtVjEoHyT3zBdvb6eeBo&#xA;8rCMEdQCCT+rOg7X1Bx4ducjTgaTGJT36MRzjHcOxVlXlu7eayaJzUwHip/yT0zruxdQZ4jE/wAP&#xA;3Oq1mMCVjqlXmO6eW/MNf3cIAA9yKk5qe2dQZ5uHpFytHjAhfUpVmnctUt55LedJozR0NR/TLcOW&#xA;WOYlHmGM4CQos1nuhHYvcjcCPmo+iozusucRxHIP5tukjC5cPmwiSR5JGkclnY1YnuTnBzmZEk7k&#xA;u8AAFBbkEp35XunW4e2JrG6llHgw/qM33YWoImcfQi/i4OtxiuJkudS6x2KuxV2KuxV2KuxV2Kux&#xA;V2KuxVg17ava3UkLj7J+E+K9jnAarAcWQwPR3uKYnEEKGY7YmOg2rz6hGwHwQnm7fLoPpObPsnAc&#xA;mYHpHcuNqsgjA+ae+YLR7jTzwFXiYSADqQAQf150Ha+nOTDtzibcDSZBGe/ViOcY7h2Ksq8t2jw2&#xA;TSuKGc8lH+SOmdd2LpzDEZH+L7nVazIDKh0SrzHavFfman7uYAg+4FCM1PbOnMM3F0k5WjyAwrqE&#xA;qzTuWqW8ElxOkMYq7mg/rluHFLJMRjzLGcxEWWaz2oksXthsDHwU/RQZ3WXAJYjjH82nSRnUuLzY&#xA;RJG8cjRuCrqaMD2Izg5wMSQdiHeAgiwtyCU78r2rtcPckUjRSqnxY/0Gb7sLTkzOToBXxcHW5BXC&#xA;yXOpdY7FXYq7FXYq7FXYq7FXYq7FXYqhr3TrW8QLOtSPsuNmHyOYuq0ePOKmPj1bceaUDsly+VrQ&#xA;NUzSFfDYH76ZrB2DjveUqck66XcE1trWC1iEUCBFHXxJ8Sc2+DTwxR4YCg4k8hkbKrlzBLLvy9Y3&#xA;DmRawudzwpQ/Qc1Wo7Hw5DY9J8nKx6ucRXNba+XLCFw78piOganH7hkcHYuGBs3L38kz1k5bDZNc&#xA;27iKdxbw3ERimQOh6g5XlwxyR4ZCwyhMxNhKX8rWZaqyuq/y7H8aZp5dg4idpSAcsa6XcEfY6XaW&#xA;QPorVz1kbdjmw0uhx4PpG/f1aMueU+aLzMaUFf6RZ3p5SArJ09RNj9PjmDq+zsWfeW0u8N+LUShy&#xA;5IOLyvZK1ZJHcfy7AfTTMGHYWIHckt0tdLoE3iijijWONQiLsFHTNzjxxgOGIoBw5SJNldk0OxV2&#xA;KuxV2KuxV2KuxV2KuxV2KpLq+vm3kNvbAGRftyHcA+AHjmi7R7WOOXBj+rqXO0+l4hcuSUDXtVDc&#xA;vXJ9iq0/VmmHauoBvi+wOX+Vx9yfaPrK31Y5AEuFFaDow8RnQ9ndpDP6ZbTH2uBqNNwbjkmE80cE&#xA;TyyHiiCrHNjlyxxxMpcg48YmRoMYu/Md9K59AiGPsAAWPzJzldR21lmfR6Y/a7THo4gb7lbbeYtQ&#xA;icGVhMndWAB+ggZHB2zmgfUeIJno4EbbMntbmK5gWaI1Rxt4j2OdXgzxywE48i6ucDE0VXLWDsVd&#xA;irsVdirsVdirsVdirsVdirsVdirsVdirsVdirsVYA7s7s7GrMSWPuc86lIyJJ5l6AChTWRSi9Idl&#xA;1O3KmhLgH5HY5m9nSIzwrvadQLgU980O62CKPsvIA30AmmdB27IjCAOsv1uBoh6/gxfOSdq7FWSe&#xA;VXY286H7IcEfMjf9WdR2BI8Eh0t1muG4TzN+4LsVdirsVdirsVdirsVdirsVdirsVdirsVdirsVd&#xA;irsVYnrWkS207zRqWt3PKo/Zr1Bzj+0+z5YpmUR6D9jttNqBIUeaV5qHLT7y/pMomF5OpRVH7pT1&#xA;JO1aZ0XZHZ8hLxZiq5frdfq9QK4QnOo2S3lo8BNCd0bwYdM3es0wzYzD5e9w8OTglbDbm1ntpDHM&#xA;hRh49D7g984jNgnilwyFF3MJiQsLYIJp5BHChdz0AyOLFLJLhiLKZSERZZjpNgLK0ERNZGPKQjxP&#xA;b6M7bs/SeBj4evMumz5eOV9EZma0uxV2KuxV2KuxV2KuxV2KuxV2KuxV2KuxV2KuxV2KuxVzFQCW&#xA;IAHUnpgJAG6hCJc6T6vwSQep4grWvzzDjm0/FsYcXwbjDJW4NIvM1pdiqlcS2iL/AKQyKp7SEUP3&#xA;5TmnjiPWRXmzhGR+m2raWycEWzRkdxGR+oYMGTER+7MfhSzjIfVatl7B2KuxV2KuxV2KuxV2KuxV&#xA;2KuxV2KuxV2KuxV2KuxV2KuxViGs6pJd3DIrEW6GiKOhp+0c4vtLXSzTIB9A5frdxpsAgL6pdmsc&#xA;lO/L2qSrOtnKxaJ9o6/snrT5HN92PrpCYxSPpPLycHV4ARxDmneqXv1OzeYCr/ZjB6cjm912q8DE&#xA;ZdenvcHBi45UwyaaWaRpJWLu3VjnEZMspy4pGyXdRiIig1HI8bh42Kuu4YbEYITMTYNFJAIosw0e&#xA;/N7Zh3/vUPCT3I7/AE52vZur8fFZ+obF02oxcEq6I7M9odirsVdirsVdirsVdirsVdirsVdirsVd&#xA;irsVdirsVdirAZI2jkaNhRkJVh7g0zzucDGRieYegBsWtyCUZo8bPqduFFaOGPyXc5ndnQMs8K7/&#xA;ALmnUGoFPfM8btp6svRJAW+RBFfvOdB25AnCCOknA0RqfwYtnIu1dirJPKsbC3nkP2WYAf7Eb/rz&#xA;qewYEQkehLrNcfUAnmb5wXYq7FXYq7FXYq7FXYq7FXYq7FXYq7FXYq7FXYq7FXYqlGraCt25ngYJ&#xA;OftA/Zb7uhzTdodkjMeOBqX2FzNPquAUeSUr5c1QtQqoH8xYU/DfNOOxdRdUPm5Z1mNPdK0iKxUs&#xA;TznYUZ+wHgM3/Z/Z0dOL5zPVwM+oOT3I6WKOWNo5ByRxRgfA5nzgJxMTuC0RkQbDG7vyxco5Nswk&#xA;jPRWNGH8M5jUdh5Af3Z4h9rs8etiR6tltr5ZvHcfWGWKPvQ8mPyptkcHYeWR9ZER8ys9bEDbdksE&#xA;EUEKwxDiiCgGdRixRxxEY8g62UjI2V+WMXYq7FXYq7FXYq7FXYq7FXYq7FXYq7FXYq7FXYq7FXYq&#xA;hNQ1S1sVHqks7fZjXqffMLV6/HgHq59zdiwSnySwea05fFbEL4h6n7qDNWO3xe8Nvf8Ascr8ge9N&#xA;7O+t7yL1IGqBsynYg+4zc6bVQzR4oFw8mKUDRV8yGtJ7vzLaQuUhQzkdWB4r9B3zS6jtvHA1EcX2&#xA;BzMeikRZ2atfM9rI4WaMw16NXkPp2GRwduY5Gpjh+1M9FIDY2nIIIBBqDuCM3YN7hwlG6u4LWIyz&#xA;NxUbDxJ8AMqz6iGKPFM0GcMZmaCTv5rjDfBbEr4lwD9wBzSS7fF7Q29/7HNGgPUphp+sWl78KEpK&#xA;NzG3X6PHNlo+0cefYbS7i42XTyhz5I7M9oS/UNbtLNvTNZZu6L2+ZzW6ztTHhPD9Uu4fpcjFppT3&#xA;5BBRea4i1JbdkXxVgx+4hcwYdvxJ9UKHvv8AU3y0B6FOYLiGeJZYWDo3QjN5iyxyR4omwXClAxNF&#xA;e7pGhd2CooqzHYAZKUxEWdgEAEmgktx5pt0crDC0qj9ongD8tjmjzdvQBqMeL7P1ubDQkjc0rWPm&#xA;G0uXEcimGRtl5Gqk+Fdsv0vbGPKeE+k/Z82GXSSiLG6a5t3EQt/qVtZIGmJ5N9lF3Y5iavW48AuX&#xA;y6tuLDKZ2Sv/ABWnKn1Y8fHnv91P45qP5fF/Rt7/ANjl/kD3prY6jbXsZeFtx9pDsw+ebjS6zHnj&#xA;cT8OriZcMoHdE5lNSU3vmO0t3Mcamd160NF+/fNPqu2ceM1EcR+z5uXj0cpCzspW/mm2dws0TRA/&#xA;tA8wPnsMqw9uwkanEx+1nPQyA2Npz6sXperzHpU5c67U8a5uvEjw8V+nvcLhN11YNd3L3NzJO53c&#xA;1+Q7D6M4HUZjlmZnq73HARiAFLKWaP0O5eHUogp+GU8HHiD0/HNj2VmMM8a5S2cfVQEoHyT7zFcv&#xA;Dp5VDRpWCE+1CT+rOg7ZzmGGh/EacDRwEp79GJZxzt3YqyjyzcvJZvExr6LUU/5Lb0zrew8xliMT&#xA;/CfvdVrYASvvSvzFcvLqLRk/BCAqj3IBJzUds5jPOY9IuXo4AQvvSvNS5S+GaSGVJYzR0NVPyyzH&#xA;kMJCQ5hEogiizW4uuGnvdL2j5r8yKjO6zajhwnIP5tujhjufD5sIZmZizGrMaknuTnBykSbPN3gF&#xA;NZFKdeWLl1u3gr8EilqeDL3+7N72FmIyGHQj7Q4WtgDG0R5puXVIbdTRXq7+9OmZPb2cgRgOR3LV&#xA;oYCzJjucy7J2Ksy0W5e406J3NXWqMfHiafqzuOzM5yYIk8+XydLqYCMyAxbUrl7i+mkY/tFVHgoN&#xA;AM5LW5jkyyke/wCx2uGAjABDZiNqL0q5e3v4XU0BYK48VY0OZugznHmiR30fcWnPDigQybXbl7fT&#xA;pGQ0dyEB8K9fwzqe1c5x4CRzOzrNLDimLYdnEu5diqJ+vz/UPqdf3XPl9Hh8q75lfm5+D4X8N3+z&#xA;9LV4Q4+Lq1qFm9pdPCw2Bqh8VPQ46zTHDkMT8PcnFkE42h8xWxMtAs3nv0kofShPJm9+wza9kaY5&#xA;Mwl/DHf9Ti6vIIwrqU+12ze6sCIxWSMh1Hc0qCPuOdB2rpjlw1HmN3A0uQRnv1YfnFO5dirK/Ltm&#xA;9vZF5BR5jyoeoUdM7DsbTHHis85b/Do6nWZBKVDolfmSzeK8NwB+6mpv4MBQj8M1PbWmMcvH/DL7&#xA;3K0eQGPD1CUZpXMVbS1lurhIYxVmO57Adycv0+CWWYjHqwyTERZZrNbJJaPbDZWQoD4bUGdzlwCW&#xA;M4+lU6SM6lxMImhkhlaKReLoaMDnB5McoSMZCiHeRkJCwsytknvlizczPdsKIoKIfEnr92dB2Fpj&#xA;xHIeXIOBrcgrhRPmazeSCO4QV9Gocf5J7/RmV25pjKAmP4efua9FkAJierGc5V2bgCxAAqTsAPHC&#xA;ASaCs10q0a1sIom+3Tk/zY1p9Gd1oNOcWERPPq6TPk45ksX1eze1vpAR8DkvG3Ygmv4ZyfaOmOLK&#xA;QeR3DtNPkEoBBZgN6O0Wze5vo6D93EQ8jdgAagfTmw7M0xy5h3R3LRqcgjA95ZNq9o11YSRpvIKM&#xA;g8Svb6c6ntHTnLhMRz5h1enycEwSwsggkEUI2IOcORWxd27AqP8A0Rcfoz67Q9a8O/p/zffmx/k6&#xA;fgeL9nl3/jo4/wCYHHw/i2V3VlbXUfCdA4HQ9CPkc6/PpseUVMW6nHklA2Cl6+WdND8iZCP5Swp+&#xA;ArmuHYeAG/V8/wBjkHWz8kzgghgjEcKBEHRRm0xYo448MRQcaUjI2V+WMUBd6Hp905kZCkh+0yGl&#xA;fo3Ga7Udl4cpsij5ORj1M4iltroGnW7hwpkYdDIa0+gADI4OycGM3XEfNM9VOQrkmObNxlssUcsZ&#xA;jkUOjdVO4yGTHGYqQsJjIg2ErfyzprPyBkQfyhhT8QTmql2JgJv1D4/scoa2fkjrSwtLRSsEYWv2&#xA;m6sfmTmfp9JjwioCmjJllPmURmS1oW90yzvAPWSrDYONmH05ianRYs31jfv6tuPNKHIoSLy1pqPy&#xA;POT/ACWYU/ADMPH2JgibNn3n9VN0tZM+SaIiIoRFCquwUbAZtYxERQ2Dik3zbIrsemSQllx5d02Z&#xA;ywVoieojIA+4g5qs3Y+CZujH3OVDVzHmrWej2No3ONOUg6O5qR8uwy/TdnYcJuI37ywyaic9jyRu&#xA;ZzQpXNrb3MfpzoHXtXqPke2U5sEMseGYsM4TMTYS7/DOnc+VZKfy8hT9Vc1v8h4Lv1fP9jkfnZ+S&#xA;ZW9tBbRiOBAiDsO/zObPDghijwwFBxpzMjZVMtYoK80awu2LyIVkPV0NCfn2zA1PZuHMbkKl3hvx&#xA;6mcNhyUrfy9psLh+LSkdPUNR9wAGVYex8EDdGXvZT1c5eSZUFKdvDNpTjJDrGvyRStb2hAZNpJeu&#xA;/gK5z3aXa0oSMMfTmXYafSgjiklA1fUw3IXL19zUfcds0w7Qzg3xly/y8O5P9F1o3h9CegnAqrDY&#xA;MB128c6HsztPxvRP6/vcDU6bg3HJMrm4jt4HmkNEQVP9M2mbNHHAzlyDiwgZGgxW71/UJ3JRzDH+&#xA;yibH6T1zkdR2tmyHY8I8nbY9LCI33K2213UYHBaQyp3R96/T1GRwdq54GyeIdxTPSwkOVMqs7uK7&#xA;t1ni+y3UHqCOoOddptRHNATj1dTkxmBooLWdYFiojjAadxUV6KPE5g9pdo+AOGO8z9jfptPx7nkx&#xA;19X1NmLG4cE9gaD7hnNS7Rzk3xl2I08B0TPSfMEplWC7PJXNFl6EE9K0za9n9ryMhDLvfX9bi6jS&#xA;CriyImm56Z0rrmM6l5iuHkaO0b04lNPUH2m99+gzldb2xOUjHGaj39S7TDpABcuaBj1jU42DC4Zv&#xA;ZjyH3HMCHaWeJviPx3bzp4HoyXSNUW/hNQFmSnqKOm/cZ1PZ+vGojvtIc3WajB4Z8lbUb+KytzK+&#xA;56Inicu1mrjghxH4BhhxGcqDFp9b1KZy3rGMdlT4QM5LL2pnmb4q92ztY6aAHJWsfMF5BIBOxmhP&#xA;2gftD5HL9L2xlgfWeKP2teXSRkNtiyqKRJY1kQ8kcAqfY510JicRIci6qQINFJta117eQ21tT1R9&#xA;uQ78a9gPHNH2n2qccuDH9XU9zm6bSiQ4pckl/S2pcuX1l6/Pb7umaP8AlDPd8Zc38vDuCd6LrjXL&#xA;i3uaesR8DjblTsR45vuzO1DlPBP6uh73B1Ol4RxR5JvNLHDE8shoiAlj7DNzkyCETI8g4cYkmgxa&#xA;98wXs7n0WMMX7Kr9r6TnI6rtfLkPpPDF22LSRiN9ypW+ualC4b1jIO6P8QP8cqw9qZ4G+K/eynpo&#xA;EcqZB+nLb9HfXKb14+lXfn/LnR/ypj8DxfhXn3Ov/LS4+FiLFmYs27E1JPjnGyJJs83bgNZFKL0g&#xA;sNTtivXmB9B2P4Zm9nkjPCu9p1H0FPfNDOLBAPsmQcvuOdB26T4I7uL9BcDQj1n3MXzknauxVknl&#xA;Ut6E6/shgR8yN/1Z1HYBPBIdLdbrhuEq14sdVn5duIHy4jNR2sSdRK/L7g5Wl/uwgM1zkOxVmd48&#xA;v6Hkf/dhhq30rvncamUvyxP8XB+h0uMDxB3WwzOHd07FU18tFhqVB0KNy+W2bjsQnx/gXE1v0fFE&#xA;+ay3q26/s8WI+dRXMnt8nigOlFr0HIpDnPOe7FWXeXmc6XHy6AsF+Vc7Psck6cX5/e6fVj94WLXZ&#xA;ZrqYt9ou1a+Nc5LUEnJInnZdrj+ke5SylmrWLOt7AU+16i0+8ZkaUkZY1z4h97DKPSb7mTeZGcaY&#xA;wXoXUN8uv686ntokac13h1ejH7xiecc7d2Kt8m48a/DWtO1clZquiKTjWtFnjne4t0LwueTKu5Un&#xA;rt4Zuu0+zJxmZwFxP2OHptSCKPNJwrM3FQSx2AHXNKIkmhzcwlkOgaPLFILu4XgwH7qM9d9qnOk7&#xA;J7NlCXiTFdwdfqtQCOGKb31ml3avA+3L7LeDDoc3Or0wzYzA9XDxZDCVsNu7C6tHKTIQOz/sn5HO&#xA;J1GkyYTUh+p3OPLGY2LVtZ3Ny4SCMue57D5nI4NNkymoC0zyRiLJZhplgtlarCDyavJ28WOdrotI&#xA;MGMR69fe6bNl45Wl+v6RJcEXNuOUqikid2A6Ee+a3tbs6WT95D6uo73I0uoEfSeTGnR0Yq6lWHVS&#xA;KHOXlExNEUXZgg8kz0nRZ7mVZJkKW6mp5Chb2Aza9n9mTyyEpCofe4uo1IiKHNlbIrKUYVVhQjxB&#xA;zr5RBFHk6oGmH6no9zZyMVUvb1+GQb0Hg3hnF63s6eGRoXDv/W7jDqIzHmgo4pJWCRoXY9Aoqfwz&#xA;AhjlI1EWW8yA5sp0LSns42lmFJ5BTj/KvWmdb2VoDhBlL65fYHVarPxmhyCvrGmi+tuKkCaM1jJ6&#xA;e4Pzy/tHRePCh9Q5NenzcEvJiM9tPA5SaMow7EfqzjcuGeM1IUXcRmJCwVax0y6vJAsaEJ+1KR8I&#xA;GX6XQ5MxqI27+jDLmjAbsytreO3gSGP7CCg/rnbYMIxwEByDpZzMjZSDXdGm9drq3Quj7yIu5Ddz&#xA;TwOc72r2bLjOSAsHmHYaXUiuGSR8W5caHl0p3zQ8Juurn2nuhaNMJlurlSipvGh2JPiR2pnQdldm&#xA;yEhkmKrkHX6rUiuGKe3dtHc28kD/AGXFK+B7H6Dm/wBRhGWBgeRcHHMxkCGG3unXVnIVlQ8f2ZB9&#xA;k/TnE6rRZMJqQ27+juceaMxspW9rcXDhIYy7HwGw+Z7ZVhwTyGoC2c5iIslkX+HV/Rnoch9ar6nP&#xA;typTj8s6T+Rx+X4L/ec78+73Ou/N/vL/AIX/2Q==</xmpGImg:image>
               </rdf:li>
            </rdf:Alt>
         </xmp:Thumbnails>
         <xmpTPg:MaxPageSize rdf:parseType="Resource">
            <stDim:w>1000.000000</stDim:w>
            <stDim:h>1000.000000</stDim:h>
            <stDim:unit>Pixels</stDim:unit>
         </xmpTPg:MaxPageSize>
         <xmpTPg:NPages>1</xmpTPg:NPages>
         <xmpTPg:HasVisibleTransparency>False</xmpTPg:HasVisibleTransparency>
         <xmpTPg:HasVisibleOverprint>False</xmpTPg:HasVisibleOverprint>
         <xmpTPg:PlateNames>
            <rdf:Seq>
               <rdf:li>Cyan</rdf:li>
               <rdf:li>Magenta</rdf:li>
               <rdf:li>Yellow</rdf:li>
            </rdf:Seq>
         </xmpTPg:PlateNames>
         <xmpTPg:SwatchGroups>
            <rdf:Seq>
               <rdf:li rdf:parseType="Resource">
                  <xmpG:groupName>預設色票群組</xmpG:groupName>
                  <xmpG:groupType>0</xmpG:groupType>
                  <xmpG:Colorants>
                     <rdf:Seq>
                        <rdf:li rdf:parseType="Resource">
                           <xmpG:swatchName>R=255 G=204 B=84</xmpG:swatchName>
                           <xmpG:type>PROCESS</xmpG:type>
                           <xmpG:tint>100.000000</xmpG:tint>
                           <xmpG:mode>RGB</xmpG:mode>
                           <xmpG:red>255</xmpG:red>
                           <xmpG:green>205</xmpG:green>
                           <xmpG:blue>71</xmpG:blue>
                        </rdf:li>
                     </rdf:Seq>
                  </xmpG:Colorants>
               </rdf:li>
            </rdf:Seq>
         </xmpTPg:SwatchGroups>
         <dc:format>image/svg+xml</dc:format>
         <xmpMM:DerivedFrom rdf:parseType="Resource">
            <stRef:instanceID>xmp.iid:35b56096-24d2-4681-be6e-69301d21bbea</stRef:instanceID>
            <stRef:documentID>xmp.did:35b56096-24d2-4681-be6e-69301d21bbea</stRef:documentID>
            <stRef:originalDocumentID>xmp.did:f59a532d-5494-41df-998c-357af674267c</stRef:originalDocumentID>
         </xmpMM:DerivedFrom>
         <xmpMM:DocumentID>xmp.did:227af452-a416-4bbb-bf79-7311c02e492b</xmpMM:DocumentID>
         <xmpMM:InstanceID>xmp.iid:227af452-a416-4bbb-bf79-7311c02e492b</xmpMM:InstanceID>
         <xmpMM:OriginalDocumentID>xmp.did:f59a532d-5494-41df-998c-357af674267c</xmpMM:OriginalDocumentID>
         <xmpMM:History>
            <rdf:Seq>
               <rdf:li rdf:parseType="Resource">
                  <stEvt:action>saved</stEvt:action>
                  <stEvt:instanceID>xmp.iid:f59a532d-5494-41df-998c-357af674267c</stEvt:instanceID>
                  <stEvt:when>2026-03-13T11:17:58+08:00</stEvt:when>
                  <stEvt:softwareAgent>Adobe Illustrator 30.2 (Macintosh)</stEvt:softwareAgent>
                  <stEvt:changed>/</stEvt:changed>
               </rdf:li>
               <rdf:li rdf:parseType="Resource">
                  <stEvt:action>saved</stEvt:action>
                  <stEvt:instanceID>xmp.iid:227af452-a416-4bbb-bf79-7311c02e492b</stEvt:instanceID>
                  <stEvt:when>2026-03-13T11:24:49+08:00</stEvt:when>
                  <stEvt:softwareAgent>Adobe Illustrator 30.2 (Macintosh)</stEvt:softwareAgent>
                  <stEvt:changed>/</stEvt:changed>
               </rdf:li>
            </rdf:Seq>
         </xmpMM:History>
      </rdf:Description>
   </rdf:RDF>
</x:xmpmeta>
                                                                                                    
                                                                                                    
                                                                                                    
                                                                                                    
                                                                                                    
                                                                                                    
                                                                                                    
                                                                                                    
                                                                                                    
                                                                                                    
                                                                                                    
                                                                                                    
                                                                                                    
                                                                                                    
                                                                                                    
                                                                                                    
                                                                                                    
                                                                                                    
                                                                                                    
                                                                                                    
                           
<?xpacket end="w"?>
  </metadata>
</svg>