<?xml version="1.0" encoding="UTF-8"?>
<svg id="_圖層_1" xmlns="http://www.w3.org/2000/svg" version="1.1" viewBox="0 0 1000 1000">
  <!-- Generator: Adobe Illustrator 30.2.1, SVG Export Plug-In . SVG Version: 2.1.1 Build 1)  -->
  <path d="M234.147,88.477c0,22.16-17.964,40.124-40.124,40.124s-40.123-17.964-40.123-40.124,17.962-40.123,40.123-40.123,40.124,17.964,40.124,40.123Z" fill="#ffcd48"/>
  <path d="M336.139,88.477c0,22.16-17.964,40.124-40.124,40.124s-40.123-17.964-40.123-40.124,17.964-40.123,40.123-40.123,40.124,17.964,40.124,40.123Z" fill="#ffcd48"/>
  <path d="M744.108,88.477c0,22.16-17.964,40.124-40.124,40.124s-40.122-17.964-40.122-40.124,17.964-40.123,40.122-40.123,40.124,17.964,40.124,40.123Z" fill="#ffcd48"/>
  <path d="M846.1,88.477c0,22.16-17.964,40.124-40.124,40.124s-40.123-17.964-40.123-40.124,17.964-40.123,40.123-40.123,40.124,17.964,40.124,40.123Z" fill="#ffcd48"/>
  <path d="M234.147,191.358c0,22.16-17.964,40.124-40.124,40.124s-40.123-17.964-40.123-40.124,17.962-40.123,40.123-40.123,40.124,17.962,40.124,40.123Z" fill="#ffcd48"/>
  <path d="M336.139,191.358c0,22.16-17.964,40.124-40.124,40.124s-40.123-17.964-40.123-40.124,17.964-40.123,40.123-40.123,40.124,17.962,40.124,40.123Z" fill="#ffcd48"/>
  <path d="M438.131,191.358c0,22.16-17.964,40.124-40.123,40.124s-40.124-17.964-40.124-40.124,17.964-40.123,40.124-40.123,40.123,17.962,40.123,40.123Z" fill="#ffcd48"/>
  <path d="M744.108,191.358c0,22.16-17.964,40.124-40.124,40.124s-40.122-17.964-40.122-40.124,17.964-40.123,40.122-40.123,40.124,17.962,40.124,40.123Z" fill="#ffcd48"/>
  <path d="M846.1,191.358c0,22.16-17.964,40.124-40.124,40.124s-40.123-17.964-40.123-40.124,17.964-40.123,40.123-40.123,40.124,17.962,40.124,40.123Z" fill="#ffcd48"/>
  <path d="M234.147,294.239c0,22.16-17.964,40.124-40.124,40.124s-40.123-17.964-40.123-40.124,17.962-40.123,40.123-40.123,40.124,17.962,40.124,40.123Z" fill="#ffcd48"/>
  <path d="M336.139,294.239c0,22.16-17.964,40.124-40.124,40.124s-40.123-17.964-40.123-40.124,17.964-40.123,40.123-40.123,40.124,17.962,40.124,40.123Z" fill="#ffcd48"/>
  <path d="M438.131,294.239c0,22.16-17.964,40.124-40.123,40.124s-40.124-17.964-40.124-40.124,17.964-40.123,40.124-40.123,40.123,17.962,40.123,40.123Z" fill="#ffcd48"/>
  <path d="M540.123,294.239c0,22.16-17.964,40.124-40.123,40.124s-40.124-17.964-40.124-40.124,17.964-40.123,40.124-40.123,40.123,17.962,40.123,40.123Z" fill="#ffcd48"/>
  <path d="M744.108,294.239c0,22.16-17.964,40.124-40.124,40.124s-40.122-17.964-40.122-40.124,17.964-40.123,40.122-40.123,40.124,17.962,40.124,40.123Z" fill="#ffcd48"/>
  <path d="M846.1,294.239c0,22.16-17.964,40.124-40.124,40.124s-40.123-17.964-40.123-40.124,17.964-40.123,40.123-40.123,40.124,17.962,40.124,40.123Z" fill="#ffcd48"/>
  <path d="M234.147,397.119c0,22.16-17.964,40.124-40.124,40.124s-40.123-17.964-40.123-40.124,17.962-40.123,40.123-40.123,40.124,17.962,40.124,40.123Z" fill="#ffcd48"/>
  <path d="M336.139,397.119c0,22.16-17.964,40.124-40.124,40.124s-40.123-17.964-40.123-40.124,17.964-40.123,40.123-40.123,40.124,17.962,40.124,40.123Z" fill="#ffcd48"/>
  <path d="M540.123,397.119c0,22.16-17.964,40.124-40.123,40.124s-40.124-17.964-40.124-40.124,17.964-40.123,40.124-40.123,40.123,17.962,40.123,40.123Z" fill="#ffcd48"/>
  <path d="M642.114,397.119c0,22.16-17.962,40.124-40.123,40.124s-40.124-17.964-40.124-40.124,17.964-40.123,40.124-40.123,40.123,17.962,40.123,40.123Z" fill="#ffcd48"/>
  <path d="M744.108,397.119c0,22.16-17.964,40.124-40.124,40.124s-40.122-17.964-40.122-40.124,17.964-40.123,40.122-40.123,40.124,17.962,40.124,40.123Z" fill="#ffcd48"/>
  <path d="M846.1,397.119c0,22.16-17.964,40.124-40.124,40.124s-40.123-17.964-40.123-40.124,17.964-40.123,40.123-40.123,40.124,17.962,40.124,40.123Z" fill="#ffcd48"/>
  <path d="M234.147,500c0,22.16-17.964,40.123-40.124,40.123s-40.123-17.962-40.123-40.123,17.962-40.124,40.123-40.124,40.124,17.964,40.124,40.124Z" fill="#ffcd48"/>
  <path d="M336.139,500c0,22.16-17.964,40.123-40.124,40.123s-40.123-17.962-40.123-40.123,17.964-40.124,40.123-40.124,40.124,17.964,40.124,40.124Z" fill="#ffcd48"/>
  <path d="M642.114,500c0,22.16-17.962,40.123-40.123,40.123s-40.124-17.962-40.124-40.123,17.964-40.124,40.124-40.124,40.123,17.964,40.123,40.124Z" fill="#ffcd48"/>
  <path d="M744.108,500c0,22.16-17.964,40.123-40.124,40.123s-40.122-17.962-40.122-40.123,17.964-40.124,40.122-40.124,40.124,17.964,40.124,40.124Z" fill="#ffcd48"/>
  <path d="M846.1,500c0,22.16-17.964,40.123-40.124,40.123s-40.123-17.962-40.123-40.123,17.964-40.124,40.123-40.124,40.124,17.964,40.124,40.124Z" fill="#ffcd48"/>
  <path d="M234.147,602.881c0,22.16-17.964,40.123-40.124,40.123s-40.123-17.962-40.123-40.123,17.962-40.124,40.123-40.124,40.124,17.964,40.124,40.124Z" fill="#ffcd48"/>
  <path d="M336.139,602.881c0,22.16-17.964,40.123-40.124,40.123s-40.123-17.962-40.123-40.123,17.964-40.124,40.123-40.124,40.124,17.964,40.124,40.124Z" fill="#ffcd48"/>
  <path d="M744.108,602.881c0,22.16-17.964,40.123-40.124,40.123s-40.122-17.962-40.122-40.123,17.964-40.124,40.122-40.124,40.124,17.964,40.124,40.124Z" fill="#ffcd48"/>
  <path d="M846.1,602.881c0,22.16-17.964,40.123-40.124,40.123s-40.123-17.962-40.123-40.123,17.964-40.124,40.123-40.124,40.124,17.964,40.124,40.124Z" fill="#ffcd48"/>
  <path d="M234.147,705.761c0,22.16-17.964,40.123-40.124,40.123s-40.123-17.962-40.123-40.123,17.962-40.124,40.123-40.124,40.124,17.964,40.124,40.124Z" fill="#ffcd48"/>
  <path d="M336.139,705.761c0,22.16-17.964,40.123-40.124,40.123s-40.123-17.962-40.123-40.123,17.964-40.124,40.123-40.124,40.124,17.964,40.124,40.124Z" fill="#ffcd48"/>
  <path d="M744.108,705.761c0,22.16-17.964,40.123-40.124,40.123s-40.122-17.962-40.122-40.123,17.964-40.124,40.122-40.124,40.124,17.964,40.124,40.124Z" fill="#ffcd48"/>
  <path d="M846.1,705.761c0,22.16-17.964,40.123-40.124,40.123s-40.123-17.962-40.123-40.123,17.964-40.124,40.123-40.124,40.124,17.964,40.124,40.124Z" fill="#ffcd48"/>
  <path d="M234.147,808.642c0,22.158-17.964,40.123-40.124,40.123s-40.123-17.964-40.123-40.123,17.962-40.124,40.123-40.124,40.124,17.964,40.124,40.124Z" fill="#ffcd48"/>
  <path d="M336.139,808.642c0,22.158-17.964,40.123-40.124,40.123s-40.123-17.964-40.123-40.123,17.964-40.124,40.123-40.124,40.124,17.964,40.124,40.124Z" fill="#ffcd48"/>
  <path d="M744.108,808.642c0,22.158-17.964,40.123-40.124,40.123s-40.122-17.964-40.122-40.123,17.964-40.124,40.122-40.124,40.124,17.964,40.124,40.124Z" fill="#ffcd48"/>
  <path d="M846.1,808.642c0,22.158-17.964,40.123-40.124,40.123s-40.123-17.964-40.123-40.123,17.964-40.124,40.123-40.124,40.124,17.964,40.124,40.124Z" fill="#ffcd48"/>
  <path d="M234.147,911.523c0,22.158-17.964,40.123-40.124,40.123s-40.123-17.964-40.123-40.123,17.962-40.124,40.123-40.124,40.124,17.964,40.124,40.124Z" fill="#ffcd48"/>
  <path d="M336.139,911.523c0,22.158-17.964,40.123-40.124,40.123s-40.123-17.964-40.123-40.123,17.964-40.124,40.123-40.124,40.124,17.964,40.124,40.124Z" fill="#ffcd48"/>
  <path d="M744.108,911.523c0,22.158-17.964,40.123-40.124,40.123s-40.122-17.964-40.122-40.123,17.964-40.124,40.122-40.124,40.124,17.964,40.124,40.124Z" fill="#ffcd48"/>
  <path d="M846.1,911.523c0,22.158-17.964,40.123-40.124,40.123s-40.123-17.964-40.123-40.123,17.964-40.124,40.123-40.124,40.124,17.964,40.124,40.124Z" fill="#ffcd48"/>
  <metadata><?xpacket begin="﻿" id="W5M0MpCehiHzreSzNTczkc9d"?>
<x:xmpmeta xmlns:x="adobe:ns:meta/" x:xmptk="Adobe XMP Core 10.0-c000 1.000000, 0000/00/00-00:00:00        ">
   <rdf:RDF xmlns:rdf="http://www.w3.org/1999/02/22-rdf-syntax-ns#">
      <rdf:Description rdf:about=""
            xmlns:xmp="http://ns.adobe.com/xap/1.0/"
            xmlns:xmpGImg="http://ns.adobe.com/xap/1.0/g/img/"
            xmlns:xmpTPg="http://ns.adobe.com/xap/1.0/t/pg/"
            xmlns:stDim="http://ns.adobe.com/xap/1.0/sType/Dimensions#"
            xmlns:xmpG="http://ns.adobe.com/xap/1.0/g/"
            xmlns:dc="http://purl.org/dc/elements/1.1/"
            xmlns:xmpMM="http://ns.adobe.com/xap/1.0/mm/"
            xmlns:stRef="http://ns.adobe.com/xap/1.0/sType/ResourceRef#"
            xmlns:stEvt="http://ns.adobe.com/xap/1.0/sType/ResourceEvent#">
         <xmp:CreatorTool>Adobe Illustrator 30.2 (Macintosh)</xmp:CreatorTool>
         <xmp:CreateDate>2026-03-13T11:22:52+08:00</xmp:CreateDate>
         <xmp:MetadataDate>2026-03-13T11:22:52+08:00</xmp:MetadataDate>
         <xmp:ModifyDate>2026-03-13T11:22:52+08:00</xmp:ModifyDate>
         <xmp:Thumbnails>
            <rdf:Alt>
               <rdf:li rdf:parseType="Resource">
                  <xmpGImg:width>196</xmpGImg:width>
                  <xmpGImg:height>256</xmpGImg:height>
                  <xmpGImg:format>JPEG</xmpGImg:format>
                  <xmpGImg:image>/9j/4AAQSkZJRgABAgEAAAAAAAD/7QAsUGhvdG9zaG9wIDMuMAA4QklNA+0AAAAAABAAAAAAAAEA&#xA;AQAAAAAAAQAB/+4ADkFkb2JlAGTAAAAAAf/bAIQABgQEBAUEBgUFBgkGBQYJCwgGBggLDAoKCwoK&#xA;DBAMDAwMDAwQDA4PEA8ODBMTFBQTExwbGxscHx8fHx8fHx8fHwEHBwcNDA0YEBAYGhURFRofHx8f&#xA;Hx8fHx8fHx8fHx8fHx8fHx8fHx8fHx8fHx8fHx8fHx8fHx8fHx8fHx8fHx8f/8AAEQgBAADEAwER&#xA;AAIRAQMRAf/EAaIAAAAHAQEBAQEAAAAAAAAAAAQFAwIGAQAHCAkKCwEAAgIDAQEBAQEAAAAAAAAA&#xA;AQACAwQFBgcICQoLEAACAQMDAgQCBgcDBAIGAnMBAgMRBAAFIRIxQVEGE2EicYEUMpGhBxWxQiPB&#xA;UtHhMxZi8CRygvElQzRTkqKyY3PCNUQnk6OzNhdUZHTD0uIIJoMJChgZhJRFRqS0VtNVKBry4/PE&#xA;1OT0ZXWFlaW1xdXl9WZ2hpamtsbW5vY3R1dnd4eXp7fH1+f3OEhYaHiImKi4yNjo+Ck5SVlpeYmZ&#xA;qbnJ2en5KjpKWmp6ipqqusra6voRAAICAQIDBQUEBQYECAMDbQEAAhEDBCESMUEFURNhIgZxgZEy&#xA;obHwFMHR4SNCFVJicvEzJDRDghaSUyWiY7LCB3PSNeJEgxdUkwgJChgZJjZFGidkdFU38qOzwygp&#xA;0+PzhJSktMTU5PRldYWVpbXF1eX1RlZmdoaWprbG1ub2R1dnd4eXp7fH1+f3OEhYaHiImKi4yNjo&#xA;+DlJWWl5iZmpucnZ6fkqOkpaanqKmqq6ytrq+v/aAAwDAQACEQMRAD8A9Ba1rU8k729u5SFDxZl2&#xA;LEdd/DOU7T7TnKZhA1Efa7TTaYAWeaThmVuSkhhuCOuaUSINjm5hDIdA1iWWQWlw3NiP3Uh67b0O&#xA;dJ2T2lKcvDmb7i6/VacAcUU3vrxLS1ed9+P2V8WPQZudXqRhxmZ6OHixmcqYbd391duXmckdk/ZH&#xA;yGcTqNXkzG5H9TuceKMBsGra8ubZw8EhQ9x2PzGRwanJiNwNJnjjIUQzDTL9b21WYDi1eLr4MM7X&#xA;RasZ8Yl16+902bFwSpFZltTsVdirsVdirsVdirsVdirsVdirG9d1mb1mtbdyiJtI67Et3FfAZzHa&#xA;vaUuM44GgOZdlpdMK4pJJyblyqeXWvfNDxG76ufSe6FrMxmW1uWLq+0bncg+BPeudB2V2lIyGOZu&#xA;+RdfqtMK4op7d3MdtbyTv9lBWniew+k5v9RmGKBmeQcHHAykAGG3uo3V5IWlc8f2Yx9kfRnE6rW5&#xA;MxuR27ujuceGMBspW91cW7h4ZCjDwOx+Y75Vhzzxm4Gmc4CQohkX+Il/Rnr8R9ar6fDtypXl8s6T&#xA;+WB+X46/ecq8+/3Ou/KfvK/hY0wZWKtswNCD45y8gQaPN2QLWRSi9IDHU7YL15g/QNz+GZvZ4Jzw&#xA;rvadR9BT3zQrmwQj7IkHL7jnQdug+CO7i/QXA0J9Z9zF85J2rsVZJ5VDehO37JYAfMDf9edR2ADw&#xA;SPS3W647hPM37gOxV2KuxV2KuxV2KuxV2KuxV2KsEuwy3Uwb7Qdq18a559qARkkDzsu+x/SPcpZS&#xA;zVrFXa9gCfa9RafeMyNKCcsa58Q+9hlPpN9zJvMiudMYr0DqW+XT9edT20CdOa7w6vRn94xPOOdu&#xA;7FW+LceVPhrSvauSo1fRFsh1jQJJZWuLQAs+8kXTfxFc6TtLsmU5GePrzDr9PqgBwySgaRqZbiLZ&#xA;6+4oPvO2aYdn5ya4C5f5iHen+i6KbM+vPQzkUVRuFB67+OdD2Z2Z4Prn9f3OBqdTx7DkmVzbx3ED&#xA;wyCqOKH+ubTNhjkgYS5FxYTMTYYrd6BqEDkIhmj/AGXTc/SOucjqOyc2M7DiHk7bHqoSG+xW22ha&#xA;jO4DRmJO7vtT6OpyODsrPM0RwjvKZ6qERztlVnaRWlusEX2V6k9ST1JzrtNp44YCEejqcmQzNlWy&#xA;9g7FXYq7FXYq7FXYq7FXYq7FXYqkmtaE9xIbm2p6p+3GduVO4Pjmh7T7KOSXHj+rqO9ztNqhEcMu&#xA;SS/onUuXH6s9flt9/TNH/J+e64C5v5iHeE70XQ2tnFxc09YD4EG/GvcnxzfdmdlnEeOf1dB3ODqd&#xA;VxDhjyTeaKOaJ4pBVHBDD2ObnJjE4mJ5Fw4yINhi175fvYHPoqZov2WX7X0jOR1XZGXGfSOKLtsW&#xA;rjIb7FSt9D1KZwvomMd3f4QP45Vh7LzzNcNe9lPUwA52yD9B236O+p13ry9Wm/P+bOj/AJLx+B4X&#xA;xvz73X/mZcfEi7q9trWPnO4QHoOpPyAzM1Gpx4RczTTjxymaAS9fM2ml+JEgH8xUU/A1zXDtzATX&#xA;q+X7XIOin5JnBPDPGJIXDoejDNpiyxyR4omw40omJor8sYoC71zT7VzGzl5B9pUFafTsM12o7Uw4&#xA;jRNnycjHppyFrbXX9OuHCBjGx6CQUr9IJGRwdrYMhq+E+aZ6WcRfNMc2bjLZZY4ozJIwRF6sdhkM&#xA;mSMBcjQTGJJoJW/mbTVfiBI4/mCin4kHNVLtvADXqPw/a5Q0U/JHWl/aXaloJA1PtL0YfMHM/T6v&#xA;HmFwNtGTFKHMIjMlrdirsVdirsVdirsVdiqlc3VvbR+pO4Re1ep+Q75TmzwxR4pmgzhAyNBLv8Ta&#xA;dz40kp/NxFP11zW/y5guvV8v2uR+Sn5Jlb3MFzGJIHDoe47fMZs8OeGWPFA2HGnAxNFUy1igrzWb&#xA;C0YpI5aQdUQVI+fbMDU9pYcJqRuXcG/Hppz3HJSt/MOmzOE5NET09QUH3gkZVh7YwTNWY+9lPSTj&#xA;5plUUr28c2luMwfULx7u6eZjsTRB4KOgzgtZqTmyGR+Hud7ixiEaQ+YrYmWgXjwX6R1PpTHiy+/Y&#xA;5teyNSceYR/hlt+pxdXjEoX1Cfa7ePa2BMZpJIQinuK1JP3DOg7V1JxYbjzOzgaXGJT36MPzincu&#xA;xVlfl28e4sikhq8J41PUqemdh2NqTkxUecdvh0dTrMYjKx1SvzJePLeG3B/dQ028WIqT+OantrUm&#xA;WXg/hj97laPGBHi6lKM0rmKtpdS2twk0ZoyncdiO4OX6fPLFMSj0YZICQos6R1dFdfssAR8jnfRk&#xA;JAEdXREUabySHYq7FXYq7FXYq7FWGavePdX0hJ+BCUjXsADT8c4ftHUnLlJPIbB3WnxiMAgswG9H&#xA;aLePbX0dD+7lISRexBNAfozYdmak4sw7pbFo1OMSge8Mm1e7a1sJJE2kNFQ+Bbv9GdT2jqDiwmQ5&#xA;8g6vT4+OYBYWSSSSak7knOHJvcu7dgVH/pe4/Rn1Kp6059/T/l+/Nj/KM/A8L7fLu/HRx/y44+L8&#xA;Whbu2e2uZIHG6GnzHY/TmJqMJxTMD0bccxKIIUspZo/Q7Z5tSiKj4Yjzc+AHT8c2PZWEzzxrlHdx&#xA;9VMRgfNPfMVs82nlkFTCwcj2oQf150HbOAzw2P4TbgaOYjPfqxPOOdu7FWUeWbZ47N5WFPWaqj/J&#xA;Xaudb2HhMcRkf4j9zqtbMGVdyV+YrZ4tRaQj4JgGU+4ABGajtnCYZzLpJy9HMGFdyV5qXKXwwyTS&#xA;pFGKu5oo+eWY8ZnIRHMolIAWWdxRiOJIx0RQo+gUz0DHDhiB3B0EjZtdk0OxV2KuxV2KuxV2KsI1&#xA;K2e3vpo2H7RZT4qTUHOD1uE48sonv+x3mGYlAFDZiNqL0q2e4v4UUVCsHc+CqanM3QYDkzRA77Pu&#xA;DTnnwwJZNrts9xp0ioKuhDgeNOv4Z1PauA5MBA5jd1mlnwzFsOziXcuxVE/UJ/qH1yn7rnx+jx+V&#xA;dsyvyk/B8X+G6/b+hq8UcfD1ZZqGl2t8o9UFXX7Mi9R7Z2Gr0GPOPVz73U4s8ocksHlROXxXJK+A&#xA;Sh++pzVjsAXvPb3ftcr8+e5N7Oxt7OL04FoDuzHck+5zc6bSwwx4YBw8mWUzZV8yGtJ7vy1aTOXh&#xA;cwE9VA5L9A2zS6jsTHM3E8P2hzMetkBR3atfLFrG4aaQzU6LTiPp3ORwdh44m5ni+xM9bIjYUnIA&#xA;AAAoBsAM3YFbBwlG6tILqIxTLyU7jxB8Qcqz6eGWPDMWGcMhgbCTv5UjLfBckL4FAT94IzSS7AF7&#xA;T2937XNGvPUJhp+j2ll8SAvKdjI3X6PDNlo+zseDcby7y42XUSnz5I7M9odirsVdirsVdirsVdiq&#xA;Fv8ATba9QLMDyX7LrswzE1eix5xUvn1bcWaUDslf+FE5V+snj4cN/vr/AAzUfyAL+vb3ftcv8+e5&#xA;NbHTrayjKQruftOd2PzzcaXR48EaiPj1cTLmlM7onMpqSm98uWlw5kjYwO3Wgqv3bZp9V2NjyG4n&#xA;hP2fJy8eslEUd1K38rWyOGmlaUD9kDgD89zlWHsKETc5GX2M566RGwpOfSi9L0uA9KnHhTanhTN1&#xA;4ceHhr09zhcRu+qVatry2jmCBQ84+0T9lfu6nNT2h2sMJ4IC5fYHL0+l4xZ5JSvmPVA1SykfylRT&#xA;8N8047a1F3Y+TlnR4090rV4r5SpHCdRVk7EeIzf9n9ox1ArlMdHAz6c4/cjpZY4o2kkPFEFWJ8Bm&#xA;fOYhEyOwDRGJJoMbu/M9y7kWyiOMdGYVY/wzmNR25kJ/djhH2uzx6KIHq3W2vma8Rx9YVZY+9BxY&#xA;fKm2RwduZYn1gSHyKz0USNtmSwTxTwrNEeSOKg51GLLHJESjyLrZRMTRQuqarDYRgkc5X+xH/E+2&#xA;Ymu18dPHvkeQbcGA5D5JA/mTU2aoZVH8oUU/GpznZdtZybBA+DsBo8aZaV5gFxIsFyoSRtkcfZJ8&#xA;CD0ObXQdr+JIQmKkeRcXPpOEXHknWbxwkh1LzIY5GhtFDFTRpW3Ff8kZz2t7a4ZGOMcuv6nPw6Ox&#xA;ckDF5k1JWBcrIvdSoH6qZgQ7azg70fg3y0cDyZFp2ow30HqR7MNpEPVTnS6PWRzw4hz6juddmwmB&#xA;oorMtqdirsVdiqV6traWR9KNRJcEVIPRR75qe0O1Bg9Md5/c5Wn0xnueSTf4j1TlXmtP5eIp/XNJ&#xA;/LOou7Hyc38njTrSdajvf3Tr6dwBWg6MPbN52f2mM/pIqf3+5wtRpjDcckyZlRSzGiqKsT0AGbSU&#xA;gBZ5OMBbHL3zNMzlbRQkY6Owqx+joM5jVduTJrGKHeXZY9EK9Slb+Zr5HHrBZU7inE/QRlWHtvNE&#xA;+qpD5Mp6KBG2yffpSz+pfXOX7rw71/lp450P57F4Xi36fxt73A8CXFw9WGSSNJI0jGrOSzH3JrnD&#xA;zmZSMjzLugKFLcglGaPIyanblTSrhT8m2OZ3Z0zHPCu/72nUC4FPfM8jrp6qvR5AG+QBNPvGdB25&#xA;MjCAOsnA0QufwYtnIu1dirJPKsjG3mjP2UYFf9kN/wBWdT2DMmEh0B+91muHqBSvX5GfVJgTsnFV&#xA;HgKA/wAc1Ha0zLUSvpQ+xy9KKxhL81rkOBIIINCNwcINKzS7nkGkyTDaQw8vkSv8M7nUZZfljPrw&#xA;fodJjiPEA82F5wru3Yqm3lmRl1AoD8LoeQ+W4zc9hzIzV3hxNaPQyrOudS7FXYq7FWC3sjSXczsa&#xA;sztX788/1MzLJInvLvsYqICjlDNX0+Ro76B16iRfxNCMydJMxyxI/nBryi4keTJvMUjppjhf22VW&#xA;Pt1/hnU9szMcBrqQHWaMXkYlnGu3diq71pPR9Gv7vlz49uVKVyzxJcPD/Ddo4Rd9UfrOlyWlwzqp&#xA;Nu5qjDoK/snM/tLQywzJA9B5fqcfTZxMV1S7NY5Kd+XtLladbyVSsSbx1/aPSvyGb7sfQyMxlkPS&#xA;OXm4OrzgDhHNO9Usvrlm8INH+1GT05DN7rtL4+Ix69Pe4ODLwSthk0MsMjRyqUdeqnOIyYpQlwyF&#xA;EO6jISFhqON5HCRqWdtgo3JwQgZGgLKSQBZZho9gbKzCP/euecnsT2+jO17N0ngYqP1Hcum1GXjl&#xA;fRLPMemStJ9chUsCKTAdRTo33Zqu2dDIy8WIvv8A1uVo84rhKQZzjsEbpemS3s6ihECn94/angPf&#xA;M/QaGWef9DqWjPmEB5sxkiSSJomHwMpUj2IpnazxiUTE8iKdMJEG2FX9hPZTGOQfD+w/ZhnDavST&#xA;wS4Zcuh73d4somLCGzFbWS+XdMkgDXUylXccUQ9QvUk/POp7G0Msd5JiieXudZrM4l6Qneb1wXYq&#xA;7FXYqxTXdMlguXuEUmCU8qj9lj1BzkO1dDLHMzA9Evsdtpc4lGjzCVZp3LTfQNLlmuEuZFKwRHkp&#xA;P7TDpT5ZuuydDKcxkI9EftLh6rOBHhHMshv7Rbu0kgJoWHwt4EbjOk1enGbGYd7rsWTgkCwu4tpr&#xA;eUxTKVcePf3GcNmwyxy4ZCi7uExIWFiqzsFUFmOwA3JOQjEk0OaSaTz/AA7L+i60/wBMrz4+1PsZ&#xA;vv5Gl+X/ANt5/scH84PE/osjYKQQwBB6g9M6YgEbutCES20n1fgjg9TwAWtflmHHDp+LYQ4vg3Ge&#xA;StyaReZrS7FVK4itHX/SFRlHeQCg+/Kc0Mch6wK82cJSH021bRWSAm2WMDuYwP1jBgx4gP3Yj8KW&#xA;cpH6rVsvYOxVQewsXbk9vGzeJUfjtmPLSYpGzCN+4NgyzHIlWVVVQqgKo6AbDL4xAFBgTbeFC2RI&#xA;nQiVVZO4YAj8chOMSKkAR5pBIOyHt4NMV6wJDzHdAtR92Y+LFgB9AhflTZOU63tFZltTsVWySxRi&#xA;sjqg/wAogfryE8kY/UQEiJPJtWVhVSGHiNxkhIHcKRTeFDiARQ7g9RiQqE+raT6v93B6nhRK/dmF&#xA;4Om4uUOL4N3HkrmaRYFNh0zNaXYqpzx2zp/pCoyD+cAj8cqywhIesAjzZRMgdlltDYL8VskY8WjC&#xA;/rGQwY8I3xiPwplOUz9Vq+ZDWxPWtXluZ3hjYrboeNB+1TqTnH9p9oSyzMYn0D7XbabTiIs80rzU&#xA;OWn3l/VpTMLOdi6sP3THqCN6VzouyO0JGXhTN3y/U6/V6cVxBOdRvVs7R5yKkbIvix6Zu9ZqRhxm&#xA;fy97h4cfHKmG3N1PcyGSZy7Hx6D2A7ZxGbPPLLikbLuYQERQWwTzQSCSFyjjoRkcWWWOXFE0UyiJ&#xA;CizHSb8XtoJSKSKeMgHiO/0523Z+r8fHxdeRdNnxcEq6IzM1pdirsVakdY0Z3NFQFmPsNzkZyEQS&#xA;eQSBZphmo6ncXspLErED8EXYD3984jW66eeVn6egd1hwCA80GrMpDKSCOhGxzCBINhuIZR5f1WS6&#xA;Vrec8poxVX7svTf3GdZ2Rr5ZQYT+ofaHVavAI7jkiNa1I2VsPTp60pISvanU/RmR2nrTght9UuX6&#xA;2vTYeOW/IMRklklcvIxdz1YmpzjZzlI3I2XcCIAoKtnfXFpKJIWI/mX9lvmMu02qnhlcT+osMmKM&#xA;xRZpaXKXNtHOn2XFaeB6EffncafOMsBMdXS5IGMiCx3XdXmkne2hYrDGeL02LMOtfbOa7V7QlKZx&#xA;xNRHPzLsdLpwBxHmk2aNzU60HV5UnS1mYtFJ8MZO5Vuw+Rze9k9oSjMY5G4nl5FwdVpwRxDmyC9u&#xA;ktbWSdtwg2HiTsB9+dHqc4xYzM9HX44GUgGF3d7cXcpkmcsey9h7AZw+o1M80uKRd3jxxgKCnFLJ&#xA;E4eNijjowNDlUMkoG4miylEEUU//AMRN+i+e31yvp+3SvOn+e+dF/LJ/L3/lOX7fx1df+T/eV/Cx&#xA;90ZHZGFGUkMPcZzkomJIPMOwBsW1kUovSEZtTtwoqQ4J+Q3OZvZ0Sc8K72nUGoFPfNCO1gjD7KSA&#xA;t9IIrnQduxJwgjpL9bgaI+v4MXzknauxVknlVGFvO5+yXAHzA3/XnUdgRPBI9LdZrjuE8zfuC7FX&#xA;YqhtTRn0+4VPtGNqAfLpmLromWGYHPhLbhNTHvYRnBO8diqa+WUY6jyA2VG5H50GbjsSJOe+4FxN&#xA;afR8UT5rRvUt3/Yow+mozK7fieKB6btegOxCQ5zrnuxVl3l5GXS4+X7RYj5Vzs+x4kacX1t0+rN5&#xA;Cxa8Rku5lYUYO1fvzk9TEjJIHnZdrjNxHuUsoZq9ijvewKn2jItPvzI0kTLLEDnxBrymon3Mm8xo&#xA;zaYxXorKW+XT+OdT21EnAa6EOs0Z/eMSzjnbuxVv039P1KfBXjy7VpWmT4DXF0RYumS6voBuJDcW&#xA;xAkb7cZ2BPiD450/aPZJyS48f1dQ63T6rhFS5JQNB1Utx9Aj3LLT9eaYdlagmuH7Q5f5rH3p9o+j&#xA;LY1lkIe4YUqOijwGdD2d2aMHqlvM/Y4Go1PHsOSYTwxzxPFIOSOKMM2OXFHJExlyLjxkYmwxi78u&#xA;X0Tn0AJo+xBAYfMHOV1HYuWB9Hqj9rtMesiRvsVtt5c1CVwJVEKd2Ygn6AMjg7GzTPqHCEz1kANt&#xA;2T2ttFbQLDEKIg28T7nOrwYI4oCEeQdXOZkbKrlrB2KuxV2Ksd1Ly5L6jS2dCrbmImhB9q7Uzmtb&#xA;2LLiMsXI9P1Oxw6wVUkDHoGqO4UxcB3ZmFB9xJzAh2TqJGuGveXIlq8Y6sk0vTIrCEqp5SPvI/jT&#xA;sPbOm0Ohjp40N5HmXWZ8xyHyVL6yhvLdoZNgd1YdQfHLdVpo5ocMmOLIYGwxmfy9qUb0RBKvZlI/&#xA;UaZy2XsfPE7DiHk7OOrgeeyvY+W7qRw11+6iHVQQWP3dMv0vYuSRvJ6Y/awy6yIHp3LJkRURUQUV&#xA;QAoHYDOpjERAA5B1hNm0p1jQ/rb+vAQs9KMp6NT38c1HaXZXjHjhtP73L0+q4NjySX9Bary4+gfn&#xA;yWn680X8lai64ftH63N/NY+9O9H0MWbevMQ89KKB0Wv8c33Z3ZfgnjnvP7nB1Gp49hyTSSNJI2jc&#xA;ckYEMD3BzbTgJAg8i4oJBsMZvfLd3G5Nt++iPQVAYfOucrqexckT+79Uftdpj1kSPVsVK38valK4&#xA;DoIU7uxB/AE5Th7HzyO44R5sp6uAG26f/oe0+ofUqHh15/tc/wCb550f8nY/B8Lp39b73X/mJcfE&#xA;q3uo2tmgadqE/ZQbsfkMt1Wsx4Bcz8OrHHhlM7Jcvmm0LUMMgXx2J+6uawdvY73jKnJOhl3hNba6&#xA;guohLA4dT18QfAjNvg1EMseKBsOJPGYmiq5cwSy78w2Nu5jWszjY8KUH0nNVqO2MOM0PUfJysekn&#xA;IXyW2vmOwmcI/KEnoWpx+8ZHB21hmaNx9/JM9HOO43TXNu4jsVdirsVdirsVdirsVaZlVSzEBQKk&#xA;nYAYCQBZUBKbjzNYxuVjVpadWGw+iuafN23iiaiDJzIaKZ57K1lrtjdOIwTFIeivQVPscv0vauLK&#xA;eH6ZebDLpZwF8wmObJxlC8vra0j5zvxB+yvUn5DMfU6rHhjcy2Y8Upmgln+KrTlT0ZOPjtX7q5qv&#xA;5ex39Mq+DlfkZd4TO0vba7j9SB+QGzDoQfcZtdPqYZo8UDbi5McoGir5kNaXXuvWNq5jqZZB1VOg&#xA;PuTms1Pa2LEeH6peTk49LOQvkFK38y2MrhZFaGvRmoV+8ZTh7bwyNSuP3M56KY5bprzXjzqOFK8q&#xA;7U8a5uOIVfRxK6MHvbp7q6kmc/aPwjwXsM4HVZzlyGZ6u8xQEIgBQzHbEx0G6eDUI1B+CY8HX59D&#xA;9BzZ9k5zjzAdJbFxtVjEoHyT3zBdvb6eeBo8rCMEdQCCT+rOg7X1Bx4ducjTgaTGJT36MRzjHcOx&#xA;VlXlu7eayaJzUwHip/yT0zruxdQZ4jE/w/c6rWYwJWOqbZuXDdirsVdirsVdirsVSPzRdOkUVspo&#xA;JKs/uB0H35oO3dQREQH8XNz9DjBJl3Mbzl3ZOwqzTSLprnT4pHNZBVXPiVNK53HZ2c5cMZHnyPwd&#xA;JqIcMyAxbVbp7m+ldjsrFUHgoNBnJ6/OcuWRPfQ9ztcGMRgAhMwm5GaPdvbX8TA/C7BJB2IY0/DM&#xA;7s7UHFmiRyJo/Fo1GMSgWTa1dPbafI6GkjURT4Fu/wB2dV2nnOLCSOZ2dZpsYlMAsNziHdOwKi/0&#xA;nP8Ao76lU8eVa/5P8v35m/np+B4XS/s7vm0+COPiU721e1upIXH2T8J8V7HKtVgOLIYHoyxTE4gh&#xA;QzHbEx0G1efUI2A+CE83b5dB9JzZ9k4DkzA9I7lxtVkEYHzT3zBaPcaeeAq8TCQAdSACD+vOg7X0&#xA;5yYducTbgaTIIz36sRzjHcOxVlXlu0eGyaVxQznko/yR0zruxdOYYjI/xfc6rWZAZUOibZuXDdir&#xA;sVdirsVdirsVSPzRau8UVyoqI6q/sD0P35oO3dOTETH8PNz9DkAJj3sbzl3ZOwqzTSLVrbT4o3FJ&#xA;DVnHgWNaZ3HZ2A4sMYnnzPxdJqJ8UyQxbVbV7a+lRhszFkPipNRnJ6/AcWWQPfY9ztcGQSgChMwm&#xA;5GaPaPc38SgfCjB5D2AU1/HM7s7TnLmiByBs/Bo1GQRgWTa1avc6fIiCsi0dR4le33Z1XaeA5cJA&#xA;5jd1mmyCMwSw3OId07AqL/Rk/wCjvrtDx5Up/k/zffmb+Rn4Hi9L+zv+bT4w4+Fll7p1reIFnWpH&#xA;2XGzD5HOw1Wjx5xUx8erqceaUDsly+VrQNUzSFfDYH76ZrB2DjveUqck66XcE1trWC1iEUCBFHXx&#xA;J8Sc2+DTwxR4YCg4k8hkbKrlzBLLvy9Y3DmRawudzwpQ/Qc1Wo7Hw5DY9J8nKx6ucRXNba+XLCFw&#xA;78piOganH7hkcHYuGBs3L38kz1k5bDZNc27iOxV2KuxV2KuxV2KuxVplVlKsAVIoQdwRgIBFFQUp&#xA;uPLNjI5aNmir1Ubj6K5p83YmKRuJMXMhrZjnurWWhWNq4kAMsg6M9DQ+wy/S9lYsR4vql5sMuqnM&#xA;VyCY5snGULyxtruPhOnID7LdCPkcx9TpceaNTDZjyygbCWf4VtOVfWk4+G1fvpmq/kHHf1Sr4OV+&#xA;el3BM7SytrSP04E4g7sepJ9zm10+mhhjwwFOLkySmbKvmQ1pde6DY3TmShikPVk6E+4OazU9k4sp&#xA;4vpl5OTj1U4iuYUrfy1YxOGkZpqdFagX7hlOHsTDE3K5fcznrZnlsmvBePCg4UpxptTwpm44RVdH&#xA;Evqk2r6+beQ29sAZF+3IdwD4AeOaPtHtY45cGP6upc3T6XiFy5JQNe1UNy9cn2KrT9WaYdq6gG+L&#xA;7A5f5XH3J9o+srfVjkAS4UVoOjDxGdD2d2kM/pltMfa4Go03BuOSYTzRwRPLIeKIKsc2OXLHHEyl&#xA;yDjxiZGgxi78x30rn0CIY+wABY/MnOV1HbWWZ9Hpj9rtMejiBvuVtt5i1CJwZWEyd1YAH6CBkcHb&#xA;OaB9R4gmejgRtsye1uYrmBZojVHG3iPY51eDPHLATjyLq5wMTRVctYOxV2KuxV2KuxV2KuxV2Kux&#xA;V2KpRrGufVH9CABp6VZj0Wvt45pu0u1fBPBDef3OZp9Lx7nkkv6d1Xly9c/LitP1Zov5V1F3xfYP&#xA;1Ob+Vx9yd6PrgvG9CYBJ6VUjo1P45vuzu1PGPBPaf3uDqNNwbjkmkkiRxtI54ooJYnsBm2nMRBJ5&#xA;BxQCTQYze+ZLuRyLb9zEOhoCx+dc5XU9tZJH936Y/a7THo4gercqVv5h1KJwXcTJ3RgB+IAynD2x&#xA;nidzxDzZT0kCNtk//TFp9Q+u1PDpw/a5/wAvzzo/5Rx+D4vTu633Ov8Ay8uPhYc7s7s7GrMSWPuc&#xA;4mUjIknmXcgUKayKUXpDsup25U0JcA/I7HM3s6RGeFd7TqBcCnvmh3WwRR9l5AG+gE0zoO3ZEYQB&#xA;1l+twNEPX8GL5yTtXYqyTyq7G3nQ/ZDgj5kb/qzqOwJHgkOlus1w3CeZv3BdirsVdirsVdirsVdi&#xA;rsVdirsVYJeOz3czMasXav355/qZE5JE87LvsYqI9yllDNXsXdL2Bk+0JFp9+ZGkkY5Ykc+INeUX&#xA;E+5k3mN2XTGC9GZQ3y6/wzqe2pEYDXUh1mjH7xiWcc7d2Kt+o/p+nX4K8uPatKVyfGa4eiKF2met&#xA;aRLbTvNGpa3c8qj9mvUHNp2n2fLFMyiPQfscXTagSFHmleahy0+8v6TKJheTqUVR+6U9STtWmdF2&#xA;R2fIS8WYquX63X6vUCuEJzqNkt5aPATQndG8GHTN3rNMM2Mw+XvcPDk4JWw25tZ7aQxzIUYePQ+4&#xA;PfOIzYJ4pcMhRdzCYkLC2CCaeQRwoXc9AMjixSyS4YiymUhEWWY6TYCytBETWRjykI8T2+jO27P0&#xA;ngY+HrzLps+XjlfRGZmtLsVdirsVdirsVdirsVdirsVdirGNd0iaOd7mFS0Mh5PTcqx619s5TtXs&#xA;+UZnJEXE8/Iu00uoBHCeaTZo3NTrQdIledLqZSsUfxRg7Fm7H5DN72T2fKUxkkKiOXmXB1WoAHCO&#xA;bIL21S6tZIG2DjY+BG4P350epwDLjMD1dfjmYyBYXd2VxaSmOZCp7N2PuDnD6jTTwy4ZB3ePJGYs&#xA;KcUUkrhI1LueigVOVQxymaiLLKUgBZT/APw636L4bfXK8/bpThXOi/kY/l6/ynP9n46uv/OfvL/h&#xA;T9ioBLEADqT0zoSQBu68IRLnSfV+CSD1PEFa1+eYcc2n4tjDi+DcYZK3BpF5mtLsVUriW0Rf9IZF&#xA;U9pCKH78pzTxxHrIrzZwjI/TbVtLZOCLZoyO4jI/UMGDJiI/dmPwpZxkPqtWy9g7FXYq7FXYq7FX&#xA;Yq7FXYq7FXYq7FXEgCp2A6nElUJ9Z0n1f7yD1PGqV+/MLxtNxc4cXwbuDJXI0iwa7jpma0uxVTnk&#xA;tkT/AEhkVD/OQB+OVZZwiPWQB5soiROyy2msG+G2eM+Kxlf1DIYMmE7YzH4UynGY+q1fMhrYhrOq&#xA;SXdwyKxFuhoijoaftHOL7S10s0yAfQOX63cabAIC+qXZrHJTvy9qkqzrZysWifaOv7J60+Rzfdj6&#xA;6QmMUj6Ty8nB1eAEcQ5p3ql79Ts3mAq/2YwenI5vddqvAxGXXp73BwYuOVMMmmlmkaSVi7t1Y5xG&#xA;TLKcuKRsl3UYiIoNRyPG4eNirruGGxGCEzE2DRSQCKLMNHvze2Yd/wC9Q8JPcjv9Odr2bq/HxWfq&#xA;GxdNqMXBKuiOzPaHYq7FXYq7FXYq7FXYq7FXYq7FWKa7qcs9y9ujEQRHjQftMOpOch2rrpZJmAPo&#xA;j9rttLgEY2eZSrNO5ab6BqksNwltIxaCU8VB/ZY9KfPN12TrpQmMZPol9hcPVYAY8Q5hkN/draWk&#xA;k5FSo+FfEnYZ0mr1Aw4zPuddix8cgGF3FzNcSmWZiznx7ewzhs2aWSXFI2XdwgIigsVmRgykqw3B&#xA;GxByEZEGxzSRaef4il/RdK/6ZXhy9qfbzffyzL8v/tvL9rg/kx4n9FJJI2jkaNhRkJVh7g0zRTgY&#xA;yMTzDnA2LW5BKM0eNn1O3CitHDH5LuczuzoGWeFd/wBzTqDUCnvmeN209WXokgLfIgiv3nOg7cgT&#xA;hBHSTgaI1P4MWzkXauxVknlWNhbzyH7LMAP9iN/151PYMCISPQl1muPqATzN84LsVdirsVdirsVd&#xA;irsVdirsVdirBb2No7uZGFGV2r9+ef6mBjkkD3l32M3EFRyhmr6fG0l9Ai9TIv4GpOZOkgZZYgfz&#xA;g15TUSfJk3mKN30xyv7DKzD26fxzqe2YGWA10ILrNGayMSzjXbuxVd6Mno+tT93y4cu3KlaZZ4cu&#xA;Hi/hukcQuurJ9W0FbtzPAwSc/aB+y33dDnVdodkjMeOBqX2F1en1XAKPJKV8uaoWoVUD+YsKfhvm&#xA;nHYuouqHzcs6zGnulaRFYqWJ5zsKM/YDwGb/ALP7OjpxfOZ6uBn1Bye5HSxRyxtHIOSOKMD4HM+c&#xA;BOJidwWiMiDYY3d+WLlHJtmEkZ6Kxow/hnMajsPID+7PEPtdnj1sSPVsttfLN47j6wyxR96Hkx+V&#xA;Nsjg7DyyPrIiPmVnrYgbbslggighWGIcUQUAzqMWKOOIjHkHWykZGyvyxi7FXYq7FXYq7FXYq7FX&#xA;Yq7FXYqleraIl6fVjYR3AFCT0Ye+antDssZ/VHaf3uVp9SYbHkk3+HNU5U4LT+bkKf1zSfyNqLqh&#xA;83N/OY060nRY7L967epcEUqOij2zedn9mDB6ibn93ucLUakz2HJMmVXUqwqrCjA9CDm0lEEUeTjA&#xA;0xy98szK5a0YPGeiMaMPp6HOY1XYcwbxmx3F2WPWivUpW/lm+dx6xWJO5ryP0AZVh7EzSPqqI+bK&#xA;etgBtun36Ls/qX1Pj+68e9f5q+OdD+RxeF4Ven8b+9wPHlxcXV2oapa2Kj1SWdvsxr1Pvg1evx4B&#xA;6ufcuLBKfJLB5rTl8VsQviHqfuoM1Y7fF7w29/7HK/IHvTezvre8i9SBqgbMp2IPuM3Om1UM0eKB&#xA;cPJilA0VfMhrSe78y2kLlIUM5HVgeK/Qd80uo7bxwNRHF9gczHopEWdmrXzPayOFmjMNejV5D6dh&#xA;kcHbmORqY4ftTPRSA2NpyCCAQag7gjN2De4cJ2FXYq7FXYq7FXYq7FXYq7FXYq7FULf6lbWSBpie&#xA;TfZRd2OYmr1uPALl8urbiwymdkr/AMVpyp9WPHx57/dT+Oaj+Xxf0be/9jl/kD3prY6jbXsZeFtx&#xA;9pDsw+ebjS6zHnjcT8OriZcMoHdE5lNSU3vmO0t3Mcamd160NF+/fNPqu2ceM1EcR+z5uXj0cpCz&#xA;spW/mm2dws0TRA/tA8wPnsMqw9uwkanEx+1nPQyA2Npz6sXperzHpU5c67U8a5uvEjw8V+nvcLhN&#xA;11YNd3L3NzJO53c1+Q7D6M4HUZjlmZnq73HARiAFLKWaP0O5eHUogp+GU8HHiD0/HNj2VmMM8a5S&#xA;2cfVQEoHyT7zFcvDp5VDRpWCE+1CT+rOg7ZzmGGh/EacDRwEp79GJZxzt3YqyjyzcvJZvExr6LUU&#xA;/wCS29M63sPMZYjE/wAJ+91WtgBK+9OM3ThuxV2KuxV2KuxV2KuxV2KuxV2KsI1K5e4vppGP7RVR&#xA;4KDQDOD1uY5MspHv+x3mGAjABDZiNqL0q5e3v4XU0BYK48VY0OZugznHmiR30fcWnPDigQybXbl7&#xA;fTpGQ0dyEB8K9fwzqe1c5x4CRzOzrNLDimLYdnEu5diqJ+vz/UPqdf3XPl9Hh8q75lfm5+D4X8N3&#xA;+z9LV4Q4+Lq1qFm9pdPCw2Bqh8VPQ46zTHDkMT8PcnFkE42h8xWxMtAs3nv0kofShPJm9+wza9ka&#xA;Y5Mwl/DHf9Ti6vIIwrqU+12ze6sCIxWSMh1Hc0qCPuOdB2rpjlw1HmN3A0uQRnv1YfnFO5dirK/L&#xA;tm9vZF5BR5jyoeoUdM7DsbTHHis85b/Do6nWZBKVDomubdxHYq7FXYq7FXYq7FXYq7FXYq7FWGav&#xA;Zva30gI+ByXjbsQTX8M4ftHTHFlIPI7h3WnyCUAgswG9HaLZvc30dB+7iIeRuwANQPpzYdmaY5cw&#xA;7o7lo1OQRge8sm1e0a6sJI03kFGQeJXt9OdT2jpzlwmI58w6vT5OCYJYWQQSCKEbEHOHIrYu7dgV&#xA;H/oi4/Rn12h614d/T/m+/Nj/ACdPwPF+zy7/AMdHH/MDj4fxbK7qytrqPhOgcDoehHyOdfn02PKK&#xA;mLdTjySgbBS9fLOmh+RMhH8pYU/AVzXDsPADfq+f7HIOtn5JnBBDBGI4UCIOijNpixRxx4Yig40p&#xA;GRsr8sYoC70PT7pzIyFJD9pkNK/RuM12o7Lw5TZFHycjHqZxFLbXQNOt3DhTIw6GQ1p9AAGRwdk4&#xA;MZuuI+aZ6qchXJMc2bjOxV2KuxV2KuxV2KuxV2KuxV2KuxVSubW3uY/TnQOvavUfI9spzYIZY8Mx&#xA;YZwmYmwl3+GdO58qyU/l5Cn6q5rf5DwXfq+f7HI/Oz8kyt7aC2jEcCBEHYd/mc2eHBDFHhgKDjTm&#xA;ZGyqZaxQV5o1hdsXkQrIeroaE/PtmBqezcOY3IVLvDfj1M4bDkpW/l7TYXD8WlI6eoaj7gAMqw9j&#xA;4IG6Mveynq5y8kyoKU7eGbSnGSHWNfkila3tCAybSS9d/AVznu0u1pQkYY+nMuw0+lBHFJKBq+ph&#xA;uQuXr7mo+47Zph2hnBvjLl/l4dyf6LrRvD6E9BOBVWGwYDrt450PZnafjeif1/e4Gp03BuOSZXNx&#xA;HbwPNIaIgqf6ZtM2aOOBnLkHFhAyNBit3r+oTuSjmGP9lE2P0nrnI6jtbNkOx4R5O2x6WERvuVtt&#xA;ruowOC0hlTuj71+nqMjg7VzwNk8Q7imelhIcqZVZ3cV3brPF9luoPUEdQc67TaiOaAnHq6nJjMDR&#xA;VsvYOxV2KuxV2KuxV2KuxV2KuxV2KpJrWuvbyG2tqeqPtyHfjXsB45oe0+1TjlwY/q6nuc7TaUSH&#xA;FLkkv6W1Lly+svX57fd0zR/yhnu+Mub+Xh3BO9F1xrlxb3NPWI+Bxtyp2I8c33Znahyngn9XQ97g&#xA;6nS8I4o8k3mljhieWQ0RASx9hm5yZBCJkeQcOMSTQYte+YL2dz6LGGL9lV+19JzkdV2vlyH0nhi7&#xA;bFpIxG+5UrfXNShcN6xkHdH+IH+OVYe1M8DfFfvZT00COVMg/Tlt+jvrlN68fSrvz/lzo/5Ux+B4&#xA;vwrz7nX/AJaXHwsRYszFm3YmpJ8c42RJNnm7cBrIpRekFhqdsV68wPoOx/DM3s8kZ4V3tOo+gp75&#xA;oZxYIB9kyDl9xzoO3SfBHdxfoLgaEes+5i+ck7V2Ksk8qlvQnX9kMCPmRv8AqzqOwCeCQ6W63XDc&#xA;J5m/cB2KuxV2KuxV2KuxV2KuxV2KuxVgl2Wa6mLfaLtWvjXPPtQSckiedl32P6R7lLKWatYs63sB&#xA;T7XqLT7xmRpSRljXPiH3sMo9JvuZN5kZxpjBehdQ3y6/rzqe2iRpzXeHV6MfvGJ5xzt3Yq3ybjxr&#xA;8Na07VyVmq6IpONa0WeOd7i3QvC55Mq7lSeu3hm67T7MnGZnAXE/Y4em1IIo80nVWZuKglvADfNK&#xA;IkmhzcwlkOgaPLFILu4XgwH7qM9d9qnOk7J7NlCXiTFdwdfqtQCOGKb31ml3avA+3L7LeDDoc3Or&#xA;0wzYzA9XDxZDCVsNu7C6tHKTIQOz/sn5HOJ1GkyYTUh+p3OPLGY2LVtZ3Ny4SCMue57D5nI4NNky&#xA;moC0zyRiLJZhplgtlarCDyavJ28WOdrotIMGMR69fe6bNl45Wisy2p2KuxV2KuxV2KuxV2KuxV2K&#xA;uxVjmu6NN67XVuhdH3kRdyG7mngc5jtXs2XGckBYPMOy0upFcMkj4ty40PLpTvmh4TddXPtPdC0a&#xA;YTLdXKlFTeNDsSfEjtTOg7K7NkJDJMVXIOv1WpFcMU9u7aO5t5IH+y4pXwPY/Qc3+owjLAwPIuDj&#xA;mYyBDDb3TrqzkKyoeP7Mg+yfpzidVosmE1Ibd/R3OPNGY2Ure1uLhwkMZdj4DYfM9sqw4J5DUBbO&#xA;cxEWSyL/AA6v6M9DkPrVfU59uVKcflnSfyOPy/Bf7znfn3e5135v95f8L//Z</xmpGImg:image>
               </rdf:li>
            </rdf:Alt>
         </xmp:Thumbnails>
         <xmpTPg:MaxPageSize rdf:parseType="Resource">
            <stDim:w>1000.000000</stDim:w>
            <stDim:h>1000.000000</stDim:h>
            <stDim:unit>Pixels</stDim:unit>
         </xmpTPg:MaxPageSize>
         <xmpTPg:NPages>1</xmpTPg:NPages>
         <xmpTPg:HasVisibleTransparency>False</xmpTPg:HasVisibleTransparency>
         <xmpTPg:HasVisibleOverprint>False</xmpTPg:HasVisibleOverprint>
         <xmpTPg:PlateNames>
            <rdf:Seq>
               <rdf:li>Cyan</rdf:li>
               <rdf:li>Magenta</rdf:li>
               <rdf:li>Yellow</rdf:li>
            </rdf:Seq>
         </xmpTPg:PlateNames>
         <xmpTPg:SwatchGroups>
            <rdf:Seq>
               <rdf:li rdf:parseType="Resource">
                  <xmpG:groupName>預設色票群組</xmpG:groupName>
                  <xmpG:groupType>0</xmpG:groupType>
                  <xmpG:Colorants>
                     <rdf:Seq>
                        <rdf:li rdf:parseType="Resource">
                           <xmpG:swatchName>R=255 G=204 B=84</xmpG:swatchName>
                           <xmpG:type>PROCESS</xmpG:type>
                           <xmpG:tint>100.000000</xmpG:tint>
                           <xmpG:mode>RGB</xmpG:mode>
                           <xmpG:red>255</xmpG:red>
                           <xmpG:green>205</xmpG:green>
                           <xmpG:blue>71</xmpG:blue>
                        </rdf:li>
                     </rdf:Seq>
                  </xmpG:Colorants>
               </rdf:li>
            </rdf:Seq>
         </xmpTPg:SwatchGroups>
         <dc:format>image/svg+xml</dc:format>
         <xmpMM:DerivedFrom rdf:parseType="Resource">
            <stRef:instanceID>xmp.iid:3d9bb3a9-8426-446b-a6fb-6e81517307d3</stRef:instanceID>
            <stRef:documentID>xmp.did:3d9bb3a9-8426-446b-a6fb-6e81517307d3</stRef:documentID>
            <stRef:originalDocumentID>xmp.did:f59a532d-5494-41df-998c-357af674267c</stRef:originalDocumentID>
         </xmpMM:DerivedFrom>
         <xmpMM:DocumentID>xmp.did:2ec33082-0315-4b8b-aa54-adac1664d745</xmpMM:DocumentID>
         <xmpMM:InstanceID>xmp.iid:2ec33082-0315-4b8b-aa54-adac1664d745</xmpMM:InstanceID>
         <xmpMM:OriginalDocumentID>xmp.did:f59a532d-5494-41df-998c-357af674267c</xmpMM:OriginalDocumentID>
         <xmpMM:History>
            <rdf:Seq>
               <rdf:li rdf:parseType="Resource">
                  <stEvt:action>saved</stEvt:action>
                  <stEvt:instanceID>xmp.iid:f59a532d-5494-41df-998c-357af674267c</stEvt:instanceID>
                  <stEvt:when>2026-03-13T11:17:58+08:00</stEvt:when>
                  <stEvt:softwareAgent>Adobe Illustrator 30.2 (Macintosh)</stEvt:softwareAgent>
                  <stEvt:changed>/</stEvt:changed>
               </rdf:li>
               <rdf:li rdf:parseType="Resource">
                  <stEvt:action>saved</stEvt:action>
                  <stEvt:instanceID>xmp.iid:2ec33082-0315-4b8b-aa54-adac1664d745</stEvt:instanceID>
                  <stEvt:when>2026-03-13T11:22:52+08:00</stEvt:when>
                  <stEvt:softwareAgent>Adobe Illustrator 30.2 (Macintosh)</stEvt:softwareAgent>
                  <stEvt:changed>/</stEvt:changed>
               </rdf:li>
            </rdf:Seq>
         </xmpMM:History>
      </rdf:Description>
   </rdf:RDF>
</x:xmpmeta>
                                                                                                    
                                                                                                    
                                                                                                    
                                                                                                    
                                                                                                    
                                                                                                    
                                                                                                    
                                                                                                    
                                                                                                    
                                                                                                    
                                                                                                    
                                                                                                    
                                                                                                    
                                                                                                    
                                                                                                    
                                                                                                    
                                                                                                    
                                                                                                    
                                                                                                    
                                                                                                    
                           
<?xpacket end="w"?>
  </metadata>
</svg>