<?xml version="1.0" encoding="UTF-8"?>
<svg id="_圖層_1" xmlns="http://www.w3.org/2000/svg" version="1.1" viewBox="0 0 1000 1000">
  <!-- Generator: Adobe Illustrator 30.2.1, SVG Export Plug-In . SVG Version: 2.1.1 Build 1)  -->
  <path d="M234.147,88.477c0,22.16-17.964,40.124-40.123,40.124s-40.124-17.964-40.124-40.124,17.964-40.123,40.124-40.123,40.123,17.964,40.123,40.123Z" fill="#ffcd48"/>
  <path d="M336.139,88.477c0,22.16-17.964,40.124-40.123,40.124s-40.124-17.964-40.124-40.124,17.964-40.123,40.124-40.123,40.123,17.964,40.123,40.123Z" fill="#ffcd48"/>
  <path d="M744.108,88.477c0,22.16-17.964,40.124-40.122,40.124s-40.124-17.964-40.124-40.124,17.964-40.123,40.124-40.123,40.122,17.964,40.122,40.123Z" fill="#ffcd48"/>
  <path d="M846.1,88.477c0,22.16-17.964,40.124-40.123,40.124s-40.124-17.964-40.124-40.124,17.964-40.123,40.124-40.123,40.123,17.964,40.123,40.123Z" fill="#ffcd48"/>
  <path d="M234.147,191.358c0,22.16-17.964,40.124-40.123,40.124s-40.124-17.964-40.124-40.124,17.964-40.123,40.124-40.123,40.123,17.962,40.123,40.123Z" fill="#ffcd48"/>
  <path d="M336.139,191.358c0,22.16-17.964,40.124-40.123,40.124s-40.124-17.964-40.124-40.124,17.964-40.123,40.124-40.123,40.123,17.962,40.123,40.123Z" fill="#ffcd48"/>
  <path d="M438.131,191.358c0,22.16-17.963,40.124-40.123,40.124s-40.124-17.964-40.124-40.124,17.964-40.123,40.124-40.123,40.123,17.962,40.123,40.123Z" fill="#ffcd48"/>
  <path d="M642.116,191.358c0,22.16-17.964,40.124-40.124,40.124s-40.122-17.964-40.122-40.124,17.964-40.123,40.122-40.123,40.124,17.962,40.124,40.123Z" fill="#ffcd48"/>
  <path d="M744.108,191.358c0,22.16-17.964,40.124-40.122,40.124s-40.124-17.964-40.124-40.124,17.964-40.123,40.124-40.123,40.122,17.962,40.122,40.123Z" fill="#ffcd48"/>
  <path d="M846.1,191.358c0,22.16-17.964,40.124-40.123,40.124s-40.124-17.964-40.124-40.124,17.964-40.123,40.124-40.123,40.123,17.962,40.123,40.123Z" fill="#ffcd48"/>
  <g>
    <path d="M234.147,294.239c0,22.16-17.964,40.124-40.123,40.124s-40.124-17.964-40.124-40.124,17.964-40.123,40.124-40.123,40.123,17.962,40.123,40.123Z" fill="#ffcd48"/>
    <path d="M336.139,294.239c0,22.16-17.964,40.124-40.123,40.124s-40.124-17.964-40.124-40.124,17.964-40.123,40.124-40.123,40.123,17.962,40.123,40.123Z" fill="#ffcd48"/>
    <path d="M438.131,294.239c0,22.16-17.963,40.124-40.123,40.124s-40.124-17.964-40.124-40.124,17.964-40.123,40.124-40.123,40.123,17.962,40.123,40.123Z" fill="#ffcd48"/>
    <path d="M540.124,294.239c0,22.16-17.964,40.124-40.124,40.124s-40.123-17.964-40.123-40.124,17.964-40.123,40.123-40.123,40.124,17.962,40.124,40.123Z" fill="#ffcd48"/>
    <path d="M642.116,294.239c0,22.16-17.964,40.124-40.124,40.124s-40.122-17.964-40.122-40.124,17.964-40.123,40.122-40.123,40.124,17.962,40.124,40.123Z" fill="#ffcd48"/>
    <path d="M744.108,294.239c0,22.16-17.964,40.124-40.122,40.124s-40.124-17.964-40.124-40.124,17.964-40.123,40.124-40.123,40.122,17.962,40.122,40.123Z" fill="#ffcd48"/>
    <path d="M846.1,294.239c0,22.16-17.964,40.124-40.123,40.124s-40.124-17.964-40.124-40.124,17.964-40.123,40.124-40.123,40.123,17.962,40.123,40.123Z" fill="#ffcd48"/>
  </g>
  <path d="M234.147,397.119c0,22.16-17.964,40.124-40.123,40.124s-40.124-17.964-40.124-40.124,17.964-40.123,40.124-40.123,40.123,17.962,40.123,40.123Z" fill="#ffcd48"/>
  <path d="M336.139,397.119c0,22.16-17.964,40.124-40.123,40.124s-40.124-17.964-40.124-40.124,17.964-40.123,40.124-40.123,40.123,17.962,40.123,40.123Z" fill="#ffcd48"/>
  <path d="M540.124,397.119c0,22.16-17.964,40.124-40.124,40.124s-40.123-17.964-40.123-40.124,17.964-40.123,40.123-40.123,40.124,17.962,40.124,40.123Z" fill="#ffcd48"/>
  <path d="M744.108,397.119c0,22.16-17.964,40.124-40.122,40.124s-40.124-17.964-40.124-40.124,17.964-40.123,40.124-40.123,40.122,17.962,40.122,40.123Z" fill="#ffcd48"/>
  <path d="M846.1,397.119c0,22.16-17.964,40.124-40.123,40.124s-40.124-17.964-40.124-40.124,17.964-40.123,40.124-40.123,40.123,17.962,40.123,40.123Z" fill="#ffcd48"/>
  <path d="M234.147,500c0,22.16-17.964,40.123-40.123,40.123s-40.124-17.962-40.124-40.123,17.964-40.124,40.124-40.124,40.123,17.964,40.123,40.124Z" fill="#ffcd48"/>
  <path d="M336.139,500c0,22.16-17.964,40.123-40.123,40.123s-40.124-17.962-40.124-40.123,17.964-40.124,40.124-40.124,40.123,17.964,40.123,40.124Z" fill="#ffcd48"/>
  <path d="M540.124,500c0,22.16-17.964,40.123-40.124,40.123s-40.123-17.962-40.123-40.123,17.964-40.124,40.123-40.124,40.124,17.964,40.124,40.124Z" fill="#ffcd48"/>
  <path d="M744.108,500c0,22.16-17.964,40.123-40.122,40.123s-40.124-17.962-40.124-40.123,17.964-40.124,40.124-40.124,40.122,17.964,40.122,40.124Z" fill="#ffcd48"/>
  <path d="M846.1,500c0,22.16-17.964,40.123-40.123,40.123s-40.124-17.962-40.124-40.123,17.964-40.124,40.124-40.124,40.123,17.964,40.123,40.124Z" fill="#ffcd48"/>
  <path d="M234.147,602.881c0,22.16-17.964,40.123-40.123,40.123s-40.124-17.962-40.124-40.123,17.964-40.124,40.124-40.124,40.123,17.964,40.123,40.124Z" fill="#ffcd48"/>
  <path d="M336.139,602.881c0,22.16-17.964,40.123-40.123,40.123s-40.124-17.962-40.124-40.123,17.964-40.124,40.124-40.124,40.123,17.964,40.123,40.124Z" fill="#ffcd48"/>
  <path d="M744.108,602.881c0,22.16-17.964,40.123-40.122,40.123s-40.124-17.962-40.124-40.123,17.964-40.124,40.124-40.124,40.122,17.964,40.122,40.124Z" fill="#ffcd48"/>
  <path d="M846.1,602.881c0,22.16-17.964,40.123-40.123,40.123s-40.124-17.962-40.124-40.123,17.964-40.124,40.124-40.124,40.123,17.964,40.123,40.124Z" fill="#ffcd48"/>
  <path d="M234.147,705.761c0,22.16-17.964,40.123-40.123,40.123s-40.124-17.962-40.124-40.123,17.964-40.124,40.124-40.124,40.123,17.964,40.123,40.124Z" fill="#ffcd48"/>
  <path d="M336.139,705.761c0,22.16-17.964,40.123-40.123,40.123s-40.124-17.962-40.124-40.123,17.964-40.124,40.124-40.124,40.123,17.964,40.123,40.124Z" fill="#ffcd48"/>
  <path d="M744.108,705.761c0,22.16-17.964,40.123-40.122,40.123s-40.124-17.962-40.124-40.123,17.964-40.124,40.124-40.124,40.122,17.964,40.122,40.124Z" fill="#ffcd48"/>
  <path d="M846.1,705.761c0,22.16-17.964,40.123-40.123,40.123s-40.124-17.962-40.124-40.123,17.964-40.124,40.124-40.124,40.123,17.964,40.123,40.124Z" fill="#ffcd48"/>
  <path d="M234.147,808.642c0,22.158-17.964,40.123-40.123,40.123s-40.124-17.964-40.124-40.123,17.964-40.124,40.124-40.124,40.123,17.964,40.123,40.124Z" fill="#ffcd48"/>
  <path d="M336.139,808.642c0,22.158-17.964,40.123-40.123,40.123s-40.124-17.964-40.124-40.123,17.964-40.124,40.124-40.124,40.123,17.964,40.123,40.124Z" fill="#ffcd48"/>
  <path d="M744.108,808.642c0,22.158-17.964,40.123-40.122,40.123s-40.124-17.964-40.124-40.123,17.964-40.124,40.124-40.124,40.122,17.964,40.122,40.124Z" fill="#ffcd48"/>
  <path d="M846.1,808.642c0,22.158-17.964,40.123-40.123,40.123s-40.124-17.964-40.124-40.123,17.964-40.124,40.124-40.124,40.123,17.964,40.123,40.124Z" fill="#ffcd48"/>
  <path d="M234.147,911.523c0,22.158-17.964,40.123-40.123,40.123s-40.124-17.964-40.124-40.123,17.964-40.124,40.124-40.124,40.123,17.964,40.123,40.124Z" fill="#ffcd48"/>
  <path d="M336.139,911.523c0,22.158-17.964,40.123-40.123,40.123s-40.124-17.964-40.124-40.123,17.964-40.124,40.124-40.124,40.123,17.964,40.123,40.124Z" fill="#ffcd48"/>
  <path d="M744.108,911.523c0,22.158-17.964,40.123-40.122,40.123s-40.124-17.964-40.124-40.123,17.964-40.124,40.124-40.124,40.122,17.964,40.122,40.124Z" fill="#ffcd48"/>
  <path d="M846.1,911.523c0,22.158-17.964,40.123-40.123,40.123s-40.124-17.964-40.124-40.123,17.964-40.124,40.124-40.124,40.123,17.964,40.123,40.124Z" fill="#ffcd48"/>
  <metadata><?xpacket begin="﻿" id="W5M0MpCehiHzreSzNTczkc9d"?>
<x:xmpmeta xmlns:x="adobe:ns:meta/" x:xmptk="Adobe XMP Core 10.0-c000 1.000000, 0000/00/00-00:00:00        ">
   <rdf:RDF xmlns:rdf="http://www.w3.org/1999/02/22-rdf-syntax-ns#">
      <rdf:Description rdf:about=""
            xmlns:xmp="http://ns.adobe.com/xap/1.0/"
            xmlns:xmpGImg="http://ns.adobe.com/xap/1.0/g/img/"
            xmlns:xmpTPg="http://ns.adobe.com/xap/1.0/t/pg/"
            xmlns:stDim="http://ns.adobe.com/xap/1.0/sType/Dimensions#"
            xmlns:xmpG="http://ns.adobe.com/xap/1.0/g/"
            xmlns:dc="http://purl.org/dc/elements/1.1/"
            xmlns:xmpMM="http://ns.adobe.com/xap/1.0/mm/"
            xmlns:stRef="http://ns.adobe.com/xap/1.0/sType/ResourceRef#"
            xmlns:stEvt="http://ns.adobe.com/xap/1.0/sType/ResourceEvent#">
         <xmp:CreatorTool>Adobe Illustrator 30.2 (Macintosh)</xmp:CreatorTool>
         <xmp:CreateDate>2026-03-13T11:23:06+08:00</xmp:CreateDate>
         <xmp:MetadataDate>2026-03-13T11:23:06+08:00</xmp:MetadataDate>
         <xmp:ModifyDate>2026-03-13T11:23:06+08:00</xmp:ModifyDate>
         <xmp:Thumbnails>
            <rdf:Alt>
               <rdf:li rdf:parseType="Resource">
                  <xmpGImg:width>196</xmpGImg:width>
                  <xmpGImg:height>256</xmpGImg:height>
                  <xmpGImg:format>JPEG</xmpGImg:format>
                  <xmpGImg:image>/9j/4AAQSkZJRgABAgEAAAAAAAD/7QAsUGhvdG9zaG9wIDMuMAA4QklNA+0AAAAAABAAAAAAAAEA&#xA;AQAAAAAAAQAB/+4ADkFkb2JlAGTAAAAAAf/bAIQABgQEBAUEBgUFBgkGBQYJCwgGBggLDAoKCwoK&#xA;DBAMDAwMDAwQDA4PEA8ODBMTFBQTExwbGxscHx8fHx8fHx8fHwEHBwcNDA0YEBAYGhURFRofHx8f&#xA;Hx8fHx8fHx8fHx8fHx8fHx8fHx8fHx8fHx8fHx8fHx8fHx8fHx8fHx8fHx8f/8AAEQgBAADEAwER&#xA;AAIRAQMRAf/EAaIAAAAHAQEBAQEAAAAAAAAAAAQFAwIGAQAHCAkKCwEAAgIDAQEBAQEAAAAAAAAA&#xA;AQACAwQFBgcICQoLEAACAQMDAgQCBgcDBAIGAnMBAgMRBAAFIRIxQVEGE2EicYEUMpGhBxWxQiPB&#xA;UtHhMxZi8CRygvElQzRTkqKyY3PCNUQnk6OzNhdUZHTD0uIIJoMJChgZhJRFRqS0VtNVKBry4/PE&#xA;1OT0ZXWFlaW1xdXl9WZ2hpamtsbW5vY3R1dnd4eXp7fH1+f3OEhYaHiImKi4yNjo+Ck5SVlpeYmZ&#xA;qbnJ2en5KjpKWmp6ipqqusra6voRAAICAQIDBQUEBQYECAMDbQEAAhEDBCESMUEFURNhIgZxgZEy&#xA;obHwFMHR4SNCFVJicvEzJDRDghaSUyWiY7LCB3PSNeJEgxdUkwgJChgZJjZFGidkdFU38qOzwygp&#xA;0+PzhJSktMTU5PRldYWVpbXF1eX1RlZmdoaWprbG1ub2R1dnd4eXp7fH1+f3OEhYaHiImKi4yNjo&#xA;+DlJWWl5iZmpucnZ6fkqOkpaanqKmqq6ytrq+v/aAAwDAQACEQMRAD8A9Ba1rU8k729u5SFDxZl2&#xA;LEdd/DOU7T7TnKZhA1Efa7TTaYAWeaThmVuSkhhuCOuaUSINjm5hDIdA1iWWQWlw3NiP3Uh67b0O&#xA;dJ2T2lKcvDmb7i6/VacAcUU3vrxLS1ed9+P2V8WPQZudXqRhxmZ6OHixmcqYbd391duXmckdk/ZH&#xA;yGcTqNXkzG5H9TuceKMBsGra8ubZw8EhQ9x2PzGRwanJiNwNJnjjIUQzDTL9b21WYDi1eLr4MM7X&#xA;RasZ8Yl16+902bFwSpFZltTsVdirsVdirsVdirsVdirsVdirG9d1mb1mtbdyiJtI67Et3FfAZzHa&#xA;vaUuM44GgOZdlpdMK4pJJyblyqeXWvfNDxG76ufSe6FrMxmW1uWLq+0bncg+BPeudB2V2lIyGOZu&#xA;+RdfqtMK4op7d3MdtbyTv9lBWniew+k5v9RmGKBmeQcHHAykAGG3uo3V5IWlc8f2Yx9kfRnE6rW5&#xA;MxuR27ujuceGMBspW91cW7h4ZCjDwOx+Y75Vhzzxm4Gmc4CQohkX+Il/Rnr8R9ar6fDtypXl8s6T&#xA;+WB+X46/ecq8+/3Ou/KfvK/hY0wZWKtswNCD45y8gQaPN2QLWRSi9IDHU7YL15g/QNz+GZvZ4Jzw&#xA;rvadR9BT3zQrmwQj7IkHL7jnQdug+CO7i/QXA0J9Z9zF85J2rsVZJ5VDehO37JYAfMDf9edR2ADw&#xA;SPS3W647hPM37gOxV2KuxV2KuxV2KuxV2KuxV2KsEuwy3Uwb7Qdq18a559qARkkDzsu+x/SPcpZS&#xA;zVrFXa9gCfa9RafeMyNKCcsa58Q+9hlPpN9zJvMiudMYr0DqW+XT9edT20CdOa7w6vRn94xPOOdu&#xA;7FW+LceVPhrSvauSo1fRFsh1jQJJZWuLQAs+8kXTfxFc6TtLsmU5GePrzDr9PqgBwySgaRqZbiLZ&#xA;6+4oPvO2aYdn5ya4C5f5iHen+i6KbM+vPQzkUVRuFB67+OdD2Z2Z4Prn9f3OBqdTx7DkmVzbx3ED&#xA;wyCqOKH+ubTNhjkgYS5FxYTMTYYrd6BqEDkIhmj/AGXTc/SOucjqOyc2M7DiHk7bHqoSG+xW22ha&#xA;jO4DRmJO7vtT6OpyODsrPM0RwjvKZ6qERztlVnaRWlusEX2V6k9ST1JzrtNp44YCEejqcmQzNlWy&#xA;9g7FXYq7FXYq7FXYq7FXYq7FXYqkmtaE9xIbm2p6p+3GduVO4Pjmh7T7KOSXHj+rqO9ztNqhEcMu&#xA;SS/onUuXH6s9flt9/TNH/J+e64C5v5iHeE70XQ2tnFxc09YD4EG/GvcnxzfdmdlnEeOf1dB3ODqd&#xA;VxDhjyTeaKOaJ4pBVHBDD2ObnJjE4mJ5Fw4yINhi175fvYHPoqZov2WX7X0jOR1XZGXGfSOKLtsW&#xA;rjIb7FSt9D1KZwvomMd3f4QP45Vh7LzzNcNe9lPUwA52yD9B236O+p13ry9Wm/P+bOj/AJLx+B4X&#xA;xvz73X/mZcfEi7q9trWPnO4QHoOpPyAzM1Gpx4RczTTjxymaAS9fM2ml+JEgH8xUU/A1zXDtzATX&#xA;q+X7XIOin5JnBPDPGJIXDoejDNpiyxyR4omw40omJor8sYoC71zT7VzGzl5B9pUFafTsM12o7Uw4&#xA;jRNnycjHppyFrbXX9OuHCBjGx6CQUr9IJGRwdrYMhq+E+aZ6WcRfNMc2bjLZZY4ozJIwRF6sdhkM&#xA;mSMBcjQTGJJoJW/mbTVfiBI4/mCin4kHNVLtvADXqPw/a5Q0U/JHWl/aXaloJA1PtL0YfMHM/T6v&#xA;HmFwNtGTFKHMIjMlrdirsVdiriabnpiqWXHmLTYXKhmlI6mMAj7yRmqzdsYIGrMvc5UNJM+StZ6x&#xA;Y3bcI34yHojihPy7HL9N2jhzGonfuLDJp5w3PJG5nNClc3VvbR+pO4Re1ep+Q75TmzwxR4pmgzhA&#xA;yNBLv8Tadz40kp/NxFP11zW/y5guvV8v2uR+Sn5Jlb3MFzGJIHDoe47fMZs8OeGWPFA2HGnAxNFU&#xA;y1igrzWbC0YpI5aQdUQVI+fbMDU9pYcJqRuXcG/Hppz3HJSt/MOmzOE5NET09QUH3gkZVh7YwTNW&#xA;Y+9lPSTj5plUUr28c2luMwfULx7u6eZjsTRB4KOgzgtZqTmyGR+Hud7ixiEaQ+YrYmWgXjwX6R1P&#xA;pTHiy+/Y5teyNSceYR/hlt+pxdXjEoX1Cfa7ePa2BMZpJIQinuK1JP3DOg7V1JxYbjzOzgaXGJT3&#xA;6MPzincuxVlfl28e4sikhq8J41PUqemdh2NqTkxUecdvh0dTrMYjKx1SvzJePLeG3B/dQ028WIqT&#xA;+OantrUmWXg/hj97laPGBHi6lKM0rmKtpdS2twk0ZoyncdiO4OX6fPLFMSj0YZICQos6R1dFdfss&#xA;AR8jnfRkJAEdXREUabySHYq7FUl8zXjxwR26GnrVLn/JHb6c0XbmpMYCA/i5+5ztFjBJkejGc5V2&#xA;bgSpBBoRuCPHCCQbCs10q7a6sIpW+3Ti/wA1NK/TndaDUHLhEjz6ukz4+CZDF9XvHur6Qk/AhKRr&#xA;2ABp+Ocn2jqTlyknkNg7TT4xGAQWYDejtFvHtr6Oh/dykJIvYgmgP0ZsOzNScWYd0ti0anGJQPeG&#xA;Tavdta2EkibSGiofAt3+jOp7R1BxYTIc+QdXp8fHMAsLJJJJNSdyTnDk3uXduwKj/wBL3H6M+pVP&#xA;WnPv6f8AL9+bH+UZ+B4X2+Xd+Ojj/lxx8X4tC3ds9tcyQON0NPmOx+nMTUYTimYHo245iUQQpZSz&#xA;R+h2zzalEVHwxHm58AOn45seysJnnjXKO7j6qYjA+ae+YrZ5tPLIKmFg5HtQg/rzoO2cBnhsfwm3&#xA;A0cxGe/Viecc7d2Kso8s2zx2bysKes1VH+Su1c63sPCY4jI/xH7nVa2YMq7kr8xWzxai0hHwTAMp&#xA;9wACM1HbOEwzmXSTl6OYMK7krzUuUvhhkmlSKMVdzRR88sx4zOQiOZRKQAss7ijEcSRjoihR9Apn&#xA;oGOHDEDuDoJGza7JodirsVSHzTbOyQ3CiqpVH9q9M57t7ASIzHIbFz9DMWYsdzmXZOxVmWi2z2+n&#xA;RI4o7Vdh4cjX9Wdx2ZgOPBEHnz+bpdTMSmSGLalbPb300bD9osp8VJqDnJa3CceWUT3/AGO1wzEo&#xA;AobMRtRelWz3F/CiioVg7nwVTU5m6DAcmaIHfZ9wac8+GBLJtdtnuNOkVBV0IcDxp1/DOp7VwHJg&#xA;IHMbus0s+GYth2cS7l2Kon6hP9Q+uU/dc+P0ePyrtmV+Un4Pi/w3X7f0NXijj4erLNQ0u1vlHqgq&#xA;6/ZkXqPbOw1egx5x6ufe6nFnlDklg8qJy+K5JXwCUP31OasdgC957e79rlfnz3JvZ2NvZxenAtAd&#xA;2Y7kn3ObnTaWGGPDAOHkyymbKvmQ1pPd+WrSZy8LmAnqoHJfoG2aXUdiY5m4nh+0OZj1sgKO7Vr5&#xA;YtY3DTSGanRacR9O5yODsPHE3M8X2JnrZEbCk5AAAAFANgBm7ArYOEo3VpBdRGKZeSnceIPiDlWf&#xA;Twyx4ZiwzhkMDYSd/KkZb4LkhfAoCfvBGaSXYAvae3u/a5o156hMNP0e0sviQF5TsZG6/R4ZstH2&#xA;djwbjeXeXGy6iU+fJHZntDsVdirsVadEkQo6hkYUZTuCMjKAkKO4KQSDYSW48rW7uWhmaJT+yRzA&#xA;+W4zR5uwYE3GXD9v6nNhriBuLVrHy9aWziSRjNIu68hRQfGm+X6XsfHiPEfUfs+TDLq5SFDZNc27&#xA;iIW/022vUCzA8l+y67MMxNXosecVL59W3FmlA7JX/hROVfrJ4+HDf76/wzUfyAL+vb3ftcv8+e5N&#xA;bHTrayjKQruftOd2PzzcaXR48EaiPj1cTLmlM7onMpqSm98uWlw5kjYwO3Wgqv3bZp9V2NjyG4nh&#xA;P2fJy8eslEUd1K38rWyOGmlaUD9kDgD89zlWHsKETc5GX2M566RGwpOfSi9L0uA9KnHhTanhTN14&#xA;ceHhr09zhcRu+qVatry2jmCBQ84+0T9lfu6nNT2h2sMJ4IC5fYHL0+l4xZ5JSvmPVA1SykfylRT8&#xA;N8047a1F3Y+TlnR4090rV4r5SpHCdRVk7EeIzf8AZ/aMdQK5THRwM+nOP3I6WWOKNpJDxRBVifAZ&#xA;nzmIRMjsA0RiSaDG7vzPcu5FsojjHRmFWP8ADOY1HbmQn92OEfa7PHoogerdba+ZrxHH1hVlj70H&#xA;Fh8qbZHB25lifWBIfIrPRRI22ZLBPFPCs0R5I4qDnUYssckRKPIutlExNFC6pqsNhGCRzlf7Ef8A&#xA;E+2Ymu18dPHvkeQbcGA5D5JA/mTU2aoZVH8oUU/GpznZdtZybBA+DsBo8aZaV5gFxIsFyoSRtkcf&#xA;ZJ8CD0ObXQdr+JIQmKkeRcXPpOEXHknWbxwkh1LzIY5GhtFDFTRpW3Ff8kZz2t7a4ZGOMcuv6nPw&#xA;6OxckDF5k1JWBcrIvdSoH6qZgQ7azg70fg3y0cDyZFp2ow30HqR7MNpEPVTnS6PWRzw4hz6juddm&#xA;wmBoql3dw2kDTSmir0A6k9gMs1GojhgZS5MceMzNBjc/ma/dyYgsSdhTkfpJzmMvbeaR9NRHzdlD&#xA;RQA33V7HzNMHCXahkO3qKKEe5HfL9L25IGso27wwy6IV6WRKysoZTVSKgjuDnTAgiw60hLNW1tLI&#xA;+lGokuCKkHoo981XaHagwemO8/ucrT6Yz3PJJv8AEeqcq81p/LxFP65pP5Z1F3Y+Tm/k8adaTrUd&#xA;7+6dfTuAK0HRh7ZvOz+0xn9JFT+/3OFqNMYbjkmTMqKWY0VRViegAzaSkALPJxgLY5e+ZpmcraKE&#xA;jHR2FWP0dBnMartyZNYxQ7y7LHohXqUrfzNfI49YLKncU4n6CMqw9t5on1VIfJlPRQI22T79KWf1&#xA;L65y/deHev8ALTxzofz2LwvFv0/jb3uB4EuLh6sMkkaSRpGNWclmPuTXOHnMykZHmXdAUKW5BKM0&#xA;eRk1O3KmlXCn5NsczuzpmOeFd/3tOoFwKe+Z5HXT1VejyAN8gCafeM6DtyZGEAdZOBohc/gxbORd&#xA;q7FWSeVZGNvNGfsowK/7Ib/qzqewZkwkOgP3us1w9QKV6/Iz6pMCdk4qo8BQH+OajtaZlqJX0ofY&#xA;5elFYwl+a1yHAkEEGhG4OEGlZpdzyDSZJhtIYeXyJX+GdzqMsvyxn14P0OkxxHiAebC84V3bsVTb&#xA;yzIy6gUB+F0PIfLcZuew5kZq7w4mtHoRPmuRudvH+xRm+Z2GZPb8zcY9Ny1aAcykGc67B2Ksv8vy&#xA;M+lx8t+BZQfYHbO07ImZacX0sOn1YrIWLXsjSXczsasztX785LUzMskie8u1xiogKOUM1fT5Gjvo&#xA;HXqJF/E0IzJ0kzHLEj+cGvKLiR5Mm8xSOmmOF/bZVY+3X+GdT2zMxwGupAdZoxeRiWca7d2KrvWk&#xA;9H0a/u+XPj25UpXLPElw8P8ADdo4Rd9UfrOlyWlwzqpNu5qjDoK/snM/tLQywzJA9B5fqcfTZxMV&#xA;1S7NY5Kd+XtLladbyVSsSbx1/aPSvyGb7sfQyMxlkPSOXm4OrzgDhHNO9Usvrlm8INH+1GT05DN7&#xA;rtL4+Ix69Pe4ODLwSthk0MsMjRyqUdeqnOIyYpQlwyFEO6jISFhqON5HCRqWdtgo3JwQgZGgLKSQ&#xA;BZZho9gbKzCP/euecnsT2+jO17N0ngYqP1Hcum1GXjlfRLPMemStJ9chUsCKTAdRTo33Zqu2dDIy&#xA;8WIvv/W5WjziuEpBnOOwRul6ZLezqKEQKf3j9qeA98z9BoZZ5/0OpaM+YQHmzGSJJImiYfAylSPY&#xA;imdrPGJRMTyIp0wkQbYVf2E9lMY5B8P7D9mGcNq9JPBLhly6Hvd3iyiYsIbMVtZL5d0ySANdTKVd&#xA;xxRD1C9ST886nsbQyx3kmKJ5e51msziXpCI13TXvLZWiFZoqlR4g9RmR2rojmgDH6otelzCEt+RY&#xA;kysrFWBDDYg7EZxxBBou3BVba1nuZRFCpZz9w9yctwYJ5ZcMRZYTmIiyzSxtVtbWOBTXgNz4k7k/&#xA;fnc6XAMWMQHR0uWfHIljeu6ZLBcvcIpMEp5VH7LHqDnMdq6GWOZmB6JfY7LS5xKNHmEqzTuWm+ga&#xA;XLNcJcyKVgiPJSf2mHSnyzddk6GU5jIR6I/aXD1WcCPCOZZDf2i3dpJATQsPhbwI3GdJq9OM2Mw7&#xA;3XYsnBIFhdxbTW8pimUq48e/uM4bNhljlwyFF3cJiQsLFVnYKoLMdgBuSchGJJoc0k0nn+HZf0XW&#xA;n+mV58fan2M338jS/L/7bz/Y4P5weJ/RZGwUghgCD1B6Z0xAI3daEIltpPq/BHB6ngAta/LMOOHT&#xA;8WwhxfBuM8lbk0i8zWl2KqVxFaOv+kKjKO8gFB9+U5oY5D1gV5s4SkPptq2iskBNssYHcxgfrGDB&#xA;jxAfuxH4Us5SP1WrZewdiqg9hYu3J7eNm8So/HbMeWkxSNmEb9wbBlmORKsqqqhVAVR0A2GXxiAK&#xA;DAm28KFsiROhEqqydwwBH45CcYkVIAjzSCQdkPbwaYr1gSHmO6Baj7sx8WLAD6BC/Kmycp1vaKzL&#xA;anYqpTWlrMaywpIfFlBP35Tk0+Of1RB+DOOSUeRXRQwxLxiRY18FAA/DJ48UYCogD3IlInmV+TYu&#xA;IBFDuD1GJCoT6tpPq/3cHqeFEr92YXg6bi5Q4vg3ceSuZpFgU2HTM1pdiqnPHbOn+kKjIP5wCPxy&#xA;rLCEh6wCPNlEyB2WW0NgvxWyRjxaML+sZDBjwjfGI/CmU5TP1Wr5kNbE9a1eW5neGNituh40H7VO&#xA;pOcf2n2hLLMxifQPtdtptOIizzSvNQ5afeX9WlMws52Lqw/dMeoI3pXOi7I7QkZeFM3fL9Tr9Xpx&#xA;XEE51G9WztHnIqRsi+LHpm71mpGHGZ/L3uHhx8cqYbc3U9zIZJnLsfHoPYDtnEZs88suKRsu5hAR&#xA;FBbBPNBIJIXKOOhGRxZZY5cUTRTKIkKLMdJvxe2glIpIp4yAeI7/AE523Z+r8fHxdeRdNnxcEq6I&#xA;zM1pdirsVakdY0Z3NFQFmPsNzkZyEQSeQSBZphmo6ncXspLErED8EXYD3984jW66eeVn6egd1hwC&#xA;A80GrMpDKSCOhGxzCBINhuIZR5f1WS6Vrec8poxVX7svTf3GdZ2Rr5ZQYT+ofaHVavAI7jknGbpw&#xA;3Yq7FXYqxjXdXmkne2hYrDGeL02LMOtfbOU7V7QlKZxxNRHPzLtNLpwBxHmk2aNzU60HV5UnS1mY&#xA;tFJ8MZO5Vuw+Rze9k9oSjMY5G4nl5FwdVpwRxDmyC9uktbWSdtwg2HiTsB9+dHqc4xYzM9HX44GU&#xA;gGF3d7cXcpkmcsey9h7AZw+o1M80uKRd3jxxgKCnFLJE4eNijjowNDlUMkoG4miylEEUU/8A8RN+&#xA;i+e31yvp+3SvOn+e+dF/LJ/L3/lOX7fx1df+T/eV/Cx90ZHZGFGUkMPcZzkomJIPMOwBsW1kUovS&#xA;EZtTtwoqQ4J+Q3OZvZ0Sc8K72nUGoFPfNCO1gjD7KSAt9IIrnQduxJwgjpL9bgaI+v4MXzknauxV&#xA;knlVGFvO5+yXAHzA3/XnUdgRPBI9LdZrjuE8zfuC7FXYqhtTRn0+4VPtGNqAfLpmLromWGYHPhLb&#xA;hNTHvYRnBO8diqa+WUY6jyA2VG5H50GbjsSJOe+4FxNafR8WV517qXYq7FXYqwS8Rku5lYUYO1fv&#xA;zz/UxIySB52XfYzcR7lLKGavYo73sCp9oyLT78yNJEyyxA58Qa8pqJ9zJvMaM2mMV6Kylvl0/jnU&#xA;9tRJwGuhDrNGf3jEs4527sVb9N/T9SnwV48u1aVpk+A1xdEWLpkur6AbiQ3FsQJG+3GdgT4g+OdP&#xA;2j2SckuPH9XUOt0+q4RUuSUDQdVLcfQI9yy0/XmmHZWoJrh+0OX+ax96faPoy2NZZCHuGFKjoo8B&#xA;nQ9ndmjB6pbzP2OBqNTx7DkmE8Mc8TxSDkjijDNjlxRyRMZci48ZGJsMYu/Ll9E59ACaPsQQGHzB&#xA;zldR2LlgfR6o/a7THrIkb7FbbeXdQlcCVRCndmIJ+gA5HB2NmmfUOEJnrIAbbsntbaK2gWGIURBt&#xA;4n3OdXgwRxQEI8g6uczI2VXLWDsVdirsVY7qXlyX1Gls6FW3MRNCD7V2pnNa3sWXEZYuR6fqdjh1&#xA;gqpIGPQNUdwpi4DuzMKD7iTmBDsnUSNcNe8uRLV4x1ZJpemRWEJVTykfeR/GnYe2dNodDHTxobyP&#xA;Musz5jkPkjMzml2KuxV2KpRrGh/W39eAhZ6UZT0anv45pu0uyvGPHDaf3uZp9VwbHkkv6C1Xlx9A&#xA;/PktP15ov5K1F1w/aP1ub+ax96d6PoYs29eYh56UUDotf45vuzuy/BPHPef3ODqNTx7DkmkkaSRt&#xA;G45IwIYHuDm2nASBB5FxQSDYYze+W7uNybb99EegqAw+dc5XU9i5In936o/a7THrIkerYqVv5e1K&#xA;VwHQQp3diD+AJynD2PnkdxwjzZT1cANt0/8A0PafUPqVDw68/wBrn/N886P+Tsfg+F07+t97r/zE&#xA;uPiVb3UbWzQNO1CfsoN2PyGW6rWY8AuZ+HVjjwymdkuXzTaFqGGQL47E/dXNYO3sd7xlTknQy7wm&#xA;ttdQXUQlgcOp6+IPgRm3waiGWPFA2HEnjMTRVcuYJZd+YbG3cxrWZxseFKD6Tmq1HbGHGaHqPk5W&#xA;PSTkL5LbXzHYTOEflCT0LU4/eMjg7awzNG4+/kmejnHcbprm3cR2KuxV2KuxVBX+r2dkeMhLSdfT&#xA;Tc/T4Zg6vtHFg2lvLuDfi08p8uSDi80WbNSSN0H82x++mYMO3cRNEEN0tDLoU3iljljWSNg6NuGH&#xA;TNzjyRmOKJsFw5RINFdk0OxV2KuxVQvL62tI+c78Qfsr1J+QzH1Oqx4Y3MtmPFKZoJZ/iq05U9GT&#xA;j47V+6uar+Xsd/TKvg5X5GXeEztL22u4/UgfkBsw6EH3GbXT6mGaPFA24uTHKBoq+ZDWl17r1jau&#xA;Y6mWQdVToD7k5rNT2tixHh+qXk5OPSzkL5BSt/MtjK4WRWhr0ZqFfvGU4e28MjUrj9zOeimOW6a8&#xA;1486jhSvKu1PGubjiFX0cSujB726e6upJnP2j8I8F7DOB1Wc5chmervMUBCIAUMx2xMdBung1CNQ&#xA;fgmPB1+fQ/Qc2fZOc48wHSWxcbVYxKB8k98wXb2+nngaPKwjBHUAgk/qzoO19QceHbnI04GkxiU9&#xA;+jEc4x3DsVZV5bu3msmic1MB4qf8k9M67sXUGeIxP8P3Oq1mMCVjqm2blw3Yq7FVK7n9C1lm6+mp&#xA;YD3A2ynUZfDxyl3BnjjxSAYNJI8kjSOSzsasT3JzgZzMiSdyXegACgtyCU78r3TrcPbE1jdSyjwY&#xA;f1Gb7sLUETOPoRfxcHW4xXEyXOpdY7FXYq7FWFardPc30rsdlYqg8FBoM4XX5zlyyJ76Hud3gxiM&#xA;AEJmE3IzR7t7a/iYH4XYJIOxDGn4Zndnag4s0SORNH4tGoxiUCybWrp7bT5HQ0kaiKfAt3+7Oq7T&#xA;znFhJHM7Os02MSmAWG5xDunYFRf6Tn/R31Kp48q1/wAn+X78zfz0/A8Lpf2d3zafBHHxKd7ava3U&#xA;kLj7J+E+K9jlWqwHFkMD0ZYpicQQoZjtiY6DavPqEbAfBCebt8ug+k5s+ycByZgekdy42qyCMD5p&#xA;75gtHuNPPAVeJhIAOpABB/XnQdr6c5MO3OJtwNJkEZ79WI5xjuHYqyry3aPDZNK4oZzyUf5I6Z13&#xA;YunMMRkf4vudVrMgMqHRNs3LhuxV2KqV3B69rLD09RSoPuRtlOoxeJjlHvDPHLhkCwaSN45GjcFX&#xA;U0YHsRnAzgYkg7EO9BBFhbkEp35XtXa4e5IpGilVPix/oM33YWnJmcnQCvi4OtyCuFkudS6x2Kux&#xA;V2KsK1W1e2vpUYbMxZD4qTUZwuvwHFlkD32Pc7vBkEoAoTMJuRmj2j3N/EoHwoweQ9gFNfxzO7O0&#xA;5y5ogcgbPwaNRkEYFk2tWr3OnyIgrItHUeJXt92dV2ngOXCQOY3dZpsgjMEsNziHdOwKi/0ZP+jv&#xA;rtDx5Up/k/zffmb+Rn4Hi9L+zv8Am0+MOPhZZe6da3iBZ1qR9lxsw+RzsNVo8ecVMfHq6nHmlA7J&#xA;cvla0DVM0hXw2B++mawdg473lKnJOul3BNba1gtYhFAgRR18SfEnNvg08MUeGAoOJPIZGyq5cwSy&#xA;78vWNw5kWsLnc8KUP0HNVqOx8OQ2PSfJysernEVzW2vlywhcO/KYjoGpx+4ZHB2LhgbNy9/JM9ZO&#xA;Ww2TXNu4jsVdirsVdiqCv9Is708pAVk6eomx+nxzB1fZ2LPvLaXeG/FqJQ5ckHF5Xs1askjuP5dh&#xA;99MwYdhYgbJJbpa6XQJvFFHFGscahEXYKOmbnHjjAcMRQDhykSbK7JodirsVdiqheWNtdx8J05Af&#xA;ZboR8jmPqdLjzRqYbMeWUDYSz/Ctpyr60nHw2r99M1X8g47+qVfByvz0u4JnaWVtaR+nAnEHdj1J&#xA;Puc2un00MMeGApxcmSUzZV8yGtLr3QbG6cyUMUh6snQn3BzWansnFlPF9MvJyceqnEVzClb+WrGJ&#xA;w0jNNTorUC/cMpw9iYYm5XL7mc9bM8tk14Lx4UHClONNqeFM3HCKro4l9Um1fXzbyG3tgDIv25Du&#xA;AfADxzR9o9rHHLgx/V1Lm6fS8QuXJKBr2qhuXrk+xVafqzTDtXUA3xfYHL/K4+5PtH1lb6scgCXC&#xA;itB0YeIzoezu0hn9Mtpj7XA1Gm4NxyTCeaOCJ5ZDxRBVjmxy5Y44mUuQceMTI0GMXfmO+lc+gRDH&#xA;2AALH5k5yuo7ayzPo9Mftdpj0cQN9yttvMWoRODKwmTurAA/QQMjg7ZzQPqPEEz0cCNtmT2tzFcw&#xA;LNEao428R7HOrwZ45YCceRdXOBiaKrlrB2KuxV2KuxV2KuxV2KuxV2KuxVKNY1z6o/oQANPSrMei&#xA;19vHNN2l2r4J4Ibz+5zNPpePc8kl/Tuq8uXrn5cVp+rNF/Kuou+L7B+pzfyuPuTvR9cF43oTAJPS&#xA;qkdGp/HN92d2p4x4J7T+9wdRpuDcck0kkSONpHPFFBLE9gM205iIJPIOKASaDGb3zJdyORbfuYh0&#xA;NAWPzrnK6ntrJI/u/TH7XaY9HED1blSt/MOpROC7iZO6MAPxAGU4e2M8TueIebKekgRtsn/6YtPq&#xA;H12p4dOH7XP+X550f8o4/B8Xp3db7nX/AJeXHwsOd2d2djVmJLH3OcTKRkSTzLuQKFNZFKL0h2XU&#xA;7cqaEuAfkdjmb2dIjPCu9p1AuBT3zQ7rYIo+y8gDfQCaZ0HbsiMIA6y/W4GiHr+DF85J2rsVZJ5V&#xA;djbzofshwR8yN/1Z1HYEjwSHS3Wa4bhPM37guxV2KuxV2KuxV2KuxV2KuxV2KsEvHZ7uZmNWLtX7&#xA;88/1Mickiedl32MVEe5Syhmr2Lul7AyfaEi0+/MjSSMcsSOfEGvKLifcybzG7LpjBejMob5df4Z1&#xA;PbUiMBrqQ6zRj94xLOOdu7FW/Uf0/Tr8FeXHtWlK5PjNcPRFC7TPWtIltp3mjUtbueVR+zXqDm07&#xA;T7PlimZRHoP2OLptQJCjzSvNQ5afeX9JlEwvJ1KKo/dKepJ2rTOi7I7PkJeLMVXL9br9XqBXCE51&#xA;GyW8tHgJoTujeDDpm71mmGbGYfL3uHhycErYbc2s9tIY5kKMPHofcHvnEZsE8UuGQou5hMSFhbBB&#xA;NPII4ULuegGRxYpZJcMRZTKQiLLMdJsBZWgiJrIx5SEeJ7fRnbdn6TwMfD15l02fLxyvojMzWl2K&#xA;uxV2KuxV2KuxV2KuxV2KuxVjGu6RNHO9zCpaGQ8npuVY9a+2cp2r2fKMzkiLiefkXaaXUAjhPNJs&#xA;0bmp1oOkSvOl1MpWKP4owdizdj8hm97J7PlKYySFRHLzLg6rUADhHNkF7apdWskDbBxsfAjcH786&#xA;PU4BlxmB6uvxzMZAsLu7K4tJTHMhU9m7H3Bzh9Rpp4ZcMg7vHkjMWFOKKSVwkal3PRQKnKoY5TNR&#xA;FllKQAsp/wD4db9F8NvrlfU9ulOFf8986L+Rj+Xr/Kc/2fjq6/8AOfvL/hT9ioBLEADqT0zoSQBu&#xA;68IRLnSfV+CSD1PEFa1+eYcc2n4tjDi+DcYZK3BpF5mtLsVUriW0Rf8ASGRVPaQih+/Kc08cR6yK&#xA;82cIyP021bS2Tgi2aMjuIyP1DBgyYiP3Zj8KWcZD6rVsvYOxV2KuxV2KuxV2KuxV2KuxV2KuxVxI&#xA;AqdgOpxJVCfWdJ9X+8g9TxqlfvzC8bTcXOHF8G7gyVyNIsGu46ZmtLsVU55LZE/0hkVD/OQB+OVZ&#xA;ZwiPWQB5soiROyy2msG+G2eM+Kxlf1DIYMmE7YzH4UynGY+q1fMhrYhrOqSXdwyKxFuhoijoaftH&#xA;OL7S10s0yAfQOX63cabAIC+qXZrHJTvy9qkqzrZysWifaOv7J60+Rzfdj66QmMUj6Ty8nB1eAEcQ&#xA;5p3ql79Ts3mAq/2YwenI5vddqvAxGXXp73BwYuOVMMmmlmkaSVi7t1Y5xGTLKcuKRsl3UYiIoNRy&#xA;PG4eNirruGGxGCEzE2DRSQCKLMNHvze2Yd/71Dwk9yO/052vZur8fFZ+obF02oxcEq6I7M9odirs&#xA;VdirsVdirsVdirsVdirsVYprupyz3L26MRBEeNB+0w6k5yHauulkmYA+iP2u20uARjZ5lKs07lpv&#xA;oGqSw3CW0jFoJTxUH9lj0p883XZOulCYxk+iX2Fw9VgBjxDmGQ392tpaSTkVKj4V8SdhnSavUDDj&#xA;M+512LHxyAYXcXM1xKZZmLOfHt7DOGzZpZJcUjZd3CAiKCxWZGDKSrDcEbEHIRkQbHNJFp5/iKX9&#xA;F0r/AKZXhy9qfbzffyzL8v8A7by/a4P5MeJ/RSSSNo5GjYUZCVYe4NM0U4GMjE8w5wNi1uQSjNHj&#xA;Z9TtworRwx+S7nM7s6BlnhXf9zTqDUCnvmeN209WXokgLfIgiv3nOg7cgThBHSTgaI1P4MWzkXau&#xA;xVknlWNhbzyH7LMAP9iN/wBedT2DAiEj0JdZrj6gE8zfOC7FXYq7FXYq7FXYq7FXYq7FXYqwW9ja&#xA;O7mRhRldq/fnn+pgY5JA95d9jNxBUcoZq+nxtJfQIvUyL+BqTmTpIGWWIH84NeU1EnyZN5ijd9Mc&#xA;r+wysw9un8c6ntmBlgNdCC6zRmsjEs4127sVXejJ6PrU/d8uHLtypWmWeHLh4v4bpHELrqyfVtBW&#xA;7czwMEnP2gfst93Q51XaHZIzHjgal9hdXp9VwCjySlfLmqFqFVA/mLCn4b5px2LqLqh83LOsxp7p&#xA;WkRWKliec7CjP2A8Bm/7P7OjpxfOZ6uBn1Bye5HSxRyxtHIOSOKMD4HM+cBOJidwWiMiDYY3d+WL&#xA;lHJtmEkZ6Kxow/hnMajsPID+7PEPtdnj1sSPVsttfLN47j6wyxR96Hkx+VNsjg7DyyPrIiPmVnrY&#xA;gbbslggighWGIcUQUAzqMWKOOIjHkHWykZGyvyxi7FXYq7FXYq7FXYq7FXYq7FXYqleraIl6fVjY&#xA;R3AFCT0Ye+antDssZ/VHaf3uVp9SYbHkk3+HNU5U4LT+bkKf1zSfyNqLqh83N/OY060nRY7L967e&#xA;pcEUqOij2zedn9mDB6ibn93ucLUakz2HJMmVXUqwqrCjA9CDm0lEEUeTjA0xy98szK5a0YPGeiMa&#xA;MPp6HOY1XYcwbxmx3F2WPWivUpW/lm+dx6xWJO5ryP0AZVh7EzSPqqI+bKetgBtun36Ls/qX1Pj+&#xA;68e9f5q+OdD+RxeF4Ven8b+9wPHlxcXV2oapa2Kj1SWdvsxr1Pvg1evx4B6ufcuLBKfJLB5rTl8V&#xA;sQviHqfuoM1Y7fF7w29/7HK/IHvTezvre8i9SBqgbMp2IPuM3Om1UM0eKBcPJilA0VfMhrSe78y2&#xA;kLlIUM5HVgeK/Qd80uo7bxwNRHF9gczHopEWdmrXzPayOFmjMNejV5D6dhkcHbmORqY4ftTPRSA2&#xA;NpyCCAQag7gjN2De4cJ2FXYq7FXYq7FXYq7FXYq7FXYq7FULf6lbWSBpieTfZRd2OYmr1uPALl8u&#xA;rbiwymdkr/xWnKn1Y8fHnv8AdT+Oaj+Xxf0be/8AY5f5A96a2Oo217GXhbcfaQ7MPnm40usx543E&#xA;/Dq4mXDKB3ROZTUlN75jtLdzHGpndetDRfv3zT6rtnHjNRHEfs+bl49HKQs7KVv5ptncLNE0QP7Q&#xA;PMD57DKsPbsJGpxMftZz0MgNjac+rF6Xq8x6VOXOu1PGubrxI8PFfp73C4TddWDXdy9zcyTud3Nf&#xA;kOw+jOB1GY5ZmZ6u9xwEYgBSylmj9DuXh1KIKfhlPBx4g9PxzY9lZjDPGuUtnH1UBKB8k+8xXLw6&#xA;eVQ0aVghPtQk/qzoO2c5hhofxGnA0cBKe/RiWcc7d2Kso8s3LyWbxMa+i1FP+S29M63sPMZYjE/w&#xA;n73Va2AEr704zdOG7FXYq7FXYq7FXYq7FXYq7FXYqwjUrl7i+mkY/tFVHgoNAM4PW5jkyyke/wCx&#xA;3mGAjABDZiNqL0q5e3v4XU0BYK48VY0OZugznHmiR30fcWnPDigQybXbl7fTpGQ0dyEB8K9fwzqe&#xA;1c5x4CRzOzrNLDimLYdnEu5diqJ+vz/UPqdf3XPl9Hh8q75lfm5+D4X8N3+z9LV4Q4+Lq1qFm9pd&#xA;PCw2Bqh8VPQ46zTHDkMT8PcnFkE42h8xWxMtAs3nv0kofShPJm9+wza9kaY5Mwl/DHf9Ti6vIIwr&#xA;qU+12ze6sCIxWSMh1Hc0qCPuOdB2rpjlw1HmN3A0uQRnv1YfnFO5dirK/Ltm9vZF5BR5jyoeoUdM&#xA;7DsbTHHis85b/Do6nWZBKVDomubdxHYq7FXYq7FXYq7FXYq7FXYq7FWGavZva30gI+ByXjbsQTX8&#xA;M4ftHTHFlIPI7h3WnyCUAgswG9HaLZvc30dB+7iIeRuwANQPpzYdmaY5cw7o7lo1OQRge8sm1e0a&#xA;6sJI03kFGQeJXt9OdT2jpzlwmI58w6vT5OCYJYWQQSCKEbEHOHIrYu7dgVH/AKIuP0Z9doeteHf0&#xA;/wCb782P8nT8Dxfs8u/8dHH/ADA4+H8Wyu6sra6j4ToHA6HoR8jnX59Njyipi3U48koGwUvXyzpo&#xA;fkTIR/KWFPwFc1w7DwA36vn+xyDrZ+SZwQQwRiOFAiDoozaYsUcceGIoONKRkbK/LGKAu9D0+6cy&#xA;MhSQ/aZDSv0bjNdqOy8OU2RR8nIx6mcRS210DTrdw4UyMOhkNafQABkcHZODGbriPmmeqnIVyTHN&#xA;m4zsVdirsVdirsVdirsVdirsVdirsVUrm1t7mP050Dr2r1HyPbKc2CGWPDMWGcJmJsJd/hnTufKs&#xA;lP5eQp+qua3+Q8F36vn+xyPzs/JMre2gtoxHAgRB2Hf5nNnhwQxR4YCg405mRsqmWsUFeaNYXbF5&#xA;EKyHq6GhPz7Zgans3DmNyFS7w349TOGw5KVv5e02Fw/FpSOnqGo+4ADKsPY+CBujL3sp6ucvJMqC&#xA;lO3hm0pxkh1jX5IpWt7QgMm0kvXfwFc57tLtaUJGGPpzLsNPpQRxSSgavqYbkLl6+5qPuO2aYdoZ&#xA;wb4y5f5eHcn+i60bw+hPQTgVVhsGA67eOdD2Z2n43on9f3uBqdNwbjkmVzcR28DzSGiIKn+mbTNm&#xA;jjgZy5BxYQMjQYrd6/qE7ko5hj/ZRNj9J65yOo7WzZDseEeTtselhEb7lbba7qMDgtIZU7o+9fp6&#xA;jI4O1c8DZPEO4pnpYSHKmVWd3Fd26zxfZbqD1BHUHOu02ojmgJx6upyYzA0VbL2DsVdirsVdirsV&#xA;dirsVdirsVdiqSa1rr28htranqj7ch3417AeOaHtPtU45cGP6up7nO02lEhxS5JL+ltS5cvrL1+e&#xA;33dM0f8AKGe74y5v5eHcE70XXGuXFvc09Yj4HG3KnYjxzfdmdqHKeCf1dD3uDqdLwjijyTeaWOGJ&#xA;5ZDREBLH2GbnJkEImR5Bw4xJNBi175gvZ3PosYYv2VX7X0nOR1Xa+XIfSeGLtsWkjEb7lSt9c1KF&#xA;w3rGQd0f4gf45Vh7UzwN8V+9lPTQI5UyD9OW36O+uU3rx9Ku/P8Alzo/5Ux+B4vwrz7nX/lpcfCx&#xA;FizMWbdiaknxzjZEk2ebtwGsilF6QWGp2xXrzA+g7H8MzezyRnhXe06j6CnvmhnFggH2TIOX3HOg&#xA;7dJ8Ed3F+guBoR6z7mL5yTtXYqyTyqW9Cdf2QwI+ZG/6s6jsAngkOlut1w3CeZv3AdirsVdirsVd&#xA;irsVdirsVdirsVYJdlmupi32i7Vr41zz7UEnJInnZd9j+ke5SylmrWLOt7AU+16i0+8ZkaUkZY1z&#xA;4h97DKPSb7mTeZGcaYwXoXUN8uv686ntokac13h1ejH7xiecc7d2Kt8m48a/DWtO1clZquiKTjWt&#xA;Fnjne4t0LwueTKu5Unrt4Zuu0+zJxmZwFxP2OHptSCKPNJwrM3FQSx2AHXNKIkmhzcwlkOgaPLFI&#xA;Lu4XgwH7qM9d9qnOk7J7NlCXiTFdwdfqtQCOGKb31ml3avA+3L7LeDDoc3Or0wzYzA9XDxZDCVsN&#xA;u7C6tHKTIQOz/sn5HOJ1GkyYTUh+p3OPLGY2LVtZ3Ny4SCMue57D5nI4NNkymoC0zyRiLJZhplgt&#xA;larCDyavJ28WOdrotIMGMR69fe6bNl45Wisy2p2KuxV2KuxV2KuxV2KuxV2KuxVjmu6NN67XVuhd&#xA;H3kRdyG7mngc5jtXs2XGckBYPMOy0upFcMkj4ty40PLpTvmh4TddXPtPdC0aYTLdXKlFTeNDsSfE&#xA;jtTOg7K7NkJDJMVXIOv1WpFcMU9u7aO5t5IH+y4pXwPY/Qc3+owjLAwPIuDjmYyBDDb3TrqzkKyo&#xA;eP7Mg+yfpzidVosmE1Ibd/R3OPNGY2Ure1uLhwkMZdj4DYfM9sqw4J5DUBbOcxEWSyL/AA6v6M9D&#xA;kPrVfU59uVKcflnSfyOPy/Bf7znfn3e5135v95f8L//Z</xmpGImg:image>
               </rdf:li>
            </rdf:Alt>
         </xmp:Thumbnails>
         <xmpTPg:MaxPageSize rdf:parseType="Resource">
            <stDim:w>1000.000000</stDim:w>
            <stDim:h>1000.000000</stDim:h>
            <stDim:unit>Pixels</stDim:unit>
         </xmpTPg:MaxPageSize>
         <xmpTPg:NPages>1</xmpTPg:NPages>
         <xmpTPg:HasVisibleTransparency>False</xmpTPg:HasVisibleTransparency>
         <xmpTPg:HasVisibleOverprint>False</xmpTPg:HasVisibleOverprint>
         <xmpTPg:PlateNames>
            <rdf:Seq>
               <rdf:li>Cyan</rdf:li>
               <rdf:li>Magenta</rdf:li>
               <rdf:li>Yellow</rdf:li>
            </rdf:Seq>
         </xmpTPg:PlateNames>
         <xmpTPg:SwatchGroups>
            <rdf:Seq>
               <rdf:li rdf:parseType="Resource">
                  <xmpG:groupName>預設色票群組</xmpG:groupName>
                  <xmpG:groupType>0</xmpG:groupType>
                  <xmpG:Colorants>
                     <rdf:Seq>
                        <rdf:li rdf:parseType="Resource">
                           <xmpG:swatchName>R=255 G=204 B=84</xmpG:swatchName>
                           <xmpG:type>PROCESS</xmpG:type>
                           <xmpG:tint>100.000000</xmpG:tint>
                           <xmpG:mode>RGB</xmpG:mode>
                           <xmpG:red>255</xmpG:red>
                           <xmpG:green>205</xmpG:green>
                           <xmpG:blue>71</xmpG:blue>
                        </rdf:li>
                     </rdf:Seq>
                  </xmpG:Colorants>
               </rdf:li>
            </rdf:Seq>
         </xmpTPg:SwatchGroups>
         <dc:format>image/svg+xml</dc:format>
         <xmpMM:DerivedFrom rdf:parseType="Resource">
            <stRef:instanceID>xmp.iid:2ec33082-0315-4b8b-aa54-adac1664d745</stRef:instanceID>
            <stRef:documentID>xmp.did:2ec33082-0315-4b8b-aa54-adac1664d745</stRef:documentID>
            <stRef:originalDocumentID>xmp.did:f59a532d-5494-41df-998c-357af674267c</stRef:originalDocumentID>
         </xmpMM:DerivedFrom>
         <xmpMM:DocumentID>xmp.did:a9e41376-136b-46bd-9dff-134a949d3b17</xmpMM:DocumentID>
         <xmpMM:InstanceID>xmp.iid:a9e41376-136b-46bd-9dff-134a949d3b17</xmpMM:InstanceID>
         <xmpMM:OriginalDocumentID>xmp.did:f59a532d-5494-41df-998c-357af674267c</xmpMM:OriginalDocumentID>
         <xmpMM:History>
            <rdf:Seq>
               <rdf:li rdf:parseType="Resource">
                  <stEvt:action>saved</stEvt:action>
                  <stEvt:instanceID>xmp.iid:f59a532d-5494-41df-998c-357af674267c</stEvt:instanceID>
                  <stEvt:when>2026-03-13T11:17:58+08:00</stEvt:when>
                  <stEvt:softwareAgent>Adobe Illustrator 30.2 (Macintosh)</stEvt:softwareAgent>
                  <stEvt:changed>/</stEvt:changed>
               </rdf:li>
               <rdf:li rdf:parseType="Resource">
                  <stEvt:action>saved</stEvt:action>
                  <stEvt:instanceID>xmp.iid:a9e41376-136b-46bd-9dff-134a949d3b17</stEvt:instanceID>
                  <stEvt:when>2026-03-13T11:23:06+08:00</stEvt:when>
                  <stEvt:softwareAgent>Adobe Illustrator 30.2 (Macintosh)</stEvt:softwareAgent>
                  <stEvt:changed>/</stEvt:changed>
               </rdf:li>
            </rdf:Seq>
         </xmpMM:History>
      </rdf:Description>
   </rdf:RDF>
</x:xmpmeta>
                                                                                                    
                                                                                                    
                                                                                                    
                                                                                                    
                                                                                                    
                                                                                                    
                                                                                                    
                                                                                                    
                                                                                                    
                                                                                                    
                                                                                                    
                                                                                                    
                                                                                                    
                                                                                                    
                                                                                                    
                                                                                                    
                                                                                                    
                                                                                                    
                                                                                                    
                                                                                                    
                           
<?xpacket end="w"?>
  </metadata>
</svg>