<?xml version="1.0" encoding="UTF-8"?>
<svg id="_圖層_1" xmlns="http://www.w3.org/2000/svg" version="1.1" viewBox="0 0 1000 1000">
  <!-- Generator: Adobe Illustrator 30.2.1, SVG Export Plug-In . SVG Version: 2.1.1 Build 1)  -->
  <path d="M336.139,88.478c0,22.158-17.964,40.123-40.124,40.123s-40.123-17.964-40.123-40.123,17.964-40.124,40.123-40.124,40.124,17.964,40.124,40.124Z" fill="#ffcd48"/>
  <path d="M438.131,88.478c0,22.158-17.964,40.123-40.123,40.123s-40.124-17.964-40.124-40.123,17.964-40.124,40.124-40.124,40.123,17.964,40.123,40.124Z" fill="#ffcd48"/>
  <path d="M540.123,88.478c0,22.158-17.964,40.123-40.123,40.123s-40.124-17.964-40.124-40.123,17.964-40.124,40.124-40.124,40.123,17.964,40.123,40.124Z" fill="#ffcd48"/>
  <path d="M642.114,88.478c0,22.158-17.962,40.123-40.123,40.123s-40.124-17.964-40.124-40.123,17.964-40.124,40.124-40.124,40.123,17.964,40.123,40.124Z" fill="#ffcd48"/>
  <path d="M744.108,88.478c0,22.158-17.964,40.123-40.124,40.123s-40.122-17.964-40.122-40.123,17.964-40.124,40.122-40.124,40.124,17.964,40.124,40.124Z" fill="#ffcd48"/>
  <g>
    <path d="M234.147,191.359c0,22.158-17.964,40.123-40.124,40.123s-40.123-17.964-40.123-40.123,17.962-40.124,40.123-40.124,40.124,17.964,40.124,40.124Z" fill="#ffcd48"/>
    <path d="M336.139,191.359c0,22.158-17.964,40.123-40.124,40.123s-40.123-17.964-40.123-40.123,17.964-40.124,40.123-40.124,40.124,17.964,40.124,40.124Z" fill="#ffcd48"/>
    <path d="M438.131,191.359c0,22.158-17.964,40.123-40.123,40.123s-40.124-17.964-40.124-40.123,17.964-40.124,40.124-40.124,40.123,17.964,40.123,40.124Z" fill="#ffcd48"/>
    <path d="M540.123,191.359c0,22.158-17.964,40.123-40.123,40.123s-40.124-17.964-40.124-40.123,17.964-40.124,40.124-40.124,40.123,17.964,40.123,40.124Z" fill="#ffcd48"/>
    <path d="M642.114,191.359c0,22.158-17.962,40.123-40.123,40.123s-40.124-17.964-40.124-40.123,17.964-40.124,40.124-40.124,40.123,17.964,40.123,40.124Z" fill="#ffcd48"/>
    <path d="M744.108,191.359c0,22.158-17.964,40.123-40.124,40.123s-40.122-17.964-40.122-40.123,17.964-40.124,40.122-40.124,40.124,17.964,40.124,40.124Z" fill="#ffcd48"/>
    <path d="M846.1,191.359c0,22.158-17.964,40.123-40.124,40.123s-40.123-17.964-40.123-40.123,17.964-40.124,40.123-40.124,40.124,17.964,40.124,40.124Z" fill="#ffcd48"/>
  </g>
  <path d="M234.147,294.24c0,22.158-17.964,40.123-40.124,40.123s-40.123-17.964-40.123-40.123,17.962-40.124,40.123-40.124,40.124,17.964,40.124,40.124Z" fill="#ffcd48"/>
  <path d="M336.139,294.24c0,22.158-17.964,40.123-40.124,40.123s-40.123-17.964-40.123-40.123,17.964-40.124,40.123-40.124,40.124,17.964,40.124,40.124Z" fill="#ffcd48"/>
  <path d="M744.108,294.24c0,22.158-17.964,40.123-40.124,40.123s-40.122-17.964-40.122-40.123,17.964-40.124,40.122-40.124,40.124,17.964,40.124,40.124Z" fill="#ffcd48"/>
  <path d="M846.1,294.24c0,22.158-17.964,40.123-40.124,40.123s-40.123-17.964-40.123-40.123,17.964-40.124,40.123-40.124,40.124,17.964,40.124,40.124Z" fill="#ffcd48"/>
  <path d="M234.147,397.12c0,22.158-17.964,40.123-40.124,40.123s-40.123-17.964-40.123-40.123,17.962-40.124,40.123-40.124,40.124,17.964,40.124,40.124Z" fill="#ffcd48"/>
  <path d="M336.139,397.12c0,22.158-17.964,40.123-40.124,40.123s-40.123-17.964-40.123-40.123,17.964-40.124,40.123-40.124,40.124,17.964,40.124,40.124Z" fill="#ffcd48"/>
  <path d="M234.147,500.001c0,22.158-17.964,40.123-40.124,40.123s-40.123-17.964-40.123-40.123,17.962-40.124,40.123-40.124,40.124,17.964,40.124,40.124Z" fill="#ffcd48"/>
  <path d="M336.139,500.001c0,22.158-17.964,40.123-40.124,40.123s-40.123-17.964-40.123-40.123,17.964-40.124,40.123-40.124,40.124,17.964,40.124,40.124Z" fill="#ffcd48"/>
  <path d="M540.123,500.001c0,22.158-17.964,40.123-40.123,40.123s-40.124-17.964-40.124-40.123,17.964-40.124,40.124-40.124,40.123,17.964,40.123,40.124Z" fill="#ffcd48"/>
  <path d="M642.114,500.001c0,22.158-17.962,40.123-40.123,40.123s-40.124-17.964-40.124-40.123,17.964-40.124,40.124-40.124,40.123,17.964,40.123,40.124Z" fill="#ffcd48"/>
  <path d="M744.108,500.001c0,22.158-17.964,40.123-40.124,40.123s-40.122-17.964-40.122-40.123,17.964-40.124,40.122-40.124,40.124,17.964,40.124,40.124Z" fill="#ffcd48"/>
  <path d="M846.1,500.001c0,22.158-17.964,40.123-40.124,40.123s-40.123-17.964-40.123-40.123,17.964-40.124,40.123-40.124,40.124,17.964,40.124,40.124Z" fill="#ffcd48"/>
  <path d="M234.147,602.88c0,22.16-17.964,40.124-40.124,40.124s-40.123-17.964-40.123-40.124,17.962-40.123,40.123-40.123,40.124,17.964,40.124,40.123Z" fill="#ffcd48"/>
  <path d="M336.139,602.88c0,22.16-17.964,40.124-40.124,40.124s-40.123-17.964-40.123-40.124,17.964-40.123,40.123-40.123,40.124,17.964,40.124,40.123Z" fill="#ffcd48"/>
  <path d="M744.108,602.88c0,22.16-17.964,40.124-40.124,40.124s-40.122-17.964-40.122-40.124,17.964-40.123,40.122-40.123,40.124,17.964,40.124,40.123Z" fill="#ffcd48"/>
  <path d="M846.1,602.88c0,22.16-17.964,40.124-40.124,40.124s-40.123-17.964-40.123-40.124,17.964-40.123,40.123-40.123,40.124,17.964,40.124,40.123Z" fill="#ffcd48"/>
  <path d="M234.147,705.76c0,22.16-17.964,40.124-40.124,40.124s-40.123-17.964-40.123-40.124,17.962-40.123,40.123-40.123,40.124,17.964,40.124,40.123Z" fill="#ffcd48"/>
  <path d="M336.139,705.76c0,22.16-17.964,40.124-40.124,40.124s-40.123-17.964-40.123-40.124,17.964-40.123,40.123-40.123,40.124,17.964,40.124,40.123Z" fill="#ffcd48"/>
  <path d="M744.108,705.76c0,22.16-17.964,40.124-40.124,40.124s-40.122-17.964-40.122-40.124,17.964-40.123,40.122-40.123,40.124,17.964,40.124,40.123Z" fill="#ffcd48"/>
  <path d="M846.1,705.76c0,22.16-17.964,40.124-40.124,40.124s-40.123-17.964-40.123-40.124,17.964-40.123,40.123-40.123,40.124,17.964,40.124,40.123Z" fill="#ffcd48"/>
  <g>
    <path d="M234.147,808.641c0,22.16-17.964,40.124-40.124,40.124s-40.123-17.964-40.123-40.124,17.962-40.123,40.123-40.123,40.124,17.964,40.124,40.123Z" fill="#ffcd48"/>
    <path d="M336.139,808.641c0,22.16-17.964,40.124-40.124,40.124s-40.123-17.964-40.123-40.124,17.964-40.123,40.123-40.123,40.124,17.964,40.124,40.123Z" fill="#ffcd48"/>
    <path d="M438.131,808.641c0,22.16-17.964,40.124-40.123,40.124s-40.124-17.964-40.124-40.124,17.964-40.123,40.124-40.123,40.123,17.964,40.123,40.123Z" fill="#ffcd48"/>
    <path d="M540.123,808.641c0,22.16-17.964,40.124-40.123,40.124s-40.124-17.964-40.124-40.124,17.964-40.123,40.124-40.123,40.123,17.964,40.123,40.123Z" fill="#ffcd48"/>
    <path d="M642.114,808.641c0,22.16-17.962,40.124-40.123,40.124s-40.124-17.964-40.124-40.124,17.964-40.123,40.124-40.123,40.123,17.964,40.123,40.123Z" fill="#ffcd48"/>
    <path d="M744.108,808.641c0,22.16-17.964,40.124-40.124,40.124s-40.122-17.964-40.122-40.124,17.964-40.123,40.122-40.123,40.124,17.964,40.124,40.123Z" fill="#ffcd48"/>
    <path d="M846.1,808.641c0,22.16-17.964,40.124-40.124,40.124s-40.123-17.964-40.123-40.124,17.964-40.123,40.123-40.123,40.124,17.964,40.124,40.123Z" fill="#ffcd48"/>
  </g>
  <path d="M336.139,911.522c0,22.16-17.964,40.124-40.124,40.124s-40.123-17.964-40.123-40.124,17.964-40.123,40.123-40.123,40.124,17.964,40.124,40.123Z" fill="#ffcd48"/>
  <path d="M438.131,911.522c0,22.16-17.964,40.124-40.123,40.124s-40.124-17.964-40.124-40.124,17.964-40.123,40.124-40.123,40.123,17.964,40.123,40.123Z" fill="#ffcd48"/>
  <path d="M540.123,911.522c0,22.16-17.964,40.124-40.123,40.124s-40.124-17.964-40.124-40.124,17.964-40.123,40.124-40.123,40.123,17.964,40.123,40.123Z" fill="#ffcd48"/>
  <path d="M642.114,911.522c0,22.16-17.962,40.124-40.123,40.124s-40.124-17.964-40.124-40.124,17.964-40.123,40.124-40.123,40.123,17.964,40.123,40.123Z" fill="#ffcd48"/>
  <path d="M744.108,911.522c0,22.16-17.964,40.124-40.124,40.124s-40.122-17.964-40.122-40.124,17.964-40.123,40.122-40.123,40.124,17.964,40.124,40.123Z" fill="#ffcd48"/>
  <metadata><?xpacket begin="﻿" id="W5M0MpCehiHzreSzNTczkc9d"?>
<x:xmpmeta xmlns:x="adobe:ns:meta/" x:xmptk="Adobe XMP Core 10.0-c000 1.000000, 0000/00/00-00:00:00        ">
   <rdf:RDF xmlns:rdf="http://www.w3.org/1999/02/22-rdf-syntax-ns#">
      <rdf:Description rdf:about=""
            xmlns:xmp="http://ns.adobe.com/xap/1.0/"
            xmlns:xmpGImg="http://ns.adobe.com/xap/1.0/g/img/"
            xmlns:xmpTPg="http://ns.adobe.com/xap/1.0/t/pg/"
            xmlns:stDim="http://ns.adobe.com/xap/1.0/sType/Dimensions#"
            xmlns:xmpG="http://ns.adobe.com/xap/1.0/g/"
            xmlns:dc="http://purl.org/dc/elements/1.1/"
            xmlns:xmpMM="http://ns.adobe.com/xap/1.0/mm/"
            xmlns:stRef="http://ns.adobe.com/xap/1.0/sType/ResourceRef#"
            xmlns:stEvt="http://ns.adobe.com/xap/1.0/sType/ResourceEvent#">
         <xmp:CreatorTool>Adobe Illustrator 30.2 (Macintosh)</xmp:CreatorTool>
         <xmp:CreateDate>2026-03-13T11:24:23+08:00</xmp:CreateDate>
         <xmp:MetadataDate>2026-03-13T11:24:23+08:00</xmp:MetadataDate>
         <xmp:ModifyDate>2026-03-13T11:24:23+08:00</xmp:ModifyDate>
         <xmp:Thumbnails>
            <rdf:Alt>
               <rdf:li rdf:parseType="Resource">
                  <xmpGImg:width>196</xmpGImg:width>
                  <xmpGImg:height>256</xmpGImg:height>
                  <xmpGImg:format>JPEG</xmpGImg:format>
                  <xmpGImg:image>/9j/4AAQSkZJRgABAgEAAAAAAAD/7QAsUGhvdG9zaG9wIDMuMAA4QklNA+0AAAAAABAAAAAAAAEA&#xA;AQAAAAAAAQAB/+4ADkFkb2JlAGTAAAAAAf/bAIQABgQEBAUEBgUFBgkGBQYJCwgGBggLDAoKCwoK&#xA;DBAMDAwMDAwQDA4PEA8ODBMTFBQTExwbGxscHx8fHx8fHx8fHwEHBwcNDA0YEBAYGhURFRofHx8f&#xA;Hx8fHx8fHx8fHx8fHx8fHx8fHx8fHx8fHx8fHx8fHx8fHx8fHx8fHx8fHx8f/8AAEQgBAADEAwER&#xA;AAIRAQMRAf/EAaIAAAAHAQEBAQEAAAAAAAAAAAQFAwIGAQAHCAkKCwEAAgIDAQEBAQEAAAAAAAAA&#xA;AQACAwQFBgcICQoLEAACAQMDAgQCBgcDBAIGAnMBAgMRBAAFIRIxQVEGE2EicYEUMpGhBxWxQiPB&#xA;UtHhMxZi8CRygvElQzRTkqKyY3PCNUQnk6OzNhdUZHTD0uIIJoMJChgZhJRFRqS0VtNVKBry4/PE&#xA;1OT0ZXWFlaW1xdXl9WZ2hpamtsbW5vY3R1dnd4eXp7fH1+f3OEhYaHiImKi4yNjo+Ck5SVlpeYmZ&#xA;qbnJ2en5KjpKWmp6ipqqusra6voRAAICAQIDBQUEBQYECAMDbQEAAhEDBCESMUEFURNhIgZxgZEy&#xA;obHwFMHR4SNCFVJicvEzJDRDghaSUyWiY7LCB3PSNeJEgxdUkwgJChgZJjZFGidkdFU38qOzwygp&#xA;0+PzhJSktMTU5PRldYWVpbXF1eX1RlZmdoaWprbG1ub2R1dnd4eXp7fH1+f3OEhYaHiImKi4yNjo&#xA;+DlJWWl5iZmpucnZ6fkqOkpaanqKmqq6ytrq+v/aAAwDAQACEQMRAD8A9U4q7FXYqoX14lpavO+/&#xA;H7K+LHoMx9XqRhxmZ6NmLGZypht3f3V25eZyR2T9kfIZxOo1eTMbkf1O5x4owGwatry5tnDwSFD3&#xA;HY/MZHBqcmI3A0meOMhRDMNMv1vbVZgOLV4uvgwztdFqxnxiXXr73TZsXBKkv1/V5Lci2tzxlYVk&#xA;fuoPQD3zW9rdoyx/u4fV1Pc5Gl04l6jyY07u7FnYsx6sTU5y8pGRsmy7MADkmeka1PbSrHM5e2Y0&#xA;PLfjXuDm17P7TnikIyNw+5xtRphIWObK2dVUuxoqipPgBnXykALPJ1IFsP1PWLm8kYKxS3r8MY2q&#xA;PFvHOL1vaM80jRqHd+t3GHTxgPNBRyyRMHjcow6FTQ/hmBDJKJuJot5iDzZToWqveRtFMazxivL+&#xA;Zelc63srXnMDGX1x+0Oq1WDgNjkVfWNSFjbclAM0hpGD09yfll/aOt8CFj6jya9Ph45eTEZ7medy&#xA;80hdj3J/VnG5c08huRsu4jARFAK1jqd1ZyBo3JT9qIn4SMv0uuyYTcTt3dGGXDGY3ZlbXEdxAk0f&#xA;2HFR/TO2wZhkgJjkXSzgYmix/XdZm9ZrW3coibSOuxLdxXwGc72r2lLjOOBoDmXYaXTCuKSScm5c&#xA;qnl1r3zQ8Ru+rn0nuhazMZltbli6vtG53IPgT3rnQdldpSMhjmbvkXX6rTCuKLIs6V1zsVdirsVd&#xA;irsVdiqT+aFc2CEfZEg5fcc0vboPgju4v0FzNCfWfcxfOSdq7FWSeVQ3oTt+yWAHzA3/AF51HYAP&#xA;BI9LdbrjuEq14MNVn5d+JHy4jNR2sCNRK/L7g5Wl/uwgM1zkOxVmd4kv6HkT/dgho30LvncamMvy&#xA;xH8XB+jd0uMjxB3WwzOHd07FU18tBjqVR0CNy+W2bjsQHx/gXE1v0fFE+aw3q27fs8WA+dRXMnt8&#xA;HigelFr0HIpDnPOe7FWXeXlcaXHy6EsV+Vc7PscEacX5/e6fVn94WLXYZbqYN9oO1a+Nc5LUAjJI&#xA;HnZdrj+ke5SylmrWKu17AE+16i0+8ZkaUE5Y1z4h97DKfSb7mdZ37oXYq7FXYq7FXYq7FVO5t47i&#xA;B4ZBVHFD/XKs2GOSBhLkWUJmJsMVu9A1CByEQzR/sum5+kdc5HUdk5sZ2HEPJ22PVQkN9itttC1G&#xA;dwGjMSd3fan0dTkcHZWeZojhHeUz1UIjnbKrO0itLdYIvsr1J6knqTnXabTxwwEI9HU5MhmbKC1n&#xA;RxfKJIyFnQUFejDwOYPaXZ3jjijtMfa36bUcGx5MdfSNTVipt3JHcCo+8ZzUuzs4NcBdiNRA9Uz0&#xA;ny/KJVnvAFVDVYq1JI6Vp2za9n9kSEhPLtXT9bi6jViqiyIiux6Z0rrmM6l5duEkaS0X1ImNfTH2&#xA;l9t+ozldb2POMjLGLj3dQ7TDqwRUuaBj0fU5GCi3ZfdhxH3nMCHZueRrhPx2bzqIDqyXSNLWwhNS&#xA;GmenqMOm3YZ1PZ+gGnjvvI83WajP4h8lbUbCK9tzE+x6o/gcu1mkjnhwn4FhhymErDFp9E1KFyvo&#xA;mQdmT4gc5LL2Xnga4b927tY6mBHNWsfL95PIDOphhH2iftH5DL9L2PlmfWOGP2teXVxiNtyyqKNI&#xA;o1jQcUQAKPYZ10ICEREcg6qRJNlJta0J7iQ3NtT1T9uM7cqdwfHNH2n2UckuPH9XUd7m6bVCI4Zc&#xA;kl/ROpcuP1Z6/Lb7+maP+T891wFzfzEO8J3ouhtbOLi5p6wHwIN+Ne5Pjm+7M7LOI8c/q6DucHU6&#xA;riHDHknWbxwnYq7FXYqo3V7bWsfOdwgPQdSfkBlGo1OPCLmaZ48cpmgEvXzNppfiRIB/MVFPwNc1&#xA;w7cwE16vl+1yDop+SZwTwzxiSFw6HowzaYssckeKJsONKJiaK/LGKAu9c0+1cxs5eQfaVBWn07DN&#xA;dqO1MOI0TZ8nIx6acha211/TrhwgYxsegkFK/SCRkcHa2DIavhPmmelnEXzTHNm4y2WWOKMySMER&#xA;erHYZDJkjAXI0ExiSaCVv5m01X4gSOP5gop+JBzVS7bwA16j8P2uUNFPyR1pf2l2paCQNT7S9GHz&#xA;BzP0+rx5hcDbRkxShzCIzJa0Le6nZ2YHrPRjuEG7H6MxNTrcWH6zv3dW3HhlPkEJF5l0134nnH/l&#xA;Mop+BOYePtvBI0bHvH6rbpaOY800R0dQ6MGVtww3BzaxkJCxuHFIrm2TTc9MkhLLjzFpsLlQzSkd&#xA;TGAR95IzVZu2MEDVmXucqGkmfJWs9YsbtuEb8ZD0RxQn5djl+m7Rw5jUTv3Fhk084bnkjczmhSub&#xA;q3to/UncIvavU/Id8pzZ4Yo8UzQZwgZGgl3+JtO58aSU/m4in665rf5cwXXq+X7XI/JT8kyt7mC5&#xA;jEkDh0PcdvmM2eHPDLHigbDjTgYmiqZaxQV5rNhaMUkctIOqIKkfPtmBqe0sOE1I3LuDfj0057jk&#xA;pW/mHTZnCcmiJ6eoKD7wSMqw9sYJmrMfeynpJx80yqKV7eObS3GYPqF493dPMx2Jog8FHQZwWs1J&#xA;zZDI/D3O9xYxCNIfMVsTLQLx4L9I6n0pjxZffsc2vZGpOPMI/wAMtv1OLq8YlC+oT7Xbx7WwJjNJ&#xA;JCEU9xWpJ+4Z0HaupOLDceZ2cDS4xKe/Rh+cU7l2Ksr8u3j3FkUkNXhPGp6lT0zsOxtScmKjzjt8&#xA;OjqdZjEZWOqV+ZLx5bw24P7qGm3ixFSfxzU9takyy8H8MfvcrR4wI8XUpRmlcxVtLqW1uEmjNGU7&#xA;jsR3By/T55YpiUejDJASFFms1ykdo9yN1VC4HjtUZ3OXOI4zk6VbpIwuXCwiaaSaVpZG5O5qxOcH&#xA;kySnIykbJd5GIiKCzK2Se+WLxxM9oxqjAug8COv350HYWpPEcZ5cw4GtxiuJE+Zrx44I7dDT1qlz&#xA;/kjt9OZXbmpMYCA/i5+5r0WMEmR6MZzlXZuBKkEGhG4I8cIJBsKzXSrtrqwilb7dOL/NTSv053Wg&#xA;1By4RI8+rpM+PgmQxfV7x7q+kJPwISka9gAafjnJ9o6k5cpJ5DYO00+MRgEFmA3o7Rbx7a+jof3c&#xA;pCSL2IJoD9GbDszUnFmHdLYtGpxiUD3hk2r3bWthJIm0hoqHwLd/ozqe0dQcWEyHPkHV6fHxzALC&#xA;ySSSTUnck5w5Nu7dgVH/AKXuP0Z9SqetOff0/wCX782P8oz8Dwvt8u78dHH/AC44+L8Whbu2e2uZ&#xA;IHG6GnzHY/TmJqMJxTMD0bccxKIIUspZo/Q7Z5tSiKj4Yjzc+AHT8c2PZWEzzxrlHdx9VMRgfNPf&#xA;MVs82nlkFTCwcj2oQf150HbOAzw2P4TbgaOYjPfqxPOOdu7FWUeWbZ47N5WFPWaqj/JXaudb2HhM&#xA;cRkf4j9zqtbMGVdyV+YrZ4tRaQj4JgGU+4ABGajtnCYZzLpJy9HMGFdyV5qXKXwwyTSpFGKu5oo+&#xA;eWY8ZnIRHMolIAWWa3Frz097Ve8fBfmBQZ3WbT8WE4x/Np0cMlT4vNhDKysVYUZTQg9iM4OUSDR5&#xA;u8BtrIpTryxbO1289PgjUrXxZu33ZvewsJOQz6AfaXC1swI0iPNNs7JDcKKqlUf2r0zJ7ewEiMxy&#xA;GxatDMWYsdzmXZOxVmWi2z2+nRI4o7Vdh4cjX9Wdx2ZgOPBEHnz+bpdTMSmSGLalbPb300bD9osp&#xA;8VJqDnJa3CceWUT3/Y7XDMSgChsxG1F6VbPcX8KKKhWDufBVNTmboMByZogd9n3Bpzz4YEsm122e&#xA;406RUFXQhwPGnX8M6ntXAcmAgcxu6zSz4Zi2HZxLuXYqifqE/wBQ+uU/dc+P0ePyrtmV+Un4Pi/w&#xA;3X7f0NXijj4erLNQ0u1vlHqgq6/ZkXqPbOw1egx5x6ufe6nFnlDklg8qJy+K5JXwCUP31OasdgC9&#xA;57e79rlfnz3JvZ2NvZxenAtAd2Y7kn3ObnTaWGGPDAOHkyymbKvmQ1pPd+WrSZy8LmAnqoHJfoG2&#xA;aXUdiY5m4nh+0OZj1sgKO7Vr5YtY3DTSGanRacR9O5yODsPHE3M8X2JnrZEbCk5AAAAFANgBm7Ar&#xA;YOEo3VpBdRGKZeSnceIPiDlWfTwyx4ZiwzhkMDYSd/KkZb4LkhfAoCfvBGaSXYAvae3u/a5o156h&#xA;MNP0e0sviQF5TsZG6/R4ZstH2djwbjeXeXGy6iU+fJHZntCX6holpeN6hrFN3de/zGa3Wdl48x4v&#xA;pl3j9LkYtTKG3MIKLypEGrLcM6+CqFP3ktmDDsCIPqnY91frb5a89AnMFvDBEsUKhEXoBm8xYo44&#xA;8MRQDhSmZGyvdEkQo6hkYUZTuCMlKAkKO4KASDYSW48rW7uWhmaJT+yRzA+W4zR5uwYE3GXD9v6n&#xA;NhriBuLVrHy9aWziSRjNIu68hRQfGm+X6XsfHiPEfUfs+TDLq5SFDZNc27iIW/022vUCzA8l+y67&#xA;MMxNXosecVL59W3FmlA7JX/hROVfrJ4+HDf76/wzUfyAL+vb3ftcv8+e5NbHTrayjKQruftOd2Pz&#xA;zcaXR48EaiPj1cTLmlM7onMpqSm98uWlw5kjYwO3Wgqv3bZp9V2NjyG4nhP2fJy8eslEUd1K38rW&#xA;yOGmlaUD9kDgD89zlWHsKETc5GX2M566RGwpOfSi9L0uA9KnHhTanhTN14ceHhr09zhcRu+qVatr&#xA;y2jmCBQ84+0T9lfu6nNT2h2sMJ4IC5fYHL0+l4xZ5JSvmPVA1SykfylRT8N8047a1F3Y+TlnR409&#xA;0rV4r5SpHCdRVk7EeIzf9n9ox1ArlMdHAz6c4/cjpZY4o2kkPFEFWJ8BmfOYhEyOwDRGJJoMbu/M&#xA;9y7kWyiOMdGYVY/wzmNR25kJ/djhH2uzx6KIHq3W2vma8Rx9YVZY+9BxYfKm2RwduZYn1gSHyKz0&#xA;USNtmSwTxTwrNEeSOKg51GLLHJESjyLrZRMTRX5YxdirsVdirsVdirsVdirsVdirsVSvVtbSyPpR&#xA;qJLgipB6KPfNT2h2oMHpjvP7nK0+mM9zySb/ABHqnKvNafy8RT+uaT+WdRd2Pk5v5PGnWk61He/u&#xA;nX07gCtB0Ye2bzs/tMZ/SRU/v9zhajTGG45JkzKilmNFUVYnoAM2kpACzycYC2OXvmaZnK2ihIx0&#xA;dhVj9HQZzGq7cmTWMUO8uyx6IV6lK38zXyOPWCyp3FOJ+gjKsPbeaJ9VSHyZT0UCNtk+/Sln9S+u&#xA;cv3Xh3r/AC08c6H89i8Lxb9P4297geBLi4erDJJGkkaRjVnJZj7k1zh5zMpGR5l3QFCluQSjNHkZ&#xA;NTtyppVwp+TbHM7s6ZjnhXf97TqBcCnvmeR109VXo8gDfIAmn3jOg7cmRhAHWTgaIXP4MWzkXaux&#xA;VknlWRjbzRn7KMCv+yG/6s6nsGZMJDoD97rNcPUCnmb5wXYq7FXYq7FXYq7FXYq7FXYq7FWC3sjS&#xA;XczsasztX788/wBTMyySJ7y77GKiAo5QzV9PkaO+gdeokX8TQjMnSTMcsSP5wa8ouJHkybzFI6aY&#xA;4X9tlVj7df4Z1PbMzHAa6kB1mjF5GJZxrt3Yqu9aT0fRr+75c+PblSlcs8SXDw/w3aOEXfVH6zpc&#xA;lpcM6qTbuaow6Cv7JzP7S0MsMyQPQeX6nH02cTFdUuzWOSnfl7S5WnW8lUrEm8df2j0r8hm+7H0M&#xA;jMZZD0jl5uDq84A4RzTvVLL65ZvCDR/tRk9OQze67S+PiMevT3uDgy8ErYZNDLDI0cqlHXqpziMm&#xA;KUJcMhRDuoyEhYajjeRwkalnbYKNycEIGRoCykkAWWYaPYGyswj/AN655yexPb6M7Xs3SeBio/Ud&#xA;y6bUZeOV9Edme0OxV2KuxV2KuxV2KuxV2KuxV2KsU13TJYLl7hFJglPKo/ZY9Qc5DtXQyxzMwPRL&#xA;7HbaXOJRo8wlWady030DS5ZrhLmRSsER5KT+0w6U+WbrsnQynMZCPRH7S4eqzgR4RzLIb+0W7tJI&#xA;CaFh8LeBG4zpNXpxmxmHe67Fk4JAsLuLaa3lMUylXHj39xnDZsMscuGQou7hMSFhYqs7BVBZjsAN&#xA;yTkIxJNDmkmk8/w7L+i60/0yvPj7U+xm+/kaX5f/AG3n+xwfzg8T+iyNgpBDAEHqD0zpiARu60IR&#xA;LbSfV+COD1PABa1+WYccOn4thDi+DcZ5K3JpF5mtLsVUriK0df8ASFRlHeQCg+/Kc0Mch6wK82cJ&#xA;SH021bRWSAm2WMDuYwP1jBgx4gP3Yj8KWcpH6rVsvYOxV2KuxV2KuxV2KuxV2KuxV2KuxVxAIodw&#xA;eoxIVD/o+w58/q8fLx4L/TMb8nhu+CN+4NnjT7yiAKbDpmS1uxVZLBDMvGWNZF8GAP68ryYozFSA&#xA;PvZRkRyK2G0tYd4YUjPiqgH78jj0+OH0xA+CZZJS5lVy5gxPWtXluZ3hjYrboeNB+1TqTnH9p9oS&#xA;yzMYn0D7XbabTiIs80rzUOWn3l/VpTMLOdi6sP3THqCN6VzouyO0JGXhTN3y/U6/V6cVxBOdRvVs&#xA;7R5yKkbIvix6Zu9ZqRhxmfy97h4cfHKmG3N1PcyGSZy7Hx6D2A7ZxGbPPLLikbLuYQERQWwTzQSC&#xA;SFyjjoRkcWWWOXFE0UyiJCizHSb8XtoJSKSKeMgHiO/0523Z+r8fHxdeRdNnxcEq6IzM1pdirsVd&#xA;irsVdirsVdirsVdirsVdirsVdirsVdirsVdirAHRkdkYUZSQw9xnnUomJIPMPQA2LayKUXpCM2p2&#xA;4UVIcE/IbnM3s6JOeFd7TqDUCnvmhHawRh9lJAW+kEVzoO3Yk4QR0l+twNEfX8GL5yTtXYqyTyqj&#xA;C3nc/ZLgD5gb/rzqOwIngkelus1x3CeZv3BdirsVdirsVdirsVdirsVdirsVdirsVdirsVdirsVd&#xA;iqS6voBuJDcWxAkb7cZ2BPiD45ou0eyTklx4/q6hztPquEVLklA0HVS3H0CPcstP15ph2VqCa4ft&#xA;Dl/msfen2j6MtjWWQh7hhSo6KPAZ0PZ3ZoweqW8z9jgajU8ew5JhPDHPE8Ug5I4owzY5cUckTGXI&#xA;uPGRibDGLvy5fROfQAmj7EEBh8wc5XUdi5YH0eqP2u0x6yJG+xW23lzUJXAlUQp3ZiCfoAyODsbN&#xA;M+ocITPWQA23ZPa20VtAsMQoiDbxPuc6vBgjigIR5B1c5mRsquWsHYq7FXYq7FXYq7FXYq7FXYq7&#xA;FXYq7FXYq7FXYq7FXYqhr3UbWzQNO1CfsoN2PyGYuq1mPALmfh1bceGUzsly+abQtQwyBfHYn7q5&#xA;rB29jveMqck6GXeE1trqC6iEsDh1PXxB8CM2+DUQyx4oGw4k8ZiaKrlzBLLvzDY27mNazONjwpQf&#xA;Sc1Wo7Yw4zQ9R8nKx6SchfJba+Y7CZwj8oSehanH7xkcHbWGZo3H38kz0c47jdNc27iOxV2KuxV2&#xA;KoK/1ezsjxkJaTr6abn6fDMHV9o4sG0t5dwb8WnlPlyQcXmizZqSRug/m2P30zBh27iJoghuloZd&#xA;Cm8UscsayRsHRtww6ZuceSMxxRNguHKJBotsyqpZiAoFSTsAMkSALKAEpuPM1jG5WNWlp1YbD6K5&#xA;p83beKJqIMnMhopnnsrWWu2N04jBMUh6K9BU+xy/S9q4sp4fpl5sMulnAXzCY5snGULy+trSPnO/&#xA;EH7K9SfkMx9TqseGNzLZjxSmaCWf4qtOVPRk4+O1furmq/l7Hf0yr4OV+Rl3hM7S9truP1IH5AbM&#xA;OhB9xm10+phmjxQNuLkxygaKvmQ1pde69Y2rmOplkHVU6A+5OazU9rYsR4fql5OTj0s5C+QUrfzL&#xA;YyuFkVoa9GahX7xlOHtvDI1K4/cznopjlumvNePOo4UryrtTxrm44hV9HErowe9unurqSZz9o/CP&#xA;BewzgdVnOXIZnq7zFAQiAFDMdsTHQbp4NQjUH4Jjwdfn0P0HNn2TnOPMB0lsXG1WMSgfJPfMF29v&#xA;p54GjysIwR1AIJP6s6DtfUHHh25yNOBpMYlPfoxHOMdw7FWVeW7t5rJonNTAeKn/ACT0zruxdQZ4&#xA;jE/w/c6rWYwJWOqbZuXDdirsVUruf0LWWbr6algPcDbKdRl8PHKXcGeOPFIBg0kjySNI5LOxqxPc&#xA;nOBnMyJJ3Jd6AAKC3IJTvyvdOtw9sTWN1LKPBh/UZvuwtQRM4+hF/FwdbjFcSJ80XTpFFbKaCSrP&#xA;7gdB9+ZXbuoIiID+Lm16HGCTLuY3nLuydhVmmkXTXOnxSOayCqufEqaVzuOzs5y4YyPPkfg6TUQ4&#xA;ZkBi2q3T3N9K7HZWKoPBQaDOT1+c5csie+h7na4MYjABCZhNyM0e7e2v4mB+F2CSDsQxp+GZ3Z2o&#xA;OLNEjkTR+LRqMYlAsm1q6e20+R0NJGoinwLd/uzqu085xYSRzOzrNNjEpgFhucQ7p2BUX+k5/wBH&#xA;fUqnjyrX/J/l+/M389PwPC6X9nd82nwRx8Sne2r2t1JC4+yfhPivY5VqsBxZDA9GWKYnEEKGY7Ym&#xA;Og2rz6hGwHwQnm7fLoPpObPsnAcmYHpHcuNqsgjA+ae+YLR7jTzwFXiYSADqQAQf150Ha+nOTDtz&#xA;ibcDSZBGe/ViOcY7h2Ksq8t2jw2TSuKGc8lH+SOmdd2LpzDEZH+L7nVazIDKh0TbNy4bsVdiqldw&#xA;evayw9PUUqD7kbZTqMXiY5R7wzxy4ZAsGkjeORo3BV1NGB7EZwM4GJIOxDvQQRYW5BKd+V7V2uHu&#xA;SKRopVT4sf6DN92FpyZnJ0Ar4uDrcgrhRPmi1d4orlRUR1V/YHofvzK7d05MRMfw82vQ5ACY97G8&#xA;5d2TsKs00i1a20+KNxSQ1Zx4FjWmdx2dgOLDGJ58z8XSaifFMkMW1W1e2vpUYbMxZD4qTUZyevwH&#xA;FlkD32Pc7XBkEoAoTMJuRmj2j3N/EoHwoweQ9gFNfxzO7O05y5ogcgbPwaNRkEYFk2tWr3OnyIgr&#xA;ItHUeJHb7s6rtPTnLhIHMbus02ThmCWG5xDunYFRf6Mn/R312h48qU/yf5vvzN/Iz8Dxel/Z3/Np&#xA;8YcfCyy9061vECzrUj7LjZh8jnYarR484qY+PV1OPNKB2S5fK1oGqZpCvhsD99M1g7Bx3vKVOSdd&#xA;LuCa21rBaxCKBAijr4k+JObfBp4Yo8MBQcSeQyNlVy5gll35esbhzItYXO54UofoOarUdj4chsek&#xA;+TlY9XOIrmttfLlhC4d+UxHQNTj9wyODsXDA2bl7+SZ6ycthsmubdxHYq7FXYq7FUFf6RZ3p5SAr&#xA;J09RNj9PjmDq+zsWfeW0u8N+LUShy5IOLyvZK1ZJHcfy7AfTTMGHYWIHckt0tdLoE3iijijWONQi&#xA;LsFHTNzjxxgOGIoBw5SJNltlVlKsAVIoQdwRkiARRQClNx5ZsZHLRs0VeqjcfRXNPm7ExSNxJi5k&#xA;NbMc91ay0KxtXEgBlkHRnoaH2GX6XsrFiPF9UvNhl1U5iuQTHNk4yheWNtdx8J05AfZboR8jmPqd&#xA;LjzRqYbMeWUDYSz/AAracq+tJx8Nq/fTNV/IOO/qlXwcr89LuCZ2llbWkfpwJxB3Y9ST7nNrp9ND&#xA;DHhgKcXJklM2VfMhrS690GxunMlDFIdyyUoT7g5rNT2Tiyni+mXk5OPVTiK5hSt/LVjE4aRmmp0V&#xA;qBfuGU4exMMTcrl9zOetmeWya8F48KDhSnGm1PCmbjhFV0cS+qTavr5t5Db2wBkX7ch3APgB45o+&#xA;0e1jjlwY/q6lzdPpeIXLklA17VQ3L1yfYqtP1Zph2rqAb4vsDl/lcfcn2j6yt9WOQBLhRWg6MPEZ&#xA;0PZ3aQz+mW0x9rgajTcG45JhPNHBE8sh4ogqxzY5csccTKXIOPGJkaDGLvzHfSufQIhj7AAFj8yc&#xA;5XUdtZZn0emP2u0x6OIG+5W23mLUInBlYTJ3VgAfoIGRwds5oH1HiCZ6OBG2zJ7W5iuYFmiNUcbe&#xA;I9jnV4M8csBOPIurnAxNFVy1g7FXYq7FXYq7FXYq7FXYq7FXYqlGsa59Uf0IAGnpVmPRa+3jmm7S&#xA;7V8E8EN5/c5mn0vHueSS/p3VeXL1z8uK0/Vmi/lXUXfF9g/U5v5XH3J3o+uC8b0JgEnpVSOjU/jm&#xA;+7O7U8Y8E9p/e4Oo03BuOSaSSJHG0jniigliewGbacxEEnkHFAJNBjN75ku5HItv3MQ6GgLH51zl&#xA;dT21kkf3fpj9rtMejiB6typW/mHUonBdxMndGAH4gDKcPbGeJ3PEPNlPSQI22T/9MWn1D67U8OnD&#xA;9rn/AC/POj/lHH4Pi9O7rfc6/wDLy4+FhzuzuzsasxJY+5ziZSMiSeZdyBQprIpRekOy6nblTQlw&#xA;D8jsczezpEZ4V3tOoFwKe+aHdbBFH2XkAb6ATTOg7dkRhAHWX63A0Q9fwYvnJO1dirJPKrsbedD9&#xA;kOCPmRv+rOo7AkeCQ6W6zXDcJ5m/cF2KuxV2KuxV2KuxV2KuxV2KuxVgl47PdzMxqxdq/fnn+pkT&#xA;kkTzsu+xioj3KWUM1exd0vYGT7QkWn35kaSRjliRz4g15RcT7mTeY3ZdMYL0ZlDfLr/DOp7akRgN&#xA;dSHWaMfvGJZxzt3Yq36j+n6dfgry49q0pXJ8Zrh6IoXaZ61pEttO80alrdzyqP2a9Qc2nafZ8sUz&#xA;KI9B+xxdNqBIUeaV5qHLT7y/pMomF5OpRVH7pT1JO1aZ0XZHZ8hLxZiq5frdfq9QK4QnOo2S3lo8&#xA;BNCd0bwYdM3es0wzYzD5e9w8OTglbDbm1ntpDHMhRh49D7g984jNgnilwyFF3MJiQsLYIJp5BHCh&#xA;dz0AyOLFLJLhiLKZSERZZjpNgLK0ERNZGPKQjxPb6M7bs/SeBj4evMumz5eOV9EZma0uxV2KuxV2&#xA;KuxV2KuxV2KuxV2KsY13SJo53uYVLQyHk9NyrHrX2zlO1ez5RmckRcTz8i7TS6gEcJ5pNmjc1OtB&#xA;0mV51uplKxR/FGDsWbsfkM33ZPZ8pTGSYqI5eZcHVagAcI5sgvbVLq1kgbYONj4Ebg/fnRanAMuM&#xA;wPV1+OZjIFhd3ZXFpKY5kKns3Y+4OcPqNNPDLhkHd48kZiwpxRSSuEjUu56KBU5VDHKZqIsspSAF&#xA;lP8A/Drfovht9crz9ulOFc6L+Rj+Xr/Kc/2fjq6/85+8v+FP2KgEsQAOpPTOhJAG7rwhEudJ9X4J&#xA;IPU8QVrX55hxzafi2MOL4NxhkrcGkXma0uxVSuJbRF/0hkVT2kIofvynNPHEesivNnCMj9NtW0tk&#xA;4ItmjI7iMj9QwYMmIj92Y/ClnGQ+q1bL2DsVdirsVdirsVdirsVdirsVdirsVcSAKnYDqcSVQn1n&#xA;SfV/vIPU8apX78wvG03FzhxfBu4MlcjSLBruOmZrS7FVOeS2RP8ASGRUP85AH45VlnCI9ZAHmyiJ&#xA;E7LLaawb4bZ4z4rGV/UMhgyYTtjMfhTKcZj6rV8yGtiGs6pJd3DIrEW6GiKOhp+0c4vtLXSzTIB9&#xA;A5frdxpsAgL6pdmsclO/L2qSrOtnKxaJ9o6/snrT5HN92PrpCYxSPpPLycHV4ARxDmneqXv1OzeY&#xA;Cr/ZjB6cjm912q8DEZdenvcHBi45UwyaaWaRpJWLu3VjnEZMspy4pGyXdRiIig1HI8bh42Kuu4Yb&#xA;EYITMTYNFJAIosw0e/N7Zh3/AL1Dwk9yO/052vZur8fFZ+obF02oxcEq6I7M9odirsVdirsVdirs&#xA;VdirsVdirsVYprupyz3L26MRBEeNB+0w6k5yHauulkmYA+iP2u20uARjZ5lKs07lpvoGqSw3CW0j&#xA;FoJTxUH9lj0p883XZOulCYxk+iX2Fw9VgBjxDmGQ392tpaSTkVKj4V8SdhnSavUDDjM+512LHxyA&#xA;YXcXM1xKZZmLOfHt7DOGzZpZJcUjZd3CAiKCxWZGDKSrDcEbEHIRkQbHNJFp5/iKX9F0r/pleHL2&#xA;p9vN9/LMvy/+28v2uD+THif0UkkjaORo2FGQlWHuDTNFOBjIxPMOcDYtbkEozR42fU7cKK0cMfku&#xA;5zO7OgZZ4V3/AHNOoNQKe+Z43bT1ZeiSAt8iCK/ec6DtyBOEEdJOBojU/gxbORdq7FWSeVY2FvPI&#xA;fsswA/2I3/XnU9gwIhI9CXWa4+oBPM3zguxV2KuxV2KuxV2KuxV2KuxV2KsFvY2ju5kYUZXav355&#xA;/qYGOSQPeXfYzcQVHKGavp8bSX0CL1Mi/gak5k6SBlliB/ODXlNRJ8mTeYo3fTHK/sMrMPbp/HOp&#xA;7ZgZYDXQgus0ZrIxLONdu7FV3oyej61P3fLhy7cqVplnhy4eL+G6RxC66sn1bQVu3M8DBJz9oH7L&#xA;fd0OdV2h2SMx44GpfYXV6fVcAo8kpXy5qhahVQP5iwp+G+acdi6i6ofNyzrMae6VpEVipYnnOwoz&#xA;9gPAZv8As/s6OnF85nq4GfUHJ7kdLFHLG0cg5I4owPgcz5wE4mJ3BaIyINhjd35YuUcm2YSRnorG&#xA;jD+GcxqOw8gP7s8Q+12ePWxI9Wy218s3juPrDLFH3oeTH5U2yODsPLI+siI+ZWetiBtuyWCCKCFY&#xA;YhxRBQDOoxYo44iMeQdbKRkbK/LGLsVdirsVdirsVdirsVdirsVdiqV6toiXp9WNhHcAUJPRh75q&#xA;e0Oyxn9Udp/e5Wn1JhseSTf4c1TlTgtP5uQp/XNJ/I2ouqHzc385jTrSdFjsv3rt6lwRSo6KPbN5&#xA;2f2YMHqJuf3e5wtRqTPYckyZVdSrCqsKMD0IObSUQRR5OMDTHL3yzMrlrRg8Z6Ixow+noc5jVdhz&#xA;BvGbHcXZY9aK9Slb+Wb53HrFYk7mvI/QBlWHsTNI+qoj5sp62AG26ffouz+pfU+P7rx71/mr450P&#xA;5HF4XhV6fxv73A8eXFxdXahqlrYqPVJZ2+zGvU++DV6/HgHq59y4sEp8ksHmtOXxWxC+Iep+6gzV&#xA;jt8XvDb3/scr8ge9N7O+t7yL1IGqBsynYg+4zc6bVQzR4oFw8mKUDRV8yGtJ7vzLaQuUhQzkdWB4&#xA;r9B3zS6jtvHA1EcX2BzMeikRZ2atfM9rI4WaMw16NXkPp2GRwduY5Gpjh+1M9FIDY2nIIIBBqDuC&#xA;M3YN7hwlG6u4LWIyzNxUbDxJ8AMqz6iGKPFM0GcMZmaCTv5rjDfBbEr4lwD9wBzSS7fF7Q29/wCx&#xA;zRoD1KYafrFpe/ChKSjcxt1+jxzZaPtHHn2G0u4uNl08oc+SOzPaEv1DW7Szb0zWWbui9vmc1us7&#xA;Ux4Tw/VLuH6XIxaaU9+QQUXmuItSW3ZF8VYMfuIXMGHb8SfVCh77/U3y0B6FOYLiGeJZYWDo3QjN&#xA;5iyxyR4omwXClAxNFe7pGhd2CooqzHYAZKUxEWdgEAEmgktx5pt0crDC0qj9ongD8tjmjzdvQBqM&#xA;eL7P1ubDQkjc0rWPmG0uXEcimGRtl5Gqk+Fdsv0vbGPKeE+k/Z82GXSSiLG6a5t3EQt/qVtZIGmJ&#xA;5N9lF3Y5iavW48AuXy6tuLDKZ2Sv/FacqfVjx8ee/wB1P45qP5fF/Rt7/wBjl/kD3prY6jbXsZeF&#xA;tx9pDsw+ebjS6zHnjcT8OriZcMoHdE5lNSU3vmO0t3Mcamd160NF+/fNPqu2ceM1EcR+z5uXj0cp&#xA;CzspW/mm2dws0TRA/tA8wPnsMqw9uwkanEx+1nPQyA2Npz6sXperzHpU5c67U8a5uvEjw8V+nvcL&#xA;hN11YNd3L3NzJO53c1+Q7D6M4HUZjlmZnq73HARiAFLKWaP0O5eHUogp+GU8HHiD0/HNj2VmMM8a&#xA;5S2cfVQEoHyT3zFcvDp5VDQzMEJ9qEn9WdB2znMMND+I04GjgJT36MTzjnbuxVlHlm5eSzeJjX0W&#xA;op/yW3pnW9h5jLEYn+E/e6rWwAlfelfmK5eXUWjJ+CEBVHuQCTmo7ZzGecx6RcvRwAhfelealyl8&#xA;M0kMqSxmjoaqfllmPIYSEhzCJRBFFmtxdcNPe6XtHzX5kVGd1m1HDhOQfzbdHDHc+HzYQzMzFmNW&#xA;Y1JPcnODlIk2ebvAKayKU68sXLrdvBX4JFLU8GXv92b3sLMRkMOhH2hwtbAGNojzTcuqQ26mivV3&#xA;96dMye3s5AjAcjuWrQwFmTHc5l2TsVZloty9xp0TuautUY+PE0/VncdmZzkwRJ58vk6XUwEZkBi2&#xA;pXL3F9NIx/aKqPBQaAZyWtzHJllI9/2O1wwEYAIbMRtRelXL29/C6mgZgjjxVjQ5m6DOceaJHfR9&#xA;xac8OKBDJtduXt9OkZDR3IQHwr1/DOp7VznHgJHM7Os0sOKYth2cS7l2Kon6/P8AUPqdf3XPl9Hh&#xA;8q75lfm5+D4X8N3+z9LV4Q4+Lq1qFm9pdPCw2Bqh8VPQ46zTHDkMT8PcnFkE42h8xWxMtAs3nv0k&#xA;ofShPJm9+wza9kaY5Mwl/DHf9Ti6vIIwrqU+12ze6sCIxWSMh1Hc0qCPuOdB2rpjlw1HmN3A0uQR&#xA;nv1YfnFO5dirK/Ltm9vZF5BR5jyoeoUdM7DsbTHHis85b/Do6nWZBKVDolfmSzeK8NwB+6mpv4MB&#xA;Qj8M1PbWmMcvH/DL73K0eQGPD1CUZpXMVbS1lurhIYxVmO57Adycv0+CWWYjHqwyTERZZrNbJJaP&#xA;bDZWQoD4bUGdzlwCWM4+lU6SM6lxMImhkhlaKReLoaMDnB5McoSMZCiHeRkJCwsytknvlizczPds&#xA;KIoKIfEnr92dB2FpjxHIeXIOBrcgrhRPmazeSCO4QV9Gocf5J7/RmV25pjKAmP4efua9FkAJierG&#xA;c5V2bgCxAAqTsAPHCASaCs10q0a1sIom+3Tk/wA2NafRndaDTnFhETz6ukz5OOZLF9Xs3tb6QEfA&#xA;5Lxt2IJr+Gcn2jpjiykHkdw7TT5BKAQWYDejtFs3ub6Og/dxEPI3YAGoH05sOzNMcuYd0dy0anII&#xA;wPeWTavaNdWEkabyCjIPEr2+nOp7R05y4TEc+YdXp8nBMEsLIIJBFCNiDnDkVsXduwKj/wBEXH6M&#xA;+u0PWvDv6f8AN9+bH+Tp+B4v2eXf+Ojj/mBx8P4tld1ZW11HwnQOB0PQj5HOvz6bHlFTFupx5JQN&#xA;gpevlnTQ/ImQj+UsKfgK5rh2HgBv1fP9jkHWz8kzgghgjEcKBEHRRm0xYo448MRQcaUjI2V+WMUB&#xA;d6Hp905kZCkh+0yGlfo3Ga7Udl4cpsij5ORj1M4iltroGnW7hwpkYdDIa0+gADI4OycGM3XEfNM9&#xA;VOQrkmObNxlssUcsZjkUOjdVO4yGTHGYqQsJjIg2ErfyzprPyBkQfyhhT8QTmql2JgJv1D4/scoa&#xA;2fkjrSwtLRSsEYWv2m6sfmTmfp9JjwioCmjJllPmURmS1oW90yzvAPWSrDYONmH05ianRYs31jfv&#xA;6tuPNKHIoSLy1pqPyPOT/JZhT8AMw8fYmCJs2fef1U3S1kz5JoiIihEUKq7BRsBm1jERFDYOKTfN&#xA;siux6ZJCWXHl3TZnLBWiJ6iMgD7iDmqzdj4Jm6Mfc5UNXMeatZ6PY2jc405SDo7mpHy7DL9N2dhw&#xA;m4jfvLDJqJz2PJG5nNClc2tvcx+nOgde1eo+R7ZTmwQyx4ZiwzhMxNhLv8M6dz5Vkp/LyFP1VzW/&#xA;yHgu/V8/2OR+dn5Jlb20FtGI4ECIOw7/ADObPDghijwwFBxpzMjZVMtYoK80awu2LyIVkPV0NCfn&#xA;2zA1PZuHMbkKl3hvx6mcNhyUrfy9psLh+LSkdPUNR9wAGVYex8EDdGXvZT1c5eSZUFKdvDNpTjOx&#xA;V2KuxVTubiO3geaQ0RBU/wBMqzZo44GcuQZQgZGgxW71/UJ3JRzDH+yibH6T1zkdR2tmyHY8I8nb&#xA;Y9LCI33K2213UYHBaQyp3R96/T1GRwdq54GyeIdxTPSwkOVMqs7uK7t1ni+y3UHqCOoOddptRHNA&#xA;Tj1dTkxmBooLWdYFiojjAadxUV6KPE5g9pdo+AOGO8z9jfptPx7nkx19X1NmLG4cE9gaD7hnNS7R&#xA;zk3xl2I08B0TPSfMEplWC7PJXNFl6EE9K0za9n9ryMhDLvfX9bi6jSCriyImm56Z0rrmM6l5iuHk&#xA;aO0b04lNPUH2m99+gzldb2xOUjHGaj39S7TDpABcuaBj1jU42DC4ZvZjyH3HMCHaWeJviPx3bzp4&#xA;HoyXSNUW/hNQFmSnqKOm/cZ1PZ+vGojvtIc3WajB4Z8lbUb+KytzK+56Inicu1mrjghxH4BhhxGc&#xA;qDFp9b1KZy3rGMdlT4QM5LL2pnmb4q92ztY6aAHJWsfMF5BIBOxmhP2gftD5HL9L2xlgfWeKP2te&#xA;XSRkNtiyqKRJY1kQ8kcAqfY510JicRIci6qQINFJta117eQ21tT1R9uQ78a9gPHNH2n2qccuDH9X&#xA;U9zm6bSiQ4pckl/S2pcuX1l6/Pb7umaP+UM93xlzfy8O4J3ouuNcuLe5p6xHwONuVOxHjm+7M7UO&#xA;U8E/q6HvcHU6XhHFHknWbxwnYq7FXYq7FXYq7FUn80M4sEA+yZBy+45pe3SfBHdxfoLmaEes+5i+&#xA;ck7V2Ksk8qlvQnX9kMCPmRv+rOo7AJ4JDpbrdcNwlWvFjqs/LtxA+XEZqO1iTqJX5fcHK0v92EBm&#xA;uch2KszvHl/Q8j/7sMNW+ld87jUyl+WJ/i4P0bulxgeIO62GZw7unYqmvlosNSoOhRuXy2zcdiE+&#xA;P8C4mt+j4onzWW9W3X9nixHzqK5k9vk8UB0oteg5FIc55z3Yqy7y8znS4+XQFgvyrnZ9jknTi/P7&#xA;3T6sfvCxa7LNdTFvtF2rXxrnJagk5JE87Ltcf0j3KWUs1axZ1vYCn2vUWn3jMjSkjLGufEPvYZR6&#xA;TfczrO/dC7FXYq7FXYq7FXYqoX1ml3avA+3L7LeDDocx9XphmxmB6tmLIYStht3YXVo5SZCB2f8A&#xA;ZPyOcTqNJkwmpD9TuceWMxsWrazublwkEZc9z2HzORwabJlNQFpnkjEWSzDTLBbK1WEHk1eTt4sc&#xA;7XRaQYMYj16+902bLxytL9f0iS4IubccpVFJE7sB0I981va3Z0sn7yH1dR3uRpdQI+k8mNOjoxV1&#xA;KsOqkUOcvKJiaIouzBB5JnpOiz3MqyTIUt1NTyFC3sBm17P7MnlkJSFQ+9xdRqREUObK2RWUowqr&#xA;ChHiDnXyiCKPJ1QNMP1PR7mzkYqpe3r8Mg3oPBvDOL1vZ08MjQuHf+t3GHURmPNBRxSSsEjQux6B&#xA;RU/hmBDHKRqIst5kBzZToWlPZxtLMKTyCnH+VetM63srQHCDKX1y+wOq1WfjNDkFfWNNF9bcVIE0&#xA;ZrGT09wfnl/aOi8eFD6hya9Pm4JeTEZ7aeByk0ZRh2I/VnG5cM8ZqQou4jMSFgq1jpl1eSBY0IT9&#xA;qUj4QMv0uhyZjURt39GGXNGA3ZlbW8dvAkMf2EFB/XO2wYRjgIDkHSzmZGykGu6NN67XVuhdH3kR&#xA;dyG7mngc53tXs2XGckBYPMOw0upFcMkj4ty40PLpTvmh4TddXPtPdC0aYTLdXKlFTeNDsSfEjtTO&#xA;g7K7NkJDJMVXIOv1WpFcMWRZ0rrnYq7FXYq//9k=</xmpGImg:image>
               </rdf:li>
            </rdf:Alt>
         </xmp:Thumbnails>
         <xmpTPg:MaxPageSize rdf:parseType="Resource">
            <stDim:w>1000.000000</stDim:w>
            <stDim:h>1000.000000</stDim:h>
            <stDim:unit>Pixels</stDim:unit>
         </xmpTPg:MaxPageSize>
         <xmpTPg:NPages>1</xmpTPg:NPages>
         <xmpTPg:HasVisibleTransparency>False</xmpTPg:HasVisibleTransparency>
         <xmpTPg:HasVisibleOverprint>False</xmpTPg:HasVisibleOverprint>
         <xmpTPg:PlateNames>
            <rdf:Seq>
               <rdf:li>Cyan</rdf:li>
               <rdf:li>Magenta</rdf:li>
               <rdf:li>Yellow</rdf:li>
            </rdf:Seq>
         </xmpTPg:PlateNames>
         <xmpTPg:SwatchGroups>
            <rdf:Seq>
               <rdf:li rdf:parseType="Resource">
                  <xmpG:groupName>預設色票群組</xmpG:groupName>
                  <xmpG:groupType>0</xmpG:groupType>
                  <xmpG:Colorants>
                     <rdf:Seq>
                        <rdf:li rdf:parseType="Resource">
                           <xmpG:swatchName>R=255 G=204 B=84</xmpG:swatchName>
                           <xmpG:type>PROCESS</xmpG:type>
                           <xmpG:tint>100.000000</xmpG:tint>
                           <xmpG:mode>RGB</xmpG:mode>
                           <xmpG:red>255</xmpG:red>
                           <xmpG:green>205</xmpG:green>
                           <xmpG:blue>71</xmpG:blue>
                        </rdf:li>
                     </rdf:Seq>
                  </xmpG:Colorants>
               </rdf:li>
            </rdf:Seq>
         </xmpTPg:SwatchGroups>
         <dc:format>image/svg+xml</dc:format>
         <xmpMM:DerivedFrom rdf:parseType="Resource">
            <stRef:instanceID>xmp.iid:1b348981-10c5-4b37-9a33-a76c6eab4c8e</stRef:instanceID>
            <stRef:documentID>xmp.did:1b348981-10c5-4b37-9a33-a76c6eab4c8e</stRef:documentID>
            <stRef:originalDocumentID>xmp.did:f59a532d-5494-41df-998c-357af674267c</stRef:originalDocumentID>
         </xmpMM:DerivedFrom>
         <xmpMM:DocumentID>xmp.did:0367c689-b05e-4a01-ba12-c8e52e972017</xmpMM:DocumentID>
         <xmpMM:InstanceID>xmp.iid:0367c689-b05e-4a01-ba12-c8e52e972017</xmpMM:InstanceID>
         <xmpMM:OriginalDocumentID>xmp.did:f59a532d-5494-41df-998c-357af674267c</xmpMM:OriginalDocumentID>
         <xmpMM:History>
            <rdf:Seq>
               <rdf:li rdf:parseType="Resource">
                  <stEvt:action>saved</stEvt:action>
                  <stEvt:instanceID>xmp.iid:f59a532d-5494-41df-998c-357af674267c</stEvt:instanceID>
                  <stEvt:when>2026-03-13T11:17:58+08:00</stEvt:when>
                  <stEvt:softwareAgent>Adobe Illustrator 30.2 (Macintosh)</stEvt:softwareAgent>
                  <stEvt:changed>/</stEvt:changed>
               </rdf:li>
               <rdf:li rdf:parseType="Resource">
                  <stEvt:action>saved</stEvt:action>
                  <stEvt:instanceID>xmp.iid:0367c689-b05e-4a01-ba12-c8e52e972017</stEvt:instanceID>
                  <stEvt:when>2026-03-13T11:24:23+08:00</stEvt:when>
                  <stEvt:softwareAgent>Adobe Illustrator 30.2 (Macintosh)</stEvt:softwareAgent>
                  <stEvt:changed>/</stEvt:changed>
               </rdf:li>
            </rdf:Seq>
         </xmpMM:History>
      </rdf:Description>
   </rdf:RDF>
</x:xmpmeta>
                                                                                                    
                                                                                                    
                                                                                                    
                                                                                                    
                                                                                                    
                                                                                                    
                                                                                                    
                                                                                                    
                                                                                                    
                                                                                                    
                                                                                                    
                                                                                                    
                                                                                                    
                                                                                                    
                                                                                                    
                                                                                                    
                                                                                                    
                                                                                                    
                                                                                                    
                                                                                                    
                           
<?xpacket end="w"?>
  </metadata>
</svg>