<?xml version="1.0" encoding="UTF-8"?>
<svg id="_圖層_1" xmlns="http://www.w3.org/2000/svg" version="1.1" viewBox="0 0 1000 1000">
  <!-- Generator: Adobe Illustrator 30.2.1, SVG Export Plug-In . SVG Version: 2.1.1 Build 1)  -->
  <g>
    <g>
      <g>
        <rect x="583.13" y="102.344" width="45.142" height="45.06" fill="#dbd5fa"/>
        <rect x="538.07" y="282.748" width="45.06" height="45.06" fill="#dbd5fa"/>
        <rect x="538.07" y="147.404" width="45.06" height="45.142" fill="#dbd5fa"/>
        <rect x="538.07" y="57.202" width="45.06" height="45.142" fill="#dbd5fa"/>
        <polygon points="492.928 237.606 492.928 282.748 538.07 282.748 538.07 237.606 538.07 192.546 492.928 192.546 492.928 237.606" fill="#dbd5fa"/>
      </g>
      <g>
        <rect x="628.272" y="102.344" width="45.06" height="45.06" fill="#493b62"/>
        <rect x="583.13" y="282.748" width="45.142" height="45.06" fill="#493b62"/>
        <rect x="583.13" y="147.404" width="45.142" height="45.142" fill="#493b62"/>
        <rect x="583.13" y="57.202" width="45.142" height="45.142" fill="#493b62"/>
        <rect x="538.07" y="327.808" width="45.06" height="45.142" fill="#493b62"/>
        <polygon points="538.07 237.606 538.07 282.748 583.13 282.748 583.13 237.606 583.13 192.546 538.07 192.546 538.07 237.606" fill="#493b62"/>
        <rect x="538.07" y="102.344" width="45.06" height="45.06" fill="#493b62"/>
        <rect x="538.07" y="12.141" width="45.06" height="45.061" fill="#493b62"/>
        <rect x="492.928" y="282.748" width="45.142" height="45.06" fill="#493b62"/>
        <rect x="492.928" y="147.404" width="45.142" height="45.142" fill="#493b62"/>
        <rect x="492.928" y="57.202" width="45.142" height="45.142" fill="#493b62"/>
        <polygon points="492.928 192.546 447.868 192.546 447.868 237.606 447.868 282.748 492.928 282.748 492.928 237.606 492.928 192.546" fill="#493b62"/>
      </g>
    </g>
    <g>
      <g>
        <rect x="371.81" y="102.344" width="45.142" height="45.06" fill="#dbd5fa"/>
        <rect x="326.75" y="282.748" width="45.06" height="45.06" fill="#dbd5fa"/>
        <rect x="326.75" y="147.404" width="45.06" height="45.142" fill="#dbd5fa"/>
        <rect x="326.75" y="57.202" width="45.06" height="45.142" fill="#dbd5fa"/>
        <polygon points="281.689 237.606 281.689 282.748 326.75 282.748 326.75 237.606 326.75 192.546 281.689 192.546 281.689 237.606" fill="#dbd5fa"/>
      </g>
      <g>
        <rect x="416.952" y="102.344" width="45.06" height="45.06" fill="#493b62"/>
        <rect x="371.81" y="282.748" width="45.142" height="45.06" fill="#493b62"/>
        <rect x="371.81" y="147.404" width="45.142" height="45.142" fill="#493b62"/>
        <rect x="371.81" y="57.202" width="45.142" height="45.142" fill="#493b62"/>
        <rect x="326.75" y="327.808" width="45.06" height="45.142" fill="#493b62"/>
        <polygon points="326.75 237.606 326.75 282.748 371.81 282.748 371.81 237.606 371.81 192.546 326.75 192.546 326.75 237.606" fill="#493b62"/>
        <rect x="326.75" y="102.344" width="45.06" height="45.06" fill="#493b62"/>
        <rect x="326.75" y="12.141" width="45.06" height="45.061" fill="#493b62"/>
        <rect x="281.689" y="282.748" width="45.06" height="45.06" fill="#493b62"/>
        <rect x="281.689" y="147.404" width="45.06" height="45.142" fill="#493b62"/>
        <rect x="281.689" y="57.202" width="45.06" height="45.142" fill="#493b62"/>
        <polygon points="281.689 192.546 236.547 192.546 236.547 237.606 236.547 282.748 281.689 282.748 281.689 237.606 281.689 192.546" fill="#493b62"/>
      </g>
    </g>
  </g>
  <g>
    <polygon points="567.632 581.99 567.632 536.93 522.572 536.93 477.429 536.93 432.369 536.93 387.308 536.93 342.166 536.93 342.166 581.99 297.106 581.99 297.106 627.05 342.166 627.05 342.166 672.192 387.308 672.192 432.369 672.192 477.429 672.192 522.572 672.192 567.632 672.192 567.632 627.05 612.774 627.05 612.774 581.99 567.632 581.99" fill="#d97664"/>
    <path d="M748.035,627.05v-45.06h-90.201v-45.06h-45.06v-45.142h-90.202v-45.06h-135.263v45.06h-90.202v45.142h-45.142v45.06h-45.059v180.405h45.059v90.202h45.142v45.06h45.06v45.142h225.466v-45.142h45.142v-45.06h45.06v-45.142h90.201v-45.06h45.142v-135.345h-45.142ZM342.166,581.99v-45.06h225.466v45.06h45.142v45.06h-45.142v45.142h-225.466v-45.142h-45.06v-45.06h45.06ZM748.035,717.252h-90.201v-45.06h90.201v45.06Z" fill="#e8e6fa"/>
    <rect x="748.036" y="627.05" width="45.142" height="45.142" fill="#fff"/>
    <rect x="702.976" y="581.99" width="45.06" height="45.06" fill="#fff"/>
    <polygon points="567.632 581.99 522.572 581.99 522.572 627.05 477.429 627.05 432.369 627.05 432.369 672.192 477.429 672.192 522.572 672.192 567.632 672.192 567.632 627.05 612.774 627.05 612.774 581.99 567.632 581.99" fill="#b4513f"/>
    <rect x="387.309" y="446.727" width="45.06" height="45.06" fill="#fff"/>
    <g>
      <polygon points="657.834 762.394 657.834 807.454 702.976 807.454 702.976 762.394 702.976 717.252 657.834 717.252 657.834 762.394" fill="#8c8cc7"/>
      <rect x="657.834" y="627.05" width="45.142" height="45.142" fill="#8c8cc7"/>
      <polygon points="567.632 852.597 567.632 897.657 612.774 897.657 612.774 852.597 612.774 807.454 567.632 807.454 567.632 852.597" fill="#8c8cc7"/>
      <polygon points="477.429 897.657 432.369 897.657 432.369 942.799 477.429 942.799 522.572 942.799 567.632 942.799 567.632 897.657 522.572 897.657 477.429 897.657" fill="#8c8cc7"/>
      <rect x="342.166" y="852.597" width="45.142" height="45.06" fill="#8c8cc7"/>
    </g>
    <g>
      <polygon points="387.308 627.05 342.166 627.05 342.166 672.192 387.308 672.192 432.369 672.192 432.369 627.05 387.308 627.05" fill="#c96553"/>
      <rect x="297.106" y="581.99" width="45.06" height="45.06" fill="#c96553"/>
    </g>
    <rect x="297.107" y="491.787" width="45.06" height="45.142" fill="#fff"/>
    <g>
      <polygon points="612.774 762.394 612.774 807.454 612.774 852.597 657.834 852.597 657.834 807.454 657.834 762.394 612.774 762.394" fill="#bebef2"/>
      <rect x="522.572" y="762.394" width="45.06" height="45.06" fill="#bebef2"/>
      <polygon points="477.429 852.597 477.429 897.657 522.572 897.657 567.632 897.657 567.632 852.597 522.572 852.597 522.572 807.454 477.429 807.454 477.429 852.597" fill="#bebef2"/>
      <rect x="387.308" y="807.454" width="45.061" height="45.142" fill="#bebef2"/>
      <polygon points="342.166 897.657 342.166 942.799 387.308 942.799 432.369 942.799 432.369 897.657 387.308 897.657 342.166 897.657" fill="#bebef2"/>
      <rect x="251.964" y="807.454" width="45.142" height="45.142" fill="#bebef2"/>
    </g>
    <g>
      <rect x="297.106" y="762.394" width="45.06" height="45.06" fill="#fff"/>
      <rect x="251.964" y="717.252" width="45.142" height="45.142" fill="#fff"/>
    </g>
    <rect x="251.965" y="536.93" width="45.142" height="45.06" fill="#fff"/>
    <g>
      <polygon points="612.774 627.05 612.774 672.192 612.774 717.252 567.632 717.252 522.572 717.252 477.429 717.252 432.369 717.252 387.308 717.252 342.166 717.252 297.106 717.252 297.106 762.394 342.166 762.394 342.166 807.454 297.106 807.454 297.106 852.597 297.106 897.657 342.166 897.657 342.166 852.597 387.308 852.597 387.308 807.454 432.369 807.454 432.369 852.597 387.308 852.597 387.308 897.657 432.369 897.657 477.429 897.657 477.429 852.597 477.429 807.454 522.572 807.454 522.572 762.394 567.632 762.394 567.632 807.454 612.774 807.454 612.774 762.394 657.834 762.394 657.834 717.252 657.834 672.192 657.834 627.05 612.774 627.05" fill="#dbd5fa"/>
      <rect x="522.572" y="807.454" width="45.06" height="45.142" fill="#dbd5fa"/>
      <polygon points="432.369 536.93 477.429 536.93 522.572 536.93 567.632 536.93 567.632 491.787 522.572 491.787 477.429 491.787 432.369 491.787 387.308 491.787 342.166 491.787 342.166 536.93 387.308 536.93 432.369 536.93" fill="#dbd5fa"/>
      <rect x="251.964" y="762.394" width="45.142" height="45.06" fill="#dbd5fa"/>
      <polygon points="297.106 717.252 297.106 672.192 251.964 672.192 251.964 627.05 206.904 627.05 206.904 672.192 206.904 717.252 206.904 762.394 251.964 762.394 251.964 717.252 297.106 717.252" fill="#dbd5fa"/>
    </g>
    <polygon points="387.308 536.93 342.166 536.93 342.166 581.99 387.308 581.99 387.308 627.05 432.369 627.05 432.369 581.99 432.369 536.93 387.308 536.93" fill="#e88477"/>
    <g>
      <polygon points="793.178 627.05 793.178 672.192 793.178 717.252 793.178 762.394 838.238 762.394 838.238 717.252 838.238 672.192 838.238 627.05 793.178 627.05" fill="#493b62"/>
      <rect x="748.035" y="762.394" width="45.142" height="45.06" fill="#493b62"/>
      <rect x="748.035" y="581.99" width="45.142" height="45.06" fill="#493b62"/>
      <polygon points="748.035 717.252 748.035 672.192 702.976 672.192 657.834 672.192 657.834 717.252 702.976 717.252 748.035 717.252" fill="#493b62"/>
      <polygon points="702.976 536.93 657.834 536.93 657.834 581.99 702.976 581.99 748.035 581.99 748.035 536.93 702.976 536.93" fill="#493b62"/>
      <polygon points="657.834 807.454 657.834 852.597 702.976 852.597 748.035 852.597 748.035 807.454 702.976 807.454 657.834 807.454" fill="#493b62"/>
      <rect x="612.774" y="852.597" width="45.06" height="45.06" fill="#493b62"/>
      <rect x="612.774" y="491.787" width="45.06" height="45.142" fill="#493b62"/>
      <rect x="567.632" y="897.657" width="45.142" height="45.142" fill="#493b62"/>
      <polygon points="567.632 446.727 522.572 446.727 522.572 491.787 567.632 491.787 612.774 491.787 612.774 446.727 567.632 446.727" fill="#493b62"/>
      <polygon points="477.429 942.799 432.369 942.799 387.308 942.799 342.166 942.799 342.166 987.859 387.308 987.859 432.369 987.859 477.429 987.859 522.572 987.859 567.632 987.859 567.632 942.799 522.572 942.799 477.429 942.799" fill="#493b62"/>
      <polygon points="477.429 401.585 432.369 401.585 387.308 401.585 387.308 446.727 432.369 446.727 477.429 446.727 522.572 446.727 522.572 401.585 477.429 401.585" fill="#493b62"/>
      <rect x="297.106" y="897.657" width="45.06" height="45.142" fill="#493b62"/>
      <polygon points="297.106 446.727 297.106 491.787 342.166 491.787 387.308 491.787 387.308 446.727 342.166 446.727 297.106 446.727" fill="#493b62"/>
      <rect x="251.964" y="852.597" width="45.142" height="45.06" fill="#493b62"/>
      <rect x="251.964" y="491.787" width="45.142" height="45.142" fill="#493b62"/>
      <g>
        <rect x="206.904" y="762.394" width="45.059" height="45.06" fill="#493b62"/>
        <rect x="206.904" y="807.495" width="45.059" height="45.06" fill="#493b62"/>
      </g>
      <rect x="206.904" y="536.93" width="45.059" height="45.06" fill="#493b62"/>
      <polygon points="161.762 627.05 161.762 672.192 161.762 717.252 161.762 762.394 206.904 762.394 206.904 717.252 206.904 672.192 206.904 627.05 206.904 581.99 161.762 581.99 161.762 627.05" fill="#493b62"/>
    </g>
  </g>
  <metadata><?xpacket begin="﻿" id="W5M0MpCehiHzreSzNTczkc9d"?>
<x:xmpmeta xmlns:x="adobe:ns:meta/" x:xmptk="Adobe XMP Core 10.0-c000 1.000000, 0000/00/00-00:00:00        ">
   <rdf:RDF xmlns:rdf="http://www.w3.org/1999/02/22-rdf-syntax-ns#">
      <rdf:Description rdf:about=""
            xmlns:xmp="http://ns.adobe.com/xap/1.0/"
            xmlns:xmpGImg="http://ns.adobe.com/xap/1.0/g/img/"
            xmlns:xmpTPg="http://ns.adobe.com/xap/1.0/t/pg/"
            xmlns:stDim="http://ns.adobe.com/xap/1.0/sType/Dimensions#"
            xmlns:xmpG="http://ns.adobe.com/xap/1.0/g/"
            xmlns:dc="http://purl.org/dc/elements/1.1/"
            xmlns:xmpMM="http://ns.adobe.com/xap/1.0/mm/"
            xmlns:stRef="http://ns.adobe.com/xap/1.0/sType/ResourceRef#"
            xmlns:stEvt="http://ns.adobe.com/xap/1.0/sType/ResourceEvent#">
         <xmp:CreatorTool>Adobe Illustrator 30.2 (Macintosh)</xmp:CreatorTool>
         <xmp:CreateDate>2026-03-12T20:37:01+08:00</xmp:CreateDate>
         <xmp:MetadataDate>2026-03-12T20:37:01+08:00</xmp:MetadataDate>
         <xmp:ModifyDate>2026-03-12T20:37:01+08:00</xmp:ModifyDate>
         <xmp:Thumbnails>
            <rdf:Alt>
               <rdf:li rdf:parseType="Resource">
                  <xmpGImg:width>180</xmpGImg:width>
                  <xmpGImg:height>256</xmpGImg:height>
                  <xmpGImg:format>JPEG</xmpGImg:format>
                  <xmpGImg:image>/9j/4AAQSkZJRgABAgEAAAAAAAD/7QAsUGhvdG9zaG9wIDMuMAA4QklNA+0AAAAAABAAAAAAAAEA&#xA;AQAAAAAAAQAB/+4ADkFkb2JlAGTAAAAAAf/bAIQABgQEBAUEBgUFBgkGBQYJCwgGBggLDAoKCwoK&#xA;DBAMDAwMDAwQDA4PEA8ODBMTFBQTExwbGxscHx8fHx8fHx8fHwEHBwcNDA0YEBAYGhURFRofHx8f&#xA;Hx8fHx8fHx8fHx8fHx8fHx8fHx8fHx8fHx8fHx8fHx8fHx8fHx8fHx8fHx8f/8AAEQgBAAC0AwER&#xA;AAIRAQMRAf/EAaIAAAAHAQEBAQEAAAAAAAAAAAQFAwIGAQAHCAkKCwEAAgIDAQEBAQEAAAAAAAAA&#xA;AQACAwQFBgcICQoLEAACAQMDAgQCBgcDBAIGAnMBAgMRBAAFIRIxQVEGE2EicYEUMpGhBxWxQiPB&#xA;UtHhMxZi8CRygvElQzRTkqKyY3PCNUQnk6OzNhdUZHTD0uIIJoMJChgZhJRFRqS0VtNVKBry4/PE&#xA;1OT0ZXWFlaW1xdXl9WZ2hpamtsbW5vY3R1dnd4eXp7fH1+f3OEhYaHiImKi4yNjo+Ck5SVlpeYmZ&#xA;qbnJ2en5KjpKWmp6ipqqusra6voRAAICAQIDBQUEBQYECAMDbQEAAhEDBCESMUEFURNhIgZxgZEy&#xA;obHwFMHR4SNCFVJicvEzJDRDghaSUyWiY7LCB3PSNeJEgxdUkwgJChgZJjZFGidkdFU38qOzwygp&#xA;0+PzhJSktMTU5PRldYWVpbXF1eX1RlZmdoaWprbG1ub2R1dnd4eXp7fH1+f3OEhYaHiImKi4yNjo&#xA;+DlJWWl5iZmpucnZ6fkqOkpaanqKmqq6ytrq+v/aAAwDAQACEQMRAD8A9U4q7FXYq7FXYq+av+co&#xA;f+Uu0r/tnj/k9JmXp+TKLzHyd/yl2h/9tC1/5PLl0uRS+481zB2KuxV2KuxV8p/85F/+TKm/5hbf&#xA;/iJzNwfSyDF/yw/8mJ5c/wC2hb/8TGSyfSUl9qZgMHYq7FXYq7FXYq7FXYq7FXYq7FXYqg9a1A6b&#xA;o1/qKp6jWdvLcCMmgYxIX413pWmECyrwb/oae/8A+pdi/wCkpv8AqnmT+X82XCgrm1m/Om4OtSyL&#xA;obaYi2YgVDdBwS0nPkWh4/apSmW44cOy8lJ/yWPltG8xLrIum0UHUBbG29MSm1/fenz9ZuPLhStD&#xA;TJkWFtMv+hp7/wD6l2L/AKSm/wCqeY/5fzXhep/lX5/m88eXrjVpbJbFoLt7UQrIZAQkUcnKpVf9&#xA;+0ynJDhNIIZllaEq81a02h+W9S1hIhO1hbyXAhJ4hzGtePKhpX5ZKIs0rw//AKGnv/8AqXYv+kpv&#xA;+qeZH5fzZcKBm8sy/m7PJ5uku10ZmItPqaxG5H7hR8fqF4evLpxy6EeEUt0s/wCVUt5IZPNy6qL9&#xA;tEdLwWZt/SEpiYHh6nqyca+PE4ZCxS2mP/Q09/8A9S7F/wBJTf8AVPKPy/mvC9c/LXzpL5x8sJrU&#xA;totmzzSRegrmQfuzSvIhevyyjJDhNILKcgh2KuxV2KuxV2KuxV2KuxV2KpR5wUt5S1tVFWNhdAAd&#xA;SfRbJR5hXxH+j7//AJZpf+Ab+mbC2b2f8iJ4LHR9US9kW1d7hCizERkjh1AamLGTOfOGqaZL5S1u&#xA;KK7hklksLpURZELMxhYAAA7k4oD5e+oX3/LPL/wDf0xZvo//AJxvv7HT/I99Df3MVpM2pyusc7rG&#xA;xU28ADAOQaVBzEzjdiXrEeu6JLIsceoWzyOQqIs0ZYsTQAAHcnKaKEm/M1Wf8vfMSoCzGwnAUCpJ&#xA;4HJY/qCQ+Mv0ff8A/LNL/wAA39Mz7ZPePyUu7Wy8mtDeTJbTfW5W9OZhG1CqUNGINMWJT38w9R0+&#xA;48k6xDBdQyzPbsEjSRWZjUbAA1OKh80/UL7/AJZ5f+Ab+mLJ9O/kBqWnWP5dwwXt1Dazi5nYxTSL&#xA;G9CwoeLEHMPMDxMS9Lg1rR55VhgvreWV9ljSVGY99gDXKqKEZgV2KuxV2KuxV2KuxV2KuxV2KuxV&#xA;81f85Q/8pdpX/bPH/J6TMvT8mUXlnlj/AJSXSf8AmNt/+Tq5el9b4sHz3+e//Kbp/wAwUX/E3xZB&#xA;jP5ff8p95a/7atl/1EJkZ/SUl9t5r2DsVfKf/ORf/kypv+YW3/4iczcH0sgxH8vv+U30P/mMh/4k&#xA;MtSX1TiwfN/50/8AkwL3/jFB/wAmlxZBZ+Sn/k0dB/4yyf8AJiTK8v0lJfYmYLB2KuxV2KuxV2Ku&#xA;xV2KuxVA67fyadoeo6hEoeWztprhEavEtFGXANO22ECyr54/6Gh83f8AVq0/7pv+qmZX5cMuFVtr&#xA;aT85ZH1nWXGmT6YFs447NaoyGsnJvULGtWyyEOFeTd7+TGl+X7K416DUZ5p9Jje+ihdECO9splVW&#xA;pvQlKGmTW0m/6GC8yf8AVts/+Sv/ADXivCyLyv5Fg/OCzn80ardtplzbznTxb2qBoykUaSh6yEmp&#xA;M5H0ZTkymJpeTJtC/wCcb9E0jW9P1WPWLmWTT7mG6SJo4wrNDIJApI7HjlRzkiqRb0nzfrM+ieV9&#xA;V1e3RZJ7C2kuI45K8GaNSQGoQaZVEWaQ8B/6Gh83f9WrT/um/wCqmZP5cMuFWtfLSfmyJPNurTnT&#xA;rtm+qG3tVrHxhUUb94Wap5eOWwjwilumr/8AKjT/ACfaSeaLS/lubnSKXUNvKqhHZCCAxXenyyS2&#xA;k/8A0MF5k/6ttn/yV/5rxXhZN5c/LO0/NXTz5w1O+k067uJGga2tkVowIAEBBcltxlGTKYmlumW+&#xA;UP8AnH/R/LXmOy1yDVri4lsmZ1heNArckZNyN/2sqlmJFIt6rlKHYq7FXYq7FXYq7FXYqgr/AFzR&#xA;dOdE1DULazeQckW4mjiLAbVAciuEAlUg81eavK9x5X1iCDWLGWeWxuUiiS5hZ3doWCqqhqkk7ADJ&#xA;RibGyXx9+g9a/wCrfc/8iZP6ZnsnsH5IXVtpGk6lFq0yafLLOjRpdMIWZQlKqJONRixLNfNuvaHc&#xA;+VdZt7fUbWa4msbmOGGOaN3d3hYKqqCSSSaADFAfNn+Htf8A+rbdf8iJP+acHEGb6T/5xrs7y08i&#xA;30d1BJbyHVJWCSoyMVNvAK0YDbbMTOfUxL0q/wBf0LTphDqGo2tnMyh1inmjiYqSQGCuwNKg75UI&#xA;koYp+Ynmby3eeRdetLPVbO5up7KaOC3huInkd2QhVRFYsxJ6AZOETxDZIfJf6D1r/q33P/ImT+mZ&#xA;zJ7h+TeoWGl+UWtdTuYrG5+tSv6Fy6wvxKpRuLlTQ0xYlO/P2s6Pe+TtWtLK+t7m6mgKQ28MqSSO&#xA;xI2VFJYn5YkqHzt/h7X/APq23X/IiT/mnBxBk+ov+cfbW6tfy5hiuYXglF1OTHIpRqFhTZgDmHm+&#xA;piXpOVIdirsVdirsVdirsVdirsVfOX/OUn/Hf0P/AJhZP+TmZWn5FlF4/of/AB2tP/5iYf8Ak4My&#xA;EvrzFg8I/wCcgv8AlJNN/wCYP/ma+LKLBPJ3/KXaH/20LX/k8uCXIpfcea5g7FXzF/zk9/yn1h/2&#xA;yof+oi4zL0/0sg878lf8ploP/bRtP+T6ZekvrDFg+dfzx/5TuT/mGh/UcWQSb8sP/JieXP8AtoW/&#xA;/ExkMn0lJfamYDB2KuxV2KuxV2KuxV2KuxV2KuxV85f85Sf8d/Q/+YWT/k5mVp+RZReP6H/x2tP/&#xA;AOYmH/k4MyEvrzFg8I/5yC/5STTf+YP/AJmviyiwTyd/yl2h/wDbQtf+Ty4Jcil9x5rmDsVfMX/O&#xA;T3/KfWH/AGyof+oi4zL0/wBLIPO/JX/KZaD/ANtG0/5Ppl6S+sMWD51/PH/lO5P+YaH9RxZBJvyw&#xA;/wDJieXP+2hb/wDExkMn0lJfamYDB2KuxV2KuxV2KuxV2KuxV2KuxV4J/wA5IeWvMer63o8mlaVe&#xA;ahHFbSLK9rbyzKrGSoDGNWocycEgAbZB5Ppvkjzpaaha3d15f1KC1t5o5Z55LOdESNGDM7sUAVVA&#xA;qScv4x3pt9B/8rA8kf8AV8sv+Ryf1yTCnlP5uxzeaNbs7ry3FJrNtBbelPNYxvcIjmRm4sYwwBoa&#xA;4sgxTy55Y8y6f5h0u/vtIvbWytLuCe6uZraZI44o5Vd3dmUBVVQSScEuSbfVX/Kz/wAu/wDqY9P/&#xA;AOkhP65g+HLuY0nOja9o2t2rXWkXsN/bI5ieaBw6hwAxUkd6MDkSCOaHgn/ORXlbzNq3nayudK0i&#xA;9v7dNNijaa1t5ZkDieclS0asK0YGmZOCQA3ZB575d8oebdL8w6VqWpaHqFlp9neW893dz2k8cUUU&#xA;cqs7yOyBVVVFSTlwmO9L3v8A5WB5I/6vll/yOT+uSYU8b/NGwv8AzH5rk1Ly/aT6tp5hij+t2UUk&#xA;8XNAeS84wwqK7jFkEu8i6Br2kectF1TVdMu7DTrO8hmu7y4t5YoYo1cFnd2UKoHicjMbFJfT3/Kz&#xA;/wAu/wDqY9P/AOkhP65heHLuY0nek6zpWr2YvNLu4r20LFRPAwdOS9RUeGRII5oRmBXYq7FXYq7F&#xA;XYq7FXYq7FXYqlHnH/lEdc/7Z91/yZbJR5hXw3mwbHuf/OPf/HF1b/mJT/k3iwkz7zr/AMobr3/b&#xA;Ou/+TD4oD5OxbH07/wA4w/8AKA3/AP21Zv8AqHt8xNR9TAvXsoQxj8z/APyXfmP/ALZ9x/xA5PH9&#xA;QSHxXmezfQ35Ef8AKEP/AMxk3/EUxYST/wDMr/lBNa/5hm/WMUB8tYtj6t/5x0/8lrD/AMxVx/xI&#xA;Zh5/qYF6dlKHYq7FXYq7FXYq7FXYq7FXYqhtSsIdR0660+YssN5DJBKyEBgsqlGKkgitDtthBpXl&#xA;X/QsPkH/AJb9V/5HW/8A2T5d+Ykm2E+d5Jvyg1SHR/K8huLXUYBdztqAWVxIHaOimIQgLRfDL8Uz&#xA;Ibp5pJZfm15q8w3kGgXy2yWWryJYXTQxssgiuWETlCzMA3FzSoOTkaC09R/6Fh8g/wDLfqv/ACOt&#xA;/wDsnzF/MSRbO/InkTSPJWkTaVpU1xNbzXDXTNdMjuHdEjIBjSMUpGO2VzmZGyglkeQVA69o1rre&#xA;jXukXTOltfwvBM8RAcK4oSpYMK/MYQaNq8v/AOhYfIP/AC36r/yOt/8Asny78xJNsB83a9qP5V63&#xA;L5V8uMs+mqqXQkvlEs3qTL8XxR+itPh2+HMjHLiFpq0Do/5k+Y/OOrWXlbVRBHp2szx2l09vGUmE&#xA;cjAEozM6hvmpyUjQtaemf9Cw+Qf+W/Vf+R1v/wBk+Yv5iSLeg+S/J2meUNDXRtNlnmtUkeUPcsjS&#xA;cpDU7osYp9GVTkZG0J7kVdirsVdirsVdirsVdirsVdirsVdirwH/AJyI8oeaNb8z6bcaRpVzfwR2&#xA;Qjkkt4mkVX9VzxJA60OZOCQA3ZB575W/Ljz7b+Z9IuJ/L99FBDe20ksjQOFVFlUsxNOgAy2U41zT&#xA;b7AzBYOxV2KuxV2Kvm789fJPm/V/P8t5pej3d7aG2gUTwRM6clBqKgdsy8MwI7lkCx38vPy8882X&#xA;nnQru70K9gtYL2GSaaSF1REVwSzEjYDJTmKO6kvrPMJi7FXYq7FXYq7FXYq7FXYq7FXYq7FXYq7F&#xA;XYq7FWMeZ/zL8k+V7+PT9d1L6ndyxC4ji9G4lrGzMgblFG6/aRtq1yccZPJNJR/yvn8qP+r5/wBO&#xA;t5/1RyXgy7lp3/K+fyo/6vn/AE63n/VHHwZdy07/AJXz+VH/AFfP+nW8/wCqOPgy7lpE6X+c35ba&#xA;pqNtp1hrHrXt3IsNvF9Wul5O5oo5PEqjfxOA4pDotM1ytDsVdirsVdirsVdirsVdirsVdirsVdir&#xA;sVdirsVdirsVfMX/ADk9/wAp9Yf9sqH/AKiLjMvT/SyDyHL2TsVdirJ/yw/8mJ5c/wC2hb/8TGQy&#xA;fSUF9qZgMHYq7FXYq7FXYq7FXYq7FXYq7FXYq7FXYq7FXiv59/mJ5x8q6vpVvoOofU4bm3eSZfRg&#xA;l5Mr0BrKjkbeGZGGAI3SA8t/5Xz+a/8A1fP+nWz/AOqOXeDHuZU7/lfP5r/9Xz/p1s/+qOPgx7lp&#xA;6J+Wfl+w/NXTbzXfPPPU9Ts5hY286N9WCwKolCcLcRKfjlY1IrlWSXBtFB2ZfN/zj/8AlgsTsNOl&#xA;qqkj/SZ+w/18gM0rRaWf8qN/Lj/lgl/6SJv+asu4ytu/5Ub+XH/LBL/0kTf81Y8ZW0s8z/lr5T8q&#xA;aDeeY9Dt5LbWNKQXNjcGV5QkqMCrcJCyNTwYUw8V7FQXmX/K+fzX/wCr5/062f8A1Rw+DHuZU7/l&#xA;fP5r/wDV8/6dbP8A6o4+DHuWmR/lz+cX5j6x540fTNR1f17G6uBHcQ/V7VOSkE05JErD6DkJ4ogE&#xA;oIfTOYjF2KuxV2KuxV2KuxV2KuxV2KqdzcRW1tLcTGkUKNJIQK0VBU7D2GKvPf8AoYL8rv8Aq4y/&#xA;9I0//NGW+DJNPO/zMgu/zY1K0vPIkDapb6XCYb5nKW3B5XLIKXDRFqhT9nLcfo+pI2YY/wCRP5qo&#xA;pdtDoqgkn61Z9B/z2ywZY96bQn/KnvzG/wCrR/08Wv8A1Vyxbe3/AJD6PqflXy7qFnrsBtLie89a&#xA;JAyS1T0kWtYmcdVOUZsZkdmJL0mbV7FonUOaspA+E9xlQwytCWfWofH8Dl3AUO+tQ+P4HHgKpB59&#xA;tbjVfJ2radYJ615cwFIIqheTEjbk5VR9JwiJtIfPP/KnvzG/6tH/AE8Wv/VXLWdr0/Jj8y3FV0eo&#xA;/wCYm1/6q4DIBbTfyn5E82+TfMmneZ/MOnm00XS5lmvbkSwSlEPw14RSO7fEw6DITNigi3tH/QwX&#xA;5Xf9XGX/AKRp/wDmjMbwZIpmXlrzLpHmTSItW0mUzWMxdY5GRkJKMVb4WAPUZXKJBooTTArsVdir&#xA;sVdirsVdirsVQHmH/jgal/zCz/8AJtsMeavhPNi2PoX/AJxX/wB4PMX/ABltf+Iy5jajoxk9xu/9&#xA;5Zv9Rv1HKIcwxYnmwV2KuxV2KuxV2KuxVHWn9z9JyqfNWKfm9/5LjW/+MUf/ACeTBHmofKWXNj61&#xA;/wCcff8AyV2nf8Zbn/k++YWb6mBejZUh2KuxV2KuxV2KuxV4n/zkR5x8z+Xr3RE0XUZrFbiO4M4i&#xA;IHIo0YWtQelTmRgiDdsg8jg/NT8w7maO2uNeuZIJ2EcsbFaMjniynbuDl/hx7k0+kf8AlSn5Xf8A&#xA;Vhi/5Gz/APVTMTxZd7G0x0ryn5e8qLJH5fs1sEuyGuAjO3MpUL/eM/TkemSieLmglW1S/u1027ZZ&#xA;CGEMhB26hDgyACJI7mzCAZgHvDy/9O6v/wAtT/hmq/NZP5xej/J4v5od+ndX/wCWp/wx/NZP5xX8&#xA;ni/mhptf1lFLC6eqgkVodx7EY/m8v84o/J4v5oQ/+L/MX/LX/wAk4v8AmnD+ey9/3MfyGH+b9p/W&#xA;7/F/mL/lr/5Jxf8ANOP57L3/AHL+Qw/zftP63f4v8xf8tf8AyTi/5px/PZe/7l/IYf5v2n9bv8X+&#xA;Yv8Alr/5Jxf804/nsvf9y/kMP837T+t6H5RvLm80C2ubl+czmTk9AtaSMBsoA6DNlp8hnAE83Saz&#xA;HGGQiPJHappdhqthNp+oQi4s7gBZoWJAYAhhupB6jL3GYz/yqH8uP+rJF/yMm/5ryXEVt4/5782e&#xA;ZPJvm3UPL3ljUZtL0W0MRtrKFqohlgjlenLk3xO5PXJCAO5ZBIf+Vu/mV/1MN1/wS/0w+FHuTTv+&#xA;Vu/mV/1MN1/wS/0x8KPctPpn8ndX1PWPy40jUdTuHur6f6x61xJuzcLqVFrTwVQMxMoqWzEszytD&#xA;sVdirzH/AKGL/LX/AH9df9I7f1y7wJJpgf5k3B/Nu6spfJcbXS6NG6331jjb8TckGPjzI5V9FumW&#xA;448HNI2Ylafkh+Ykd3DI9jEESRWY/WIegIJ/ayzjC2+r/r9r/MfuOYfAWLG/NfnPQ9Jmt47t5Oci&#xA;syhEJ2BA36ZCWaOPaTkYNLPKCY9GN3v5j+WriyuII3m5yxuiVjNKspArvlc9ZAxIcvF2fljIE1sW&#xA;F/WofH8Dmrt3q9JFcVU1HTFXS/3T/wCqf1Yql2RV2KrJpUijaR/sqKmmKoP9N2Pi3/A4qzryx+Zf&#xA;ljTtEt7O5eYTRl+XGMkfE5Yb18Dmy0+qhCABdPq9FkyZDIVSf6Z+ZfljUr+CxtnmM9w3CMNGQKnx&#xA;NcyIauEjQcPJoMkImRqgyvMpwng/5mflT5113zvqWq6baRy2Vz6HpO00aE8LeONvhZgftKcsjIAM&#xA;wWNR/kR+ZUjBE0+Ise31iH/mrCcgC2rf9C+/mj/1bYv+kmD/AJryPjRTb0ryV+Znln8vvLVp5P8A&#xA;Mpng1zSjMt5FFH6yKZpnnSjqeJ+CVemVTxmRscmNMy8rfnJ5K8zazFo+ly3DXsyuyCSEotI1Lt8R&#xA;PgMrliIFlaZxlaHYq+BM2TY9v/5xp/6aP/oy/wCZ+V5GEnt+VsXYq8w/Nv8A46Vh/wAYW/4nmq7Q&#xA;+oe53nZX0n3sET7a/MZgO2TXFCMs/wC6P+t/AZIKqy/3T/6p/ViqXZFXYqhtS/3hm/1cVYxirsVT&#xA;7yH/AMphpP8AxnX9Ry7T/wB4Pe42s/upe59D5vnl3YqiLD/epfkf1ZCfJKa5Qr47/Ov/AMmjr3/G&#xA;WP8A5MR5nYvpDMJh/wA4+/8Ak0dN/wCMVz/yYfBm+lS+tMwmDsVfAmbJsez/APOOjuv+IeJIr9Tr&#xA;T/nviQxk9nE0tR8Z+/BwhimGUIS/UdB0fUnSS+tUuHjHFGeuwO9Njlc8UZcw3Y884fSaSnV/KHlq&#xA;DSb2aLT4kligleNxWoZUJB6+OU5NPARJro5GHV5TMAyPMPHfXm/nP35pXo16Xt0goshA64qtn1C9&#xA;9GT9632T+rG1Sj6/e/7/AH+84q76/e/7/f7zirT3l26lXlZlPUEmmKqOKvW/y08qeXdT8sJdX9jH&#xA;cXBmkUyPWtBSg2ObTSYYShZDpNfqMkMlRNCmWxeTvLFjIt3aadFDcwnlFKoNVPSoqczMengJAgOD&#xA;LVZJCidkZ60v85+/MvhDQwXzVrmsW+tTRQXk0UYVCEVyAKqO2ZGPHEjkwJX+Tde1qbzJaRTXs0kb&#xA;epyRnJBpEx6H3yObHHhOygvTfrdz/vw5gcIZpbdflx5H1i4fUtT0a3ur64+Ke4kDcmIHEVofADIG&#xA;ZBoLbBfzd8q+X/Jvk9tc8rWSaPq8VxFHHfWpZJVSSquoav7Q2OSxSMjRSHh//Kz/AMxP+pj1D/pI&#xA;f+uZHhx7mVPoX9Paz/yoL9M/XZv0r+jfV+vcz63PnTlz61zGocdMer5TzMZvZf8AnHb/AKaD/oz/&#xA;AOZ+LGT2YdcWKL+uReDfh/XKvDKqkUyyV4ginjkTGlUdUtpLnTbu2jp6k8MkaV2HJ0Kiv35XONxI&#xA;8meKQjIE9C8t/wCVW+Zv5rb/AJGN/wA05qvyM/J3v8p4vN3/ACq3zN/Nbf8AIxv+acfyM/Jf5Txe&#xA;a2X8q/M7Rsoa2qwIH7xu/wDscfyM/Jf5TxeaA/5U95t/ntf+Rjf80Y/kZ+SP5Txebv8AlT3m3+e1&#xA;/wCRjf8ANGP5Gfkv8p4vN3/KnvNv89r/AMjG/wCaMfyM/Jf5Txebv+VPebf57X/kY3/NGP5Gfkv8&#xA;p4vN6V5D0C+0Ly+thelDOJXcmMllo1KbkDNhpsRhGi6rWZo5J8Q5J9cf3Lf598yo83FQGXK8b/MT&#xA;zppen+br2yminaWARB2RUKnlErilXB6N4ZdDIAKQYEpd5c/NXy9pms297Pb3bRRc+SokRb4kZRSs&#xA;ijq3jgyTEo0ogWbf9DF+Sf8Ali1L/kVB/wBV8xeAsuF6b5P846X5g8uWer2cc0dtc+pwSZVDj05W&#xA;jNQrOOqeOUTxm0MN/wCchryKb8uJkStfrVudx/lHJYYESSHyzmUzfTv/AK7X/wBur/mZmJ/lGHV8&#xA;xZls3sv/ADjt/wBNB/0Z/wDM/FjJ7LixdiqLsuj/AEZXkVE5Wh2KuxV2KuxV2KuxV2KuxVSuP7lv&#xA;8++SjzSgMuV80fnD/wCTG1f/AKN/+oWLFmGGYpdir6m/JX/yWWjf9HP/AFFy5TPm1nmgvz6/8l7N&#xA;/wAxMH/EjjDmmL5my5m+nf8A12v/ALdX/MzMT/KMOr5izLZvZf8AnHb/AKaD/oz/AOZ+LGT2ZftD&#xA;54sWU/ULL/fCfcMwPEl3qlGsxpBNGIR6YK1IXau/tmRhNjdUv9WX+dvvOXUFd6sv87fecaCu9WX+&#xA;dvvONBXerL/O33nGgrvVl/nb7zjQV3qy/wA7fecaCu9WX+dvvONBXerL/O33nGgrvVl/nb7zjQVo&#xA;ySEULEjwJOGgq3FXl3nnRdJuPMtzPPaRSTOsfORlBJpGoFT8hmRjiCGBJUPKHlXy3c+YrSC40y3l&#xA;hf1OUbxqQaRMRUU8RgzRAiaUSL0n/lXPkP8A6sFj/wAiE/pmDxFnadadp1hptnHZWFulraRV9OCJ&#xA;QqLyYsaAeLEnArA/z6/8l7N/zEwf8SOShzTF8zZczfTv/rtf/bq/5mZif5Rh1YB/0LD5+/5b9K/5&#xA;HXH/AGT5Z+Yim0VpltdfkxNNF5jEd+2uKjWx05i4QWpYP6nrLD19YUpXLIZBLkvNNIPz+8tyTxxj&#xA;TrwF2Cgn0u5p/Pk0cL2v9P23++3/AA/rmL+XKFCdG1Z+cFEEQowkNOtTtSuSifD5qpSaJdxxs5eO&#xA;iAsaE9hXwyQzglUuy5XYq7FXYq7FWncIjOeigk09sIQhf0nB/K/3D+uT8Mo4kTDKssYdagHpXrtt&#xA;kCKSG5HCIznooqaYgKhf0nB/K/3D+uT8Mo4mBebJVl1uZ1qAVTr7KMvgKDElV8kf8pRZf89f+TL5&#xA;DP8AQVHN6vmvZvOPM353+X/L+u3ej3Nhdyz2jKryR+nwJZQ+3Jwf2smIWypjusedbT81bZPJ2hW0&#xA;lnqN04njnviqwBbcGRgTF6r1IG3w4n07lNUlH/QsPn7/AJb9K/5HXH/ZPkfzEVt7F/gTV/8AlUX+&#xA;DfWt/wBJ/Uvqvrcn9DnyrXlw50/2GUcY4rRbO8rQ+ev+cp/97/Lv/GK6/wCJR5lafqyi8Qsf97bf&#xA;/jKn/EhmQl9h4sE68vfZn+a/xzG1HRUyu/8AeWb/AFG/UcohzCsTzYK7FXYq7FXYqp3H+88n+qf1&#xA;ZKPNBSXL2Cb2H+8qfT+s5TPmzC+6/wB55P8AVOCPNSkuXsGIeYv+OrJ8l/4iMmEIryR/ylFl/wA9&#xA;f+TL5Xn+gpHN6vmvZvlL83v/ACY+t/8AGWP/AJMpl0eTYE2/5x9/8mjpv/GK5/5MPkM30qX1pmEw&#xA;dirsVfPn/OUsjpqHl7gxWsVzWhp+1HmVp+rKLxGznnN5ADIxBkSoqf5hmQl9TevP/vxv+COZHCGi&#xA;0x0yaYxPV2+14nwyrIBbKKMMspFC7U+ZyFBksxVAajJIkqhXKjj0BI75bAMJKFtNMZ4wZGILCoJO&#xA;SkBSgptlDNL9RlkSdQrlRxGwJHc5bAbMJKVpNK1wis7FSdwSSOmSkBShNOK+AylkwfzjfXtvrHpw&#xA;XEsSekp4I7KKmvYHL8YBDGSB0XUdQl1OGOW6mkjblyRpGIPwHqCcmYhFspyKvBfzPvb2PzxqSR3E&#xA;iIPQoquwArbxnoDlMzu2x5MXTVdTRgyXk6sOjCRwf15BlSp+ntc/6uNz/wAjpP640r6g/JjQdD1T&#xA;8tdHvtS061vr2b6z611cwxzSvxupVXk7qzGiqAKnpmHlkRIsSzyz8ueXrG4W4stLtLW4WoWaGCKN&#xA;wCKGjKoO4yoyKExwK7FXYq8w/OP8qtZ883Oly6dd29stikySC451YyFCOPBW/ky7FkEUgvN5f+cb&#xA;PNWnxPfy6nYvHaKZ3VTNyKxjmQKp12y0Zwm1v/K8NI/6ttx/waZmeIw4Gcfl151tPNFtevb20luL&#xA;R0DeoQa+oD0p/q5CUrXhpl7uERnPRQSfowJY3/j3Sv8AfE/3J/zVlnhFjxI6yu4NbhN1b8okjYxF&#xA;ZAK1ADV2J/mx+nZeaKi05kkV+YPE1pTAZrwo3K2SWan/AH6/6g/Wcux8mElC3kEcyudwp3pkpCwg&#xA;I/8AScH8rfcP65X4ZZcTB/OMyzaxzUED0lG/zOXYxQYkpF+mItGDanLG0sdsCzRqQCajjtX54Zmg&#xA;oFlD/wDK8NI/6ttx/wAGmU+Iz4HQ/lPrn5kmTzhpl3bWVnqDcI7a5MhlU26iBq8EZdzHUb5jZM4B&#xA;ZDZU/wChXvN3/V10/wC+b/qnkPzATxO/6Fe83f8AV10/75v+qeP5gLxPcPy38r3nlbyXp2g3ksc9&#xA;zZ+tzlh5cD6s8kopyCno/hmPOVm0FkuQQ7FXYq7FXYqgPMP/ABwNS/5hZ/8Ak22GPNXwnmxbHtn/&#xA;ADjx/vFrf/GWD/iL4sJPWrn/AHnl/wBRv1YQxeR5mNbPPIf/ABx5v+Yhv+IJmPl5s4skypk7FUs1&#xA;P+/X/UH6zl2PkwkhMmh2KsU8zf8AHSH/ABjX9ZycUMT81f8AKP3v/GP/AI2GRyfSyhzeVZit761/&#xA;5x9/8ldp3/GW5/5PvmFm+pgXo2VIdirsVdirsVdirsVdirTKrKVYBlYUZTuCDiqB/wAPaB/1bbX/&#xA;AJER/wDNOHiKvn7/AJyVhh0/XNGSwjWzR7WQusAEQYiSlSEpXMrAdiyDybSL28OrWQM8hBniBBdv&#xA;5x75ekvprMloXK7qKKxA8AaY0qhqE84sLkiRgRE5BBPXicQArCv0hf8A/LTL/wAG39cnwhFtG+vT&#xA;ubiQ/N2/rhoK19cvP9/yf8G39caV31y8/wB/yf8ABt/XGleaeebu6/xDL++fdI6/Ef5fnmLk+puh&#xA;yRn5VO9z+YmgwXDGaCS6AkikPJWHE7FTUHKcn0lkX13/AIe0D/q22v8AyIj/AOacweIsEXb21tbR&#xA;CG3iSGIVIjjUIorudhQYFVMVdirsVdirsVdirsVdirsVdirzT81/yhufPWoWF3FqaWAs4WiKPEZe&#xA;XJuVahkpluPLwpBYBd/84332i2s2strsU66ZG14YBbspcQAyceXqGnLjStMuGezyTaSf8r1/7Un/&#xA;AE9f9eczPEY+G7/lev8A2pP+nr/rzj4i+Gp3P53+tbyw/oXj6iMnL6zWnIUr/c4+Ijw0i/5WR/2r&#xA;v+S3/XvJeN5L4bv+Vkf9q7/kt/17x8byXw3f8rI/7V3/ACW/694+N5L4bv8AlZH/AGrv+S3/AF7x&#xA;8byXw2WeWvyiu/zG0weZotSj0xZXaD6q0RmI9GgrzDR9flmJlz1LkyG2zLvJ3/OO975e8z6drT63&#xA;HcLYzCUwC3ZC1ARTkZDTr4ZTLPYqk29szHYuxV2KuxV2KuxV2KuxV2KuxV2KuxV2KpR5x/5RHXP+&#xA;2fdf8mWyUeYV8N5sGx2KuxV2KuxV2KuxV9W/846f+S1h/wCYq4/4kMw8/wBTAvTspQ7FXYq7FXYq&#xA;7FXYq7FXYq//2Q==</xmpGImg:image>
               </rdf:li>
            </rdf:Alt>
         </xmp:Thumbnails>
         <xmpTPg:MaxPageSize rdf:parseType="Resource">
            <stDim:w>1000.000000</stDim:w>
            <stDim:h>1000.000000</stDim:h>
            <stDim:unit>Pixels</stDim:unit>
         </xmpTPg:MaxPageSize>
         <xmpTPg:NPages>1</xmpTPg:NPages>
         <xmpTPg:HasVisibleTransparency>False</xmpTPg:HasVisibleTransparency>
         <xmpTPg:HasVisibleOverprint>False</xmpTPg:HasVisibleOverprint>
         <xmpTPg:PlateNames>
            <rdf:Seq>
               <rdf:li>Cyan</rdf:li>
               <rdf:li>Magenta</rdf:li>
               <rdf:li>Yellow</rdf:li>
               <rdf:li>Black</rdf:li>
            </rdf:Seq>
         </xmpTPg:PlateNames>
         <xmpTPg:SwatchGroups>
            <rdf:Seq>
               <rdf:li rdf:parseType="Resource">
                  <xmpG:groupName>預設色票群組</xmpG:groupName>
                  <xmpG:groupType>0</xmpG:groupType>
               </rdf:li>
            </rdf:Seq>
         </xmpTPg:SwatchGroups>
         <dc:format>image/svg+xml</dc:format>
         <xmpMM:DerivedFrom rdf:parseType="Resource">
            <stRef:instanceID>xmp.iid:689269df-bae6-46df-a405-d72cc7fbcd55</stRef:instanceID>
            <stRef:documentID>xmp.did:689269df-bae6-46df-a405-d72cc7fbcd55</stRef:documentID>
            <stRef:originalDocumentID>xmp.did:44547704-06a0-4a0b-8304-a67327206882</stRef:originalDocumentID>
         </xmpMM:DerivedFrom>
         <xmpMM:DocumentID>xmp.did:811b5823-de9f-42e9-a8cb-8aca8d269baf</xmpMM:DocumentID>
         <xmpMM:InstanceID>xmp.iid:811b5823-de9f-42e9-a8cb-8aca8d269baf</xmpMM:InstanceID>
         <xmpMM:OriginalDocumentID>xmp.did:44547704-06a0-4a0b-8304-a67327206882</xmpMM:OriginalDocumentID>
         <xmpMM:History>
            <rdf:Seq>
               <rdf:li rdf:parseType="Resource">
                  <stEvt:action>saved</stEvt:action>
                  <stEvt:instanceID>xmp.iid:44547704-06a0-4a0b-8304-a67327206882</stEvt:instanceID>
                  <stEvt:when>2026-03-12T20:23:29+08:00</stEvt:when>
                  <stEvt:softwareAgent>Adobe Illustrator 30.2 (Macintosh)</stEvt:softwareAgent>
                  <stEvt:changed>/</stEvt:changed>
               </rdf:li>
               <rdf:li rdf:parseType="Resource">
                  <stEvt:action>saved</stEvt:action>
                  <stEvt:instanceID>xmp.iid:811b5823-de9f-42e9-a8cb-8aca8d269baf</stEvt:instanceID>
                  <stEvt:when>2026-03-12T20:37:01+08:00</stEvt:when>
                  <stEvt:softwareAgent>Adobe Illustrator 30.2 (Macintosh)</stEvt:softwareAgent>
                  <stEvt:changed>/</stEvt:changed>
               </rdf:li>
            </rdf:Seq>
         </xmpMM:History>
      </rdf:Description>
   </rdf:RDF>
</x:xmpmeta>
                                                                                                    
                                                                                                    
                                                                                                    
                                                                                                    
                                                                                                    
                                                                                                    
                                                                                                    
                                                                                                    
                                                                                                    
                                                                                                    
                                                                                                    
                                                                                                    
                                                                                                    
                                                                                                    
                                                                                                    
                                                                                                    
                                                                                                    
                                                                                                    
                                                                                                    
                                                                                                    
                           
<?xpacket end="w"?>
  </metadata>
</svg>