<?xml version="1.0" encoding="UTF-8"?>
<svg id="_圖層_1" xmlns="http://www.w3.org/2000/svg" version="1.1" viewBox="0 0 1000 1000">
  <!-- Generator: Adobe Illustrator 30.2.1, SVG Export Plug-In . SVG Version: 2.1.1 Build 1)  -->
  <polygon points="635.304 454.899 635.304 409.757 590.162 409.757 590.162 364.696 545.102 364.696 499.959 364.696 454.899 364.696 409.757 364.696 409.757 409.757 364.697 409.757 364.697 454.899 319.555 454.899 319.555 499.959 319.555 545.102 319.555 590.162 319.555 635.304 364.697 635.304 364.697 680.364 409.757 680.364 409.757 725.423 409.757 770.565 454.899 770.565 454.899 815.626 499.959 815.626 545.102 815.626 545.102 770.565 590.162 770.565 590.162 725.423 590.162 680.364 635.304 680.364 635.304 635.304 680.363 635.304 680.363 590.162 680.363 545.102 680.363 499.959 680.363 454.899 635.304 454.899" fill="#fd6a84"/>
  <g>
    <polygon points="680.363 364.696 635.304 364.696 590.162 364.696 590.162 409.757 635.304 409.757 635.304 454.899 680.363 454.899 680.363 409.757 725.424 409.757 725.424 364.696 680.363 364.696" fill="#7fd86e"/>
    <polygon points="545.102 319.554 545.102 274.494 545.102 229.352 499.959 229.352 499.959 274.494 499.959 319.554 454.899 319.554 409.757 319.554 409.757 364.696 454.899 364.696 499.959 364.696 545.102 364.696 590.162 364.696 590.162 319.554 545.102 319.554" fill="#7fd86e"/>
    <rect x="454.899" y="184.292" width="45.06" height="45.06" fill="#7fd86e"/>
    <polygon points="319.555 364.696 274.495 364.696 274.495 409.757 319.555 409.757 319.555 454.899 364.697 454.899 364.697 409.757 409.757 409.757 409.757 364.696 364.697 364.696 319.555 364.696" fill="#7fd86e"/>
  </g>
  <g>
    <rect x="454.899" y="590.162" width="45.06" height="45.142" fill="#ffaab0"/>
    <rect x="454.899" y="409.757" width="45.06" height="45.142" fill="#ffaab0"/>
    <polygon points="454.899 499.959 454.899 454.899 409.757 454.899 364.697 454.899 364.697 499.959 364.697 545.102 409.757 545.102 409.757 590.162 454.899 590.162 454.899 545.102 454.899 499.959" fill="#ffaab0"/>
  </g>
  <g>
    <polygon points="635.304 454.899 635.304 499.959 590.162 499.959 590.162 545.102 590.162 590.162 590.162 635.304 545.102 635.304 545.102 680.364 545.102 725.423 499.959 725.423 454.899 725.423 409.757 725.423 409.757 770.565 454.899 770.565 454.899 815.626 499.959 815.626 545.102 815.626 545.102 770.565 590.162 770.565 590.162 725.423 590.162 680.364 635.304 680.364 635.304 635.304 680.363 635.304 680.363 590.162 680.363 545.102 680.363 499.959 680.363 454.899 635.304 454.899" fill="#fd265b"/>
    <rect x="590.162" y="409.757" width="45.142" height="45.142" fill="#fd265b"/>
    <rect x="545.102" y="364.696" width="45.06" height="45.061" fill="#fd265b"/>
    <rect x="454.899" y="364.696" width="45.06" height="45.061" fill="#fd265b"/>
    <rect x="364.697" y="635.304" width="45.06" height="45.06" fill="#fd265b"/>
    <rect x="364.697" y="409.757" width="45.06" height="45.142" fill="#fd265b"/>
    <rect x="319.555" y="545.102" width="45.142" height="45.06" fill="#fd265b"/>
  </g>
  <g>
    <rect x="635.304" y="409.757" width="45.059" height="45.142" fill="#02882c"/>
    <rect x="590.162" y="364.696" width="45.142" height="45.061" fill="#02882c"/>
    <polygon points="545.102 319.554 499.959 319.554 499.959 364.696 545.102 364.696 590.162 364.696 590.162 319.554 545.102 319.554" fill="#02882c"/>
    <rect x="454.899" y="274.494" width="45.06" height="45.06" fill="#02882c"/>
    <rect x="364.697" y="364.696" width="45.06" height="45.061" fill="#02882c"/>
    <rect x="319.555" y="409.757" width="45.142" height="45.142" fill="#02882c"/>
  </g>
  <rect x="590.162" y="545.102" width="45.142" height="45.06" fill="#fdae7a"/>
  <rect x="545.102" y="454.899" width="45.06" height="45.06" fill="#fdd18e"/>
  <rect x="499.959" y="680.364" width="45.142" height="45.06" fill="#fdae7a"/>
  <rect x="499.959" y="545.102" width="45.142" height="45.06" fill="#fdd18e"/>
  <rect x="454.899" y="409.757" width="45.06" height="45.142" fill="#fdd18e"/>
  <rect x="409.757" y="590.162" width="45.142" height="45.142" fill="#fdd18e"/>
  <rect x="409.757" y="454.899" width="45.142" height="45.06" fill="#fff"/>
  <rect x="364.697" y="499.959" width="45.06" height="45.142" fill="#fdd18e"/>
  <g>
    <polygon points="635.304 319.554 590.162 319.554 590.162 364.696 635.304 364.696 680.363 364.696 680.363 319.554 635.304 319.554" fill="#42b35f"/>
    <rect x="545.102" y="274.494" width="45.06" height="45.06" fill="#42b35f"/>
    <rect x="499.959" y="184.292" width="45.142" height="45.06" fill="#42b35f"/>
    <rect x="454.899" y="229.352" width="45.06" height="45.142" fill="#42b35f"/>
    <rect x="409.757" y="274.494" width="45.142" height="45.06" fill="#42b35f"/>
    <rect x="454.899" y="319.554" width="45.06" height="45.142" fill="#42b35f"/>
    <rect x="274.495" y="364.696" width="45.06" height="45.061" fill="#42b35f"/>
    <polygon points="319.555 319.554 319.555 364.696 364.697 364.696 409.757 364.696 409.757 319.554 364.697 319.554 319.555 319.554" fill="#42b35f"/>
  </g>
  <g>
    <rect x="725.424" y="364.696" width="45.142" height="45.061" fill="#493b62"/>
    <polygon points="680.363 454.899 680.363 499.959 680.363 545.102 680.363 590.162 680.363 635.304 725.424 635.304 725.424 590.162 725.424 545.102 725.424 499.959 725.424 454.899 725.424 409.757 680.363 409.757 680.363 454.899" fill="#493b62"/>
    <rect x="680.363" y="319.554" width="45.061" height="45.142" fill="#493b62"/>
    <rect x="635.304" y="635.304" width="45.059" height="45.06" fill="#493b62"/>
    <polygon points="590.162 725.423 590.162 770.565 635.304 770.565 635.304 725.423 635.304 680.364 590.162 680.364 590.162 725.423" fill="#493b62"/>
    <rect x="590.162" y="545.102" width="45.142" height="45.06" fill="#493b62"/>
    <polygon points="635.304 319.554 680.363 319.554 680.363 274.494 635.304 274.494 590.162 274.494 590.162 319.554 635.304 319.554" fill="#493b62"/>
    <rect x="545.102" y="770.565" width="45.06" height="45.06" fill="#493b62"/>
    <rect x="545.102" y="454.899" width="45.06" height="45.06" fill="#493b62"/>
    <polygon points="545.102 274.494 590.162 274.494 590.162 229.352 590.162 184.292 545.102 184.292 545.102 229.352 545.102 274.494" fill="#493b62"/>
    <rect x="499.959" y="680.364" width="45.142" height="45.059" fill="#493b62"/>
    <rect x="499.959" y="545.102" width="45.142" height="45.06" fill="#493b62"/>
    <polygon points="545.102 184.292 545.102 139.232 499.959 139.232 454.899 139.232 454.899 184.292 499.959 184.292 545.102 184.292" fill="#493b62"/>
    <polygon points="454.899 815.626 454.899 860.768 499.959 860.768 545.102 860.768 545.102 815.626 499.959 815.626 454.899 815.626" fill="#493b62"/>
    <rect x="454.899" y="409.757" width="45.06" height="45.142" fill="#493b62"/>
    <rect x="409.757" y="770.565" width="45.142" height="45.06" fill="#493b62"/>
    <rect x="409.757" y="590.162" width="45.142" height="45.142" fill="#493b62"/>
    <polygon points="454.899 229.352 454.899 184.292 409.757 184.292 409.757 229.352 409.757 274.494 454.899 274.494 454.899 229.352" fill="#493b62"/>
    <polygon points="409.757 680.364 364.697 680.364 364.697 725.423 364.697 770.565 409.757 770.565 409.757 725.423 409.757 680.364" fill="#493b62"/>
    <rect x="364.697" y="499.959" width="45.06" height="45.142" fill="#493b62"/>
    <polygon points="409.757 319.554 409.757 274.494 364.697 274.494 319.555 274.494 319.555 319.554 364.697 319.554 409.757 319.554" fill="#493b62"/>
    <rect x="319.555" y="635.304" width="45.142" height="45.06" fill="#493b62"/>
    <polygon points="319.555 545.102 319.555 499.959 319.555 454.899 319.555 409.757 274.495 409.757 274.495 454.899 274.495 499.959 274.495 545.102 274.495 590.162 274.495 635.304 319.555 635.304 319.555 590.162 319.555 545.102" fill="#493b62"/>
    <rect x="274.495" y="319.554" width="45.06" height="45.142" fill="#493b62"/>
    <rect x="229.434" y="364.696" width="45.061" height="45.061" fill="#493b62"/>
  </g>
  <metadata><?xpacket begin="﻿" id="W5M0MpCehiHzreSzNTczkc9d"?>
<x:xmpmeta xmlns:x="adobe:ns:meta/" x:xmptk="Adobe XMP Core 10.0-c000 1.000000, 0000/00/00-00:00:00        ">
   <rdf:RDF xmlns:rdf="http://www.w3.org/1999/02/22-rdf-syntax-ns#">
      <rdf:Description rdf:about=""
            xmlns:xmp="http://ns.adobe.com/xap/1.0/"
            xmlns:xmpGImg="http://ns.adobe.com/xap/1.0/g/img/"
            xmlns:xmpTPg="http://ns.adobe.com/xap/1.0/t/pg/"
            xmlns:stDim="http://ns.adobe.com/xap/1.0/sType/Dimensions#"
            xmlns:xmpG="http://ns.adobe.com/xap/1.0/g/"
            xmlns:dc="http://purl.org/dc/elements/1.1/"
            xmlns:xmpMM="http://ns.adobe.com/xap/1.0/mm/"
            xmlns:stRef="http://ns.adobe.com/xap/1.0/sType/ResourceRef#"
            xmlns:stEvt="http://ns.adobe.com/xap/1.0/sType/ResourceEvent#">
         <xmp:CreatorTool>Adobe Illustrator 30.2 (Macintosh)</xmp:CreatorTool>
         <xmp:CreateDate>2026-03-12T20:36:08+08:00</xmp:CreateDate>
         <xmp:MetadataDate>2026-03-12T20:36:08+08:00</xmp:MetadataDate>
         <xmp:ModifyDate>2026-03-12T20:36:08+08:00</xmp:ModifyDate>
         <xmp:Thumbnails>
            <rdf:Alt>
               <rdf:li rdf:parseType="Resource">
                  <xmpGImg:width>192</xmpGImg:width>
                  <xmpGImg:height>256</xmpGImg:height>
                  <xmpGImg:format>JPEG</xmpGImg:format>
                  <xmpGImg:image>/9j/4AAQSkZJRgABAgEAAAAAAAD/7QAsUGhvdG9zaG9wIDMuMAA4QklNA+0AAAAAABAAAAAAAAEA&#xA;AQAAAAAAAQAB/+4ADkFkb2JlAGTAAAAAAf/bAIQABgQEBAUEBgUFBgkGBQYJCwgGBggLDAoKCwoK&#xA;DBAMDAwMDAwQDA4PEA8ODBMTFBQTExwbGxscHx8fHx8fHx8fHwEHBwcNDA0YEBAYGhURFRofHx8f&#xA;Hx8fHx8fHx8fHx8fHx8fHx8fHx8fHx8fHx8fHx8fHx8fHx8fHx8fHx8fHx8f/8AAEQgBAADAAwER&#xA;AAIRAQMRAf/EAaIAAAAHAQEBAQEAAAAAAAAAAAQFAwIGAQAHCAkKCwEAAgIDAQEBAQEAAAAAAAAA&#xA;AQACAwQFBgcICQoLEAACAQMDAgQCBgcDBAIGAnMBAgMRBAAFIRIxQVEGE2EicYEUMpGhBxWxQiPB&#xA;UtHhMxZi8CRygvElQzRTkqKyY3PCNUQnk6OzNhdUZHTD0uIIJoMJChgZhJRFRqS0VtNVKBry4/PE&#xA;1OT0ZXWFlaW1xdXl9WZ2hpamtsbW5vY3R1dnd4eXp7fH1+f3OEhYaHiImKi4yNjo+Ck5SVlpeYmZ&#xA;qbnJ2en5KjpKWmp6ipqqusra6voRAAICAQIDBQUEBQYECAMDbQEAAhEDBCESMUEFURNhIgZxgZEy&#xA;obHwFMHR4SNCFVJicvEzJDRDghaSUyWiY7LCB3PSNeJEgxdUkwgJChgZJjZFGidkdFU38qOzwygp&#xA;0+PzhJSktMTU5PRldYWVpbXF1eX1RlZmdoaWprbG1ub2R1dnd4eXp7fH1+f3OEhYaHiImKi4yNjo&#xA;+DlJWWl5iZmpucnZ6fkqOkpaanqKmqq6ytrq+v/aAAwDAQACEQMRAD8A9U4q7FXYq7FXYq7FXYq7&#xA;FXYqh9Q/3guf+MT/APEThCvgzNi2OxV2KuxV995rWt2KuxV2KuxV2KuxV2KuxV2KuxV2KuxV2Kux&#xA;V2KuxVxNNz0xVD/pCw/5aYv+DX+uGlUNQ1Cw+oXP+kxf3T/tr/KffEBXwnmxbHYq7FXYq+8/0hYf&#xA;8tMX/Br/AFzXU1u/SFh/y0xf8Gv9caVEYFdirsVdirsVdirsVdirsVdirsVdirsVdirsVQ+of7wX&#xA;P/GJ/wDiJwhXwZmxbHYq+nM4V55p/sN8jhVhuZjjLJ/7iT/VP6slHmyjzeM51b1DsVffea1rdirs&#xA;VdirsVdirsVdirsVdirsVdirsVdirsVQ+of7wXP/ABif/iJwhXwZmxbHYq+m+afzD784Z55a7pwb&#xA;4h0PfFDD8zHHWT/3En+qf1ZKPNlHm8Zzq3qHYq++81rW7FXYq7FXYq7FXYq7FXYq7FXYq7FXYq7F&#xA;XYqh9Q/3guf+MT/8ROEK+DM2LY7FXtOck8q7FWZ5hOSpXX+8s3+o36jkocwkc3zRncPQOxV995rW&#xA;t2KuxV2KuxV2KuxV2KuxV2KuxVxNNz0xVD/pCw/5aYv+DX+uGld+kLD/AJaYv+DX+uNK79IWH/LT&#xA;F/wa/wBcaVQ1DULD6hc/6TF/dP8Atr/KffEBXwnmxbHYq9pzknlXYqzPMJyVK6/3lm/1G/UclDmE&#xA;jm+aM7h6B2KvvP8ASFh/y0xf8Gv9c11Nbv0hYf8ALTF/wa/1xpXfpCw/5aYv+DX+uNK79IWH/LTF&#xA;/wAGv9caVEYFdirsVdirsVdirsVQ+of7wXP/ABif/iJwhXwZmxbHYq7FXYq9pzknlXYqwbIMnYq9&#xA;szFb2n+w3yOFWG5mOMsn/uJP9U/qyUebKPN4znVvUOxV2KuxV995rWt2KuxV2KuxVxNNz0xVD/pC&#xA;w/5aYv8Ag1/rhpVDUNQsPqFz/pMX90/7a/yn3xAV8J5sWx2KuxV2Kvac5J5V2KsI9OT+U/dkWTvT&#xA;k/lP3Yq9n9eD/fi/eMxG9p54eDfvF6HuMKGIZmOOsn/uJP8AVP6slHmyjzeM51b1DsVdirsVfef6&#xA;QsP+WmL/AINf65rqa3fpCw/5aYv+DX+uNKiMCuxV2KofUP8AeC5/4xP/AMROEK+DM2LY7FXtOck8&#xA;q7FXYq7FWZ5hOS0/2G+Rwqw3MxxnYqwbIMnYq7FV0f8AeL8xhVm+SYuxV2KrJ/7iT/VP6slHmyjz&#xA;eM51b1DsVffea1rdiqH/AEhYf8tMX/Br/XDSqGoahYfULn/SYv7p/wBtf5T74gK+E82LY7FXtOck&#xA;8q7FXYq7FWZ5hOS0/wBhvkcIVhuZjjOxVg2QZOxV2Kro/wC8X5jCrN8kxdirsVWT/wBxJ/qn9WSj&#xA;zZR5vGc6t6h2KvvP9IWH/LTF/wAGv9c11Nbv0hYf8tMX/Br/AFxpXwZmxbHYq9pzknlXYqzPMJyV&#xA;k/8AcSf6p/VirxbMpodir0PNk+ztP9hvkcUjmxLIO6dirLsm6Rp/sN8jikc2JZB3TR6HEteb6D7i&#xA;leYD4C7FXtMH9xH/AKo/VmK3r8Vdiqldf7yzf6jfqOShzCRzfNGdw9A7FXYq7FXs3rwf78X7xnKc&#xA;JeX4S714P9+L94x4SvCWZ+vB/vxfvGYDesnnh9GT94v2T3HhhV4zmS0OxV6HmyfZ2n+w3yOKQxPi&#xA;3gcjTtfGh/OHzdxbwONL40P5w+bLck6lp/sN8jikc2JZB3TR6HEteb6D7ileYD4C7FXs0E8Pox/v&#xA;F+yO48Mxm9f68H+/F+8Y0q361a/7+T/gh/XDwHuTRU7q6tvq0375PsN+0PDJRibGyQDb5sztnfux&#xA;V995rWtD6h/vBc/8Yn/4icIV8GZsWx2Kswzj3l3YqmuZ79BOxVl2TdI49Di15fpPueGZvnhHYq9z&#xA;zQvfuxV2KtP9hvkcUjmxLIO6diqVZgPz60/2G+RyUeYZR5sQzrnpnYq++81rW7FXYqh9Q/3guf8A&#xA;jE//ABE4Qr4MzYtjsVZhnHvLuxVNcz36CdirNPqd3/viT/gW/pk6dD4ke8NNaXQUkwyAAfyn+mNM&#xA;MuSPCdxyeD5vnhnYq9zzQvfuxVr1E/mH34sPEj3ha7pwb4h0PfFIyRvmGKZB3rsVSrMB+fWn+w3y&#xA;OSjzDKPNiGdc9M7FX33mta3Yq7FUPqH+8Fz/AMYn/wCInCFfBmbFsdir3PNC9+uj+2vzGKDyZti6&#xA;RfF/ep/rD9eEIlyem5lvMuxV875hvobsVdirUn2G+RxYZPpPueG5vng3Yq9zzQvfuxViOQd2tk/u&#xA;3+R/VhHNhk+k+555nQPlDsVffea1rdirsVQ+of7wXP8Axif/AIicIV8GZsWx2Kvc80L366P7a/MY&#xA;oPJmX1q2/wB/J/wQwuj4guiurX1U/fJ9oftDx+eIRKQp6lmW807FXzvmG+huxV2KtSfYb5HFhk+k&#xA;+54bm+eDdir3Lmn8w+/NC+gUXc0/mH34rRYlkHdLZP7t/kf1YRzYZPpPueeZ0D5Q7FX33mta3Yq7&#xA;FUPqH+8Fz/xif/iJwhXwZmxbHYq9zzQvfuPQ4teX6T7nhmb54R2KvqvNC9G7FWD4u8dirsVdirsV&#xA;af7DfI4pHNiWQd07FXYqtk/u3+R/VhHNhk+k+555nQPlDsVffea1rdirsVQ+of7wXP8Axif/AIic&#xA;IV8GZsWx2Kvc80L37j0OLXl+k+54Zm+eEdir6rzQvRuxVg+LvHYq7FXYq7FWn+w3yOKRzYlkHdOx&#xA;V2KrZP7t/kf1YRzYZPpPueeZ0D5Q7FX33mta3Yq7FUPqH+8Fz/xif/iJwhXwZmxbHYq9Fznn1p2K&#xA;suoPDJug8KPcG0Vea7DqMVOKNcgzfF07sVYPi7xqT7DfI4sMn0n3PDc3zwbsVe55oXv1k/8Acyf6&#xA;p/VixnyLw/N88E7FXouc+X1bD9A9wWyf3b/I/qxHNOT6T7nnmdA+UOxV995rWt2KuxVD6h/vBc/8&#xA;Yn/4icIV8GZsWx2KvRc559adirLsm6RdH9tfmMUHkzL61bf7+T/ghhdHxB31q2/38n/BDFeIMN9N&#xA;/wCU/dgd5YWyI/pt8J6HtiwyEcJ9zwzN88I7FXueaF79ZP8A3Mn+qf1YsZ8i8PzfPBOxV6LnPl9W&#xA;w/QPcFsn92/yP6sRzTk+k+555nQPlDsVffea1rdirsVQ+of7wXP/ABif/iJwhXwZmxbHYq9zzQvf&#xA;uxV2KtSfYb5HFhk+k+54bm+eDdir6rzQvRuxVg+LvHYq7FWn+w3yOKRzYlkHdOxV2KrZP7t/kf1Y&#xA;RzYZPpPueeZ0D5Q7FX33mta3Yq7FUPqH+8Fz/wAYn/4icIV8GZsWx2Kvc80L37sVdirUn2G+RxYZ&#xA;PpPueG5vng3Yq+q80L0bsVYPi7x2KuxVp/sN8jikc2JZB3TsVdiq2T+7f5H9WEc2GT6T7nnmdA+U&#xA;OxV995rWt2KuxVxFdj0xVD/o+w/5Zov+AX+mG1UNQ0+w+oXP+jRf3T/sL/KfbEFXwnmxbHYq9Fzn&#xA;n1p2Kst9NP5R92TdD4ce4O4J/KPuxXw49wX+o/8AMfvxZUHeo/8AMfvxWgtxS0/2G+RxSObEsg7p&#xA;2KuxV2KvOs6F8ldir7z/AEfYf8s0X/AL/TNdbW79H2H/ACzRf8Av9MbVEYFdirsVdirsVQ+of7wX&#xA;P/GJ/wDiJwhXwZmxbHYq9D9SP+cfeM5+i+r+JHvDvUj/AJx94xor4ke8MwyTp3Yq7FXYqt9WL+df&#xA;vGLDxI94aeWLg3xr0PcYpGSN8wxTIO9diq31I/5x94w0WHiR7w71I/5x94xor4ke8PPM6B8odir7&#xA;7zWtbsVdirsVdirsVdirsVdiqH1D/eC5/wCMT/8AEThCvgzNi2OxV7nmhe/dirsVWy/3T/6p/Viw&#xA;yfSfc8OzfPBuxV6LnPPrS2T+7f5H9WEc2GT6T7nnmdA+UOxV956f/vBbf8Yk/wCIjNcWtEYFdirs&#xA;VdirsVdirsVdirsVdiqH1D/eC5/4xP8A8ROEK+DM2LY7FXuXNP5h9+aF9Aou5p/MPvxWi7mn8w+/&#xA;FaK2V09J/iH2T39sWGQHhPueH5vngnYq9Fznn1pbJ/dv8j+rCObDJ9J9zzzOgfKHYq+89P8A94Lb&#xA;/jEn/ERmuLWiMCuxV2KuxV2KuxV2KuxV2KuxVD6h/vBc/wDGJ/8AiJwhXwZmxbHYq9Fznn1p2Kux&#xA;V2KuxV2KuxVbJ/dv8j+rCObDJ9J9zzzOgfKHYq+89P8A94Lb/jEn/ERmuLWiMCuxV2KuxV2KuxV2&#xA;KuxV2KuxVD6h/vBc/wDGJ/8AiJwhXwZmxbHYq9D9SP8AnH3jOfovq/iR7w71I/5x94xor4ke8LsD&#xA;N2KuxV2KrfUj/nH3jDRYeJHvC2SSP02+IdD3HhhANsMmSPCdxyefZv3yt2KvvPT/APeC2/4xJ/xE&#xA;Zri1ojArsVdirsVdirsVdirsVdirsVdirsVQ+of7wXP/ABif/iJwhXwZmxbHYq9Fznn1p2KuxVbJ&#xA;/dv8j+rCObDJ9J9zzzOgfKHYq++81rW7FXYq7FXYq7FXYq7FXYq7FXYq7FXYq7FXYqh9Q/3guf8A&#xA;jE//ABE4Qr4MzYtjsVeh+pH/ADj7xnP0X1fxI94d6kf84+8Y0V8SPeHepH/OPvGNFfEj3hbJJH6b&#xA;fEOh7jwwgG2GTJHhO45PPs375W7FX33mta3Yq7FXYq7FXYq7FXYq7FXYq7FXYq7FXYq7FXYq7FUP&#xA;qH+8Fz/xif8A4icIV8GZsWx2KuxV2KvvvNa1uxV2KuxV2KuxV2KuxV2KuxV2KuxV2KuxV2KuxV2K&#xA;uxV2KofUP94Ln/jE/wDxE4Qr4MzYtjsVdirsVffea1rdirsVdirsVdirsVdirsVdir//2Q==</xmpGImg:image>
               </rdf:li>
            </rdf:Alt>
         </xmp:Thumbnails>
         <xmpTPg:MaxPageSize rdf:parseType="Resource">
            <stDim:w>1000.000000</stDim:w>
            <stDim:h>1000.000000</stDim:h>
            <stDim:unit>Pixels</stDim:unit>
         </xmpTPg:MaxPageSize>
         <xmpTPg:NPages>1</xmpTPg:NPages>
         <xmpTPg:HasVisibleTransparency>False</xmpTPg:HasVisibleTransparency>
         <xmpTPg:HasVisibleOverprint>False</xmpTPg:HasVisibleOverprint>
         <xmpTPg:PlateNames>
            <rdf:Seq>
               <rdf:li>Cyan</rdf:li>
               <rdf:li>Magenta</rdf:li>
               <rdf:li>Yellow</rdf:li>
               <rdf:li>Black</rdf:li>
            </rdf:Seq>
         </xmpTPg:PlateNames>
         <xmpTPg:SwatchGroups>
            <rdf:Seq>
               <rdf:li rdf:parseType="Resource">
                  <xmpG:groupName>預設色票群組</xmpG:groupName>
                  <xmpG:groupType>0</xmpG:groupType>
               </rdf:li>
            </rdf:Seq>
         </xmpTPg:SwatchGroups>
         <dc:format>image/svg+xml</dc:format>
         <xmpMM:DerivedFrom rdf:parseType="Resource">
            <stRef:instanceID>xmp.iid:506f3c93-c556-450e-99bd-7b5a9564d1ea</stRef:instanceID>
            <stRef:documentID>xmp.did:506f3c93-c556-450e-99bd-7b5a9564d1ea</stRef:documentID>
            <stRef:originalDocumentID>xmp.did:44547704-06a0-4a0b-8304-a67327206882</stRef:originalDocumentID>
         </xmpMM:DerivedFrom>
         <xmpMM:DocumentID>xmp.did:8b8006e0-5fe9-4d42-b95e-d6d65417e1a1</xmpMM:DocumentID>
         <xmpMM:InstanceID>xmp.iid:8b8006e0-5fe9-4d42-b95e-d6d65417e1a1</xmpMM:InstanceID>
         <xmpMM:OriginalDocumentID>xmp.did:44547704-06a0-4a0b-8304-a67327206882</xmpMM:OriginalDocumentID>
         <xmpMM:History>
            <rdf:Seq>
               <rdf:li rdf:parseType="Resource">
                  <stEvt:action>saved</stEvt:action>
                  <stEvt:instanceID>xmp.iid:44547704-06a0-4a0b-8304-a67327206882</stEvt:instanceID>
                  <stEvt:when>2026-03-12T20:23:29+08:00</stEvt:when>
                  <stEvt:softwareAgent>Adobe Illustrator 30.2 (Macintosh)</stEvt:softwareAgent>
                  <stEvt:changed>/</stEvt:changed>
               </rdf:li>
               <rdf:li rdf:parseType="Resource">
                  <stEvt:action>saved</stEvt:action>
                  <stEvt:instanceID>xmp.iid:8b8006e0-5fe9-4d42-b95e-d6d65417e1a1</stEvt:instanceID>
                  <stEvt:when>2026-03-12T20:36:08+08:00</stEvt:when>
                  <stEvt:softwareAgent>Adobe Illustrator 30.2 (Macintosh)</stEvt:softwareAgent>
                  <stEvt:changed>/</stEvt:changed>
               </rdf:li>
            </rdf:Seq>
         </xmpMM:History>
      </rdf:Description>
   </rdf:RDF>
</x:xmpmeta>
                                                                                                    
                                                                                                    
                                                                                                    
                                                                                                    
                                                                                                    
                                                                                                    
                                                                                                    
                                                                                                    
                                                                                                    
                                                                                                    
                                                                                                    
                                                                                                    
                                                                                                    
                                                                                                    
                                                                                                    
                                                                                                    
                                                                                                    
                                                                                                    
                                                                                                    
                                                                                                    
                           
<?xpacket end="w"?>
  </metadata>
</svg>