<?xml version="1.0" encoding="UTF-8"?>
<svg id="_圖層_1" xmlns="http://www.w3.org/2000/svg" version="1.1" viewBox="0 0 1000 1000">
  <!-- Generator: Adobe Illustrator 30.2.1, SVG Export Plug-In . SVG Version: 2.1.1 Build 1)  -->
  <path d="M336.139,88.477c0,22.16-17.964,40.124-40.124,40.124s-40.123-17.964-40.123-40.124,17.964-40.123,40.123-40.123,40.124,17.962,40.124,40.123Z" fill="#ffcd48"/>
  <path d="M438.131,88.477c0,22.16-17.964,40.124-40.123,40.124s-40.124-17.964-40.124-40.124,17.964-40.123,40.124-40.123,40.123,17.962,40.123,40.123Z" fill="#ffcd48"/>
  <path d="M540.123,88.477c0,22.16-17.964,40.124-40.123,40.124s-40.124-17.964-40.124-40.124,17.964-40.123,40.124-40.123,40.123,17.962,40.123,40.123Z" fill="#ffcd48"/>
  <path d="M642.116,88.477c0,22.16-17.964,40.124-40.124,40.124s-40.123-17.964-40.123-40.124,17.962-40.123,40.123-40.123,40.124,17.962,40.124,40.123Z" fill="#ffcd48"/>
  <path d="M744.108,88.477c0,22.16-17.964,40.124-40.124,40.124s-40.123-17.964-40.123-40.124,17.964-40.123,40.123-40.123,40.124,17.962,40.124,40.123Z" fill="#ffcd48"/>
  <g>
    <path d="M234.147,191.358c0,22.16-17.964,40.123-40.124,40.123s-40.123-17.962-40.123-40.123,17.964-40.124,40.123-40.124,40.124,17.964,40.124,40.124Z" fill="#ffcd48"/>
    <path d="M336.139,191.358c0,22.16-17.964,40.123-40.124,40.123s-40.123-17.962-40.123-40.123,17.964-40.124,40.123-40.124,40.124,17.964,40.124,40.124Z" fill="#ffcd48"/>
    <path d="M438.131,191.358c0,22.16-17.964,40.123-40.123,40.123s-40.124-17.962-40.124-40.123,17.964-40.124,40.124-40.124,40.123,17.964,40.123,40.124Z" fill="#ffcd48"/>
    <path d="M540.123,191.358c0,22.16-17.964,40.123-40.123,40.123s-40.124-17.962-40.124-40.123,17.964-40.124,40.124-40.124,40.123,17.964,40.123,40.124Z" fill="#ffcd48"/>
    <path d="M642.116,191.358c0,22.16-17.964,40.123-40.124,40.123s-40.123-17.962-40.123-40.123,17.962-40.124,40.123-40.124,40.124,17.964,40.124,40.124Z" fill="#ffcd48"/>
    <path d="M744.108,191.358c0,22.16-17.964,40.123-40.124,40.123s-40.123-17.962-40.123-40.123,17.964-40.124,40.123-40.124,40.124,17.964,40.124,40.124Z" fill="#ffcd48"/>
    <path d="M846.1,191.358c0,22.16-17.964,40.123-40.124,40.123s-40.123-17.962-40.123-40.123,17.964-40.124,40.123-40.124,40.124,17.964,40.124,40.124Z" fill="#ffcd48"/>
  </g>
  <path d="M234.147,294.239c0,22.16-17.964,40.123-40.124,40.123s-40.123-17.962-40.123-40.123,17.964-40.124,40.123-40.124,40.124,17.964,40.124,40.124Z" fill="#ffcd48"/>
  <path d="M336.139,294.239c0,22.16-17.964,40.123-40.124,40.123s-40.123-17.962-40.123-40.123,17.964-40.124,40.123-40.124,40.124,17.964,40.124,40.124Z" fill="#ffcd48"/>
  <path d="M744.108,294.239c0,22.16-17.964,40.123-40.124,40.123s-40.123-17.962-40.123-40.123,17.964-40.124,40.123-40.124,40.124,17.964,40.124,40.124Z" fill="#ffcd48"/>
  <path d="M846.1,294.239c0,22.16-17.964,40.123-40.124,40.123s-40.123-17.962-40.123-40.123,17.964-40.124,40.123-40.124,40.124,17.964,40.124,40.124Z" fill="#ffcd48"/>
  <path d="M234.147,397.119c0,22.16-17.964,40.123-40.124,40.123s-40.123-17.962-40.123-40.123,17.964-40.124,40.123-40.124,40.124,17.964,40.124,40.124Z" fill="#ffcd48"/>
  <path d="M336.139,397.119c0,22.16-17.964,40.123-40.124,40.123s-40.123-17.962-40.123-40.123,17.964-40.124,40.123-40.124,40.124,17.964,40.124,40.124Z" fill="#ffcd48"/>
  <path d="M744.108,397.119c0,22.16-17.964,40.123-40.124,40.123s-40.123-17.962-40.123-40.123,17.964-40.124,40.123-40.124,40.124,17.964,40.124,40.124Z" fill="#ffcd48"/>
  <path d="M846.1,397.119c0,22.16-17.964,40.123-40.124,40.123s-40.123-17.962-40.123-40.123,17.964-40.124,40.123-40.124,40.124,17.964,40.124,40.124Z" fill="#ffcd48"/>
  <path d="M336.139,500c0,22.158-17.964,40.123-40.124,40.123s-40.123-17.964-40.123-40.123,17.964-40.124,40.123-40.124,40.124,17.964,40.124,40.124Z" fill="#ffcd48"/>
  <path d="M438.131,500c0,22.158-17.964,40.123-40.123,40.123s-40.124-17.964-40.124-40.123,17.964-40.124,40.124-40.124,40.123,17.964,40.123,40.124Z" fill="#ffcd48"/>
  <path d="M540.123,500c0,22.158-17.964,40.123-40.123,40.123s-40.124-17.964-40.124-40.123,17.964-40.124,40.124-40.124,40.123,17.964,40.123,40.124Z" fill="#ffcd48"/>
  <path d="M642.116,500c0,22.158-17.964,40.123-40.124,40.123s-40.123-17.964-40.123-40.123,17.962-40.124,40.123-40.124,40.124,17.964,40.124,40.124Z" fill="#ffcd48"/>
  <path d="M744.108,500c0,22.158-17.964,40.123-40.124,40.123s-40.123-17.964-40.123-40.123,17.964-40.124,40.123-40.124,40.124,17.964,40.124,40.124Z" fill="#ffcd48"/>
  <path d="M234.147,602.881c0,22.158-17.964,40.123-40.124,40.123s-40.123-17.964-40.123-40.123,17.964-40.124,40.123-40.124,40.124,17.964,40.124,40.124Z" fill="#ffcd48"/>
  <path d="M336.139,602.881c0,22.158-17.964,40.123-40.124,40.123s-40.123-17.964-40.123-40.123,17.964-40.124,40.123-40.124,40.124,17.964,40.124,40.124Z" fill="#ffcd48"/>
  <path d="M744.108,602.881c0,22.158-17.964,40.123-40.124,40.123s-40.123-17.964-40.123-40.123,17.964-40.124,40.123-40.124,40.124,17.964,40.124,40.124Z" fill="#ffcd48"/>
  <path d="M846.1,602.881c0,22.158-17.964,40.123-40.124,40.123s-40.123-17.964-40.123-40.123,17.964-40.124,40.123-40.124,40.124,17.964,40.124,40.124Z" fill="#ffcd48"/>
  <path d="M234.147,705.761c0,22.158-17.964,40.123-40.124,40.123s-40.123-17.964-40.123-40.123,17.964-40.124,40.123-40.124,40.124,17.964,40.124,40.124Z" fill="#ffcd48"/>
  <path d="M336.139,705.761c0,22.158-17.964,40.123-40.124,40.123s-40.123-17.964-40.123-40.123,17.964-40.124,40.123-40.124,40.124,17.964,40.124,40.124Z" fill="#ffcd48"/>
  <path d="M744.108,705.761c0,22.158-17.964,40.123-40.124,40.123s-40.123-17.964-40.123-40.123,17.964-40.124,40.123-40.124,40.124,17.964,40.124,40.124Z" fill="#ffcd48"/>
  <path d="M846.1,705.761c0,22.158-17.964,40.123-40.124,40.123s-40.123-17.964-40.123-40.123,17.964-40.124,40.123-40.124,40.124,17.964,40.124,40.124Z" fill="#ffcd48"/>
  <g>
    <path d="M234.147,808.642c0,22.158-17.964,40.123-40.124,40.123s-40.123-17.964-40.123-40.123,17.964-40.124,40.123-40.124,40.124,17.964,40.124,40.124Z" fill="#ffcd48"/>
    <path d="M336.139,808.642c0,22.158-17.964,40.123-40.124,40.123s-40.123-17.964-40.123-40.123,17.964-40.124,40.123-40.124,40.124,17.964,40.124,40.124Z" fill="#ffcd48"/>
    <path d="M438.131,808.642c0,22.158-17.964,40.123-40.123,40.123s-40.124-17.964-40.124-40.123,17.964-40.124,40.124-40.124,40.123,17.964,40.123,40.124Z" fill="#ffcd48"/>
    <path d="M540.123,808.642c0,22.158-17.964,40.123-40.123,40.123s-40.124-17.964-40.124-40.123,17.964-40.124,40.124-40.124,40.123,17.964,40.123,40.124Z" fill="#ffcd48"/>
    <path d="M642.116,808.642c0,22.158-17.964,40.123-40.124,40.123s-40.123-17.964-40.123-40.123,17.962-40.124,40.123-40.124,40.124,17.964,40.124,40.124Z" fill="#ffcd48"/>
    <path d="M744.108,808.642c0,22.158-17.964,40.123-40.124,40.123s-40.123-17.964-40.123-40.123,17.964-40.124,40.123-40.124,40.124,17.964,40.124,40.124Z" fill="#ffcd48"/>
    <path d="M846.1,808.642c0,22.158-17.964,40.123-40.124,40.123s-40.123-17.964-40.123-40.123,17.964-40.124,40.123-40.124,40.124,17.964,40.124,40.124Z" fill="#ffcd48"/>
  </g>
  <path d="M336.139,911.523c0,22.158-17.964,40.123-40.124,40.123s-40.123-17.964-40.123-40.123,17.964-40.124,40.123-40.124,40.124,17.964,40.124,40.124Z" fill="#ffcd48"/>
  <path d="M438.131,911.523c0,22.158-17.964,40.123-40.123,40.123s-40.124-17.964-40.124-40.123,17.964-40.124,40.124-40.124,40.123,17.964,40.123,40.124Z" fill="#ffcd48"/>
  <path d="M540.123,911.523c0,22.158-17.964,40.123-40.123,40.123s-40.124-17.964-40.124-40.123,17.964-40.124,40.124-40.124,40.123,17.964,40.123,40.124Z" fill="#ffcd48"/>
  <path d="M642.116,911.523c0,22.158-17.964,40.123-40.124,40.123s-40.123-17.964-40.123-40.123,17.962-40.124,40.123-40.124,40.124,17.964,40.124,40.124Z" fill="#ffcd48"/>
  <path d="M744.108,911.523c0,22.158-17.964,40.123-40.124,40.123s-40.123-17.964-40.123-40.123,17.964-40.124,40.123-40.124,40.124,17.964,40.124,40.124Z" fill="#ffcd48"/>
  <metadata><?xpacket begin="﻿" id="W5M0MpCehiHzreSzNTczkc9d"?>
<x:xmpmeta xmlns:x="adobe:ns:meta/" x:xmptk="Adobe XMP Core 10.0-c000 1.000000, 0000/00/00-00:00:00        ">
   <rdf:RDF xmlns:rdf="http://www.w3.org/1999/02/22-rdf-syntax-ns#">
      <rdf:Description rdf:about=""
            xmlns:xmp="http://ns.adobe.com/xap/1.0/"
            xmlns:xmpGImg="http://ns.adobe.com/xap/1.0/g/img/"
            xmlns:xmpTPg="http://ns.adobe.com/xap/1.0/t/pg/"
            xmlns:stDim="http://ns.adobe.com/xap/1.0/sType/Dimensions#"
            xmlns:xmpG="http://ns.adobe.com/xap/1.0/g/"
            xmlns:dc="http://purl.org/dc/elements/1.1/">
         <xmp:CreatorTool>Adobe Illustrator 30.2 (Macintosh)</xmp:CreatorTool>
         <xmp:CreateDate>2026-03-13T11:16:30+08:00</xmp:CreateDate>
         <xmp:Thumbnails>
            <rdf:Alt>
               <rdf:li rdf:parseType="Resource">
                  <xmpGImg:width>196</xmpGImg:width>
                  <xmpGImg:height>256</xmpGImg:height>
                  <xmpGImg:format>JPEG</xmpGImg:format>
                  <xmpGImg:image>/9j/4AAQSkZJRgABAgEAAAAAAAD/7QAsUGhvdG9zaG9wIDMuMAA4QklNA+0AAAAAABAAAAAAAAEA&#xA;AQAAAAAAAQAB/+4ADkFkb2JlAGTAAAAAAf/bAIQABgQEBAUEBgUFBgkGBQYJCwgGBggLDAoKCwoK&#xA;DBAMDAwMDAwQDA4PEA8ODBMTFBQTExwbGxscHx8fHx8fHx8fHwEHBwcNDA0YEBAYGhURFRofHx8f&#xA;Hx8fHx8fHx8fHx8fHx8fHx8fHx8fHx8fHx8fHx8fHx8fHx8fHx8fHx8fHx8f/8AAEQgBAADEAwER&#xA;AAIRAQMRAf/EAaIAAAAHAQEBAQEAAAAAAAAAAAQFAwIGAQAHCAkKCwEAAgIDAQEBAQEAAAAAAAAA&#xA;AQACAwQFBgcICQoLEAACAQMDAgQCBgcDBAIGAnMBAgMRBAAFIRIxQVEGE2EicYEUMpGhBxWxQiPB&#xA;UtHhMxZi8CRygvElQzRTkqKyY3PCNUQnk6OzNhdUZHTD0uIIJoMJChgZhJRFRqS0VtNVKBry4/PE&#xA;1OT0ZXWFlaW1xdXl9WZ2hpamtsbW5vY3R1dnd4eXp7fH1+f3OEhYaHiImKi4yNjo+Ck5SVlpeYmZ&#xA;qbnJ2en5KjpKWmp6ipqqusra6voRAAICAQIDBQUEBQYECAMDbQEAAhEDBCESMUEFURNhIgZxgZEy&#xA;obHwFMHR4SNCFVJicvEzJDRDghaSUyWiY7LCB3PSNeJEgxdUkwgJChgZJjZFGidkdFU38qOzwygp&#xA;0+PzhJSktMTU5PRldYWVpbXF1eX1RlZmdoaWprbG1ub2R1dnd4eXp7fH1+f3OEhYaHiImKi4yNjo&#xA;+DlJWWl5iZmpucnZ6fkqOkpaanqKmqq6ytrq+v/aAAwDAQACEQMRAD8A9U4q7FXYqoX14lpavO+/&#xA;H7K+LHoMx9XqRhxmZ6NmLGZypht3f3V25eZyR2T9kfIZxOo1eTMbkf1O5x4owGwatry5tnDwSFD3&#xA;HY/MZHBqcmI3A0meOMhRDMNMv1vbVZgOLV4uvgwztdFqxnxiXXr73TZsXBKkv1/V5Lci2tzxlYVk&#xA;fuoPQD3zW9rdoyx/u4fV1Pc5Gl04l6jyY07u7FnYsx6sTU5y8pGRsmy7MADkmeka1PbSrHM5e2Y0&#xA;PLfjXuDm17P7TnikIyNw+5xtRphIWObK2dVUuxoqipPgBnXykALPJ1IFsP1PWLm8kYKxS3r8MY2q&#xA;PFvHOL1vaM80jRqHd+t3GHTxgPNBRyyRMHjcow6FTQ/hmBDJKJuJot5iDzZToWqveRtFMazxivL+&#xA;Zelc63srXnMDGX1x+0Oq1WDgNjkVfWNSFjbclAM0hpGD09yfll/aOt8CFj6jya9Ph45eTEZ7medy&#xA;80hdj3J/VnG5c08huRsu4jARFAK1jqd1ZyBo3JT9qIn4SMv0uuyYTcTt3dGGXDGY3ZlbXEdxAk0f&#xA;2HFR/TO2wZhkgJjkXSzgYmix/XdZm9ZrW3coibSOuxLdxXwGc72r2lLjOOBoDmXYaXTCuKSScm5c&#xA;qnl1r3zQ8Ru+rn0nuhazMZltbli6vtG53IPgT3rnQdldpSMhjmbvkXX6rTCuKLIs6V1zsVdirsVd&#xA;irsVdiqT+aFc2CEfZEg5fcc0vboPgju4v0FzNCfWfcxfOSdq7FWSeVQ3oTt+yWAHzA3/AF51HYAP&#xA;BI9LdbrjuEq14MNVn5d+JHy4jNR2sCNRK/L7g5Wl/uwgM1zkOxVmd4kv6HkT/dgho30LvncamMvy&#xA;xH8XB+jd0uMjxB3WwzOHd07FU18tBjqVR0CNy+W2bjsQHx/gXE1v0fFE+aw3q27fs8WA+dRXMnt8&#xA;HigelFr0HIpDnPOe7FWXeXlcaXHy6EsV+Vc7PscEacX5/e6fVn94WLXYZbqYN9oO1a+Nc5LUAjJI&#xA;HnZdrj+ke5SylmrWKu17AE+16i0+8ZkaUE5Y1z4h97DKfSb7mdZ37oXYq7FXYq7FXYq7FVO5t47i&#xA;B4ZBVHFD/XKs2GOSBhLkWUJmJsMVu9A1CByEQzR/sum5+kdc5HUdk5sZ2HEPJ22PVQkN9itttC1G&#xA;dwGjMSd3fan0dTkcHZWeZojhHeUz1UIjnbKrO0itLdYIvsr1J6knqTnXabTxwwEI9HU5MhmbKC1n&#xA;RxfKJIyFnQUFejDwOYPaXZ3jjijtMfa36bUcGx5MdfSNTVipt3JHcCo+8ZzUuzs4NcBdiNRA9Uz0&#xA;ny/KJVnvAFVDVYq1JI6Vp2za9n9kSEhPLtXT9bi6jViqiyIiux6Z0rrmM6l5duEkaS0X1ImNfTH2&#xA;l9t+ozldb2POMjLGLj3dQ7TDqwRUuaBj0fU5GCi3ZfdhxH3nMCHZueRrhPx2bzqIDqyXSNLWwhNS&#xA;GmenqMOm3YZ1PZ+gGnjvvI83WajP4h8lbUbCK9tzE+x6o/gcu1mkjnhwn4FhhymErDFp9E1KFyvo&#xA;mQdmT4gc5LL2Xnga4b927tY6mBHNWsfL95PIDOphhH2iftH5DL9L2PlmfWOGP2teXVxiNtyyqKNI&#xA;o1jQcUQAKPYZ10ICEREcg6qRJNlJta0J7iQ3NtT1T9uM7cqdwfHNH2n2UckuPH9XUd7m6bVCI4Zc&#xA;kl/ROpcuP1Z6/Lb7+maP+T891wFzfzEO8J3ouhtbOLi5p6wHwIN+Ne5Pjm+7M7LOI8c/q6DucHU6&#xA;riHDHknWbxwnYq7FXYqo3V7bWsfOdwgPQdSfkBlGo1OPCLmaZ48cpmgEvXzNppfiRIB/MVFPwNc1&#xA;w7cwE16vl+1yDop+SZwTwzxiSFw6HowzaYssckeKJsONKJiaK/LGKAu9c0+1cxs5eQfaVBWn07DN&#xA;dqO1MOI0TZ8nIx6acha211/TrhwgYxsegkFK/SCRkcHa2DIavhPmmelnEXzTHNm4y2WWOKMySMER&#xA;erHYZDJkjAXI0ExiSaCVv5m01X4gSOP5gop+JBzVS7bwA16j8P2uUNFPyR1pf2l2paCQNT7S9GHz&#xA;BzP0+rx5hcDbRkxShzCIzJa0Le6nZ2YHrPRjuEG7H6MxNTrcWH6zv3dW3HhlPkEJF5l0134nnH/l&#xA;Mop+BOYePtvBI0bHvH6rbpaOY800R0dQ6MGVtww3BzaxkJCxuHFIrm2TTc9MkhLLjzFpsLlQzSkd&#xA;TGAR95IzVZu2MEDVmXucqGkmfJWs9YsbtuEb8ZD0RxQn5djl+m7Rw5jUTv3Fhk084bnkjczmhSub&#xA;q3to/UncIvavU/Id8pzZ4Yo8UzQZwgZGgl3+JtO58aSU/m4in665rf5cwXXq+X7XI/JT8kyt7mC5&#xA;jEkDh0PcdvmM2eHPDLHigbDjTgYmiqZaxQN5rNhaMUkctIOqIKkfPtmBqe0sOE1I3LuDfj0057jk&#xA;p2/mHTZnCcmiJ6eoKD7wSMqw9sYJmrMfeynpJx80yqKV7eObS3GYPqF493dPMx2Jog8FHQZwWs1J&#xA;zZDI/D3O9xYxCNIfMVsTLQLx4L9I6n0pjxZffsc2vZGpOPMI/wAMtv1OLq8YlC+oT7Xbx7WwJjNJ&#xA;JCEU9xWpJ+4Z0HaupOLDceZ2cDS4xKe/Rh+cU7l2Ksr8u3j3FkUkNXhPGp6lT0zsOxtScmKjzjt8&#xA;OjqdZjEZWOqV+ZLx5bw24P7qGm3ixFSfxzU9takyy8H8MfvcrR4wI8XUpRmlcxVtLqW1uEmjNGU7&#xA;jsR3By/T55YpiUejDJASFFms1ykdo9yN1VC4HjtUZ3OXOI4zk6VbpIwuXCwiaaSaVpZG5O5qxOcH&#xA;kySnIykbJd5GIiKCzK2Se+WLxxM9oxqjAug8COv350HYWpPEcZ5cw4GtxiuJE+Zrx44I7dDT1qlz&#xA;/kjt9OZXbmpMYCA/i5+5r0WMEmR6MZzlXZuBKkEGhG4I8cIJBsKzXSrtrqwilb7dOL/NTSv053Wg&#xA;1By4RI8+rpM+PgmQxfV7x7q+kJPwISka9gAafjnJ9o6k5cpJ5DYO00+MRgEFmA3o7Rbx7a+jof3c&#xA;pCSL2IJoD9GbDszUnFmHdLYtGpxiUD3hk2r3bWthJIm0hoqHwLd/ozqe0dQcWEyHPkHV6fHxzALC&#xA;ySSSTUnck5w5Nu7dgVH/AKXuP0Z9SqetOff0/wCX782P8oz8Dwvt8u78dHH/AC44+L8Whbu2e2uZ&#xA;IHG6GnzHY/TmJqMJxTMD0bccxKIIUspZo/Q7Z5tSiKj4Yjzc+AHT8c2PZWEzzxrlHdx9VMRgfNPf&#xA;MVs82nlkFTCwcj2oQf150HbOAzw2P4TbgaOYjPfqxPOOdu7FWUeWbZ47N5WFPWaqj/JXaudb2HhM&#xA;cRkf4j9zqtbMGVdyV+YrZ4tRaQj4JgGU+4ABGajtnCYZzLpJy9HMGFdyV5qXKXwwyTSpFGKu5oo+&#xA;eWY8ZnIRHMolIAWWa3Frz097Ve8fBfmBQZ3WbT8WE4x/Np0cMlT4vNhDKysVYUZTQg9iM4OUSDR5&#xA;u8BtrIpTryxbO1289PgjUrXxZu33ZvewsJOQz6AfaXC1swI0iPNNs7JDcKKqlUf2r0zJ7ewEiMxy&#xA;GxatDMWYsdzmXZOxVmWi2z2+nRI4o7Vdh4cjX9Wdx2ZgOPBEHnz+bpdTMSmSGLalbPb300bD9osp&#xA;8VJqDnJa3CceWUT3/Y7XDMSgChsxG1F6VbPcX8KKKhWDufBVNTmboMByZogd9n3Bpzz4YEsm122e&#xA;406RUFXQhwPGnX8M6ntXAcmAgcxu6zSz4Zi2HZxLuXYqifqE/wBQ+uU/dc+P0ePyrtmV+Un4Pi/w&#xA;3X7f0NXijj4erLNQ0u1vlHqgq6/ZkXqPbOw1egx5x6ufe6nFnlDklg8qJy+K5JXwCUP31OasdgC9&#xA;57e79rlfnz3JvZ2NvZxenAtAd2Y7kn3ObnTaWGGPDAOHkyymbKvmQ1pPd+WrSZy8LmAnqoHJfoG2&#xA;aXUdiY5m4nh+0OZj1sgKO7Vr5YtY3DTSGanRacR9O5yODsPHE3M8X2JnrZEbCk5AAAAFANgBm7Ar&#xA;YOEo3VpBdRGKZeSnceIPiDlWfTwyx4ZiwzhkMDYSd/KkZb4LkhfAoCfvBGaSXYAvae3u/a5o156h&#xA;MNP0e0sviQF5TsZG6/R4ZstH2djwbjeXeXGy6iU+fJHZntCX6holpeN6hrFN3de/zGa3Wdl48x4v&#xA;pl3j9LkYtTKG3MIKLypEGrLcM6+CqFP3ktmDDsCIPqnY91frb5a89AnMFvDBEsUKhEXoBm8xYo44&#xA;8MRQDhSmZGyvdEkQo6hkYUZTuCMlKAkKO4KASDYSW48rW7uWhmaJT+yRzA+W4zR5uwYE3GXD9v6n&#xA;NhriBuLVrHy9aWziSRjNIu68hRQfGm+X6XsfHiPEfUfs+TDLq5SFDZNc27iIW/022vUCzA8l+y67&#xA;MMxNXosecVL59W3FmlA7JX/hROVfrJ4+HDf76/wzUfyAL+vb3ftcv8+e5NbHTrayjKQruftOd2Pz&#xA;zcaXR48EaiPj1cTLmlM7onMpqSm98uWlw5kjYwO3Wgqv3bZp9V2NjyG4nhP2fJy8eslEUd1K38rW&#xA;yOGmlaUD9kDgD89zlWHsKETc5GX2M566RGwpOfSi9L0uA9KnHhTanhTN14ceHhr09zhcRu+qVatr&#xA;y2jmCBQ84+0T9lfu6nNT2h2sMJ4IC5fYHL0+l4xZ5JSvmPVA1SykfylRT8N8047a1F3Y+TlnR409&#xA;0rV4r5SpHCdRVk7EeIzf9n9ox1ArlMdHAz6c4/cjpZY4o2kkPFEFWJ8BmfOYhEyOwDRGJJoMbu/M&#xA;9y7kWyiOMdGYVY/wzmNR25kJ/djhH2uzx6KIHq3W2vma8Rx9YVZY+9BxYfKm2RwduZYn1gSHyKz0&#xA;USNtmSwTxTwrNEeSOKg51GLLHJESjyLrZRMTRX5YxdirsVdirsVdirsVdirsVdirsVSvVtbSyPpR&#xA;qJLgipB6KPfNT2h2oMHpjvP7nK0+mM9zySb/ABHqnKvNafy8RT+uaT+WdRd2Pk5v5PGnWk61He/u&#xA;nX07gCtB0Ye2bzs/tMZ/SRU/v9zhajTGG45JkzKilmNFUVYnoAM2kpACzycYC2OXvmaZnK2ihIx0&#xA;dhVj9HQZzGq7cmTWMUO8uyx6IV6lK38zXyOPWCyp3FOJ+gjKsPbeaJ9VSHyZT0UCNtk+/Sln9S+u&#xA;cv3Xh3r/AC08c6H89i8Lxb9P4297geBLi4erDJJGkkaRjVnJZj7k1zh5zMpGR5l3QFCluQSjNHkZ&#xA;NTtyppVwp+TbHM7s6ZjnhXf97TqBcCnvmeR109VXo8gDfIAmn3jOg7cmRhAHWTgaIXP4MWzkXaux&#xA;VknlWRjbzRn7KMCv+yG/6s6nsGZMJDoD97rNcPUCnmb5wXYq7FXYq7FXYq7FXYq7FXYq7FWC3sjS&#xA;XczsasztX788/wBTMyySJ7y77GKiAo5QzV9PkaO+gdeokX8TQjMnSTMcsSP5wa8ouJHkybzFI6aY&#xA;4X9tlVj7df4Z1PbMzHAa6kB1mjF5GJZxrt3Yqu9aT0fRr+75c+PblSlcs8SXDw/w3aOEXfVH6zpc&#xA;lpcM6qTbuaow6Cv7JzP7S0MsMyQPQeX6nH02cTFdUuzWOSnfl7S5WnW8lUrEm8df2j0r8hm+7H0M&#xA;jMZZD0jl5uDq84A4RzTvVLL65ZvCDR/tRk9OQze67S+PiMevT3uDgy8ErYZNDLDI0cqlHXqpziMm&#xA;KUJcMhRDuoyEhYajjeRwkalnbYKNycEIGRoCykkAWWYaPYGyswj/AN655yexPb6M7Xs3SeBio/Ud&#xA;y6bUZeOV9Edme0OxV2KuxV2KuxV2KuxV2KuxV2KsU13TJYLl7hFJglPKo/ZY9Qc5DtXQyxzMwPRL&#xA;7HbaXOJRo8wlWady030DS5ZrhLmRSsER5KT+0w6U+WbrsnQynMZCPRH7S4eqzgR4RzLIb+0W7tJI&#xA;CaFh8LeBG4zpNXpxmxmHe67Fk4JAsLuLaa3lMUylXHj39xnDZsMscuGQou7hMSFhYqs7BVBZjsAN&#xA;yTkIxJNDmkmk8/w7L+i60/0yvPj7U+xm+/kaX5f/AG3n+xwfzg8T+iyNgpBDAEHqD0zpiARu60IR&#xA;LbSfV+COD1PABa1+WYccOn4thDi+DcZ5K3JpF5mtLsVUriK0df8ASFRlHeQCg+/Kc0Mch6wK82cJ&#xA;SH021bRWSAm2WMDuYwP1jBgx4gP3Yj8KWcpH6rVsvYOxV2KuxV2KuxV2KuxV2KuxV2KuxVxAIodw&#xA;eoxIVCfVtJ9X+7g9TwolfuzC8HTcXKHF8G7jyVzNIsCmw6ZmtLsVU547Z0/0hUZB/OAR+OVZYQkP&#xA;WAR5somQOyy2hsF+K2SMeLRhf1jIYMeEb4xH4UynKZ+q1fMhrYnrWry3M7wxsVt0PGg/ap1Jzj+0&#xA;+0JZZmMT6B9rttNpxEWeaV5qHLT7y/q0pmFnOxdWH7pj1BG9K50XZHaEjLwpm75fqdfq9OK4gnOo&#xA;3q2do85FSNkXxY9M3es1Iw4zP5e9w8OPjlTDbm6nuZDJM5dj49B7Ads4jNnnllxSNl3MICIoLYJ5&#xA;oJBJC5Rx0IyOLLLHLiiaKZREhRZjpN+L20EpFJFPGQDxHf6c7bs/V+Pj4uvIumz4uCVdEZma0uxV&#xA;2KuxV2KuxV2KuxV2KuxV2KsY13V5pJ3toWKwxni9NizDrX2zlO1e0JSmccTURz8y7TS6cAcR5pNm&#xA;jc1OtB1eVJ0tZmLRSfDGTuVbsPkc3vZPaEozGORuJ5eRcHVacEcQ5sgvbpLW1knbcINh4k7AffnR&#xA;6nOMWMzPR1+OBlIBhd3e3F3KZJnLHsvYewGcPqNTPNLikXd48cYCgpxSyROHjYo46MDQ5VDJKBuJ&#xA;ospRBFFP/wDETfovnt9cr6ft0rzp/nvnRfyyfy9/5Tl+38dXX/k/3lfwsfdGR2RhRlJDD3Gc5KJi&#xA;SDzDsAbFtZFKL0hGbU7cKKkOCfkNzmb2dEnPCu9p1BqBT3zQjtYIw+ykgLfSCK50HbsScII6S/W4&#xA;GiPr+DF85J2rsVZJ5VRhbzufslwB8wN/151HYETwSPS3Wa47hPM37guxV2KuxV2KuxV2KuxV2Kux&#xA;V2KsEvEZLuZWFGDtX788/wBTEjJIHnZd9jNxHuUsoZq9ijvewKn2jItPvzI0kTLLEDnxBrymon3M&#xA;m8xozaYxXorKW+XT+OdT21EnAa6EOs0Z/eMSzjnbuxVv039P1KfBXjy7VpWmT4DXF0RYumS6voBu&#xA;JDcWxAkb7cZ2BPiD450/aPZJyS48f1dQ63T6rhFS5JQNB1Utx9Aj3LLT9eaYdlagmuH7Q5f5rH3p&#xA;9o+jLY1lkIe4YUqOijwGdD2d2aMHqlvM/Y4Go1PHsOSYTwxzxPFIOSOKMM2OXFHJExlyLjxkYmwx&#xA;i78uX0Tn0AJo+xBAYfMHOV1HYuWB9Hqj9rtMesiRvsVtt5c1CVwJVEKd2Ygn6AMjg7GzTPqHCEz1&#xA;kANt2T2ttFbQLDEKIg28T7nOrwYI4oCEeQdXOZkbKrlrB2KuxV2KuxV2KuxV2KuxV2KuxVKNY0P6&#xA;2/rwELPSjKejU9/HNN2l2V4x44bT+9zNPquDY8kl/QWq8uPoH58lp+vNF/JWouuH7R+tzfzWPvTv&#xA;R9DFm3rzEPPSigdFr/HN92d2X4J457z+5wdRqePYck0kjSSNo3HJGBDA9wc204CQIPIuKCQbDGb3&#xA;y3dxuTbfvoj0FQGHzrnK6nsXJE/u/VH7XaY9ZEj1bFSt/L2pSuA6CFO7sQfwBOU4ex88juOEebKe&#xA;rgBtun/6HtPqH1Kh4def7XP+b550f8nY/B8Lp39b73X/AJiXHxI7M9odirsVdiqWXfmGxt3Ma1mc&#xA;bHhSg+k5qtR2xhxmh6j5OVj0k5C+S218x2EzhH5Qk9C1OP3jI4O2sMzRuPv5Jno5x3G6a5t3EU7i&#xA;4ht4jLM4RB1JyvLmjjjxSNBlCBkaCUv5psw1FikZf5th+Fc08u3sQO0ZEOWNDLvCPsdUtL0H0Wo4&#xA;6xtswzYaXXY8/wBJ37urRlwShzReZjSgr/V7OyPGQlpOvppufp8MwdX2jiwbS3l3BvxaeU+XJBxe&#xA;aLNmpJG6D+bY/fTMGHbuImiCG6Whl0KbxSxyxrJGwdG3DDpm5x5IzHFE2C4cokGi2zKqlmICgVJO&#xA;wAyRIAsoASm48zWMblY1aWnVhsPormnzdt4omogycyGimeeytZa7Y3TiMExSHor0FT7HL9L2riyn&#xA;h+mXmwy6WcBfMJjmycZQvL62tI+c78Qfsr1J+QzH1Oqx4Y3MtmPFKZoJZ/iq05U9GTj47V+6uar+&#xA;Xsd/TKvg5X5GXeEztL22u4/UgfkBsw6EH3GbXT6mGaPFA24uTHKBoq+ZDW7FXYq7FXYq7FXYqlvm&#xA;C7e3088DR5WEYI6gEEn9WavtfUHHh25yNOTpMYlPfoxHOMdw7FWVeW7t5rJonNTAeKn/ACT0zrux&#xA;dQZ4jE/w/c6rWYwJWOqVeY7p5b8w1/dwgAD3IqTmp7Z1Bnm4ekXK0eMCF9SlWady1S3nkt50mjNH&#xA;Q1H9Mtw5ZY5iUeYYzgJCizWe6Edi9yNwI+aj6KjO6y5xHEcg/m26SMLlw+bCJJHkkaRyWdjVie5O&#xA;cHOZkSTuS7wAAUFuQSnfle6dbh7YmsbqWUeDD+ozfdhagiZx9CL+Lg63GK4kT5ounSKK2U0ElWf3&#xA;A6D78yu3dQREQH8XNr0OMEmXcxvOXdk7CrNNIumudPikc1kFVc+JU0rncdnZzlwxkefI/B0mohwz&#xA;IDFtVunub6V2OysVQeCg0Gcnr85y5ZE99D3O1wYxGACEzCbkZo929tfxMD8LsEkHYhjT8MzuztQc&#xA;WaJHImj8WjUYxKBZpnculdirsVdirsVdirsVS3zBaPcaeeAq8TCQAdSACD+vNX2vpzkw7c4m3J0m&#xA;QRnv1YjnGO4dirKvLdo8Nk0rihnPJR/kjpnXdi6cwxGR/i+51WsyAyodEq8x2rxX5mp+7mAIPuBQ&#xA;jNT2zpzDNxdJOVo8gMK6hKs07lqlvBJcTpDGKu5oP65bhxSyTEY8yxnMRFlms9qJLF7YbAx8FP0U&#xA;Gd1lwCWI4x/Np0kZ1Li82ESRvHI0bgq6mjA9iM4OcDEkHYh3gIIsLcglO/K9q7XD3JFI0Uqp8WP9&#xA;Bm+7C05Mzk6AV8XB1uQVwonzRau8UVyoqI6q/sD0P35ldu6cmImP4ebXocgBMe9jecu7J2FWaaRa&#xA;tbafFG4pIas48CxrTO47OwHFhjE8+Z+LpNRPimSGLaravbX0qMNmYsh8VJqM5PX4DiyyB77Hudrg&#xA;yCUAUJmE3IzR7R7m/iUD4UYPIewCmv45ndnac5c0QOQNn4NGoyCMCzTO5dK7FXYq7FXYq7FXYq7F&#xA;Usu/L1jcOZFrC53PClD9BzVajsfDkNj0nycrHq5xFc1tr5csIXDvymI6BqcfuGRwdi4YGzcvfyTP&#xA;WTlsNk1zbuIp3FvDcRGKZA6HqDleXDHJHhkLDKEzE2EpfytZlqrK6r/Lsfxpmnl2DiJ2lIByxrpd&#xA;wR9jpdpZA+itXPWRt2ObDS6HHg+kb9/Voy55T5ovMxpQV/pFnenlICsnT1E2P0+OYOr7OxZ95bS7&#xA;w34tRKHLkg4vK9krVkkdx/LsB9NMwYdhYgdyS3S10ugTeKKOKNY41CIuwUdM3OPHGA4YigHDlIk2&#xA;W2VWUqwBUihB3BGSIBFFAKU3HlmxkctGzRV6qNx9Fc0+bsTFI3EmLmQ1sxz3VrLQrG1cSAGWQdGe&#xA;hofYZfpeysWI8X1S82GXVTmK5BMc2TjKF5Y213HwnTkB9luhHyOY+p0uPNGphsx5ZQNhLP8ACtpy&#xA;r60nHw2r99M1X8g47+qVfByvz0u4JnaWVtaR+nAnEHdj1JPuc2un00MMeGApxcmSUzZV8yGt2Kux&#xA;V2KpLq+vm3kNvbAGRftyHcA+AHjmi7R7WOOXBj+rqXO0+l4hcuSUDXtVDcvXJ9iq0/VmmHauoBvi&#xA;+wOX+Vx9yfaPrK31Y5AEuFFaDow8RnQ9ndpDP6ZbTH2uBqNNwbjkmE80cETyyHiiCrHNjlyxxxMp&#xA;cg48YmRoMYu/Md9K59AiGPsAAWPzJzldR21lmfR6Y/a7THo4gb7lbbeYtQicGVhMndWAB+ggZHB2&#xA;zmgfUeIJno4EbbMntbmK5gWaI1Rxt4j2OdXgzxywE48i6ucDE0VXLWDsVdirsVdirsVdirsVdirs&#xA;VdiqUaxrn1R/QgAaelWY9Fr7eOabtLtXwTwQ3n9zmafS8e55JL+ndV5cvXPy4rT9WaL+VdRd8X2D&#xA;9Tm/lcfcnej64LxvQmASelVI6NT+Ob7s7tTxjwT2n97g6jTcG45JpJIkcbSOeKKCWJ7AZtpzEQSe&#xA;QcUAk0GM3vmS7kci2/cxDoaAsfnXOV1PbWSR/d+mP2u0x6OIHq3Klb+YdSicF3Eyd0YAfiAMpw9s&#xA;Z4nc8Q82U9JAjbZP/wBMWn1D67U8OnD9rn/L886P+Ucfg+L07ut9zr/y8uPhYc7s7s7GrMSWPuc4&#xA;mUjIknmXcgUKayKUXpDsup25U0JcA/I7HM3s6RGeFd7TqBcCnvmh3WwRR9l5AG+gE0zoO3ZEYQB1&#xA;l+twNEPX8GL5yTtXYqyTyq7G3nQ/ZDgj5kb/AKs6jsCR4JDpbrNcNwnmb9wXYq7FXYq7FXYq7FXY&#xA;q7FXYq7FWCXjs93MzGrF2r9+ef6mROSRPOy77GKiPcpZQzV7F3S9gZPtCRaffmRpJGOWJHPiDXlF&#xA;xPuZN5jdl0xgvRmUN8uv8M6ntqRGA11IdZox+8YlnHO3dirfqP6fp1+CvLj2rSlcnxmuHoihdpnr&#xA;WkS207zRqWt3PKo/Zr1Bzadp9nyxTMoj0H7HF02oEhR5pXmoctPvL+kyiYXk6lFUfulPUk7VpnRd&#xA;kdnyEvFmKrl+t1+r1ArhCc6jZLeWjwE0J3RvBh0zd6zTDNjMPl73Dw5OCVsNubWe2kMcyFGHj0Pu&#xA;D3ziM2CeKXDIUXcwmJCwtggmnkEcKF3PQDI4sUskuGIsplIRFlmOk2AsrQRE1kY8pCPE9voztuz9&#xA;J4GPh68y6bPl45X0RmZrS7FXYq7FXYq7FXYq7FXYq7FXYqxjXdImjne5hUtDIeT03KsetfbOU7V7&#xA;PlGZyRFxPPyLtNLqARwnmk2aNzU60HSJXnS6mUrFH8UYOxZux+Qze9k9nylMZJCojl5lwdVqABwj&#xA;myC9tUurWSBtg42PgRuD9+dHqcAy4zA9XX45mMgWF3dlcWkpjmQqezdj7g5w+o008MuGQd3jyRmL&#xA;CnFFJK4SNS7nooFTlUMcpmoiyylIAWU//wAOt+i+G31yvP26U4Vzov5GP5ev8pz/AGfjq6/85+8v&#xA;+FP2KgEsQAOpPTOhJAG7rwhEudJ9X4JIPU8QVrX55hxzafi2MOL4NxhkrcGkXma0uxVSuJbRF/0h&#xA;kVT2kIofvynNPHEesivNnCMj9NtW0tk4ItmjI7iMj9QwYMmIj92Y/ClnGQ+q1bL2DsVdirsVdirs&#xA;VdirsVdirsVdirsVcSAKnYDqcSVQn1nSfV/vIPU8apX78wvG03FzhxfBu4MlcjSLBruOmZrS7FVO&#xA;eS2RP9IZFQ/zkAfjlWWcIj1kAebKIkTsstprBvhtnjPisZX9QyGDJhO2Mx+FMpxmPqtXzIa2Iazq&#xA;kl3cMisRboaIo6Gn7Rzi+0tdLNMgH0Dl+t3GmwCAvql2axyU78vapKs62crFon2jr+yetPkc33Y+&#xA;ukJjFI+k8vJwdXgBHEOad6pe/U7N5gKv9mMHpyOb3XarwMRl16e9wcGLjlTDJppZpGklYu7dWOcR&#xA;kyynLikbJd1GIiKDUcjxuHjYq67hhsRghMxNg0UkAiizDR783tmHf+9Q8JPcjv8ATna9m6vx8Vn6&#xA;hsXTajFwSrojsz2h2KuxV2KuxV2KuxV2KuxV2KuxVimu6nLPcvboxEER40H7TDqTnIdq66WSZgD6&#xA;I/a7bS4BGNnmUqzTuWm+gapLDcJbSMWglPFQf2WPSnzzddk66UJjGT6JfYXD1WAGPEOYZDf3a2lp&#xA;JORUqPhXxJ2GdJq9QMOMz7nXYsfHIBhdxczXEplmYs58e3sM4bNmlklxSNl3cICIoLFZkYMpKsNw&#xA;RsQchGRBsc0kWnn+Ipf0XSv+mV4cvan28338sy/L/wC28v2uD+THif0UkkjaORo2FGQlWHuDTNFO&#xA;BjIxPMOcDYtbkEozR42fU7cKK0cMfku5zO7OgZZ4V3/c06g1Ap75njdtPVl6JIC3yIIr95zoO3IE&#xA;4QR0k4GiNT+DFs5F2rsVZJ5VjYW88h+yzAD/AGI3/XnU9gwIhI9CXWa4+oBPM3zguxV2KuxV2Kux&#xA;V2KuxV2KuxV2KsFvY2ju5kYUZXav355/qYGOSQPeXfYzcQVHKGavp8bSX0CL1Mi/gak5k6SBlliB&#xA;/ODXlNRJ8mTeYo3fTHK/sMrMPbp/HOp7ZgZYDXQgus0ZrIxLONdu7FV3oyej61P3fLhy7cqVplnh&#xA;y4eL+G6RxC66sn1bQVu3M8DBJz9oH7Lfd0OdV2h2SMx44GpfYXV6fVcAo8kpXy5qhahVQP5iwp+G&#xA;+acdi6i6ofNyzrMae6VpEVipYnnOwoz9gPAZv+z+zo6cXzmergZ9QcnuR0sUcsbRyDkjijA+BzPn&#xA;ATiYncFojIg2GN3fli5RybZhJGeisaMP4ZzGo7DyA/uzxD7XZ49bEj1bLbXyzeO4+sMsUfeh5Mfl&#xA;TbI4Ow8sj6yIj5lZ62IG27JYIIoIVhiHFEFAM6jFijjiIx5B1spGRsr8sYuxV2KuxV2KuxV2KuxV&#xA;2KuxV2KpXq2iJen1Y2EdwBQk9GHvmp7Q7LGf1R2n97lafUmGx5JN/hzVOVOC0/m5Cn9c0n8jai6o&#xA;fNzfzmNOtJ0WOy/eu3qXBFKjoo9s3nZ/Zgweom5/d7nC1GpM9hyTJlV1KsKqwowPQg5tJRBFHk4w&#xA;NMcvfLMyuWtGDxnojGjD6ehzmNV2HMG8Zsdxdlj1or1KVv5ZvncesViTua8j9AGVYexM0j6qiPmy&#xA;nrYAbbp9+i7P6l9T4/uvHvX+avjnQ/kcXheFXp/G/vcDx5cXF1dqGqWtio9Ulnb7Ma9T74NXr8eA&#xA;ern3LiwSnySwea05fFbEL4h6n7qDNWO3xe8Nvf8Ascr8ge9N7O+t7yL1IGqBsynYg+4zc6bVQzR4&#xA;oFw8mKUDRV8yGtJ7vzLaQuUhQzkdWB4r9B3zS6jtvHA1EcX2BzMeikRZ2atfM9rI4WaMw16NXkPp&#xA;2GRwduY5Gpjh+1M9FIDY2nIIIBBqDuCM3YN7hwlG6u4LWIyzNxUbDxJ8AMqz6iGKPFM0GcMZmaCT&#xA;v5rjDfBbEr4lwD9wBzSS7fF7Q29/7HNGgPUphp+sWl78KEpKNzG3X6PHNlo+0cefYbS7i42XTyhz&#xA;5I7M9oS/UNbtLNvTNZZu6L2+ZzW6ztTHhPD9Uu4fpcjFppT35BBRea4i1JbdkXxVgx+4hcwYdvxJ&#xA;9UKHvv8AU3y0B6FOYLiGeJZYWDo3QjN5iyxyR4omwXClAxNFe7pGhd2CooqzHYAZKUxEWdgEAEmg&#xA;ktx5pt0crDC0qj9ongD8tjmjzdvQBqMeL7P1ubDQkjc0rWPmG0uXEcimGRtl5Gqk+Fdsv0vbGPKe&#xA;E+k/Z82GXSSiLG6a5t3EQt/qVtZIGmJ5N9lF3Y5iavW48AuXy6tuLDKZ2Sv/ABWnKn1Y8fHnv91P&#xA;45qP5fF/Rt7/ANjl/kD3prY6jbXsZeFtx9pDsw+ebjS6zHnjcT8OriZcMoHdE5lNSU3vmO0t3Mca&#xA;md160NF+/fNPqu2ceM1EcR+z5uXj0cpCzspW/mm2dws0TRA/tA8wPnsMqw9uwkanEx+1nPQyA2Np&#xA;z6sXperzHpU5c67U8a5uvEjw8V+nvcLhN11YNd3L3NzJO53c1+Q7D6M4HUZjlmZnq73HARiAFLKW&#xA;aP0O5eHUogp+GU8HHiD0/HNj2VmMM8a5S2cfVQEoHyT7zFcvDp5VDRpWCE+1CT+rOg7ZzmGGh/Ea&#xA;cDRwEp79GJZxzt3YqyjyzcvJZvExr6LUU/5Lb0zrew8xliMT/CfvdVrYASvvSvzFcvLqLRk/BCAq&#xA;j3IBJzUds5jPOY9IuXo4AQvvSvNS5S+GaSGVJYzR0NVPyyzHkMJCQ5hEogiizW4uuGnvdL2j5r8y&#xA;KjO6zajhwnIP5tujhjufD5sIZmZizGrMaknuTnBykSbPN3gFNZFKdeWLl1u3gr8EilqeDL3+7N72&#xA;FmIyGHQj7Q4WtgDG0R5puXVIbdTRXq7+9OmZPb2cgRgOR3LVoYCzJjucy7J2Ksy0W5e406J3NXWq&#xA;MfHiafqzuOzM5yYIk8+XydLqYCMyAxbUrl7i+mkY/tFVHgoNAM5LW5jkyyke/wCx2uGAjABDZiNq&#xA;L0q5e3v4XU0BYK48VY0OZugznHmiR30fcWnPDigQybXbl7fTpGQ0dyEB8K9fwzqe1c5x4CRzOzrN&#xA;LDimLYdnEu5diqJ+vz/UPqdf3XPl9Hh8q75lfm5+D4X8N3+z9LV4Q4+Lq1qFm9pdPCw2Bqh8VPQ4&#xA;6zTHDkMT8PcnFkE42h8xWxMtAs3nv0kofShPJm9+wza9kaY5Mwl/DHf9Ti6vIIwrqU+12ze6sCIx&#xA;WSMh1Hc0qCPuOdB2rpjlw1HmN3A0uQRnv1YfnFO5dirK/Ltm9vZF5BR5jyoeoUdM7DsbTHHis85b&#xA;/Do6nWZBKVDolfmSzeK8NwB+6mpv4MBQj8M1PbWmMcvH/DL73K0eQGPD1CUZpXMVbS1lurhIYxVm&#xA;O57Adycv0+CWWYjHqwyTERZZrNbJJaPbDZWQoD4bUGdzlwCWM4+lU6SM6lxMImhkhlaKReLoaMDn&#xA;B5McoSMZCiHeRkJCwsytknvlizczPdsKIoKIfEnr92dB2FpjxHIeXIOBrcgrhRPmazeSCO4QV9Go&#xA;cf5J7/RmV25pjKAmP4efua9FkAJierGc5V2bgCxAAqTsAPHCASaCs10q0a1sIom+3Tk/zY1p9Gd1&#xA;oNOcWERPPq6TPk45ksX1eze1vpAR8DkvG3Ygmv4ZyfaOmOLKQeR3DtNPkEoBBZgN6O0Wze5vo6D9&#xA;3EQ8jdgAagfTmw7M0xy5h3R3LRqcgjA95ZNq9o11YSRpvIKMg8Svb6c6ntHTnLhMRz5h1enycEwS&#xA;wsggkEUI2IOcORWxd27AqP8A0Rcfoz67Q9a8O/p/zffmx/k6fgeL9nl3/jo4/wCYHHw/i2V3VlbX&#xA;UfCdA4HQ9CPkc6/PpseUVMW6nHklA2Cl6+WdND8iZCP5Swp+ArmuHYeAG/V8/wBjkHWz8kzgghgj&#xA;EcKBEHRRm0xYo448MRQcaUjI2V+WMUBd6Hp905kZCkh+0yGlfo3Ga7Udl4cpsij5ORj1M4iltroG&#xA;nW7hwpkYdDIa0+gADI4OycGM3XEfNM9VOQrkmObNxlssUcsZjkUOjdVO4yGTHGYqQsJjIg2Erfyz&#xA;prPyBkQfyhhT8QTmql2JgJv1D4/scoa2fkjrSwtLRSsEYWv2m6sfmTmfp9JjwioCmjJllPmURmS1&#xA;oW90yzvAPWSrDYONmH05ianRYs31jfv6tuPNKHIoSLy1pqPyPOT/ACWYU/ADMPH2JgibNn3n9VN0&#xA;tZM+SaIiIoRFCquwUbAZtYxERQ2Dik3zbIrsemSQllx5d02ZywVoieojIA+4g5qs3Y+CZujH3OVD&#xA;VzHmrWej2No3ONOUg6O5qR8uwy/TdnYcJuI37ywyaic9jyRuZzQpXNrb3MfpzoHXtXqPke2U5sEM&#xA;seGYsM4TMTYS7/DOnc+VZKfy8hT9Vc1v8h4Lv1fP9jkfnZ+SZW9tBbRiOBAiDsO/zObPDghijwwF&#xA;BxpzMjZVMtYoK80awu2LyIVkPV0NCfn2zA1PZuHMbkKl3hvx6mcNhyUrfy9psLh+LSkdPUNR9wAG&#xA;VYex8EDdGXvZT1c5eSZUFKdvDNpTjOxV2KuxVTubiO3geaQ0RBU/0yrNmjjgZy5BlCBkaDFbvX9Q&#xA;nclHMMf7KJsfpPXOR1Ha2bIdjwjydtj0sIjfcrbbXdRgcFpDKndH3r9PUZHB2rngbJ4h3FM9LCQ5&#xA;Uyqzu4ru3WeL7LdQeoI6g512m1Ec0BOPV1OTGYGigtZ1gWKiOMBp3FRXoo8TmD2l2j4A4Y7zP2N+&#xA;m0/HueTHX1fU2YsbhwT2BoPuGc1LtHOTfGXYjTwHRM9J8wSmVYLs8lc0WXoQT0rTNr2f2vIyEMu9&#xA;9f1uLqNIKuLIiabnpnSuuYzqXmK4eRo7RvTiU09Qfab336DOV1vbE5SMcZqPf1LtMOkAFy5oGPWN&#xA;TjYMLhm9mPIfccwIdpZ4m+I/HdvOngejJdI1Rb+E1AWZKeoo6b9xnU9n68aiO+0hzdZqMHhnyVtR&#xA;v4rK3Mr7noieJy7WauOCHEfgGGHEZyoMWn1vUpnLesYx2VPhAzksvameZvir3bO1jpoAclax8wXk&#xA;EgE7GaE/aB+0Pkcv0vbGWB9Z4o/a15dJGQ22LKopEljWRDyRwCp9jnXQmJxEhyLqpAg0Um1rXXt5&#xA;DbW1PVH25Dvxr2A8c0fafapxy4Mf1dT3ObptKJDilySX9Laly5fWXr89vu6Zo/5Qz3fGXN/Lw7gn&#xA;ei641y4t7mnrEfA425U7EeOb7sztQ5TwT+roe9wdTpeEcUeSdZvHCdirsVdirsVdirsVSfzQziwQ&#xA;D7JkHL7jml7dJ8Ed3F+guZoR6z7mL5yTtXYqyTyqW9Cdf2QwI+ZG/wCrOo7AJ4JDpbrdcNwlWvFj&#xA;qs/LtxA+XEZqO1iTqJX5fcHK0v8AdhAZrnIdirM7x5f0PI/+7DDVvpXfO41Mpflif4uD9G7pcYHi&#xA;DuthmcO7p2Kpr5aLDUqDoUbl8ts3HYhPj/AuJrfo+KJ81lvVt1/Z4sR86iuZPb5PFAdKLXoORSHO&#xA;ec92Ksu8vM50uPl0BYL8q52fY5J04vz+90+rH7wsWuyzXUxb7Rdq18a5yWoJOSRPOy7XH9I9yllL&#xA;NWsWdb2Ap9r1Fp94zI0pIyxrnxD72GUek33M6zv3QuxV2KuxV2KuxV2KqF9Zpd2rwPty+y3gw6HM&#xA;fV6YZsZgerZiyGErYbd2F1aOUmQgdn/ZPyOcTqNJkwmpD9TuceWMxsWrazublwkEZc9z2HzORwab&#xA;JlNQFpnkjEWSzDTLBbK1WEHk1eTt4sc7XRaQYMYj16+902bLxytL9f0iS4IubccpVFJE7sB0I981&#xA;va3Z0sn7yH1dR3uRpdQI+k8mNOjoxV1KsOqkUOcvKJiaIouzBB5JnpOiz3MqyTIUt1NTyFC3sBm1&#xA;7P7MnlkJSFQ+9xdRqREUObK2RWUowqrChHiDnXyiCKPJ1QNMP1PR7mzkYqpe3r8Mg3oPBvDOL1vZ&#xA;08MjQuHf+t3GHURmPNBRxSSsEjQux6BRU/hmBDHKRqIst5kBzZToWlPZxtLMKTyCnH+VetM63srQ&#xA;HCDKX1y+wOq1WfjNDkFfWNNF9bcVIE0ZrGT09wfnl/aOi8eFD6hya9Pm4JeTEZ7aeByk0ZRh2I/V&#xA;nG5cM8ZqQou4jMSFgq1jpl1eSBY0IT9qUj4QMv0uhyZjURt39GGXNGA3ZlbW8dvAkMf2EFB/XO2w&#xA;YRjgIDkHSzmZGykGu6NN67XVuhdH3kRdyG7mngc53tXs2XGckBYPMOw0upFcMkj4ty40PLpTvmh4&#xA;TddXPtPdC0aYTLdXKlFTeNDsSfEjtTOg7K7NkJDJMVXIOv1WpFcMWRZ0rrnYq7FXYq//2Q==</xmpGImg:image>
               </rdf:li>
            </rdf:Alt>
         </xmp:Thumbnails>
         <xmpTPg:MaxPageSize rdf:parseType="Resource">
            <stDim:w>1000.000000</stDim:w>
            <stDim:h>1000.000000</stDim:h>
            <stDim:unit>Pixels</stDim:unit>
         </xmpTPg:MaxPageSize>
         <xmpTPg:NPages>1</xmpTPg:NPages>
         <xmpTPg:HasVisibleTransparency>False</xmpTPg:HasVisibleTransparency>
         <xmpTPg:HasVisibleOverprint>False</xmpTPg:HasVisibleOverprint>
         <xmpTPg:PlateNames>
            <rdf:Seq>
               <rdf:li>Cyan</rdf:li>
               <rdf:li>Magenta</rdf:li>
               <rdf:li>Yellow</rdf:li>
            </rdf:Seq>
         </xmpTPg:PlateNames>
         <xmpTPg:SwatchGroups>
            <rdf:Seq>
               <rdf:li rdf:parseType="Resource">
                  <xmpG:groupName>預設色票群組</xmpG:groupName>
                  <xmpG:groupType>0</xmpG:groupType>
                  <xmpG:Colorants>
                     <rdf:Seq>
                        <rdf:li rdf:parseType="Resource">
                           <xmpG:swatchName>R=255 G=204 B=84</xmpG:swatchName>
                           <xmpG:type>PROCESS</xmpG:type>
                           <xmpG:tint>100.000000</xmpG:tint>
                           <xmpG:mode>RGB</xmpG:mode>
                           <xmpG:red>255</xmpG:red>
                           <xmpG:green>205</xmpG:green>
                           <xmpG:blue>71</xmpG:blue>
                        </rdf:li>
                     </rdf:Seq>
                  </xmpG:Colorants>
               </rdf:li>
            </rdf:Seq>
         </xmpTPg:SwatchGroups>
         <dc:format>image/svg+xml</dc:format>
      </rdf:Description>
   </rdf:RDF>
</x:xmpmeta>
                                                                                                    
                                                                                                    
                                                                                                    
                                                                                                    
                                                                                                    
                                                                                                    
                                                                                                    
                                                                                                    
                                                                                                    
                                                                                                    
                                                                                                    
                                                                                                    
                                                                                                    
                                                                                                    
                                                                                                    
                                                                                                    
                                                                                                    
                                                                                                    
                                                                                                    
                                                                                                    
                           
<?xpacket end="w"?>
  </metadata>
</svg>