<?xml version="1.0" encoding="UTF-8"?>
<svg id="_圖層_1" xmlns="http://www.w3.org/2000/svg" version="1.1" viewBox="0 0 1000 1000">
  <!-- Generator: Adobe Illustrator 30.2.1, SVG Export Plug-In . SVG Version: 2.1.1 Build 1)  -->
  <path d="M336.139,88.478c0,22.158-17.964,40.123-40.124,40.123s-40.123-17.964-40.123-40.123,17.964-40.124,40.123-40.124,40.124,17.964,40.124,40.124Z" fill="#ffcd48"/>
  <path d="M438.131,88.478c0,22.158-17.964,40.123-40.123,40.123s-40.124-17.964-40.124-40.123,17.964-40.124,40.124-40.124,40.123,17.964,40.123,40.124Z" fill="#ffcd48"/>
  <path d="M540.123,88.478c0,22.158-17.964,40.123-40.123,40.123s-40.124-17.964-40.124-40.123,17.964-40.124,40.124-40.124,40.123,17.964,40.123,40.124Z" fill="#ffcd48"/>
  <path d="M642.114,88.478c0,22.158-17.962,40.123-40.123,40.123s-40.124-17.964-40.124-40.123,17.964-40.124,40.124-40.124,40.123,17.964,40.123,40.124Z" fill="#ffcd48"/>
  <path d="M744.108,88.478c0,22.158-17.964,40.123-40.124,40.123s-40.122-17.964-40.122-40.123,17.964-40.124,40.122-40.124,40.124,17.964,40.124,40.124Z" fill="#ffcd48"/>
  <g>
    <path d="M234.147,191.359c0,22.158-17.964,40.123-40.124,40.123s-40.123-17.964-40.123-40.123,17.962-40.124,40.123-40.124,40.124,17.964,40.124,40.124Z" fill="#ffcd48"/>
    <path d="M336.139,191.359c0,22.158-17.964,40.123-40.124,40.123s-40.123-17.964-40.123-40.123,17.964-40.124,40.123-40.124,40.124,17.964,40.124,40.124Z" fill="#ffcd48"/>
    <path d="M438.131,191.359c0,22.158-17.964,40.123-40.123,40.123s-40.124-17.964-40.124-40.123,17.964-40.124,40.124-40.124,40.123,17.964,40.123,40.124Z" fill="#ffcd48"/>
    <path d="M540.123,191.359c0,22.158-17.964,40.123-40.123,40.123s-40.124-17.964-40.124-40.123,17.964-40.124,40.124-40.124,40.123,17.964,40.123,40.124Z" fill="#ffcd48"/>
    <path d="M642.114,191.359c0,22.158-17.962,40.123-40.123,40.123s-40.124-17.964-40.124-40.123,17.964-40.124,40.124-40.124,40.123,17.964,40.123,40.124Z" fill="#ffcd48"/>
    <path d="M744.108,191.359c0,22.158-17.964,40.123-40.124,40.123s-40.122-17.964-40.122-40.123,17.964-40.124,40.122-40.124,40.124,17.964,40.124,40.124Z" fill="#ffcd48"/>
    <path d="M846.1,191.359c0,22.158-17.964,40.123-40.124,40.123s-40.123-17.964-40.123-40.123,17.964-40.124,40.123-40.124,40.124,17.964,40.124,40.124Z" fill="#ffcd48"/>
  </g>
  <path d="M234.147,294.238c0,22.16-17.964,40.124-40.124,40.124s-40.123-17.964-40.123-40.124,17.962-40.123,40.123-40.123,40.124,17.964,40.124,40.123Z" fill="#ffcd48"/>
  <path d="M336.139,294.238c0,22.16-17.964,40.124-40.124,40.124s-40.123-17.964-40.123-40.124,17.964-40.123,40.123-40.123,40.124,17.964,40.124,40.123Z" fill="#ffcd48"/>
  <path d="M744.108,294.238c0,22.16-17.964,40.124-40.124,40.124s-40.122-17.964-40.122-40.124,17.964-40.123,40.122-40.123,40.124,17.964,40.124,40.123Z" fill="#ffcd48"/>
  <path d="M846.1,294.238c0,22.16-17.964,40.124-40.124,40.124s-40.123-17.964-40.123-40.124,17.964-40.123,40.123-40.123,40.124,17.964,40.124,40.123Z" fill="#ffcd48"/>
  <path d="M234.147,397.119c0,22.16-17.964,40.124-40.124,40.124s-40.123-17.964-40.123-40.124,17.962-40.123,40.123-40.123,40.124,17.964,40.124,40.123Z" fill="#ffcd48"/>
  <path d="M336.139,397.119c0,22.16-17.964,40.124-40.124,40.124s-40.123-17.964-40.123-40.124,17.964-40.123,40.123-40.123,40.124,17.964,40.124,40.123Z" fill="#ffcd48"/>
  <path d="M234.147,499.999c0,22.16-17.964,40.124-40.124,40.124s-40.123-17.964-40.123-40.124,17.962-40.123,40.123-40.123,40.124,17.964,40.124,40.123Z" fill="#ffcd48"/>
  <path d="M336.139,499.999c0,22.16-17.964,40.124-40.124,40.124s-40.123-17.964-40.123-40.124,17.964-40.123,40.123-40.123,40.124,17.964,40.124,40.123Z" fill="#ffcd48"/>
  <path d="M438.131,499.999c0,22.16-17.964,40.124-40.123,40.124s-40.124-17.964-40.124-40.124,17.964-40.123,40.124-40.123,40.123,17.964,40.123,40.123Z" fill="#ffcd48"/>
  <path d="M540.123,499.999c0,22.16-17.964,40.124-40.123,40.124s-40.124-17.964-40.124-40.124,17.964-40.123,40.124-40.123,40.123,17.964,40.123,40.123Z" fill="#ffcd48"/>
  <path d="M642.114,499.999c0,22.16-17.962,40.124-40.123,40.124s-40.124-17.964-40.124-40.124,17.964-40.123,40.124-40.123,40.123,17.964,40.123,40.123Z" fill="#ffcd48"/>
  <path d="M744.108,499.999c0,22.16-17.964,40.124-40.124,40.124s-40.122-17.964-40.122-40.124,17.964-40.123,40.122-40.123,40.124,17.964,40.124,40.123Z" fill="#ffcd48"/>
  <path d="M234.147,602.88c0,22.16-17.964,40.124-40.124,40.124s-40.123-17.964-40.123-40.124,17.962-40.123,40.123-40.123,40.124,17.964,40.124,40.123Z" fill="#ffcd48"/>
  <path d="M336.139,602.88c0,22.16-17.964,40.124-40.124,40.124s-40.123-17.964-40.123-40.124,17.964-40.123,40.123-40.123,40.124,17.964,40.124,40.123Z" fill="#ffcd48"/>
  <path d="M744.108,602.88c0,22.16-17.964,40.124-40.124,40.124s-40.122-17.964-40.122-40.124,17.964-40.123,40.122-40.123,40.124,17.964,40.124,40.123Z" fill="#ffcd48"/>
  <path d="M846.1,602.88c0,22.16-17.964,40.124-40.124,40.124s-40.123-17.964-40.123-40.124,17.964-40.123,40.123-40.123,40.124,17.964,40.124,40.123Z" fill="#ffcd48"/>
  <path d="M234.147,705.76c0,22.16-17.964,40.124-40.124,40.124s-40.123-17.964-40.123-40.124,17.962-40.123,40.123-40.123,40.124,17.964,40.124,40.123Z" fill="#ffcd48"/>
  <path d="M336.139,705.76c0,22.16-17.964,40.124-40.124,40.124s-40.123-17.964-40.123-40.124,17.964-40.123,40.123-40.123,40.124,17.964,40.124,40.123Z" fill="#ffcd48"/>
  <path d="M744.108,705.76c0,22.16-17.964,40.124-40.124,40.124s-40.122-17.964-40.122-40.124,17.964-40.123,40.122-40.123,40.124,17.964,40.124,40.123Z" fill="#ffcd48"/>
  <path d="M846.1,705.76c0,22.16-17.964,40.124-40.124,40.124s-40.123-17.964-40.123-40.124,17.964-40.123,40.123-40.123,40.124,17.964,40.124,40.123Z" fill="#ffcd48"/>
  <g>
    <path d="M234.147,808.641c0,22.16-17.964,40.124-40.124,40.124s-40.123-17.964-40.123-40.124,17.962-40.123,40.123-40.123,40.124,17.964,40.124,40.123Z" fill="#ffcd48"/>
    <path d="M336.139,808.641c0,22.16-17.964,40.124-40.124,40.124s-40.123-17.964-40.123-40.124,17.964-40.123,40.123-40.123,40.124,17.964,40.124,40.123Z" fill="#ffcd48"/>
    <path d="M438.131,808.641c0,22.16-17.964,40.124-40.123,40.124s-40.124-17.964-40.124-40.124,17.964-40.123,40.124-40.123,40.123,17.964,40.123,40.123Z" fill="#ffcd48"/>
    <path d="M540.123,808.641c0,22.16-17.964,40.124-40.123,40.124s-40.124-17.964-40.124-40.124,17.964-40.123,40.124-40.123,40.123,17.964,40.123,40.123Z" fill="#ffcd48"/>
    <path d="M642.114,808.641c0,22.16-17.962,40.124-40.123,40.124s-40.124-17.964-40.124-40.124,17.964-40.123,40.124-40.123,40.123,17.964,40.123,40.123Z" fill="#ffcd48"/>
    <path d="M744.108,808.641c0,22.16-17.964,40.124-40.124,40.124s-40.122-17.964-40.122-40.124,17.964-40.123,40.122-40.123,40.124,17.964,40.124,40.123Z" fill="#ffcd48"/>
    <path d="M846.1,808.641c0,22.16-17.964,40.124-40.124,40.124s-40.123-17.964-40.123-40.124,17.964-40.123,40.123-40.123,40.124,17.964,40.124,40.123Z" fill="#ffcd48"/>
  </g>
  <path d="M336.139,911.522c0,22.16-17.964,40.124-40.124,40.124s-40.123-17.964-40.123-40.124,17.964-40.123,40.123-40.123,40.124,17.964,40.124,40.123Z" fill="#ffcd48"/>
  <path d="M438.131,911.522c0,22.16-17.964,40.124-40.123,40.124s-40.124-17.964-40.124-40.124,17.964-40.123,40.124-40.123,40.123,17.964,40.123,40.123Z" fill="#ffcd48"/>
  <path d="M540.123,911.522c0,22.16-17.964,40.124-40.123,40.124s-40.124-17.964-40.124-40.124,17.964-40.123,40.124-40.123,40.123,17.964,40.123,40.123Z" fill="#ffcd48"/>
  <path d="M642.114,911.522c0,22.16-17.962,40.124-40.123,40.124s-40.124-17.964-40.124-40.124,17.964-40.123,40.124-40.123,40.123,17.964,40.123,40.123Z" fill="#ffcd48"/>
  <path d="M744.108,911.522c0,22.16-17.964,40.124-40.124,40.124s-40.122-17.964-40.122-40.124,17.964-40.123,40.122-40.123,40.124,17.964,40.124,40.123Z" fill="#ffcd48"/>
  <metadata><?xpacket begin="﻿" id="W5M0MpCehiHzreSzNTczkc9d"?>
<x:xmpmeta xmlns:x="adobe:ns:meta/" x:xmptk="Adobe XMP Core 10.0-c000 1.000000, 0000/00/00-00:00:00        ">
   <rdf:RDF xmlns:rdf="http://www.w3.org/1999/02/22-rdf-syntax-ns#">
      <rdf:Description rdf:about=""
            xmlns:xmp="http://ns.adobe.com/xap/1.0/"
            xmlns:xmpGImg="http://ns.adobe.com/xap/1.0/g/img/"
            xmlns:xmpTPg="http://ns.adobe.com/xap/1.0/t/pg/"
            xmlns:stDim="http://ns.adobe.com/xap/1.0/sType/Dimensions#"
            xmlns:xmpG="http://ns.adobe.com/xap/1.0/g/"
            xmlns:dc="http://purl.org/dc/elements/1.1/"
            xmlns:xmpMM="http://ns.adobe.com/xap/1.0/mm/"
            xmlns:stRef="http://ns.adobe.com/xap/1.0/sType/ResourceRef#"
            xmlns:stEvt="http://ns.adobe.com/xap/1.0/sType/ResourceEvent#">
         <xmp:CreatorTool>Adobe Illustrator 30.2 (Macintosh)</xmp:CreatorTool>
         <xmp:CreateDate>2026-03-13T11:17:14+08:00</xmp:CreateDate>
         <xmp:MetadataDate>2026-03-13T11:17:14+08:00</xmp:MetadataDate>
         <xmp:ModifyDate>2026-03-13T11:17:14+08:00</xmp:ModifyDate>
         <xmp:Thumbnails>
            <rdf:Alt>
               <rdf:li rdf:parseType="Resource">
                  <xmpGImg:width>196</xmpGImg:width>
                  <xmpGImg:height>256</xmpGImg:height>
                  <xmpGImg:format>JPEG</xmpGImg:format>
                  <xmpGImg:image>/9j/4AAQSkZJRgABAgEAAAAAAAD/7QAsUGhvdG9zaG9wIDMuMAA4QklNA+0AAAAAABAAAAAAAAEA&#xA;AQAAAAAAAQAB/+4ADkFkb2JlAGTAAAAAAf/bAIQABgQEBAUEBgUFBgkGBQYJCwgGBggLDAoKCwoK&#xA;DBAMDAwMDAwQDA4PEA8ODBMTFBQTExwbGxscHx8fHx8fHx8fHwEHBwcNDA0YEBAYGhURFRofHx8f&#xA;Hx8fHx8fHx8fHx8fHx8fHx8fHx8fHx8fHx8fHx8fHx8fHx8fHx8fHx8fHx8f/8AAEQgBAADEAwER&#xA;AAIRAQMRAf/EAaIAAAAHAQEBAQEAAAAAAAAAAAQFAwIGAQAHCAkKCwEAAgIDAQEBAQEAAAAAAAAA&#xA;AQACAwQFBgcICQoLEAACAQMDAgQCBgcDBAIGAnMBAgMRBAAFIRIxQVEGE2EicYEUMpGhBxWxQiPB&#xA;UtHhMxZi8CRygvElQzRTkqKyY3PCNUQnk6OzNhdUZHTD0uIIJoMJChgZhJRFRqS0VtNVKBry4/PE&#xA;1OT0ZXWFlaW1xdXl9WZ2hpamtsbW5vY3R1dnd4eXp7fH1+f3OEhYaHiImKi4yNjo+Ck5SVlpeYmZ&#xA;qbnJ2en5KjpKWmp6ipqqusra6voRAAICAQIDBQUEBQYECAMDbQEAAhEDBCESMUEFURNhIgZxgZEy&#xA;obHwFMHR4SNCFVJicvEzJDRDghaSUyWiY7LCB3PSNeJEgxdUkwgJChgZJjZFGidkdFU38qOzwygp&#xA;0+PzhJSktMTU5PRldYWVpbXF1eX1RlZmdoaWprbG1ub2R1dnd4eXp7fH1+f3OEhYaHiImKi4yNjo&#xA;+DlJWWl5iZmpucnZ6fkqOkpaanqKmqq6ytrq+v/aAAwDAQACEQMRAD8A9U4q7FXYqoX14lpavO+/&#xA;H7K+LHoMx9XqRhxmZ6NmLGZypht3f3V25eZyR2T9kfIZxOo1eTMbkf1O5x4owGwatry5tnDwSFD3&#xA;HY/MZHBqcmI3A0meOMhRDMNMv1vbVZgOLV4uvgwztdFqxnxiXXr73TZsXBKkv1/V5Lci2tzxlYVk&#xA;fuoPQD3zW9rdoyx/u4fV1Pc5Gl04l6jyY07u7FnYsx6sTU5y8pGRsmy7MADkmeka1PbSrHM5e2Y0&#xA;PLfjXuDm17P7TnikIyNw+5xtRphIWObK2dVUuxoqipPgBnXykALPJ1IFsP1PWLm8kYKxS3r8MY2q&#xA;PFvHOL1vaM80jRqHd+t3GHTxgPNBRyyRMHjcow6FTQ/hmBDJKJuJot5iDzZToWqveRtFMazxivL+&#xA;Zelc63srXnMDGX1x+0Oq1WDgNjkVfWNSFjbclAM0hpGD09yfll/aOt8CFj6jya9Ph45eTEZ7medy&#xA;80hdj3J/VnG5c08huRsu4jARFAK1jqd1ZyBo3JT9qIn4SMv0uuyYTcTt3dGGXDGY3ZlbXEdxAk0f&#xA;2HFR/TO2wZhkgJjkXSzgYmix/XdZm9ZrW3coibSOuxLdxXwGc72r2lLjOOBoDmXYaXTCuKSScm5c&#xA;qnl1r3zQ8Ru+rn0nuhazMZltbli6vtG53IPgT3rnQdldpSMhjmbvkXX6rTCuKLIs6V1zsVdirsVd&#xA;irsVdiqT+aFc2CEfZEg5fcc0vboPgju4v0FzNCfWfcxfOSdq7FWSeVQ3oTt+yWAHzA3/AF51HYAP&#xA;BI9LdbrjuEq14MNVn5d+JHy4jNR2sCNRK/L7g5Wl/uwgM1zkOxVmd4kv6HkT/dgho30LvncamMvy&#xA;xH8XB+jd0uMjxB3WwzOHd07FU18tBjqVR0CNy+W2bjsQHx/gXE1v0fFE+aw3q27fs8WA+dRXMnt8&#xA;HigelFr0HIpDnPOe7FWXeXlcaXHy6EsV+Vc7PscEacX5/e6fVn94WLXYZbqYN9oO1a+Nc5LUAjJI&#xA;HnZdrj+ke5SylmrWKu17AE+16i0+8ZkaUE5Y1z4h97DKfSb7mdZ37oXYq7FXYq7FXYq7FVO5t47i&#xA;B4ZBVHFD/XKs2GOSBhLkWUJmJsMVu9A1CByEQzR/sum5+kdc5HUdk5sZ2HEPJ22PVQkN9itttC1G&#xA;dwGjMSd3fan0dTkcHZWeZojhHeUz1UIjnbKrO0itLdYIvsr1J6knqTnXabTxwwEI9HU5MhmbKC1n&#xA;RxfKJIyFnQUFejDwOYPaXZ3jjijtMfa36bUcGx5MdfSNTVipt3JHcCo+8ZzUuzs4NcBdiNRA9Uz0&#xA;ny/KJVnvAFVDVYq1JI6Vp2za9n9kSEhPLtXT9bi6jViqiyIiux6Z0rrmM6l5duEkaS0X1ImNfTH2&#xA;l9t+ozldb2POMjLGLj3dQ7TDqwRUuaBj0fU5GCi3ZfdhxH3nMCHZueRrhPx2bzqIDqyXSNLWwhNS&#xA;GmenqMOm3YZ1PZ+gGnjvvI83WajP4h8lbUbCK9tzE+x6o/gcu1mkjnhwn4FhhymErDFp9E1KFyvo&#xA;mQdmT4gc5LL2Xnga4b927tY6mBHNWsfL95PIDOphhH2iftH5DL9L2PlmfWOGP2teXVxiNtyyqKNI&#xA;o1jQcUQAKPYZ10ICEREcg6qRJNlJta0J7iQ3NtT1T9uM7cqdwfHNH2n2UckuPH9XUd7m6bVCI4Zc&#xA;kl/ROpcuP1Z6/Lb7+maP+T891wFzfzEO8J3ouhtbOLi5p6wHwIN+Ne5Pjm+7M7LOI8c/q6DucHU6&#xA;riHDHknWbxwnYq7FXYqo3V7bWsfOdwgPQdSfkBlGo1OPCLmaZ48cpmgEvXzNppfiRIB/MVFPwNc1&#xA;w7cwE16vl+1yDop+SZwTwzxiSFw6HowzaYssckeKJsONKJiaK/LGKAu9c0+1cxs5eQfaVBWn07DN&#xA;dqO1MOI0TZ8nIx6acha211/TrhwgYxsegkFK/SCRkcHa2DIavhPmmelnEXzTHNm4y2WWOKMySMER&#xA;erHYZDJkjAXI0ExiSaCVv5m01X4gSOP5gop+JBzVS7bwA16j8P2uUNFPyR1pf2l2paCQNT7S9GHz&#xA;BzP0+rx5hcDbRkxShzCIzJa0Le6nZ2YHrPRjuEG7H6MxNTrcWH6zv3dW3HhlPkEJF5l0134nnH/l&#xA;Mop+BOYePtvBI0bHvH6rbpaOY800R0dQ6MGVtww3BzaxkJCxuHFIrm2TTc9MkhLLjzFpsLlQzSkd&#xA;TGAR95IzVZu2MEDVmXucqGkmfJWs9YsbtuEb8ZD0RxQn5djl+m7Rw5jUTv3Fhk084bnkjczmhSub&#xA;q3to/UncIvavU/Id8pzZ4Yo8UzQZwgZGgl3+JtO58aSU/m4in665rf5cwXXq+X7XI/JT8kyt7mC5&#xA;jEkDh0PcdvmM2eHPDLHigbDjTgYmiqZaxQV5rNhaMUkctIOqIKkfPtmBqe0sOE1I3LuDfj0057jk&#xA;pW/mHTZnCcmiJ6eoKD7wSMqw9sYJmrMfeynpJx80yqKV7eObS3GYPqF493dPMx2Jog8FHQZwWs1J&#xA;zZDI/D3O9xYxCNIfMVsTLQLx4L9I6n0pjxZffsc2vZGpOPMI/wAMtv1OLq8YlC+oT7Xbx7WwJjNJ&#xA;JCEU9xWpJ+4Z0HaupOLDceZ2cDS4xKe/Rh+cU7l2Ksr8u3j3FkUkNXhPGp6lT0zsOxtScmKjzjt8&#xA;OjqdZjEZWOqV+ZLx5bw24P7qGm3ixFSfxzU9takyy8H8MfvcrR4wI8XUpRmlcxVtLqW1uEmjNGU7&#xA;jsR3By/T55YpiUejDJASFFms1ykdo9yN1VC4HjtUZ3OXOI4zk6VbpIwuXCwiaaSaVpZG5O5qxOcH&#xA;kySnIykbJd5GIiKCzK2Se+WLxxM9oxqjAug8COv350HYWpPEcZ5cw4GtxiuJE+Zrx44I7dDT1qlz&#xA;/kjt9OZXbmpMYCA/i5+5r0WMEmR6MZzlXZuBKkEGhG4I8cIJBsKzXSrtrqwilb7dOL/NTSv053Wg&#xA;1By4RI8+rpM+PgmQxfV7x7q+kJPwISka9gAafjnJ9o6k5cpJ5DYO00+MRgEFmA3o7Rbx7a+jof3c&#xA;pCSL2IJoD9GbDszUnFmHdLYtGpxiUD3hk2r3bWthJIm0hoqHwLd/ozqe0dQcWEyHPkHV6fHxzALC&#xA;ySSSTUnck5w5Nu7dgVH/AKXuP0Z9SqetOff0/wCX782P8oz8Dwvt8u78dHH/AC44+L8Whbu2e2uZ&#xA;IHG6GnzHY/TmJqMJxTMD0bccxKIIUspZo/Q7Z5tSiKj4Yjzc+AHT8c2PZWEzzxrlHdx9VMRgfNPf&#xA;MVs82nlkFTCwcj2oQf150HbOAzw2P4TbgaOYjPfqxPOOdu7FWUeWbZ47N5WFPWaqj/JXaudb2HhM&#xA;cRkf4j9zqtbMGVdyV+YrZ4tRaQj4JgGU+4ABGajtnCYZzLpJy9HMGFdyV5qXKXwwyTSpFGKu5oo+&#xA;eWY8ZnIRHMolIAWWa3Frz097Ve8fBfmBQZ3WbT8WE4x/Np0cMlT4vNhDKysVYUZTQg9iM4OUSDR5&#xA;u8BtrIpTryxbO1289PgjUrXxZu33ZvewsJOQz6AfaXC1swI0iPNNs7JDcKKqlUf2r0zJ7ewEiMxy&#xA;GxatDMWYsdzmXZOxVmWi2z2+nRI4o7Vdh4cjX9Wdx2ZgOPBEHnz+bpdTMSmSGLalbPb300bD9osp&#xA;8VJqDnJa3CceWUT3/Y7XDMSgChsxG1F6VbPcX8KKKhWDufBVNTmboMByZogd9n3Bpzz4YEsm122e&#xA;406RUFXQhwPGnX8M6ntXAcmAgcxu6zSz4Zi2HZxLuXYqifqE/wBQ+uU/dc+P0ePyrtmV+Un4Pi/w&#xA;3X7f0NXijj4erLNQ0u1vlHqgq6/ZkXqPbOw1egx5x6ufe6nFnlDklg8qJy+K5JXwCUP31OasdgC9&#xA;57e79rlfnz3JvZ2NvZxenAtAd2Y7kn3ObnTaWGGPDAOHkyymbKvmQ1pPd+WrSZy8LmAnqoHJfoG2&#xA;aXUdiY5m4nh+0OZj1sgKO7Vr5YtY3DTSGanRacR9O5yODsPHE3M8X2JnrZEbCk5AAAAFANgBm7Ar&#xA;YOEo3VpBdRGKZeSnceIPiDlWfTwyx4ZiwzhkMDYSd/KkZb4LkhfAoCfvBGaSXYAvae3u/a5o156h&#xA;MNP0e0sviQF5TsZG6/R4ZstH2djwbjeXeXGy6iU+fJHZntCX6holpeN6hrFN3de/zGa3Wdl48x4v&#xA;pl3j9LkYtTKG3MIKLypEGrLcM6+CqFP3ktmDDsCIPqnY91frb5a89AnMFvDBEsUKhEXoBm8xYo44&#xA;8MRQDhSmZGyvdEkQo6hkYUZTuCMlKAkKO4KASDYSW48rW7uWhmaJT+yRzA+W4zR5uwYE3GXD9v6n&#xA;NhriBuLVrHy9aWziSRjNIu68hRQfGm+X6XsfHiPEfUfs+TDLq5SFDZNc27iIW/022vUCzA8l+y67&#xA;MMxNXosecVL59W3FmlA7JX/hROVfrJ4+HDf76/wzUfyAL+vb3ftcv8+e5NbHTrayjKQruftOd2Pz&#xA;zcaXR48EaiPj1cTLmlM7onMpqSm98uWlw5kjYwO3Wgqv3bZp9V2NjyG4nhP2fJy8eslEUd1K38rW&#xA;yOGmlaUD9kDgD89zlWHsKETc5GX2M566RGwpOfSi9L0uA9KnHhTanhTN14ceHhr09zhcRu+qVatr&#xA;y2jmCBQ84+0T9lfu6nNT2h2sMJ4IC5fYHL0+l4xZ5JSvmPVA1SykfylRT8N8047a1F3Y+TlnR409&#xA;0rV4r5SpHCdRVk7EeIzf9n9ox1ArlMdHAz6c4/cjpZY4o2kkPFEFWJ8BmfOYhEyOwDRGJJoMbu/M&#xA;9y7kWyiOMdGYVY/wzmNR25kJ/djhH2uzx6KIHq3W2vma8Rx9YVZY+9BxYfKm2RwduZYn1gSHyKz0&#xA;USNtmSwTxTwrNEeSOKg51GLLHJESjyLrZRMTRX5YxdirsVdirsVdirsVdirsVdirsVSvVtbSyPpR&#xA;qJLgipB6KPfNT2h2oMHpjvP7nK0+mM9zySb/ABHqnKvNafy8RT+uaT+WdRd2Pk5v5PGnWk61He/u&#xA;nX07gCtB0Ye2bzs/tMZ/SRU/v9zhajTGG45JkzKilmNFUVYnoAM2kpACzycYC2OXvmaZnK2ihIx0&#xA;dhVj9HQZzGq7cmTWMUO8uyx6IV6lK38zXyOPWCyp3FOJ+gjKsPbeaJ9VSHyZT0UCNtk+/Sln9S+u&#xA;cv3Xh3r/AC08c6H89i8Lxb9P4297geBLi4erDJJGkkaRjVnJZj7k1zh5zMpGR5l3QFCluQSjNHkZ&#xA;NTtyppVwp+TbHM7s6ZjnhXf97TqBcCnvmeR109VXo8gDfIAmn3jOg7cmRhAHWTgaIXP4MWzkXaux&#xA;VknlWRjbzRn7KMCv+yG/6s6nsGZMJDoD97rNcPUCnmb5wXYq7FXYq7FXYq7FXYq7FXYq7FWC3sjS&#xA;XczsasztX788/wBTMyySJ7y77GKiAo5QzV9PkaO+gdeokX8TQjMnSTMcsSP5wa8ouJHkybzFI6aY&#xA;4X9tlVj7df4Z1PbMzHAa6kB1mjF5GJZxrt3Yqu9aT0fRr+75c+PblSlcs8SXDw/w3aOEXfVH6zpc&#xA;lpcM6qTbuaow6Cv7JzP7S0MsMyQPQeX6nH02cTFdUuzWOSnfl7S5WnW8lUrEm8df2j0r8hm+7H0M&#xA;jMZZD0jl5uDq84A4RzTvVLL65ZvCDR/tRk9OQze67S+PiMevT3uDgy8ErYZNDLDI0cqlHXqpziMm&#xA;KUJcMhRDuoyEhYajjeRwkalnbYKNycEIGRoCykkAWWYaPYGyswj/AN655yexPb6M7Xs3SeBio/Ud&#xA;y6bUZeOV9Edme0OxV2KuxV2KuxV2KuxV2KuxV2KsU13TJYLl7hFJglPKo/ZY9Qc5DtXQyxzMwPRL&#xA;7HbaXOJRo8wlWady030DS5ZrhLmRSsER5KT+0w6U+WbrsnQynMZCPRH7S4eqzgR4RzLIb+0W7tJI&#xA;CaFh8LeBG4zpNXpxmxmHe67Fk4JAsLuLaa3lMUylXHj39xnDZsMscuGQou7hMSFhYqs7BVBZjsAN&#xA;yTkIxJNDmkmk8/w7L+i60/0yvPj7U+xm+/kaX5f/AG3n+xwfzg8T+iyNgpBDAEHqD0zpiARu60IR&#xA;LbSfV+COD1PABa1+WYccOn4thDi+DcZ5K3JpF5mtLsVUriK0df8ASFRlHeQCg+/Kc0Mch6wK82cJ&#xA;SH021bRWSAm2WMDuYwP1jBgx4gP3Yj8KWcpH6rVsvYOxV2KuxV2KuxV2KuxV2KuxV2KuxVxAIodw&#xA;eoxIVD/o+w58/q8fLx4L/TMb8nhu+CN+4NnjT7yiAKbDpmS1uxVZLBDMvGWNZF8GAP68ryYozFSA&#xA;PvZRkRyK2G0tYd4YUjPiqgH78jj0+OH0xA+CZZJS5lVy5gxPWtXluZ3hjYrboeNB+1TqTnH9p9oS&#xA;yzMYn0D7XbabTiIs80rzUOWn3l/VpTMLOdi6sP3THqCN6VzouyO0JGXhTN3y/U6/V6cVxBOdRvVs&#xA;7R5yKkbIvix6Zu9ZqRhxmfy97h4cfHKmG3N1PcyGSZy7Hx6D2A7ZxGbPPLLikbLuYQERQWwTzQSC&#xA;SFyjjoRkcWWWOXFE0UyiJCizHSb8XtoJSKSKeMgHiO/0523Z+r8fHxdeRdNnxcEq6IzM1pdirsVd&#xA;irsVdirsVdirsVdirsVdirsVdirsVdirsVdirAHRkdkYUZSQw9xnnUomJIPMPQA2LayKUXpCM2p2&#xA;4UVIcE/IbnM3s6JOeFd7TqDUCnvmhHawRh9lJAW+kEVzoO3Yk4QR0l+twNEfX8GL5yTtXYqyTyqj&#xA;C3nc/ZLgD5gb/rzqOwIngkelus1x3CeZv3BdirsVdirsVdirsVdirsVdirsVdirsVdirsVdirsVd&#xA;iqS6voBuJDcWxAkb7cZ2BPiD45ou0eyTklx4/q6hztPquEVLklA0HVS3H0CPcstP15ph2VqCa4ft&#xA;Dl/msfen2j6MtjWWQh7hhSo6KPAZ0PZ3ZoweqW8z9jgajU8ew5JhPDHPE8Ug5I4owzY5cUckTGXI&#xA;uPGRibDGLvy5fROfQAmj7EEBh8wc5XUdi5YH0eqP2u0x6yJG+xW23lzUJXAlUQp3ZiCfoAyODsbN&#xA;M+ocITPWQA23ZPa20VtAsMQoiDbxPuc6vBgjigIR5B1c5mRsquWsHYq7FXYq7FXYq7FXYq7FXYq7&#xA;FXYq7FXYq7FXYq7FXYqhr3UbWzQNO1CfsoN2PyGYuq1mPALmfh1bceGUzsly+abQtQwyBfHYn7q5&#xA;rB29jveMqck6GXeE1trqC6iEsDh1PXxB8CM2+DUQyx4oGw4k8ZiaKrlzBLLvzDY27mNazONjwpQf&#xA;Sc1Wo7Yw4zQ9R8nKx6SchfJba+Y7CZwj8oSehanH7xkcHbWGZo3H38kz0c47jdNc27iKdxcQ28Rl&#xA;mcIg6k5XlzRxx4pGgyhAyNBKX802YaixOy/zbD8K5p5dvYgdoyIcsaGXeEfY6paXoPotRx1jbZhm&#xA;w0uux5/pO/d1aMuCUOaLzMaUFf6vZ2R4yEtJ19NNz9PhmDq+0cWDaW8u4N+LTyny5IOLzRZs1JI3&#xA;QfzbH76Zgw7dxE0QQ3S0MuhTeKWOWNZI2Do24YdM3OPJGY4omwXDlEg0W2ZVUsxAUCpJ2AGSJAFl&#xA;ACU3HmaxjcrGrS06sNh9Fc0+btvFE1EGTmQ0Uzz2VrLXbG6cRgmKQ9FegqfY5fpe1cWU8P0y82GX&#xA;SzgL5hMc2TjKF5fW1pHznfiD9lepPyGY+p1WPDG5lsx4pTNBLP8AFVpyp6MnHx2r91c1X8vY7+mV&#xA;fByvyMu8JnaXttdx+pA/IDZh0IPuM2un1MM0eKBtxcmOUDRV8yGt2KuxV2KsGvbp7q6kmc/aPwjw&#xA;XsM4DVZzlyGZ6u9xQEIgBQzHbEx0G6eDUI1B+CY8HX59D9BzZ9k5zjzAdJbFxtVjEoHyT3zBdvb6&#xA;eeBo8rCMEdQCCT+rOg7X1Bx4ducjTgaTGJT36MRzjHcOxVlXlu7eayaJzUwHip/yT0zruxdQZ4jE&#xA;/wAP3Oq1mMCVjqlXmO6eW/MNf3cIAA9yKk5qe2dQZ5uHpFytHjAhfUpVmnctUt55LedJozR0NR/T&#xA;LcOWWOYlHmGM4CQos1nuhHYvcjcCPmo+iozusucRxHIP5tukjC5cPmwiSR5JGkclnY1YnuTnBzmZ&#xA;Ek7ku8AAFBbkEp35XunW4e2JrG6llHgw/qM33YWoImcfQi/i4OtxiuJE+aLp0iitlNBJVn9wOg+/&#xA;Mrt3UEREB/Fza9DjBJl3Mbzl3ZOwqzTSLprnT4pHNZBVXPiVNK53HZ2c5cMZHnyPwdJqIcMyAxbV&#xA;bp7m+ldjsrFUHgoNBnJ6/OcuWRPfQ9ztcGMRgAhMwm5GaPdvbX8TA/C7BJB2IY0/DM7s7UHFmiRy&#xA;Jo/Fo1GMSgWaZ3LpXYq7FXYqwa9tXtbqSFx9k/CfFexzgNVgOLIYHo73FMTiCFDMdsTHQbV59QjY&#xA;D4ITzdvl0H0nNn2TgOTMD0juXG1WQRgfNPfMFo9xp54CrxMJAB1IAIP686DtfTnJh25xNuBpMgjP&#xA;fqxHOMdw7FWVeW7R4bJpXFDOeSj/ACR0zruxdOYYjI/xfc6rWZAZUOiVeY7V4r8zU/dzAEH3AoRm&#xA;p7Z05hm4uknK0eQGFdQlWady1S3gkuJ0hjFXc0H9ctw4pZJiMeZYzmIiyzWe1Eli9sNgY+Cn6KDO&#xA;6y4BLEcY/m06SM6lxebCJI3jkaNwVdTRgexGcHOBiSDsQ7wEEWFuQSnfle1drh7kikaKVU+LH+gz&#xA;fdhacmZydAK+Lg63IK4UT5otXeKK5UVEdVf2B6H78yu3dOTETH8PNr0OQAmPexvOXdk7CrNNItWt&#xA;tPijcUkNWceBY1pncdnYDiwxiefM/F0monxTJDFtVtXtr6VGGzMWQ+Kk1Gcnr8BxZZA99j3O1wZB&#xA;KAKEzCbkZo9o9zfxKB8KMHkPYBTX8czuztOcuaIHIGz8GjUZBGBZpnculdirsVdiqGvdOtbxAs61&#xA;I+y42YfI5i6rR484qY+PVtx5pQOyXL5WtA1TNIV8NgfvpmsHYOO95SpyTrpdwTW2tYLWIRQIEUdf&#xA;EnxJzb4NPDFHhgKDiTyGRsquXMEsu/L1jcOZFrC53PClD9BzVajsfDkNj0nycrHq5xFc1tr5csIX&#xA;DvymI6BqcfuGRwdi4YGzcvfyTPWTlsNk1zbuIp3FvDcRGKZA6HqDleXDHJHhkLDKEzE2EpfytZlq&#xA;rK6r/Lsfxpmnl2DiJ2lIByxrpdwR9jpdpZA+itXPWRt2ObDS6HHg+kb9/Voy55T5ovMxpQV/pFne&#xA;nlICsnT1E2P0+OYOr7OxZ95bS7w34tRKHLkg4vK9krVkkdx/LsB9NMwYdhYgdyS3S10ugTeKKOKN&#xA;Y41CIuwUdM3OPHGA4YigHDlIk2W2VWUqwBUihB3BGSIBFFAKU3HlmxkctGzRV6qNx9Fc0+bsTFI3&#xA;EmLmQ1sxz3VrLQrG1cSAGWQdGehofYZfpeysWI8X1S82GXVTmK5BMc2TjKF5Y213HwnTkB9luhHy&#xA;OY+p0uPNGphsx5ZQNhLP8K2nKvrScfDav30zVfyDjv6pV8HK/PS7gmdpZW1pH6cCcQd2PUk+5za6&#xA;fTQwx4YCnFyZJTNlXzIa3Yq7FXYqkur6+beQ29sAZF+3IdwD4AeOaLtHtY45cGP6upc7T6XiFy5J&#xA;QNe1UNy9cn2KrT9WaYdq6gG+L7A5f5XH3J9o+srfVjkAS4UVoOjDxGdD2d2kM/pltMfa4Go03BuO&#xA;SYTzRwRPLIeKIKsc2OXLHHEylyDjxiZGgxi78x30rn0CIY+wABY/MnOV1HbWWZ9Hpj9rtMejiBvu&#xA;Vtt5i1CJwZWEyd1YAH6CBkcHbOaB9R4gmejgRtsye1uYrmBZojVHG3iPY51eDPHLATjyLq5wMTRV&#xA;ctYOxV2KuxV2KuxV2KuxV2KuxV2KpRrGufVH9CABp6VZj0Wvt45pu0u1fBPBDef3OZp9Lx7nkkv6&#xA;d1Xly9c/LitP1Zov5V1F3xfYP1Ob+Vx9yd6PrgvG9CYBJ6VUjo1P45vuzu1PGPBPaf3uDqNNwbjk&#xA;mkkiRxtI54ooJYnsBm2nMRBJ5BxQCTQYze+ZLuRyLb9zEOhoCx+dc5XU9tZJH936Y/a7THo4gerc&#xA;qVv5h1KJwXcTJ3RgB+IAynD2xnidzxDzZT0kCNtk/wD0xafUPrtTw6cP2uf8vzzo/wCUcfg+L07u&#xA;t9zr/wAvLj4WHO7O7OxqzElj7nOJlIyJJ5l3IFCmsilF6Q7LqduVNCXAPyOxzN7OkRnhXe06gXAp&#xA;75od1sEUfZeQBvoBNM6Dt2RGEAdZfrcDRD1/Bi+ck7V2Ksk8quxt50P2Q4I+ZG/6s6jsCR4JDpbr&#xA;NcNwnmb9wXYq7FXYq7FXYq7FXYq7FXYq7FWCXjs93MzGrF2r9+ef6mROSRPOy77GKiPcpZQzV7F3&#xA;S9gZPtCRaffmRpJGOWJHPiDXlFxPuZN5jdl0xgvRmUN8uv8ADOp7akRgNdSHWaMfvGJZxzt3Yq36&#xA;j+n6dfgry49q0pXJ8Zrh6IoXaZ61pEttO80alrdzyqP2a9Qc2nafZ8sUzKI9B+xxdNqBIUeaV5qH&#xA;LT7y/pMomF5OpRVH7pT1JO1aZ0XZHZ8hLxZiq5frdfq9QK4QnOo2S3lo8BNCd0bwYdM3es0wzYzD&#xA;5e9w8OTglbDbm1ntpDHMhRh49D7g984jNgnilwyFF3MJiQsLYIJp5BHChdz0AyOLFLJLhiLKZSER&#xA;ZZjpNgLK0ERNZGPKQjxPb6M7bs/SeBj4evMumz5eOV9EZma0uxV2KuxV2KuxV2KuxV2KuxV2KsY1&#xA;3SJo53uYVLQyHk9NyrHrX2zlO1ez5RmckRcTz8i7TS6gEcJ5pNmjc1OtB0mV51uplKxR/FGDsWbs&#xA;fkM33ZPZ8pTGSYqI5eZcHVagAcI5sgvbVLq1kgbYONj4Ebg/fnRanAMuMwPV1+OZjIFhd3ZXFpKY&#xA;5kKns3Y+4OcPqNNPDLhkHd48kZiwpxRSSuEjUu56KBU5VDHKZqIsspSAFlP/APDrfovht9crz9ul&#xA;OFc6L+Rj+Xr/ACnP9n46uv8Azn7y/wCFP2KgEsQAOpPTOhJAG7rwhEudJ9X4JIPU8QVrX55hxzaf&#xA;i2MOL4NxhkrcGkXma0uxVSuJbRF/0hkVT2kIofvynNPHEesivNnCMj9NtW0tk4ItmjI7iMj9QwYM&#xA;mIj92Y/ClnGQ+q1bL2DsVdirsVdirsVdirsVdirsVdirsVcSAKnYDqcSVQn1nSfV/vIPU8apX78w&#xA;vG03FzhxfBu4MlcjSLBruOmZrS7FVOeS2RP9IZFQ/wA5AH45VlnCI9ZAHmyiJE7LLaawb4bZ4z4r&#xA;GV/UMhgyYTtjMfhTKcZj6rV8yGtiGs6pJd3DIrEW6GiKOhp+0c4vtLXSzTIB9A5frdxpsAgL6pdm&#xA;sclO/L2qSrOtnKxaJ9o6/snrT5HN92PrpCYxSPpPLycHV4ARxDmneqXv1OzeYCr/AGYwenI5vddq&#xA;vAxGXXp73BwYuOVMMmmlmkaSVi7t1Y5xGTLKcuKRsl3UYiIoNRyPG4eNirruGGxGCEzE2DRSQCKL&#xA;MNHvze2Yd/71Dwk9yO/052vZur8fFZ+obF02oxcEq6I7M9odirsVdirsVdirsVdirsVdirsVYpru&#xA;pyz3L26MRBEeNB+0w6k5yHauulkmYA+iP2u20uARjZ5lKs07lpvoGqSw3CW0jFoJTxUH9lj0p883&#xA;XZOulCYxk+iX2Fw9VgBjxDmGQ392tpaSTkVKj4V8SdhnSavUDDjM+512LHxyAYXcXM1xKZZmLOfH&#xA;t7DOGzZpZJcUjZd3CAiKCxWZGDKSrDcEbEHIRkQbHNJFp5/iKX9F0r/pleHL2p9vN9/LMvy/+28v&#xA;2uD+THif0UkkjaORo2FGQlWHuDTNFOBjIxPMOcDYtbkEozR42fU7cKK0cMfku5zO7OgZZ4V3/c06&#xA;g1Ap75njdtPVl6JIC3yIIr95zoO3IE4QR0k4GiNT+DFs5F2rsVZJ5VjYW88h+yzAD/Yjf9edT2DA&#xA;iEj0JdZrj6gE8zfOC7FXYq7FXYq7FXYq7FXYq7FXYqwW9jaO7mRhRldq/fnn+pgY5JA95d9jNxBU&#xA;coZq+nxtJfQIvUyL+BqTmTpIGWWIH84NeU1EnyZN5ijd9Mcr+wysw9un8c6ntmBlgNdCC6zRmsjE&#xA;s4127sVXejJ6PrU/d8uHLtypWmWeHLh4v4bpHELrqyfVtBW7czwMEnP2gfst93Q51XaHZIzHjgal&#xA;9hdXp9VwCjySlfLmqFqFVA/mLCn4b5px2LqLqh83LOsxp7pWkRWKliec7CjP2A8Bm/7P7OjpxfOZ&#xA;6uBn1Bye5HSxRyxtHIOSOKMD4HM+cBOJidwWiMiDYY3d+WLlHJtmEkZ6Kxow/hnMajsPID+7PEPt&#xA;dnj1sSPVsttfLN47j6wyxR96Hkx+VNsjg7DyyPrIiPmVnrYgbbslggighWGIcUQUAzqMWKOOIjHk&#xA;HWykZGyvyxi7FXYq7FXYq7FXYq7FXYq7FXYqleraIl6fVjYR3AFCT0Ye+antDssZ/VHaf3uVp9SY&#xA;bHkk3+HNU5U4LT+bkKf1zSfyNqLqh83N/OY060nRY7L967epcEUqOij2zedn9mDB6ibn93ucLUak&#xA;z2HJMmVXUqwqrCjA9CDm0lEEUeTjA0xy98szK5a0YPGeiMaMPp6HOY1XYcwbxmx3F2WPWivUpW/l&#xA;m+dx6xWJO5ryP0AZVh7EzSPqqI+bKetgBtun36Ls/qX1Pj+68e9f5q+OdD+RxeF4Ven8b+9wPHlx&#xA;cXV2oapa2Kj1SWdvsxr1Pvg1evx4B6ufcuLBKfJLB5rTl8VsQviHqfuoM1Y7fF7w29/7HK/IHvTe&#xA;zvre8i9SBqgbMp2IPuM3Om1UM0eKBcPJilA0VfMhrSe78y2kLlIUM5HVgeK/Qd80uo7bxwNRHF9g&#xA;czHopEWdmrXzPayOFmjMNejV5D6dhkcHbmORqY4ftTPRSA2NpyCCAQag7gjN2De4cJRuruC1iMsz&#xA;cVGw8SfADKs+ohijxTNBnDGZmgk7+a4w3wWxK+JcA/cAc0ku3xe0Nvf+xzRoD1KYafrFpe/ChKSj&#xA;cxt1+jxzZaPtHHn2G0u4uNl08oc+SOzPaEv1DW7Szb0zWWbui9vmc1us7Ux4Tw/VLuH6XIxaaU9+&#xA;QQUXmuItSW3ZF8VYMfuIXMGHb8SfVCh77/U3y0B6FOYLiGeJZYWDo3QjN5iyxyR4omwXClAxNFe7&#xA;pGhd2CooqzHYAZKUxEWdgEAEmgktx5pt0crDC0qj9ongD8tjmjzdvQBqMeL7P1ubDQkjc0rWPmG0&#xA;uXEcimGRtl5Gqk+Fdsv0vbGPKeE+k/Z82GXSSiLG6a5t3EQt/qVtZIGmJ5N9lF3Y5iavW48AuXy6&#xA;tuLDKZ2Sv/FacqfVjx8ee/3U/jmo/l8X9G3v/Y5f5A96a2Oo217GXhbcfaQ7MPnm40usx543E/Dq&#xA;4mXDKB3ROZTUlN75jtLdzHGpndetDRfv3zT6rtnHjNRHEfs+bl49HKQs7KVv5ptncLNE0QP7QPMD&#xA;57DKsPbsJGpxMftZz0MgNjac+rF6Xq8x6VOXOu1PGubrxI8PFfp73C4TddWDXdy9zcyTud3NfkOw&#xA;+jOB1GY5ZmZ6u9xwEYgBSylmj9DuXh1KIKfhlPBx4g9PxzY9lZjDPGuUtnH1UBKB8k98xXLw6eVQ&#xA;0MzBCfahJ/VnQds5zDDQ/iNOBo4CU9+jE84527sVZR5ZuXks3iY19FqKf8lt6Z1vYeYyxGJ/hP3u&#xA;q1sAJX3pX5iuXl1FoyfghAVR7kAk5qO2cxnnMekXL0cAIX3pXmpcpfDNJDKksZo6Gqn5ZZjyGEhI&#xA;cwiUQRRZrcXXDT3ul7R81+ZFRndZtRw4TkH823Rwx3Ph82EMzMxZjVmNST3Jzg5SJNnm7wCmsilO&#xA;vLFy63bwV+CRS1PBl7/dm97CzEZDDoR9ocLWwBjaI803LqkNupor1d/enTMnt7OQIwHI7lq0MBZk&#xA;x3OZdk7FWZaLcvcadE7mrrVGPjxNP1Z3HZmc5MESefL5Ol1MBGZAYtqVy9xfTSMf2iqjwUGgGclr&#xA;cxyZZSPf9jtcMBGACGzEbUXpVy9vfwupoGYI48VY0OZugznHmiR30fcWnPDigQybXbl7fTpGQ0dy&#xA;EB8K9fwzqe1c5x4CRzOzrNLDimLYdnEu5diqJ+vz/UPqdf3XPl9Hh8q75lfm5+D4X8N3+z9LV4Q4&#xA;+Lq1qFm9pdPCw2Bqh8VPQ46zTHDkMT8PcnFkE42h8xWxMtAs3nv0kofShPJm9+wza9kaY5Mwl/DH&#xA;f9Ti6vIIwrqU+12ze6sCIxWSMh1Hc0qCPuOdB2rpjlw1HmN3A0uQRnv1YfnFO5dirK/Ltm9vZF5B&#xA;R5jyoeoUdM7DsbTHHis85b/Do6nWZBKVDolfmSzeK8NwB+6mpv4MBQj8M1PbWmMcvH/DL73K0eQG&#xA;PD1CUZpXMVbS1lurhIYxVmO57Adycv0+CWWYjHqwyTERZZrNbJJaPbDZWQoD4bUGdzlwCWM4+lU6&#xA;SM6lxMImhkhlaKReLoaMDnB5McoSMZCiHeRkJCwsytknvlizczPdsKIoKIfEnr92dB2FpjxHIeXI&#xA;OBrcgrhRPmazeSCO4QV9Gocf5J7/AEZlduaYygJj+Hn7mvRZACYnqxnOVdm4AsQAKk7ADxwgEmgr&#xA;NdKtGtbCKJvt05P82NafRndaDTnFhETz6ukz5OOZLF9Xs3tb6QEfA5Lxt2IJr+Gcn2jpjiykHkdw&#xA;7TT5BKAQWYDejtFs3ub6Og/dxEPI3YAGoH05sOzNMcuYd0dy0anIIwPeWTavaNdWEkabyCjIPEr2&#xA;+nOp7R05y4TEc+YdXp8nBMEsLIIJBFCNiDnDkVsXduwKj/0Rcfoz67Q9a8O/p/zffmx/k6fgeL9n&#xA;l3/jo4/5gcfD+LZXdWVtdR8J0DgdD0I+Rzr8+mx5RUxbqceSUDYKXr5Z00PyJkI/lLCn4Cua4dh4&#xA;Ab9Xz/Y5B1s/JM4IIYIxHCgRB0UZtMWKOOPDEUHGlIyNlfljFAXeh6fdOZGQpIftMhpX6Nxmu1HZ&#xA;eHKbIo+TkY9TOIpba6Bp1u4cKZGHQyGtPoAAyODsnBjN1xHzTPVTkK5JjmzcZbLFHLGY5FDo3VTu&#xA;MhkxxmKkLCYyINhK38s6az8gZEH8oYU/EE5qpdiYCb9Q+P7HKGtn5I60sLS0UrBGFr9purH5k5n6&#xA;fSY8IqApoyZZT5lEZktaFvdMs7wD1kqw2DjZh9OYmp0WLN9Y37+rbjzShyKEi8taaj8jzk/yWYU/&#xA;ADMPH2JgibNn3n9VN0tZM+SaIiIoRFCquwUbAZtYxERQ2Dik3zbIrsemSQllx5d02ZywVoieojIA&#xA;+4g5qs3Y+CZujH3OVDVzHmrWej2No3ONOUg6O5qR8uwy/TdnYcJuI37ywyaic9jyRuZzQpXNrb3M&#xA;fpzoHXtXqPke2U5sEMseGYsM4TMTYS7/AAzp3PlWSn8vIU/VXNb/ACHgu/V8/wBjkfnZ+SZW9tBb&#xA;RiOBAiDsO/zObPDghijwwFBxpzMjZVMtYoK80awu2LyIVkPV0NCfn2zA1PZuHMbkKl3hvx6mcNhy&#xA;Urfy9psLh+LSkdPUNR9wAGVYex8EDdGXvZT1c5eSZUFKdvDNpTjOxV2KuxVTubiO3geaQ0RBU/0y&#xA;rNmjjgZy5BlCBkaDFbvX9QnclHMMf7KJsfpPXOR1Ha2bIdjwjydtj0sIjfcrbbXdRgcFpDKndH3r&#xA;9PUZHB2rngbJ4h3FM9LCQ5Uyqzu4ru3WeL7LdQeoI6g512m1Ec0BOPV1OTGYGigtZ1gWKiOMBp3F&#xA;RXoo8TmD2l2j4A4Y7zP2N+m0/HueTHX1fU2YsbhwT2BoPuGc1LtHOTfGXYjTwHRM9J8wSmVYLs8l&#xA;c0WXoQT0rTNr2f2vIyEMu99f1uLqNIKuLIiabnpnSuuYzqXmK4eRo7RvTiU09Qfab336DOV1vbE5&#xA;SMcZqPf1LtMOkAFy5oGPWNTjYMLhm9mPIfccwIdpZ4m+I/HdvOngejJdI1Rb+E1AWZKeoo6b9xnU&#xA;9n68aiO+0hzdZqMHhnyVtRv4rK3Mr7noieJy7WauOCHEfgGGHEZyoMWn1vUpnLesYx2VPhAzksva&#xA;meZvir3bO1jpoAclax8wXkEgE7GaE/aB+0Pkcv0vbGWB9Z4o/a15dJGQ22LKopEljWRDyRwCp9jn&#xA;XQmJxEhyLqpAg0Um1rXXt5DbW1PVH25Dvxr2A8c0fafapxy4Mf1dT3ObptKJDilySX9Laly5fWXr&#xA;89vu6Zo/5Qz3fGXN/Lw7gnei641y4t7mnrEfA425U7EeOb7sztQ5TwT+roe9wdTpeEcUeSdZvHCd&#xA;irsVdirsVdirsVSfzQziwQD7JkHL7jml7dJ8Ed3F+guZoR6z7mL5yTtXYqyTyqW9Cdf2QwI+ZG/6&#xA;s6jsAngkOlut1w3CVa8WOqz8u3ED5cRmo7WJOolfl9wcrS/3YQGa5yHYqzO8eX9DyP8A7sMNW+ld&#xA;87jUyl+WJ/i4P0bulxgeIO62GZw7unYqmvlosNSoOhRuXy2zcdiE+P8AAuJrfo+KJ81lvVt1/Z4s&#xA;R86iuZPb5PFAdKLXoORSHOec92Ksu8vM50uPl0BYL8q52fY5J04vz+90+rH7wsWuyzXUxb7Rdq18&#xA;a5yWoJOSRPOy7XH9I9yllLNWsWdb2Ap9r1Fp94zI0pIyxrnxD72GUek33M6zv3QuxV2KuxV2KuxV&#xA;2KqF9Zpd2rwPty+y3gw6HMfV6YZsZgerZiyGErYbd2F1aOUmQgdn/ZPyOcTqNJkwmpD9TuceWMxs&#xA;WrazublwkEZc9z2HzORwabJlNQFpnkjEWSzDTLBbK1WEHk1eTt4sc7XRaQYMYj16+902bLxytL9f&#xA;0iS4IubccpVFJE7sB0I981va3Z0sn7yH1dR3uRpdQI+k8mNOjoxV1KsOqkUOcvKJiaIouzBB5Jnp&#xA;Oiz3MqyTIUt1NTyFC3sBm17P7MnlkJSFQ+9xdRqREUObK2RWUowqrChHiDnXyiCKPJ1QNMP1PR7m&#xA;zkYqpe3r8Mg3oPBvDOL1vZ08MjQuHf8Ardxh1EZjzQUcUkrBI0LsegUVP4ZgQxykaiLLeZAc2U6F&#xA;pT2cbSzCk8gpx/lXrTOt7K0Bwgyl9cvsDqtVn4zQ5BX1jTRfW3FSBNGaxk9PcH55f2jovHhQ+ocm&#xA;vT5uCXkxGe2ngcpNGUYdiP1ZxuXDPGakKLuIzEhYKtY6ZdXkgWNCE/alI+EDL9LocmY1Ebd/Rhlz&#xA;RgN2ZW1vHbwJDH9hBQf1ztsGEY4CA5B0s5mRspBrujTeu11boXR95EXchu5p4HOd7V7NlxnJAWDz&#xA;DsNLqRXDJI+LcuNDy6U75oeE3XVz7T3QtGmEy3VypRU3jQ7EnxI7UzoOyuzZCQyTFVyDr9VqRXDF&#xA;kWdK652KuxV2Kv8A/9k=</xmpGImg:image>
               </rdf:li>
            </rdf:Alt>
         </xmp:Thumbnails>
         <xmpTPg:MaxPageSize rdf:parseType="Resource">
            <stDim:w>1000.000000</stDim:w>
            <stDim:h>1000.000000</stDim:h>
            <stDim:unit>Pixels</stDim:unit>
         </xmpTPg:MaxPageSize>
         <xmpTPg:NPages>1</xmpTPg:NPages>
         <xmpTPg:HasVisibleTransparency>False</xmpTPg:HasVisibleTransparency>
         <xmpTPg:HasVisibleOverprint>False</xmpTPg:HasVisibleOverprint>
         <xmpTPg:PlateNames>
            <rdf:Seq>
               <rdf:li>Cyan</rdf:li>
               <rdf:li>Magenta</rdf:li>
               <rdf:li>Yellow</rdf:li>
            </rdf:Seq>
         </xmpTPg:PlateNames>
         <xmpTPg:SwatchGroups>
            <rdf:Seq>
               <rdf:li rdf:parseType="Resource">
                  <xmpG:groupName>預設色票群組</xmpG:groupName>
                  <xmpG:groupType>0</xmpG:groupType>
                  <xmpG:Colorants>
                     <rdf:Seq>
                        <rdf:li rdf:parseType="Resource">
                           <xmpG:swatchName>R=255 G=204 B=84</xmpG:swatchName>
                           <xmpG:type>PROCESS</xmpG:type>
                           <xmpG:tint>100.000000</xmpG:tint>
                           <xmpG:mode>RGB</xmpG:mode>
                           <xmpG:red>255</xmpG:red>
                           <xmpG:green>205</xmpG:green>
                           <xmpG:blue>71</xmpG:blue>
                        </rdf:li>
                     </rdf:Seq>
                  </xmpG:Colorants>
               </rdf:li>
            </rdf:Seq>
         </xmpTPg:SwatchGroups>
         <dc:format>image/svg+xml</dc:format>
         <xmpMM:DerivedFrom rdf:parseType="Resource">
            <stRef:instanceID>xmp.iid:9fb9efc7-e45a-48ae-bba4-79a07c3ac4be</stRef:instanceID>
            <stRef:documentID>xmp.did:9fb9efc7-e45a-48ae-bba4-79a07c3ac4be</stRef:documentID>
            <stRef:originalDocumentID>xmp.did:9fb9efc7-e45a-48ae-bba4-79a07c3ac4be</stRef:originalDocumentID>
         </xmpMM:DerivedFrom>
         <xmpMM:DocumentID>xmp.did:987b57c2-0554-48f8-ae1b-e3ff206c39a8</xmpMM:DocumentID>
         <xmpMM:InstanceID>xmp.iid:987b57c2-0554-48f8-ae1b-e3ff206c39a8</xmpMM:InstanceID>
         <xmpMM:OriginalDocumentID>xmp.did:9fb9efc7-e45a-48ae-bba4-79a07c3ac4be</xmpMM:OriginalDocumentID>
         <xmpMM:History>
            <rdf:Seq>
               <rdf:li rdf:parseType="Resource">
                  <stEvt:action>saved</stEvt:action>
                  <stEvt:instanceID>xmp.iid:9fb9efc7-e45a-48ae-bba4-79a07c3ac4be</stEvt:instanceID>
                  <stEvt:when>2026-03-13T11:16:44+08:00</stEvt:when>
                  <stEvt:softwareAgent>Adobe Illustrator 30.2 (Macintosh)</stEvt:softwareAgent>
                  <stEvt:changed>/</stEvt:changed>
               </rdf:li>
               <rdf:li rdf:parseType="Resource">
                  <stEvt:action>saved</stEvt:action>
                  <stEvt:instanceID>xmp.iid:987b57c2-0554-48f8-ae1b-e3ff206c39a8</stEvt:instanceID>
                  <stEvt:when>2026-03-13T11:17:14+08:00</stEvt:when>
                  <stEvt:softwareAgent>Adobe Illustrator 30.2 (Macintosh)</stEvt:softwareAgent>
                  <stEvt:changed>/</stEvt:changed>
               </rdf:li>
            </rdf:Seq>
         </xmpMM:History>
      </rdf:Description>
   </rdf:RDF>
</x:xmpmeta>
                                                                                                    
                                                                                                    
                                                                                                    
                                                                                                    
                                                                                                    
                                                                                                    
                                                                                                    
                                                                                                    
                                                                                                    
                                                                                                    
                                                                                                    
                                                                                                    
                                                                                                    
                                                                                                    
                                                                                                    
                                                                                                    
                                                                                                    
                                                                                                    
                                                                                                    
                                                                                                    
                           
<?xpacket end="w"?>
  </metadata>
</svg>